<svg xmlns="http://www.w3.org/2000/svg" xmlns:xlink="http://www.w3.org/1999/xlink" width="600" height="400" viewBox="0 0 2400 1600">
<defs>
  <clipPath id="clip870">
    <rect x="0" y="0" width="2400" height="1600"></rect>
  </clipPath>
</defs>
<path clip-path="url(#clip870)" d="M0 1600 L2400 1600 L2400 0 L0 0  Z" fill="#ffffff" fill-rule="evenodd" fill-opacity="1"></path>
<defs>
  <clipPath id="clip871">
    <rect x="480" y="0" width="1681" height="1600"></rect>
  </clipPath>
</defs>
<path clip-path="url(#clip870)" d="M265.445 1423.18 L2352.76 1423.18 L2352.76 47.2441 L265.445 47.2441  Z" fill="#ffffff" fill-rule="evenodd" fill-opacity="1"></path>
<defs>
  <clipPath id="clip872">
    <rect x="265" y="47" width="2088" height="1377"></rect>
  </clipPath>
</defs>
<polyline clip-path="url(#clip872)" style="stroke:#000000; stroke-linecap:round; stroke-linejoin:round; stroke-width:2; stroke-opacity:0.1; fill:none" points="314.369,1423.18 314.369,47.2441 "></polyline>
<polyline clip-path="url(#clip872)" style="stroke:#000000; stroke-linecap:round; stroke-linejoin:round; stroke-width:2; stroke-opacity:0.1; fill:none" points="821.885,1423.18 821.885,47.2441 "></polyline>
<polyline clip-path="url(#clip872)" style="stroke:#000000; stroke-linecap:round; stroke-linejoin:round; stroke-width:2; stroke-opacity:0.1; fill:none" points="1329.4,1423.18 1329.4,47.2441 "></polyline>
<polyline clip-path="url(#clip872)" style="stroke:#000000; stroke-linecap:round; stroke-linejoin:round; stroke-width:2; stroke-opacity:0.1; fill:none" points="1836.92,1423.18 1836.92,47.2441 "></polyline>
<polyline clip-path="url(#clip872)" style="stroke:#000000; stroke-linecap:round; stroke-linejoin:round; stroke-width:2; stroke-opacity:0.1; fill:none" points="2344.43,1423.18 2344.43,47.2441 "></polyline>
<polyline clip-path="url(#clip870)" style="stroke:#000000; stroke-linecap:round; stroke-linejoin:round; stroke-width:4; stroke-opacity:1; fill:none" points="265.445,1423.18 2352.76,1423.18 "></polyline>
<polyline clip-path="url(#clip870)" style="stroke:#000000; stroke-linecap:round; stroke-linejoin:round; stroke-width:4; stroke-opacity:1; fill:none" points="314.369,1423.18 314.369,1404.28 "></polyline>
<polyline clip-path="url(#clip870)" style="stroke:#000000; stroke-linecap:round; stroke-linejoin:round; stroke-width:4; stroke-opacity:1; fill:none" points="821.885,1423.18 821.885,1404.28 "></polyline>
<polyline clip-path="url(#clip870)" style="stroke:#000000; stroke-linecap:round; stroke-linejoin:round; stroke-width:4; stroke-opacity:1; fill:none" points="1329.4,1423.18 1329.4,1404.28 "></polyline>
<polyline clip-path="url(#clip870)" style="stroke:#000000; stroke-linecap:round; stroke-linejoin:round; stroke-width:4; stroke-opacity:1; fill:none" points="1836.92,1423.18 1836.92,1404.28 "></polyline>
<polyline clip-path="url(#clip870)" style="stroke:#000000; stroke-linecap:round; stroke-linejoin:round; stroke-width:4; stroke-opacity:1; fill:none" points="2344.43,1423.18 2344.43,1404.28 "></polyline>
<path clip-path="url(#clip870)" d="M314.369 1454.1 Q310.758 1454.1 308.929 1457.66 Q307.124 1461.2 307.124 1468.33 Q307.124 1475.44 308.929 1479.01 Q310.758 1482.55 314.369 1482.55 Q318.003 1482.55 319.809 1479.01 Q321.638 1475.44 321.638 1468.33 Q321.638 1461.2 319.809 1457.66 Q318.003 1454.1 314.369 1454.1 M314.369 1450.39 Q320.179 1450.39 323.235 1455 Q326.314 1459.58 326.314 1468.33 Q326.314 1477.06 323.235 1481.67 Q320.179 1486.25 314.369 1486.25 Q308.559 1486.25 305.48 1481.67 Q302.425 1477.06 302.425 1468.33 Q302.425 1459.58 305.48 1455 Q308.559 1450.39 314.369 1450.39 Z" fill="#000000" fill-rule="nonzero" fill-opacity="1"></path><path clip-path="url(#clip870)" d="M796.584 1451.02 L814.941 1451.02 L814.941 1454.96 L800.867 1454.96 L800.867 1463.43 Q801.885 1463.08 802.904 1462.92 Q803.922 1462.73 804.941 1462.73 Q810.728 1462.73 814.107 1465.9 Q817.487 1469.08 817.487 1474.49 Q817.487 1480.07 814.015 1483.17 Q810.543 1486.25 804.223 1486.25 Q802.047 1486.25 799.779 1485.88 Q797.533 1485.51 795.126 1484.77 L795.126 1480.07 Q797.209 1481.2 799.432 1481.76 Q801.654 1482.32 804.131 1482.32 Q808.135 1482.32 810.473 1480.21 Q812.811 1478.1 812.811 1474.49 Q812.811 1470.88 810.473 1468.77 Q808.135 1466.67 804.131 1466.67 Q802.256 1466.67 800.381 1467.08 Q798.529 1467.5 796.584 1468.38 L796.584 1451.02 Z" fill="#000000" fill-rule="nonzero" fill-opacity="1"></path><path clip-path="url(#clip870)" d="M836.7 1454.1 Q833.089 1454.1 831.26 1457.66 Q829.455 1461.2 829.455 1468.33 Q829.455 1475.44 831.26 1479.01 Q833.089 1482.55 836.7 1482.55 Q840.334 1482.55 842.14 1479.01 Q843.968 1475.44 843.968 1468.33 Q843.968 1461.2 842.14 1457.66 Q840.334 1454.1 836.7 1454.1 M836.7 1450.39 Q842.51 1450.39 845.566 1455 Q848.644 1459.58 848.644 1468.33 Q848.644 1477.06 845.566 1481.67 Q842.51 1486.25 836.7 1486.25 Q830.89 1486.25 827.811 1481.67 Q824.755 1477.06 824.755 1468.33 Q824.755 1459.58 827.811 1455 Q830.89 1450.39 836.7 1450.39 Z" fill="#000000" fill-rule="nonzero" fill-opacity="1"></path><path clip-path="url(#clip870)" d="M1289.01 1481.64 L1296.65 1481.64 L1296.65 1455.28 L1288.34 1456.95 L1288.34 1452.69 L1296.6 1451.02 L1301.28 1451.02 L1301.28 1481.64 L1308.91 1481.64 L1308.91 1485.58 L1289.01 1485.58 L1289.01 1481.64 Z" fill="#000000" fill-rule="nonzero" fill-opacity="1"></path><path clip-path="url(#clip870)" d="M1328.36 1454.1 Q1324.75 1454.1 1322.92 1457.66 Q1321.11 1461.2 1321.11 1468.33 Q1321.11 1475.44 1322.92 1479.01 Q1324.75 1482.55 1328.36 1482.55 Q1331.99 1482.55 1333.8 1479.01 Q1335.63 1475.44 1335.63 1468.33 Q1335.63 1461.2 1333.8 1457.66 Q1331.99 1454.1 1328.36 1454.1 M1328.36 1450.39 Q1334.17 1450.39 1337.22 1455 Q1340.3 1459.58 1340.3 1468.33 Q1340.3 1477.06 1337.22 1481.67 Q1334.17 1486.25 1328.36 1486.25 Q1322.55 1486.25 1319.47 1481.67 Q1316.41 1477.06 1316.41 1468.33 Q1316.41 1459.58 1319.47 1455 Q1322.55 1450.39 1328.36 1450.39 Z" fill="#000000" fill-rule="nonzero" fill-opacity="1"></path><path clip-path="url(#clip870)" d="M1358.52 1454.1 Q1354.91 1454.1 1353.08 1457.66 Q1351.28 1461.2 1351.28 1468.33 Q1351.28 1475.44 1353.08 1479.01 Q1354.91 1482.55 1358.52 1482.55 Q1362.16 1482.55 1363.96 1479.01 Q1365.79 1475.44 1365.79 1468.33 Q1365.79 1461.2 1363.96 1457.66 Q1362.16 1454.1 1358.52 1454.1 M1358.52 1450.39 Q1364.33 1450.39 1367.39 1455 Q1370.47 1459.58 1370.47 1468.33 Q1370.47 1477.06 1367.39 1481.67 Q1364.33 1486.25 1358.52 1486.25 Q1352.71 1486.25 1349.63 1481.67 Q1346.58 1477.06 1346.58 1468.33 Q1346.58 1459.58 1349.63 1455 Q1352.71 1450.39 1358.52 1450.39 Z" fill="#000000" fill-rule="nonzero" fill-opacity="1"></path><path clip-path="url(#clip870)" d="M1796.52 1481.64 L1804.16 1481.64 L1804.16 1455.28 L1795.85 1456.95 L1795.85 1452.69 L1804.12 1451.02 L1808.79 1451.02 L1808.79 1481.64 L1816.43 1481.64 L1816.43 1485.58 L1796.52 1485.58 L1796.52 1481.64 Z" fill="#000000" fill-rule="nonzero" fill-opacity="1"></path><path clip-path="url(#clip870)" d="M1825.92 1451.02 L1844.28 1451.02 L1844.28 1454.96 L1830.2 1454.96 L1830.2 1463.43 Q1831.22 1463.08 1832.24 1462.92 Q1833.26 1462.73 1834.28 1462.73 Q1840.06 1462.73 1843.44 1465.9 Q1846.82 1469.08 1846.82 1474.49 Q1846.82 1480.07 1843.35 1483.17 Q1839.88 1486.25 1833.56 1486.25 Q1831.38 1486.25 1829.12 1485.88 Q1826.87 1485.51 1824.46 1484.77 L1824.46 1480.07 Q1826.55 1481.2 1828.77 1481.76 Q1830.99 1482.32 1833.47 1482.32 Q1837.47 1482.32 1839.81 1480.21 Q1842.15 1478.1 1842.15 1474.49 Q1842.15 1470.88 1839.81 1468.77 Q1837.47 1466.67 1833.47 1466.67 Q1831.59 1466.67 1829.72 1467.08 Q1827.87 1467.5 1825.92 1468.38 L1825.92 1451.02 Z" fill="#000000" fill-rule="nonzero" fill-opacity="1"></path><path clip-path="url(#clip870)" d="M1866.04 1454.1 Q1862.43 1454.1 1860.6 1457.66 Q1858.79 1461.2 1858.79 1468.33 Q1858.79 1475.44 1860.6 1479.01 Q1862.43 1482.55 1866.04 1482.55 Q1869.67 1482.55 1871.48 1479.01 Q1873.31 1475.44 1873.31 1468.33 Q1873.31 1461.2 1871.48 1457.66 Q1869.67 1454.1 1866.04 1454.1 M1866.04 1450.39 Q1871.85 1450.39 1874.9 1455 Q1877.98 1459.58 1877.98 1468.33 Q1877.98 1477.06 1874.9 1481.67 Q1871.85 1486.25 1866.04 1486.25 Q1860.23 1486.25 1857.15 1481.67 Q1854.09 1477.06 1854.09 1468.33 Q1854.09 1459.58 1857.15 1455 Q1860.23 1450.39 1866.04 1450.39 Z" fill="#000000" fill-rule="nonzero" fill-opacity="1"></path><path clip-path="url(#clip870)" d="M2308.12 1481.64 L2324.44 1481.64 L2324.44 1485.58 L2302.5 1485.58 L2302.5 1481.64 Q2305.16 1478.89 2309.75 1474.26 Q2314.35 1469.61 2315.53 1468.27 Q2317.78 1465.74 2318.66 1464.01 Q2319.56 1462.25 2319.56 1460.56 Q2319.56 1457.8 2317.62 1456.07 Q2315.69 1454.33 2312.59 1454.33 Q2310.39 1454.33 2307.94 1455.09 Q2305.51 1455.86 2302.73 1457.41 L2302.73 1452.69 Q2305.56 1451.55 2308.01 1450.97 Q2310.46 1450.39 2312.5 1450.39 Q2317.87 1450.39 2321.06 1453.08 Q2324.26 1455.77 2324.26 1460.26 Q2324.26 1462.39 2323.45 1464.31 Q2322.66 1466.2 2320.56 1468.8 Q2319.98 1469.47 2316.87 1472.69 Q2313.77 1475.88 2308.12 1481.64 Z" fill="#000000" fill-rule="nonzero" fill-opacity="1"></path><path clip-path="url(#clip870)" d="M2344.26 1454.1 Q2340.65 1454.1 2338.82 1457.66 Q2337.01 1461.2 2337.01 1468.33 Q2337.01 1475.44 2338.82 1479.01 Q2340.65 1482.55 2344.26 1482.55 Q2347.89 1482.55 2349.7 1479.01 Q2351.53 1475.44 2351.53 1468.33 Q2351.53 1461.2 2349.7 1457.66 Q2347.89 1454.1 2344.26 1454.1 M2344.26 1450.39 Q2350.07 1450.39 2353.12 1455 Q2356.2 1459.58 2356.2 1468.33 Q2356.2 1477.06 2353.12 1481.67 Q2350.07 1486.25 2344.26 1486.25 Q2338.45 1486.25 2335.37 1481.67 Q2332.31 1477.06 2332.31 1468.33 Q2332.31 1459.58 2335.37 1455 Q2338.45 1450.39 2344.26 1450.39 Z" fill="#000000" fill-rule="nonzero" fill-opacity="1"></path><path clip-path="url(#clip870)" d="M2374.42 1454.1 Q2370.81 1454.1 2368.98 1457.66 Q2367.18 1461.2 2367.18 1468.33 Q2367.18 1475.44 2368.98 1479.01 Q2370.81 1482.55 2374.42 1482.55 Q2378.06 1482.55 2379.86 1479.01 Q2381.69 1475.44 2381.69 1468.33 Q2381.69 1461.2 2379.86 1457.66 Q2378.06 1454.1 2374.42 1454.1 M2374.42 1450.39 Q2380.23 1450.39 2383.29 1455 Q2386.37 1459.58 2386.37 1468.33 Q2386.37 1477.06 2383.29 1481.67 Q2380.23 1486.25 2374.42 1486.25 Q2368.61 1486.25 2365.53 1481.67 Q2362.48 1477.06 2362.48 1468.33 Q2362.48 1459.58 2365.53 1455 Q2368.61 1450.39 2374.42 1450.39 Z" fill="#000000" fill-rule="nonzero" fill-opacity="1"></path><path clip-path="url(#clip870)" d="M1249.21 1525.81 L1249.21 1562.76 L1256.98 1562.76 Q1266.82 1562.76 1271.37 1558.3 Q1275.95 1553.85 1275.95 1544.24 Q1275.95 1534.69 1271.37 1530.26 Q1266.82 1525.81 1256.98 1525.81 L1249.21 1525.81 M1242.79 1520.52 L1255.99 1520.52 Q1269.81 1520.52 1276.27 1526.28 Q1282.73 1532.01 1282.73 1544.24 Q1282.73 1556.52 1276.24 1562.28 Q1269.74 1568.04 1255.99 1568.04 L1242.79 1568.04 L1242.79 1520.52 Z" fill="#000000" fill-rule="nonzero" fill-opacity="1"></path><path clip-path="url(#clip870)" d="M1300.08 1515.91 L1306.41 1515.91 L1296.03 1527.88 L1291.16 1527.88 L1300.08 1515.91 M1292.72 1532.4 L1298.58 1532.4 L1298.58 1568.04 L1292.72 1568.04 L1292.72 1532.4 M1295.65 1531.54 L1295.65 1531.54 Z" fill="#000000" fill-rule="nonzero" fill-opacity="1"></path><path clip-path="url(#clip870)" d="M1327.04 1550.12 Q1319.94 1550.12 1317.2 1551.75 Q1314.46 1553.37 1314.46 1557.29 Q1314.46 1560.4 1316.5 1562.25 Q1318.57 1564.07 1322.1 1564.07 Q1326.97 1564.07 1329.9 1560.63 Q1332.86 1557.16 1332.86 1551.43 L1332.86 1550.12 L1327.04 1550.12 M1338.72 1547.71 L1338.72 1568.04 L1332.86 1568.04 L1332.86 1562.63 Q1330.86 1565.88 1327.86 1567.44 Q1324.87 1568.97 1320.54 1568.97 Q1315.07 1568.97 1311.82 1565.91 Q1308.61 1562.82 1308.61 1557.67 Q1308.61 1551.65 1312.62 1548.6 Q1316.66 1545.54 1324.65 1545.54 L1332.86 1545.54 L1332.86 1544.97 Q1332.86 1540.93 1330.19 1538.73 Q1327.54 1536.5 1322.74 1536.5 Q1319.68 1536.5 1316.79 1537.23 Q1313.89 1537.97 1311.22 1539.43 L1311.22 1534.02 Q1314.43 1532.78 1317.46 1532.17 Q1320.48 1531.54 1323.34 1531.54 Q1331.08 1531.54 1334.9 1535.55 Q1338.72 1539.56 1338.72 1547.71 Z" fill="#000000" fill-rule="nonzero" fill-opacity="1"></path><path clip-path="url(#clip870)" d="M1373.51 1533.45 L1373.51 1538.98 Q1371.02 1537.71 1368.35 1537.07 Q1365.68 1536.44 1362.81 1536.44 Q1358.45 1536.44 1356.25 1537.77 Q1354.09 1539.11 1354.09 1541.79 Q1354.09 1543.82 1355.65 1545 Q1357.21 1546.15 1361.92 1547.2 L1363.92 1547.64 Q1370.16 1548.98 1372.77 1551.43 Q1375.42 1553.85 1375.42 1558.21 Q1375.42 1563.17 1371.47 1566.07 Q1367.55 1568.97 1360.68 1568.97 Q1357.81 1568.97 1354.69 1568.39 Q1351.61 1567.85 1348.17 1566.74 L1348.17 1560.69 Q1351.42 1562.38 1354.57 1563.24 Q1357.72 1564.07 1360.81 1564.07 Q1364.94 1564.07 1367.17 1562.66 Q1369.4 1561.23 1369.4 1558.65 Q1369.4 1556.27 1367.78 1554.99 Q1366.18 1553.72 1360.74 1552.54 L1358.71 1552.07 Q1353.26 1550.92 1350.84 1548.56 Q1348.42 1546.18 1348.42 1542.04 Q1348.42 1537.01 1351.99 1534.27 Q1355.55 1531.54 1362.11 1531.54 Q1365.36 1531.54 1368.22 1532.01 Q1371.09 1532.49 1373.51 1533.45 Z" fill="#000000" fill-rule="nonzero" fill-opacity="1"></path><polyline clip-path="url(#clip872)" style="stroke:#000000; stroke-linecap:round; stroke-linejoin:round; stroke-width:2; stroke-opacity:0.1; fill:none" points="265.445,1384.24 2352.76,1384.24 "></polyline>
<polyline clip-path="url(#clip872)" style="stroke:#000000; stroke-linecap:round; stroke-linejoin:round; stroke-width:2; stroke-opacity:0.1; fill:none" points="265.445,1112.57 2352.76,1112.57 "></polyline>
<polyline clip-path="url(#clip872)" style="stroke:#000000; stroke-linecap:round; stroke-linejoin:round; stroke-width:2; stroke-opacity:0.1; fill:none" points="265.445,840.893 2352.76,840.893 "></polyline>
<polyline clip-path="url(#clip872)" style="stroke:#000000; stroke-linecap:round; stroke-linejoin:round; stroke-width:2; stroke-opacity:0.1; fill:none" points="265.445,569.22 2352.76,569.22 "></polyline>
<polyline clip-path="url(#clip872)" style="stroke:#000000; stroke-linecap:round; stroke-linejoin:round; stroke-width:2; stroke-opacity:0.1; fill:none" points="265.445,297.547 2352.76,297.547 "></polyline>
<polyline clip-path="url(#clip870)" style="stroke:#000000; stroke-linecap:round; stroke-linejoin:round; stroke-width:4; stroke-opacity:1; fill:none" points="265.445,1423.18 265.445,47.2441 "></polyline>
<polyline clip-path="url(#clip870)" style="stroke:#000000; stroke-linecap:round; stroke-linejoin:round; stroke-width:4; stroke-opacity:1; fill:none" points="265.445,1384.24 284.342,1384.24 "></polyline>
<polyline clip-path="url(#clip870)" style="stroke:#000000; stroke-linecap:round; stroke-linejoin:round; stroke-width:4; stroke-opacity:1; fill:none" points="265.445,1112.57 284.342,1112.57 "></polyline>
<polyline clip-path="url(#clip870)" style="stroke:#000000; stroke-linecap:round; stroke-linejoin:round; stroke-width:4; stroke-opacity:1; fill:none" points="265.445,840.893 284.342,840.893 "></polyline>
<polyline clip-path="url(#clip870)" style="stroke:#000000; stroke-linecap:round; stroke-linejoin:round; stroke-width:4; stroke-opacity:1; fill:none" points="265.445,569.22 284.342,569.22 "></polyline>
<polyline clip-path="url(#clip870)" style="stroke:#000000; stroke-linecap:round; stroke-linejoin:round; stroke-width:4; stroke-opacity:1; fill:none" points="265.445,297.547 284.342,297.547 "></polyline>
<path clip-path="url(#clip870)" d="M217.5 1370.04 Q213.889 1370.04 212.061 1373.6 Q210.255 1377.14 210.255 1384.27 Q210.255 1391.38 212.061 1394.94 Q213.889 1398.49 217.5 1398.49 Q221.135 1398.49 222.94 1394.94 Q224.769 1391.38 224.769 1384.27 Q224.769 1377.14 222.94 1373.6 Q221.135 1370.04 217.5 1370.04 M217.5 1366.33 Q223.31 1366.33 226.366 1370.94 Q229.445 1375.52 229.445 1384.27 Q229.445 1393 226.366 1397.61 Q223.31 1402.19 217.5 1402.19 Q211.69 1402.19 208.612 1397.61 Q205.556 1393 205.556 1384.27 Q205.556 1375.52 208.612 1370.94 Q211.69 1366.33 217.5 1366.33 Z" fill="#000000" fill-rule="nonzero" fill-opacity="1"></path><path clip-path="url(#clip870)" d="M121.043 1125.91 L137.362 1125.91 L137.362 1129.85 L115.418 1129.85 L115.418 1125.91 Q118.08 1123.16 122.663 1118.53 Q127.269 1113.87 128.45 1112.53 Q130.695 1110.01 131.575 1108.27 Q132.478 1106.51 132.478 1104.82 Q132.478 1102.07 130.533 1100.33 Q128.612 1098.6 125.51 1098.6 Q123.311 1098.6 120.857 1099.36 Q118.427 1100.12 115.649 1101.67 L115.649 1096.95 Q118.473 1095.82 120.927 1095.24 Q123.38 1094.66 125.418 1094.66 Q130.788 1094.66 133.982 1097.35 Q137.177 1100.03 137.177 1104.52 Q137.177 1106.65 136.367 1108.57 Q135.579 1110.47 133.473 1113.06 Q132.894 1113.73 129.792 1116.95 Q126.691 1120.15 121.043 1125.91 Z" fill="#000000" fill-rule="nonzero" fill-opacity="1"></path><path clip-path="url(#clip870)" d="M157.177 1098.36 Q153.566 1098.36 151.737 1101.93 Q149.931 1105.47 149.931 1112.6 Q149.931 1119.71 151.737 1123.27 Q153.566 1126.81 157.177 1126.81 Q160.811 1126.81 162.616 1123.27 Q164.445 1119.71 164.445 1112.6 Q164.445 1105.47 162.616 1101.93 Q160.811 1098.36 157.177 1098.36 M157.177 1094.66 Q162.987 1094.66 166.042 1099.27 Q169.121 1103.85 169.121 1112.6 Q169.121 1121.33 166.042 1125.93 Q162.987 1130.52 157.177 1130.52 Q151.366 1130.52 148.288 1125.93 Q145.232 1121.33 145.232 1112.6 Q145.232 1103.85 148.288 1099.27 Q151.366 1094.66 157.177 1094.66 Z" fill="#000000" fill-rule="nonzero" fill-opacity="1"></path><path clip-path="url(#clip870)" d="M187.338 1098.36 Q183.727 1098.36 181.899 1101.93 Q180.093 1105.47 180.093 1112.6 Q180.093 1119.71 181.899 1123.27 Q183.727 1126.81 187.338 1126.81 Q190.973 1126.81 192.778 1123.27 Q194.607 1119.71 194.607 1112.6 Q194.607 1105.47 192.778 1101.93 Q190.973 1098.36 187.338 1098.36 M187.338 1094.66 Q193.149 1094.66 196.204 1099.27 Q199.283 1103.85 199.283 1112.6 Q199.283 1121.33 196.204 1125.93 Q193.149 1130.52 187.338 1130.52 Q181.528 1130.52 178.45 1125.93 Q175.394 1121.33 175.394 1112.6 Q175.394 1103.85 178.45 1099.27 Q181.528 1094.66 187.338 1094.66 Z" fill="#000000" fill-rule="nonzero" fill-opacity="1"></path><path clip-path="url(#clip870)" d="M217.5 1098.36 Q213.889 1098.36 212.061 1101.93 Q210.255 1105.47 210.255 1112.6 Q210.255 1119.71 212.061 1123.27 Q213.889 1126.81 217.5 1126.81 Q221.135 1126.81 222.94 1123.27 Q224.769 1119.71 224.769 1112.6 Q224.769 1105.47 222.94 1101.93 Q221.135 1098.36 217.5 1098.36 M217.5 1094.66 Q223.31 1094.66 226.366 1099.27 Q229.445 1103.85 229.445 1112.6 Q229.445 1121.33 226.366 1125.93 Q223.31 1130.52 217.5 1130.52 Q211.69 1130.52 208.612 1125.93 Q205.556 1121.33 205.556 1112.6 Q205.556 1103.85 208.612 1099.27 Q211.69 1094.66 217.5 1094.66 Z" fill="#000000" fill-rule="nonzero" fill-opacity="1"></path><path clip-path="url(#clip870)" d="M129.862 827.687 L118.056 846.136 L129.862 846.136 L129.862 827.687 M128.635 823.613 L134.515 823.613 L134.515 846.136 L139.445 846.136 L139.445 850.025 L134.515 850.025 L134.515 858.173 L129.862 858.173 L129.862 850.025 L114.26 850.025 L114.26 845.511 L128.635 823.613 Z" fill="#000000" fill-rule="nonzero" fill-opacity="1"></path><path clip-path="url(#clip870)" d="M157.177 826.691 Q153.566 826.691 151.737 830.256 Q149.931 833.798 149.931 840.927 Q149.931 848.034 151.737 851.599 Q153.566 855.14 157.177 855.14 Q160.811 855.14 162.616 851.599 Q164.445 848.034 164.445 840.927 Q164.445 833.798 162.616 830.256 Q160.811 826.691 157.177 826.691 M157.177 822.988 Q162.987 822.988 166.042 827.594 Q169.121 832.177 169.121 840.927 Q169.121 849.654 166.042 854.261 Q162.987 858.844 157.177 858.844 Q151.366 858.844 148.288 854.261 Q145.232 849.654 145.232 840.927 Q145.232 832.177 148.288 827.594 Q151.366 822.988 157.177 822.988 Z" fill="#000000" fill-rule="nonzero" fill-opacity="1"></path><path clip-path="url(#clip870)" d="M187.338 826.691 Q183.727 826.691 181.899 830.256 Q180.093 833.798 180.093 840.927 Q180.093 848.034 181.899 851.599 Q183.727 855.14 187.338 855.14 Q190.973 855.14 192.778 851.599 Q194.607 848.034 194.607 840.927 Q194.607 833.798 192.778 830.256 Q190.973 826.691 187.338 826.691 M187.338 822.988 Q193.149 822.988 196.204 827.594 Q199.283 832.177 199.283 840.927 Q199.283 849.654 196.204 854.261 Q193.149 858.844 187.338 858.844 Q181.528 858.844 178.45 854.261 Q175.394 849.654 175.394 840.927 Q175.394 832.177 178.45 827.594 Q181.528 822.988 187.338 822.988 Z" fill="#000000" fill-rule="nonzero" fill-opacity="1"></path><path clip-path="url(#clip870)" d="M217.5 826.691 Q213.889 826.691 212.061 830.256 Q210.255 833.798 210.255 840.927 Q210.255 848.034 212.061 851.599 Q213.889 855.14 217.5 855.14 Q221.135 855.14 222.94 851.599 Q224.769 848.034 224.769 840.927 Q224.769 833.798 222.94 830.256 Q221.135 826.691 217.5 826.691 M217.5 822.988 Q223.31 822.988 226.366 827.594 Q229.445 832.177 229.445 840.927 Q229.445 849.654 226.366 854.261 Q223.31 858.844 217.5 858.844 Q211.69 858.844 208.612 854.261 Q205.556 849.654 205.556 840.927 Q205.556 832.177 208.612 827.594 Q211.69 822.988 217.5 822.988 Z" fill="#000000" fill-rule="nonzero" fill-opacity="1"></path><path clip-path="url(#clip870)" d="M127.593 567.356 Q124.445 567.356 122.593 569.509 Q120.765 571.662 120.765 575.412 Q120.765 579.139 122.593 581.315 Q124.445 583.468 127.593 583.468 Q130.742 583.468 132.57 581.315 Q134.422 579.139 134.422 575.412 Q134.422 571.662 132.57 569.509 Q130.742 567.356 127.593 567.356 M136.876 552.704 L136.876 556.963 Q135.117 556.13 133.311 555.69 Q131.529 555.25 129.769 555.25 Q125.14 555.25 122.686 558.375 Q120.255 561.5 119.908 567.819 Q121.274 565.806 123.334 564.741 Q125.394 563.653 127.871 563.653 Q133.08 563.653 136.089 566.824 Q139.121 569.972 139.121 575.412 Q139.121 580.736 135.973 583.954 Q132.825 587.171 127.593 587.171 Q121.598 587.171 118.427 582.588 Q115.256 577.981 115.256 569.255 Q115.256 561.06 119.144 556.199 Q123.033 551.315 129.584 551.315 Q131.343 551.315 133.126 551.662 Q134.931 552.009 136.876 552.704 Z" fill="#000000" fill-rule="nonzero" fill-opacity="1"></path><path clip-path="url(#clip870)" d="M157.177 555.019 Q153.566 555.019 151.737 558.583 Q149.931 562.125 149.931 569.255 Q149.931 576.361 151.737 579.926 Q153.566 583.468 157.177 583.468 Q160.811 583.468 162.616 579.926 Q164.445 576.361 164.445 569.255 Q164.445 562.125 162.616 558.583 Q160.811 555.019 157.177 555.019 M157.177 551.315 Q162.987 551.315 166.042 555.921 Q169.121 560.505 169.121 569.255 Q169.121 577.981 166.042 582.588 Q162.987 587.171 157.177 587.171 Q151.366 587.171 148.288 582.588 Q145.232 577.981 145.232 569.255 Q145.232 560.505 148.288 555.921 Q151.366 551.315 157.177 551.315 Z" fill="#000000" fill-rule="nonzero" fill-opacity="1"></path><path clip-path="url(#clip870)" d="M187.338 555.019 Q183.727 555.019 181.899 558.583 Q180.093 562.125 180.093 569.255 Q180.093 576.361 181.899 579.926 Q183.727 583.468 187.338 583.468 Q190.973 583.468 192.778 579.926 Q194.607 576.361 194.607 569.255 Q194.607 562.125 192.778 558.583 Q190.973 555.019 187.338 555.019 M187.338 551.315 Q193.149 551.315 196.204 555.921 Q199.283 560.505 199.283 569.255 Q199.283 577.981 196.204 582.588 Q193.149 587.171 187.338 587.171 Q181.528 587.171 178.45 582.588 Q175.394 577.981 175.394 569.255 Q175.394 560.505 178.45 555.921 Q181.528 551.315 187.338 551.315 Z" fill="#000000" fill-rule="nonzero" fill-opacity="1"></path><path clip-path="url(#clip870)" d="M217.5 555.019 Q213.889 555.019 212.061 558.583 Q210.255 562.125 210.255 569.255 Q210.255 576.361 212.061 579.926 Q213.889 583.468 217.5 583.468 Q221.135 583.468 222.94 579.926 Q224.769 576.361 224.769 569.255 Q224.769 562.125 222.94 558.583 Q221.135 555.019 217.5 555.019 M217.5 551.315 Q223.31 551.315 226.366 555.921 Q229.445 560.505 229.445 569.255 Q229.445 577.981 226.366 582.588 Q223.31 587.171 217.5 587.171 Q211.69 587.171 208.612 582.588 Q205.556 577.981 205.556 569.255 Q205.556 560.505 208.612 555.921 Q211.69 551.315 217.5 551.315 Z" fill="#000000" fill-rule="nonzero" fill-opacity="1"></path><path clip-path="url(#clip870)" d="M127.015 298.415 Q123.681 298.415 121.76 300.198 Q119.862 301.98 119.862 305.105 Q119.862 308.23 121.76 310.012 Q123.681 311.795 127.015 311.795 Q130.348 311.795 132.269 310.012 Q134.191 308.207 134.191 305.105 Q134.191 301.98 132.269 300.198 Q130.371 298.415 127.015 298.415 M122.339 296.424 Q119.33 295.684 117.64 293.624 Q115.973 291.563 115.973 288.6 Q115.973 284.457 118.913 282.05 Q121.876 279.642 127.015 279.642 Q132.177 279.642 135.117 282.05 Q138.056 284.457 138.056 288.6 Q138.056 291.563 136.367 293.624 Q134.7 295.684 131.714 296.424 Q135.093 297.211 136.968 299.503 Q138.867 301.795 138.867 305.105 Q138.867 310.128 135.788 312.813 Q132.732 315.498 127.015 315.498 Q121.297 315.498 118.218 312.813 Q115.163 310.128 115.163 305.105 Q115.163 301.795 117.061 299.503 Q118.959 297.211 122.339 296.424 M120.626 289.04 Q120.626 291.725 122.293 293.23 Q123.982 294.735 127.015 294.735 Q130.024 294.735 131.714 293.23 Q133.427 291.725 133.427 289.04 Q133.427 286.355 131.714 284.85 Q130.024 283.346 127.015 283.346 Q123.982 283.346 122.293 284.85 Q120.626 286.355 120.626 289.04 Z" fill="#000000" fill-rule="nonzero" fill-opacity="1"></path><path clip-path="url(#clip870)" d="M157.177 283.346 Q153.566 283.346 151.737 286.911 Q149.931 290.452 149.931 297.582 Q149.931 304.688 151.737 308.253 Q153.566 311.795 157.177 311.795 Q160.811 311.795 162.616 308.253 Q164.445 304.688 164.445 297.582 Q164.445 290.452 162.616 286.911 Q160.811 283.346 157.177 283.346 M157.177 279.642 Q162.987 279.642 166.042 284.249 Q169.121 288.832 169.121 297.582 Q169.121 306.309 166.042 310.915 Q162.987 315.498 157.177 315.498 Q151.366 315.498 148.288 310.915 Q145.232 306.309 145.232 297.582 Q145.232 288.832 148.288 284.249 Q151.366 279.642 157.177 279.642 Z" fill="#000000" fill-rule="nonzero" fill-opacity="1"></path><path clip-path="url(#clip870)" d="M187.338 283.346 Q183.727 283.346 181.899 286.911 Q180.093 290.452 180.093 297.582 Q180.093 304.688 181.899 308.253 Q183.727 311.795 187.338 311.795 Q190.973 311.795 192.778 308.253 Q194.607 304.688 194.607 297.582 Q194.607 290.452 192.778 286.911 Q190.973 283.346 187.338 283.346 M187.338 279.642 Q193.149 279.642 196.204 284.249 Q199.283 288.832 199.283 297.582 Q199.283 306.309 196.204 310.915 Q193.149 315.498 187.338 315.498 Q181.528 315.498 178.45 310.915 Q175.394 306.309 175.394 297.582 Q175.394 288.832 178.45 284.249 Q181.528 279.642 187.338 279.642 Z" fill="#000000" fill-rule="nonzero" fill-opacity="1"></path><path clip-path="url(#clip870)" d="M217.5 283.346 Q213.889 283.346 212.061 286.911 Q210.255 290.452 210.255 297.582 Q210.255 304.688 212.061 308.253 Q213.889 311.795 217.5 311.795 Q221.135 311.795 222.94 308.253 Q224.769 304.688 224.769 297.582 Q224.769 290.452 222.94 286.911 Q221.135 283.346 217.5 283.346 M217.5 279.642 Q223.31 279.642 226.366 284.249 Q229.445 288.832 229.445 297.582 Q229.445 306.309 226.366 310.915 Q223.31 315.498 217.5 315.498 Q211.69 315.498 208.612 310.915 Q205.556 306.309 205.556 297.582 Q205.556 288.832 208.612 284.249 Q211.69 279.642 217.5 279.642 Z" fill="#000000" fill-rule="nonzero" fill-opacity="1"></path><path clip-path="url(#clip870)" d="M20.1444 983.681 L26.9239 983.681 Q23.9002 986.928 22.4043 990.62 Q20.9083 994.28 20.9083 998.418 Q20.9083 1006.57 25.9054 1010.89 Q30.8707 1015.22 40.2919 1015.22 Q49.6813 1015.22 54.6784 1010.89 Q59.6436 1006.57 59.6436 998.418 Q59.6436 994.28 58.1477 990.62 Q56.6518 986.928 53.6281 983.681 L60.3439 983.681 Q62.6355 987.055 63.7814 990.843 Q64.9272 994.599 64.9272 998.8 Q64.9272 1009.59 58.3387 1015.8 Q51.7183 1022 40.2919 1022 Q28.8336 1022 22.2451 1015.8 Q15.6248 1009.59 15.6248 998.8 Q15.6248 994.535 16.7706 990.779 Q17.8846 986.992 20.1444 983.681 Z" fill="#000000" fill-rule="nonzero" fill-opacity="1"></path><path clip-path="url(#clip870)" d="M46.0847 957.805 Q46.0847 964.903 47.7079 967.64 Q49.3312 970.377 53.2461 970.377 Q56.3653 970.377 58.2114 968.34 Q60.0256 966.271 60.0256 962.738 Q60.0256 957.868 56.5881 954.94 Q53.1188 951.98 47.3897 951.98 L46.0847 951.98 L46.0847 957.805 M43.6657 946.124 L64.0042 946.124 L64.0042 951.98 L58.5933 951.98 Q61.8398 953.985 63.3994 956.977 Q64.9272 959.969 64.9272 964.298 Q64.9272 969.772 61.8716 973.019 Q58.7843 976.234 53.6281 976.234 Q47.6125 976.234 44.5569 972.223 Q41.5014 968.181 41.5014 960.192 L41.5014 951.98 L40.9285 951.98 Q36.8862 951.98 34.6901 954.654 Q32.4621 957.296 32.4621 962.102 Q32.4621 965.157 33.1941 968.054 Q33.9262 970.95 35.3903 973.624 L29.9795 973.624 Q28.7381 970.409 28.1334 967.385 Q27.4968 964.361 27.4968 961.497 Q27.4968 953.763 31.5072 949.943 Q35.5176 946.124 43.6657 946.124 Z" fill="#000000" fill-rule="nonzero" fill-opacity="1"></path><path clip-path="url(#clip870)" d="M29.4065 911.335 L34.9447 911.335 Q33.6716 913.818 33.035 916.491 Q32.3984 919.165 32.3984 922.03 Q32.3984 926.39 33.7352 928.586 Q35.072 930.751 37.7456 930.751 Q39.7826 930.751 40.9603 929.191 Q42.1061 927.631 43.1565 922.921 L43.6021 920.916 Q44.9389 914.677 47.3897 912.067 Q49.8086 909.425 54.1691 909.425 Q59.1344 909.425 62.0308 913.372 Q64.9272 917.287 64.9272 924.162 Q64.9272 927.027 64.3543 930.146 Q63.8132 933.233 62.6992 936.671 L56.6518 936.671 Q58.3387 933.424 59.198 930.273 Q60.0256 927.122 60.0256 924.035 Q60.0256 919.897 58.6251 917.669 Q57.1929 915.441 54.6147 915.441 Q52.2276 915.441 50.9545 917.064 Q49.6813 918.656 48.5037 924.098 L48.0262 926.135 Q46.8804 931.578 44.5251 933.997 Q42.138 936.416 38.0002 936.416 Q32.9713 936.416 30.2341 932.851 Q27.4968 929.286 27.4968 922.73 Q27.4968 919.483 27.9743 916.619 Q28.4517 913.754 29.4065 911.335 Z" fill="#000000" fill-rule="nonzero" fill-opacity="1"></path><path clip-path="url(#clip870)" d="M32.4621 886.286 Q32.4621 890.997 36.1542 893.734 Q39.8145 896.471 46.212 896.471 Q52.6095 896.471 56.3017 893.766 Q59.9619 891.029 59.9619 886.286 Q59.9619 881.607 56.2698 878.87 Q52.5777 876.133 46.212 876.133 Q39.8781 876.133 36.186 878.87 Q32.4621 881.607 32.4621 886.286 M27.4968 886.286 Q27.4968 878.647 32.4621 874.287 Q37.4273 869.926 46.212 869.926 Q54.9649 869.926 59.9619 874.287 Q64.9272 878.647 64.9272 886.286 Q64.9272 893.957 59.9619 898.317 Q54.9649 902.646 46.212 902.646 Q37.4273 902.646 32.4621 898.317 Q27.4968 893.957 27.4968 886.286 Z" fill="#000000" fill-rule="nonzero" fill-opacity="1"></path><path clip-path="url(#clip870)" d="M29.4065 837.493 L34.9447 837.493 Q33.6716 839.976 33.035 842.649 Q32.3984 845.323 32.3984 848.187 Q32.3984 852.548 33.7352 854.744 Q35.072 856.908 37.7456 856.908 Q39.7826 856.908 40.9603 855.349 Q42.1061 853.789 43.1565 849.079 L43.6021 847.073 Q44.9389 840.835 47.3897 838.225 Q49.8086 835.583 54.1691 835.583 Q59.1344 835.583 62.0308 839.53 Q64.9272 843.445 64.9272 850.32 Q64.9272 853.184 64.3543 856.304 Q63.8132 859.391 62.6992 862.828 L56.6518 862.828 Q58.3387 859.582 59.198 856.431 Q60.0256 853.28 60.0256 850.193 Q60.0256 846.055 58.6251 843.827 Q57.1929 841.599 54.6147 841.599 Q52.2276 841.599 50.9545 843.222 Q49.6813 844.814 48.5037 850.256 L48.0262 852.293 Q46.8804 857.736 44.5251 860.155 Q42.138 862.574 38.0002 862.574 Q32.9713 862.574 30.2341 859.009 Q27.4968 855.444 27.4968 848.888 Q27.4968 845.641 27.9743 842.776 Q28.4517 839.912 29.4065 837.493 Z" fill="#000000" fill-rule="nonzero" fill-opacity="1"></path><path clip-path="url(#clip870)" d="M33.8307 784.88 Q33.2578 785.867 33.0032 787.045 Q32.7167 788.191 32.7167 789.591 Q32.7167 794.556 35.9632 797.23 Q39.1779 799.872 45.2253 799.872 L64.0042 799.872 L64.0042 805.76 L28.3562 805.76 L28.3562 799.872 L33.8944 799.872 Q30.6479 798.026 29.0883 795.066 Q27.4968 792.105 27.4968 787.872 Q27.4968 787.268 27.5923 786.535 Q27.656 785.803 27.8151 784.912 L33.8307 784.88 Z" fill="#000000" fill-rule="nonzero" fill-opacity="1"></path><path clip-path="url(#clip870)" d="M44.7161 749.678 L47.5806 749.678 L47.5806 776.605 Q53.6281 776.223 56.8109 772.977 Q59.9619 769.698 59.9619 763.874 Q59.9619 760.5 59.1344 757.349 Q58.3069 754.166 56.6518 751.047 L62.1899 751.047 Q63.5267 754.198 64.227 757.508 Q64.9272 760.818 64.9272 764.224 Q64.9272 772.754 59.9619 777.751 Q54.9967 782.716 46.5303 782.716 Q37.7774 782.716 32.6531 778.005 Q27.4968 773.263 27.4968 765.242 Q27.4968 758.049 32.1438 753.879 Q36.7589 749.678 44.7161 749.678 M42.9973 755.534 Q38.1912 755.598 35.3266 758.24 Q32.4621 760.85 32.4621 765.179 Q32.4621 770.08 35.2312 773.04 Q38.0002 775.968 43.0292 776.414 L42.9973 755.534 Z" fill="#000000" fill-rule="nonzero" fill-opacity="1"></path><path clip-path="url(#clip870)" d="M45.7664 716.608 Q39.4007 716.608 35.8996 719.25 Q32.3984 721.86 32.3984 726.602 Q32.3984 731.313 35.8996 733.955 Q39.4007 736.565 45.7664 736.565 Q52.1003 736.565 55.6014 733.955 Q59.1026 731.313 59.1026 726.602 Q59.1026 721.86 55.6014 719.25 Q52.1003 716.608 45.7664 716.608 M59.58 710.752 Q68.683 710.752 73.1071 714.794 Q77.5631 718.836 77.5631 727.175 Q77.5631 730.263 77.0857 733 Q76.6401 735.737 75.6852 738.315 L69.9879 738.315 Q71.3884 735.737 72.0568 733.223 Q72.7252 730.708 72.7252 728.098 Q72.7252 722.337 69.7015 719.473 Q66.7096 716.608 60.6303 716.608 L57.7339 716.608 Q60.885 718.422 62.4446 721.255 Q64.0042 724.088 64.0042 728.035 Q64.0042 734.591 59.0071 738.602 Q54.01 742.612 45.7664 742.612 Q37.491 742.612 32.4939 738.602 Q27.4968 734.591 27.4968 728.035 Q27.4968 724.088 29.0564 721.255 Q30.616 718.422 33.7671 716.608 L28.3562 716.608 L28.3562 710.752 L59.58 710.752 Z" fill="#000000" fill-rule="nonzero" fill-opacity="1"></path><path clip-path="url(#clip870)" d="M28.3562 698.689 L28.3562 692.832 L64.0042 692.832 L64.0042 698.689 L28.3562 698.689 M14.479 698.689 L14.479 692.832 L21.895 692.832 L21.895 698.689 L14.479 698.689 Z" fill="#000000" fill-rule="nonzero" fill-opacity="1"></path><path clip-path="url(#clip870)" d="M29.4065 657.853 L34.9447 657.853 Q33.6716 660.335 33.035 663.009 Q32.3984 665.683 32.3984 668.547 Q32.3984 672.908 33.7352 675.104 Q35.072 677.268 37.7456 677.268 Q39.7826 677.268 40.9603 675.709 Q42.1061 674.149 43.1565 669.438 L43.6021 667.433 Q44.9389 661.195 47.3897 658.585 Q49.8086 655.943 54.1691 655.943 Q59.1344 655.943 62.0308 659.89 Q64.9272 663.805 64.9272 670.68 Q64.9272 673.544 64.3543 676.663 Q63.8132 679.751 62.6992 683.188 L56.6518 683.188 Q58.3387 679.942 59.198 676.791 Q60.0256 673.64 60.0256 670.552 Q60.0256 666.415 58.6251 664.187 Q57.1929 661.959 54.6147 661.959 Q52.2276 661.959 50.9545 663.582 Q49.6813 665.173 48.5037 670.616 L48.0262 672.653 Q46.8804 678.096 44.5251 680.515 Q42.138 682.934 38.0002 682.934 Q32.9713 682.934 30.2341 679.369 Q27.4968 675.804 27.4968 669.247 Q27.4968 666.001 27.9743 663.136 Q28.4517 660.272 29.4065 657.853 Z" fill="#000000" fill-rule="nonzero" fill-opacity="1"></path><path clip-path="url(#clip870)" d="M18.2347 640.824 L28.3562 640.824 L28.3562 628.761 L32.9077 628.761 L32.9077 640.824 L52.2594 640.824 Q56.6199 640.824 57.8613 639.647 Q59.1026 638.437 59.1026 634.777 L59.1026 628.761 L64.0042 628.761 L64.0042 634.777 Q64.0042 641.557 61.4897 644.135 Q58.9434 646.713 52.2594 646.713 L32.9077 646.713 L32.9077 651.01 L28.3562 651.01 L28.3562 646.713 L18.2347 646.713 L18.2347 640.824 Z" fill="#000000" fill-rule="nonzero" fill-opacity="1"></path><path clip-path="url(#clip870)" d="M33.8307 600.402 Q33.2578 601.389 33.0032 602.567 Q32.7167 603.712 32.7167 605.113 Q32.7167 610.078 35.9632 612.752 Q39.1779 615.393 45.2253 615.393 L64.0042 615.393 L64.0042 621.282 L28.3562 621.282 L28.3562 615.393 L33.8944 615.393 Q30.6479 613.547 29.0883 610.587 Q27.4968 607.627 27.4968 603.394 Q27.4968 602.789 27.5923 602.057 Q27.656 601.325 27.8151 600.434 L33.8307 600.402 Z" fill="#000000" fill-rule="nonzero" fill-opacity="1"></path><path clip-path="url(#clip870)" d="M46.0847 578.059 Q46.0847 585.156 47.7079 587.894 Q49.3312 590.631 53.2461 590.631 Q56.3653 590.631 58.2114 588.594 Q60.0256 586.525 60.0256 582.992 Q60.0256 578.122 56.5881 575.194 Q53.1188 572.234 47.3897 572.234 L46.0847 572.234 L46.0847 578.059 M43.6657 566.378 L64.0042 566.378 L64.0042 572.234 L58.5933 572.234 Q61.8398 574.239 63.3994 577.231 Q64.9272 580.223 64.9272 584.552 Q64.9272 590.026 61.8716 593.273 Q58.7843 596.487 53.6281 596.487 Q47.6125 596.487 44.5569 592.477 Q41.5014 588.435 41.5014 580.446 L41.5014 572.234 L40.9285 572.234 Q36.8862 572.234 34.6901 574.908 Q32.4621 577.549 32.4621 582.355 Q32.4621 585.411 33.1941 588.307 Q33.9262 591.204 35.3903 593.877 L29.9795 593.877 Q28.7381 590.663 28.1334 587.639 Q27.4968 584.615 27.4968 581.751 Q27.4968 574.016 31.5072 570.197 Q35.5176 566.378 43.6657 566.378 Z" fill="#000000" fill-rule="nonzero" fill-opacity="1"></path><path clip-path="url(#clip870)" d="M33.7671 530.857 L14.479 530.857 L14.479 525 L64.0042 525 L64.0042 530.857 L58.657 530.857 Q61.8398 532.703 63.3994 535.536 Q64.9272 538.337 64.9272 542.283 Q64.9272 548.745 59.771 552.819 Q54.6147 556.861 46.212 556.861 Q37.8093 556.861 32.6531 552.819 Q27.4968 548.745 27.4968 542.283 Q27.4968 538.337 29.0564 535.536 Q30.5842 532.703 33.7671 530.857 M46.212 550.813 Q52.6732 550.813 56.3653 548.172 Q60.0256 545.498 60.0256 540.851 Q60.0256 536.204 56.3653 533.53 Q52.6732 530.857 46.212 530.857 Q39.7508 530.857 36.0905 533.53 Q32.3984 536.204 32.3984 540.851 Q32.3984 545.498 36.0905 548.172 Q39.7508 550.813 46.212 550.813 Z" fill="#000000" fill-rule="nonzero" fill-opacity="1"></path><path clip-path="url(#clip870)" d="M32.4621 499.124 Q32.4621 503.834 36.1542 506.572 Q39.8145 509.309 46.212 509.309 Q52.6095 509.309 56.3017 506.604 Q59.9619 503.866 59.9619 499.124 Q59.9619 494.445 56.2698 491.708 Q52.5777 488.971 46.212 488.971 Q39.8781 488.971 36.186 491.708 Q32.4621 494.445 32.4621 499.124 M27.4968 499.124 Q27.4968 491.485 32.4621 487.124 Q37.4273 482.764 46.212 482.764 Q54.9649 482.764 59.9619 487.124 Q64.9272 491.485 64.9272 499.124 Q64.9272 506.795 59.9619 511.155 Q54.9649 515.484 46.212 515.484 Q37.4273 515.484 32.4621 511.155 Q27.4968 506.795 27.4968 499.124 Z" fill="#000000" fill-rule="nonzero" fill-opacity="1"></path><path clip-path="url(#clip870)" d="M29.4065 450.331 L34.9447 450.331 Q33.6716 452.813 33.035 455.487 Q32.3984 458.161 32.3984 461.025 Q32.3984 465.386 33.7352 467.582 Q35.072 469.746 37.7456 469.746 Q39.7826 469.746 40.9603 468.186 Q42.1061 466.627 43.1565 461.916 L43.6021 459.911 Q44.9389 453.673 47.3897 451.063 Q49.8086 448.421 54.1691 448.421 Q59.1344 448.421 62.0308 452.368 Q64.9272 456.283 64.9272 463.158 Q64.9272 466.022 64.3543 469.141 Q63.8132 472.229 62.6992 475.666 L56.6518 475.666 Q58.3387 472.42 59.198 469.269 Q60.0256 466.118 60.0256 463.03 Q60.0256 458.893 58.6251 456.665 Q57.1929 454.437 54.6147 454.437 Q52.2276 454.437 50.9545 456.06 Q49.6813 457.651 48.5037 463.094 L48.0262 465.131 Q46.8804 470.574 44.5251 472.993 Q42.138 475.412 38.0002 475.412 Q32.9713 475.412 30.2341 471.847 Q27.4968 468.282 27.4968 461.725 Q27.4968 458.479 27.9743 455.614 Q28.4517 452.75 29.4065 450.331 Z" fill="#000000" fill-rule="nonzero" fill-opacity="1"></path><circle clip-path="url(#clip872)" cx="324.52" cy="1383.69" r="14.4" fill="#ffc0cb" fill-rule="evenodd" fill-opacity="1" stroke="#000000" stroke-opacity="1" stroke-width="3.2"></circle>
<circle clip-path="url(#clip872)" cx="334.67" cy="1383.69" r="14.4" fill="#ffc0cb" fill-rule="evenodd" fill-opacity="1" stroke="#000000" stroke-opacity="1" stroke-width="3.2"></circle>
<circle clip-path="url(#clip872)" cx="344.82" cy="1382.74" r="14.4" fill="#ffc0cb" fill-rule="evenodd" fill-opacity="1" stroke="#000000" stroke-opacity="1" stroke-width="3.2"></circle>
<circle clip-path="url(#clip872)" cx="354.971" cy="1382.2" r="14.4" fill="#ffc0cb" fill-rule="evenodd" fill-opacity="1" stroke="#000000" stroke-opacity="1" stroke-width="3.2"></circle>
<circle clip-path="url(#clip872)" cx="365.121" cy="1382.61" r="14.4" fill="#ffc0cb" fill-rule="evenodd" fill-opacity="1" stroke="#000000" stroke-opacity="1" stroke-width="3.2"></circle>
<circle clip-path="url(#clip872)" cx="375.271" cy="1380.3" r="14.4" fill="#ffc0cb" fill-rule="evenodd" fill-opacity="1" stroke="#000000" stroke-opacity="1" stroke-width="3.2"></circle>
<circle clip-path="url(#clip872)" cx="385.421" cy="1382.74" r="14.4" fill="#ffc0cb" fill-rule="evenodd" fill-opacity="1" stroke="#000000" stroke-opacity="1" stroke-width="3.2"></circle>
<circle clip-path="url(#clip872)" cx="395.572" cy="1380.84" r="14.4" fill="#ffc0cb" fill-rule="evenodd" fill-opacity="1" stroke="#000000" stroke-opacity="1" stroke-width="3.2"></circle>
<circle clip-path="url(#clip872)" cx="405.722" cy="1377.99" r="14.4" fill="#ffc0cb" fill-rule="evenodd" fill-opacity="1" stroke="#000000" stroke-opacity="1" stroke-width="3.2"></circle>
<circle clip-path="url(#clip872)" cx="415.872" cy="1378.94" r="14.4" fill="#ffc0cb" fill-rule="evenodd" fill-opacity="1" stroke="#000000" stroke-opacity="1" stroke-width="3.2"></circle>
<circle clip-path="url(#clip872)" cx="426.023" cy="1377.72" r="14.4" fill="#ffc0cb" fill-rule="evenodd" fill-opacity="1" stroke="#000000" stroke-opacity="1" stroke-width="3.2"></circle>
<circle clip-path="url(#clip872)" cx="436.173" cy="1375.41" r="14.4" fill="#ffc0cb" fill-rule="evenodd" fill-opacity="1" stroke="#000000" stroke-opacity="1" stroke-width="3.2"></circle>
<circle clip-path="url(#clip872)" cx="446.323" cy="1377.31" r="14.4" fill="#ffc0cb" fill-rule="evenodd" fill-opacity="1" stroke="#000000" stroke-opacity="1" stroke-width="3.2"></circle>
<circle clip-path="url(#clip872)" cx="456.474" cy="1379.08" r="14.4" fill="#ffc0cb" fill-rule="evenodd" fill-opacity="1" stroke="#000000" stroke-opacity="1" stroke-width="3.2"></circle>
<circle clip-path="url(#clip872)" cx="466.624" cy="1374.73" r="14.4" fill="#ffc0cb" fill-rule="evenodd" fill-opacity="1" stroke="#000000" stroke-opacity="1" stroke-width="3.2"></circle>
<circle clip-path="url(#clip872)" cx="476.774" cy="1369.3" r="14.4" fill="#ffc0cb" fill-rule="evenodd" fill-opacity="1" stroke="#000000" stroke-opacity="1" stroke-width="3.2"></circle>
<circle clip-path="url(#clip872)" cx="486.925" cy="1366.31" r="14.4" fill="#ffc0cb" fill-rule="evenodd" fill-opacity="1" stroke="#000000" stroke-opacity="1" stroke-width="3.2"></circle>
<circle clip-path="url(#clip872)" cx="497.075" cy="1366.44" r="14.4" fill="#ffc0cb" fill-rule="evenodd" fill-opacity="1" stroke="#000000" stroke-opacity="1" stroke-width="3.2"></circle>
<circle clip-path="url(#clip872)" cx="507.225" cy="1364.54" r="14.4" fill="#ffc0cb" fill-rule="evenodd" fill-opacity="1" stroke="#000000" stroke-opacity="1" stroke-width="3.2"></circle>
<circle clip-path="url(#clip872)" cx="517.376" cy="1370.52" r="14.4" fill="#ffc0cb" fill-rule="evenodd" fill-opacity="1" stroke="#000000" stroke-opacity="1" stroke-width="3.2"></circle>
<circle clip-path="url(#clip872)" cx="527.526" cy="1367.8" r="14.4" fill="#ffc0cb" fill-rule="evenodd" fill-opacity="1" stroke="#000000" stroke-opacity="1" stroke-width="3.2"></circle>
<circle clip-path="url(#clip872)" cx="537.676" cy="1362.1" r="14.4" fill="#ffc0cb" fill-rule="evenodd" fill-opacity="1" stroke="#000000" stroke-opacity="1" stroke-width="3.2"></circle>
<circle clip-path="url(#clip872)" cx="547.827" cy="1366.31" r="14.4" fill="#ffc0cb" fill-rule="evenodd" fill-opacity="1" stroke="#000000" stroke-opacity="1" stroke-width="3.2"></circle>
<circle clip-path="url(#clip872)" cx="557.977" cy="1360.06" r="14.4" fill="#ffc0cb" fill-rule="evenodd" fill-opacity="1" stroke="#000000" stroke-opacity="1" stroke-width="3.2"></circle>
<circle clip-path="url(#clip872)" cx="568.127" cy="1356.8" r="14.4" fill="#ffc0cb" fill-rule="evenodd" fill-opacity="1" stroke="#000000" stroke-opacity="1" stroke-width="3.2"></circle>
<circle clip-path="url(#clip872)" cx="578.277" cy="1309.66" r="14.4" fill="#ffc0cb" fill-rule="evenodd" fill-opacity="1" stroke="#000000" stroke-opacity="1" stroke-width="3.2"></circle>
<circle clip-path="url(#clip872)" cx="588.428" cy="1337.24" r="14.4" fill="#ffc0cb" fill-rule="evenodd" fill-opacity="1" stroke="#000000" stroke-opacity="1" stroke-width="3.2"></circle>
<circle clip-path="url(#clip872)" cx="598.578" cy="1330.45" r="14.4" fill="#ffc0cb" fill-rule="evenodd" fill-opacity="1" stroke="#000000" stroke-opacity="1" stroke-width="3.2"></circle>
<circle clip-path="url(#clip872)" cx="608.728" cy="1348.92" r="14.4" fill="#ffc0cb" fill-rule="evenodd" fill-opacity="1" stroke="#000000" stroke-opacity="1" stroke-width="3.2"></circle>
<circle clip-path="url(#clip872)" cx="618.879" cy="1329.5" r="14.4" fill="#ffc0cb" fill-rule="evenodd" fill-opacity="1" stroke="#000000" stroke-opacity="1" stroke-width="3.2"></circle>
<circle clip-path="url(#clip872)" cx="629.029" cy="1333.3" r="14.4" fill="#ffc0cb" fill-rule="evenodd" fill-opacity="1" stroke="#000000" stroke-opacity="1" stroke-width="3.2"></circle>
<circle clip-path="url(#clip872)" cx="639.179" cy="1324.2" r="14.4" fill="#ffc0cb" fill-rule="evenodd" fill-opacity="1" stroke="#000000" stroke-opacity="1" stroke-width="3.2"></circle>
<circle clip-path="url(#clip872)" cx="649.33" cy="1336.29" r="14.4" fill="#ffc0cb" fill-rule="evenodd" fill-opacity="1" stroke="#000000" stroke-opacity="1" stroke-width="3.2"></circle>
<circle clip-path="url(#clip872)" cx="659.48" cy="1331.94" r="14.4" fill="#ffc0cb" fill-rule="evenodd" fill-opacity="1" stroke="#000000" stroke-opacity="1" stroke-width="3.2"></circle>
<circle clip-path="url(#clip872)" cx="669.63" cy="1262.26" r="14.4" fill="#ffc0cb" fill-rule="evenodd" fill-opacity="1" stroke="#000000" stroke-opacity="1" stroke-width="3.2"></circle>
<circle clip-path="url(#clip872)" cx="679.781" cy="1305.72" r="14.4" fill="#ffc0cb" fill-rule="evenodd" fill-opacity="1" stroke="#000000" stroke-opacity="1" stroke-width="3.2"></circle>
<circle clip-path="url(#clip872)" cx="689.931" cy="1299.75" r="14.4" fill="#ffc0cb" fill-rule="evenodd" fill-opacity="1" stroke="#000000" stroke-opacity="1" stroke-width="3.2"></circle>
<circle clip-path="url(#clip872)" cx="700.081" cy="1280.46" r="14.4" fill="#ffc0cb" fill-rule="evenodd" fill-opacity="1" stroke="#000000" stroke-opacity="1" stroke-width="3.2"></circle>
<circle clip-path="url(#clip872)" cx="710.232" cy="1321.62" r="14.4" fill="#ffc0cb" fill-rule="evenodd" fill-opacity="1" stroke="#000000" stroke-opacity="1" stroke-width="3.2"></circle>
<circle clip-path="url(#clip872)" cx="720.382" cy="1278.42" r="14.4" fill="#ffc0cb" fill-rule="evenodd" fill-opacity="1" stroke="#000000" stroke-opacity="1" stroke-width="3.2"></circle>
<circle clip-path="url(#clip872)" cx="730.532" cy="1242.56" r="14.4" fill="#ffc0cb" fill-rule="evenodd" fill-opacity="1" stroke="#000000" stroke-opacity="1" stroke-width="3.2"></circle>
<circle clip-path="url(#clip872)" cx="740.683" cy="1236.31" r="14.4" fill="#ffc0cb" fill-rule="evenodd" fill-opacity="1" stroke="#000000" stroke-opacity="1" stroke-width="3.2"></circle>
<circle clip-path="url(#clip872)" cx="750.833" cy="1215.94" r="14.4" fill="#ffc0cb" fill-rule="evenodd" fill-opacity="1" stroke="#000000" stroke-opacity="1" stroke-width="3.2"></circle>
<circle clip-path="url(#clip872)" cx="760.983" cy="1252.48" r="14.4" fill="#ffc0cb" fill-rule="evenodd" fill-opacity="1" stroke="#000000" stroke-opacity="1" stroke-width="3.2"></circle>
<circle clip-path="url(#clip872)" cx="771.134" cy="1270.81" r="14.4" fill="#ffc0cb" fill-rule="evenodd" fill-opacity="1" stroke="#000000" stroke-opacity="1" stroke-width="3.2"></circle>
<circle clip-path="url(#clip872)" cx="781.284" cy="1268.51" r="14.4" fill="#ffc0cb" fill-rule="evenodd" fill-opacity="1" stroke="#000000" stroke-opacity="1" stroke-width="3.2"></circle>
<circle clip-path="url(#clip872)" cx="791.434" cy="1242.97" r="14.4" fill="#ffc0cb" fill-rule="evenodd" fill-opacity="1" stroke="#000000" stroke-opacity="1" stroke-width="3.2"></circle>
<circle clip-path="url(#clip872)" cx="801.584" cy="1217.16" r="14.4" fill="#ffc0cb" fill-rule="evenodd" fill-opacity="1" stroke="#000000" stroke-opacity="1" stroke-width="3.2"></circle>
<circle clip-path="url(#clip872)" cx="811.735" cy="1190.67" r="14.4" fill="#ffc0cb" fill-rule="evenodd" fill-opacity="1" stroke="#000000" stroke-opacity="1" stroke-width="3.2"></circle>
<circle clip-path="url(#clip872)" cx="821.885" cy="1178.45" r="14.4" fill="#ffc0cb" fill-rule="evenodd" fill-opacity="1" stroke="#000000" stroke-opacity="1" stroke-width="3.2"></circle>
<circle clip-path="url(#clip872)" cx="832.035" cy="1200.99" r="14.4" fill="#ffc0cb" fill-rule="evenodd" fill-opacity="1" stroke="#000000" stroke-opacity="1" stroke-width="3.2"></circle>
<circle clip-path="url(#clip872)" cx="842.186" cy="1196.38" r="14.4" fill="#ffc0cb" fill-rule="evenodd" fill-opacity="1" stroke="#000000" stroke-opacity="1" stroke-width="3.2"></circle>
<circle clip-path="url(#clip872)" cx="852.336" cy="1188.63" r="14.4" fill="#ffc0cb" fill-rule="evenodd" fill-opacity="1" stroke="#000000" stroke-opacity="1" stroke-width="3.2"></circle>
<circle clip-path="url(#clip872)" cx="862.486" cy="1232.1" r="14.4" fill="#ffc0cb" fill-rule="evenodd" fill-opacity="1" stroke="#000000" stroke-opacity="1" stroke-width="3.2"></circle>
<circle clip-path="url(#clip872)" cx="872.637" cy="1165.68" r="14.4" fill="#ffc0cb" fill-rule="evenodd" fill-opacity="1" stroke="#000000" stroke-opacity="1" stroke-width="3.2"></circle>
<circle clip-path="url(#clip872)" cx="882.787" cy="1115.01" r="14.4" fill="#ffc0cb" fill-rule="evenodd" fill-opacity="1" stroke="#000000" stroke-opacity="1" stroke-width="3.2"></circle>
<circle clip-path="url(#clip872)" cx="892.937" cy="1125.33" r="14.4" fill="#ffc0cb" fill-rule="evenodd" fill-opacity="1" stroke="#000000" stroke-opacity="1" stroke-width="3.2"></circle>
<circle clip-path="url(#clip872)" cx="903.088" cy="1120.99" r="14.4" fill="#ffc0cb" fill-rule="evenodd" fill-opacity="1" stroke="#000000" stroke-opacity="1" stroke-width="3.2"></circle>
<circle clip-path="url(#clip872)" cx="913.238" cy="1172.06" r="14.4" fill="#ffc0cb" fill-rule="evenodd" fill-opacity="1" stroke="#000000" stroke-opacity="1" stroke-width="3.2"></circle>
<circle clip-path="url(#clip872)" cx="923.388" cy="1206.97" r="14.4" fill="#ffc0cb" fill-rule="evenodd" fill-opacity="1" stroke="#000000" stroke-opacity="1" stroke-width="3.2"></circle>
<circle clip-path="url(#clip872)" cx="933.539" cy="1112.97" r="14.4" fill="#ffc0cb" fill-rule="evenodd" fill-opacity="1" stroke="#000000" stroke-opacity="1" stroke-width="3.2"></circle>
<circle clip-path="url(#clip872)" cx="943.689" cy="1131.31" r="14.4" fill="#ffc0cb" fill-rule="evenodd" fill-opacity="1" stroke="#000000" stroke-opacity="1" stroke-width="3.2"></circle>
<circle clip-path="url(#clip872)" cx="953.839" cy="1057.01" r="14.4" fill="#ffc0cb" fill-rule="evenodd" fill-opacity="1" stroke="#000000" stroke-opacity="1" stroke-width="3.2"></circle>
<circle clip-path="url(#clip872)" cx="963.99" cy="1053.2" r="14.4" fill="#ffc0cb" fill-rule="evenodd" fill-opacity="1" stroke="#000000" stroke-opacity="1" stroke-width="3.2"></circle>
<circle clip-path="url(#clip872)" cx="974.14" cy="1097.35" r="14.4" fill="#ffc0cb" fill-rule="evenodd" fill-opacity="1" stroke="#000000" stroke-opacity="1" stroke-width="3.2"></circle>
<circle clip-path="url(#clip872)" cx="984.29" cy="1102.38" r="14.4" fill="#ffc0cb" fill-rule="evenodd" fill-opacity="1" stroke="#000000" stroke-opacity="1" stroke-width="3.2"></circle>
<circle clip-path="url(#clip872)" cx="994.44" cy="1056.33" r="14.4" fill="#ffc0cb" fill-rule="evenodd" fill-opacity="1" stroke="#000000" stroke-opacity="1" stroke-width="3.2"></circle>
<circle clip-path="url(#clip872)" cx="1004.59" cy="1015.71" r="14.4" fill="#ffc0cb" fill-rule="evenodd" fill-opacity="1" stroke="#000000" stroke-opacity="1" stroke-width="3.2"></circle>
<circle clip-path="url(#clip872)" cx="1014.74" cy="1078.88" r="14.4" fill="#ffc0cb" fill-rule="evenodd" fill-opacity="1" stroke="#000000" stroke-opacity="1" stroke-width="3.2"></circle>
<circle clip-path="url(#clip872)" cx="1024.89" cy="980.397" r="14.4" fill="#ffc0cb" fill-rule="evenodd" fill-opacity="1" stroke="#000000" stroke-opacity="1" stroke-width="3.2"></circle>
<circle clip-path="url(#clip872)" cx="1035.04" cy="982.163" r="14.4" fill="#ffc0cb" fill-rule="evenodd" fill-opacity="1" stroke="#000000" stroke-opacity="1" stroke-width="3.2"></circle>
<circle clip-path="url(#clip872)" cx="1045.19" cy="932.039" r="14.4" fill="#ffc0cb" fill-rule="evenodd" fill-opacity="1" stroke="#000000" stroke-opacity="1" stroke-width="3.2"></circle>
<circle clip-path="url(#clip872)" cx="1055.34" cy="1008.79" r="14.4" fill="#ffc0cb" fill-rule="evenodd" fill-opacity="1" stroke="#000000" stroke-opacity="1" stroke-width="3.2"></circle>
<circle clip-path="url(#clip872)" cx="1065.49" cy="1046.68" r="14.4" fill="#ffc0cb" fill-rule="evenodd" fill-opacity="1" stroke="#000000" stroke-opacity="1" stroke-width="3.2"></circle>
<circle clip-path="url(#clip872)" cx="1075.64" cy="914.924" r="14.4" fill="#ffc0cb" fill-rule="evenodd" fill-opacity="1" stroke="#000000" stroke-opacity="1" stroke-width="3.2"></circle>
<circle clip-path="url(#clip872)" cx="1085.79" cy="913.837" r="14.4" fill="#ffc0cb" fill-rule="evenodd" fill-opacity="1" stroke="#000000" stroke-opacity="1" stroke-width="3.2"></circle>
<circle clip-path="url(#clip872)" cx="1095.94" cy="925.519" r="14.4" fill="#ffc0cb" fill-rule="evenodd" fill-opacity="1" stroke="#000000" stroke-opacity="1" stroke-width="3.2"></circle>
<circle clip-path="url(#clip872)" cx="1106.09" cy="945.894" r="14.4" fill="#ffc0cb" fill-rule="evenodd" fill-opacity="1" stroke="#000000" stroke-opacity="1" stroke-width="3.2"></circle>
<circle clip-path="url(#clip872)" cx="1116.24" cy="992.35" r="14.4" fill="#ffc0cb" fill-rule="evenodd" fill-opacity="1" stroke="#000000" stroke-opacity="1" stroke-width="3.2"></circle>
<circle clip-path="url(#clip872)" cx="1126.39" cy="956.082" r="14.4" fill="#ffc0cb" fill-rule="evenodd" fill-opacity="1" stroke="#000000" stroke-opacity="1" stroke-width="3.2"></circle>
<circle clip-path="url(#clip872)" cx="1136.54" cy="1007.84" r="14.4" fill="#ffc0cb" fill-rule="evenodd" fill-opacity="1" stroke="#000000" stroke-opacity="1" stroke-width="3.2"></circle>
<circle clip-path="url(#clip872)" cx="1146.7" cy="855.699" r="14.4" fill="#ffc0cb" fill-rule="evenodd" fill-opacity="1" stroke="#000000" stroke-opacity="1" stroke-width="3.2"></circle>
<circle clip-path="url(#clip872)" cx="1156.85" cy="852.846" r="14.4" fill="#ffc0cb" fill-rule="evenodd" fill-opacity="1" stroke="#000000" stroke-opacity="1" stroke-width="3.2"></circle>
<circle clip-path="url(#clip872)" cx="1167" cy="780.853" r="14.4" fill="#ffc0cb" fill-rule="evenodd" fill-opacity="1" stroke="#000000" stroke-opacity="1" stroke-width="3.2"></circle>
<circle clip-path="url(#clip872)" cx="1177.15" cy="793.893" r="14.4" fill="#ffc0cb" fill-rule="evenodd" fill-opacity="1" stroke="#000000" stroke-opacity="1" stroke-width="3.2"></circle>
<circle clip-path="url(#clip872)" cx="1187.3" cy="896.178" r="14.4" fill="#ffc0cb" fill-rule="evenodd" fill-opacity="1" stroke="#000000" stroke-opacity="1" stroke-width="3.2"></circle>
<circle clip-path="url(#clip872)" cx="1197.45" cy="910.984" r="14.4" fill="#ffc0cb" fill-rule="evenodd" fill-opacity="1" stroke="#000000" stroke-opacity="1" stroke-width="3.2"></circle>
<circle clip-path="url(#clip872)" cx="1207.6" cy="976.865" r="14.4" fill="#ffc0cb" fill-rule="evenodd" fill-opacity="1" stroke="#000000" stroke-opacity="1" stroke-width="3.2"></circle>
<circle clip-path="url(#clip872)" cx="1217.75" cy="813.861" r="14.4" fill="#ffc0cb" fill-rule="evenodd" fill-opacity="1" stroke="#000000" stroke-opacity="1" stroke-width="3.2"></circle>
<circle clip-path="url(#clip872)" cx="1227.9" cy="720.949" r="14.4" fill="#ffc0cb" fill-rule="evenodd" fill-opacity="1" stroke="#000000" stroke-opacity="1" stroke-width="3.2"></circle>
<circle clip-path="url(#clip872)" cx="1238.05" cy="733.582" r="14.4" fill="#ffc0cb" fill-rule="evenodd" fill-opacity="1" stroke="#000000" stroke-opacity="1" stroke-width="3.2"></circle>
<circle clip-path="url(#clip872)" cx="1248.2" cy="674.901" r="14.4" fill="#ffc0cb" fill-rule="evenodd" fill-opacity="1" stroke="#000000" stroke-opacity="1" stroke-width="3.2"></circle>
<circle clip-path="url(#clip872)" cx="1258.35" cy="909.626" r="14.4" fill="#ffc0cb" fill-rule="evenodd" fill-opacity="1" stroke="#000000" stroke-opacity="1" stroke-width="3.2"></circle>
<circle clip-path="url(#clip872)" cx="1268.5" cy="820.925" r="14.4" fill="#ffc0cb" fill-rule="evenodd" fill-opacity="1" stroke="#000000" stroke-opacity="1" stroke-width="3.2"></circle>
<circle clip-path="url(#clip872)" cx="1278.65" cy="918.727" r="14.4" fill="#ffc0cb" fill-rule="evenodd" fill-opacity="1" stroke="#000000" stroke-opacity="1" stroke-width="3.2"></circle>
<circle clip-path="url(#clip872)" cx="1288.8" cy="759.527" r="14.4" fill="#ffc0cb" fill-rule="evenodd" fill-opacity="1" stroke="#000000" stroke-opacity="1" stroke-width="3.2"></circle>
<circle clip-path="url(#clip872)" cx="1298.95" cy="714.565" r="14.4" fill="#ffc0cb" fill-rule="evenodd" fill-opacity="1" stroke="#000000" stroke-opacity="1" stroke-width="3.2"></circle>
<circle clip-path="url(#clip872)" cx="1309.1" cy="615.133" r="14.4" fill="#ffc0cb" fill-rule="evenodd" fill-opacity="1" stroke="#000000" stroke-opacity="1" stroke-width="3.2"></circle>
<circle clip-path="url(#clip872)" cx="1319.25" cy="700.981" r="14.4" fill="#ffc0cb" fill-rule="evenodd" fill-opacity="1" stroke="#000000" stroke-opacity="1" stroke-width="3.2"></circle>
<circle clip-path="url(#clip872)" cx="1329.4" cy="743.498" r="14.4" fill="#ffc0cb" fill-rule="evenodd" fill-opacity="1" stroke="#000000" stroke-opacity="1" stroke-width="3.2"></circle>
<circle clip-path="url(#clip872)" cx="1339.55" cy="658.464" r="14.4" fill="#ffc0cb" fill-rule="evenodd" fill-opacity="1" stroke="#000000" stroke-opacity="1" stroke-width="3.2"></circle>
<circle clip-path="url(#clip872)" cx="1349.7" cy="762.515" r="14.4" fill="#ffc0cb" fill-rule="evenodd" fill-opacity="1" stroke="#000000" stroke-opacity="1" stroke-width="3.2"></circle>
<circle clip-path="url(#clip872)" cx="1359.85" cy="530.099" r="14.4" fill="#ffc0cb" fill-rule="evenodd" fill-opacity="1" stroke="#000000" stroke-opacity="1" stroke-width="3.2"></circle>
<circle clip-path="url(#clip872)" cx="1370" cy="645.696" r="14.4" fill="#ffc0cb" fill-rule="evenodd" fill-opacity="1" stroke="#000000" stroke-opacity="1" stroke-width="3.2"></circle>
<circle clip-path="url(#clip872)" cx="1380.15" cy="555.093" r="14.4" fill="#ffc0cb" fill-rule="evenodd" fill-opacity="1" stroke="#000000" stroke-opacity="1" stroke-width="3.2"></circle>
<circle clip-path="url(#clip872)" cx="1390.3" cy="645.152" r="14.4" fill="#ffc0cb" fill-rule="evenodd" fill-opacity="1" stroke="#000000" stroke-opacity="1" stroke-width="3.2"></circle>
<circle clip-path="url(#clip872)" cx="1400.45" cy="785.2" r="14.4" fill="#ffc0cb" fill-rule="evenodd" fill-opacity="1" stroke="#000000" stroke-opacity="1" stroke-width="3.2"></circle>
<circle clip-path="url(#clip872)" cx="1410.6" cy="834.101" r="14.4" fill="#ffc0cb" fill-rule="evenodd" fill-opacity="1" stroke="#000000" stroke-opacity="1" stroke-width="3.2"></circle>
<circle clip-path="url(#clip872)" cx="1420.75" cy="867.381" r="14.4" fill="#ffc0cb" fill-rule="evenodd" fill-opacity="1" stroke="#000000" stroke-opacity="1" stroke-width="3.2"></circle>
<circle clip-path="url(#clip872)" cx="1430.9" cy="646.375" r="14.4" fill="#ffc0cb" fill-rule="evenodd" fill-opacity="1" stroke="#000000" stroke-opacity="1" stroke-width="3.2"></circle>
<circle clip-path="url(#clip872)" cx="1441.05" cy="612.552" r="14.4" fill="#ffc0cb" fill-rule="evenodd" fill-opacity="1" stroke="#000000" stroke-opacity="1" stroke-width="3.2"></circle>
<circle clip-path="url(#clip872)" cx="1451.2" cy="468.565" r="14.4" fill="#ffc0cb" fill-rule="evenodd" fill-opacity="1" stroke="#000000" stroke-opacity="1" stroke-width="3.2"></circle>
<circle clip-path="url(#clip872)" cx="1461.36" cy="468.701" r="14.4" fill="#ffc0cb" fill-rule="evenodd" fill-opacity="1" stroke="#000000" stroke-opacity="1" stroke-width="3.2"></circle>
<circle clip-path="url(#clip872)" cx="1471.51" cy="445.065" r="14.4" fill="#ffc0cb" fill-rule="evenodd" fill-opacity="1" stroke="#000000" stroke-opacity="1" stroke-width="3.2"></circle>
<circle clip-path="url(#clip872)" cx="1481.66" cy="748.116" r="14.4" fill="#ffc0cb" fill-rule="evenodd" fill-opacity="1" stroke="#000000" stroke-opacity="1" stroke-width="3.2"></circle>
<circle clip-path="url(#clip872)" cx="1491.81" cy="718.368" r="14.4" fill="#ffc0cb" fill-rule="evenodd" fill-opacity="1" stroke="#000000" stroke-opacity="1" stroke-width="3.2"></circle>
<circle clip-path="url(#clip872)" cx="1501.96" cy="534.174" r="14.4" fill="#ffc0cb" fill-rule="evenodd" fill-opacity="1" stroke="#000000" stroke-opacity="1" stroke-width="3.2"></circle>
<circle clip-path="url(#clip872)" cx="1512.11" cy="434.063" r="14.4" fill="#ffc0cb" fill-rule="evenodd" fill-opacity="1" stroke="#000000" stroke-opacity="1" stroke-width="3.2"></circle>
<circle clip-path="url(#clip872)" cx="1522.26" cy="395.349" r="14.4" fill="#ffc0cb" fill-rule="evenodd" fill-opacity="1" stroke="#000000" stroke-opacity="1" stroke-width="3.2"></circle>
<circle clip-path="url(#clip872)" cx="1532.41" cy="448.19" r="14.4" fill="#ffc0cb" fill-rule="evenodd" fill-opacity="1" stroke="#000000" stroke-opacity="1" stroke-width="3.2"></circle>
<circle clip-path="url(#clip872)" cx="1542.56" cy="556.451" r="14.4" fill="#ffc0cb" fill-rule="evenodd" fill-opacity="1" stroke="#000000" stroke-opacity="1" stroke-width="3.2"></circle>
<circle clip-path="url(#clip872)" cx="1552.71" cy="775.42" r="14.4" fill="#ffc0cb" fill-rule="evenodd" fill-opacity="1" stroke="#000000" stroke-opacity="1" stroke-width="3.2"></circle>
<circle clip-path="url(#clip872)" cx="1562.86" cy="747.845" r="14.4" fill="#ffc0cb" fill-rule="evenodd" fill-opacity="1" stroke="#000000" stroke-opacity="1" stroke-width="3.2"></circle>
<circle clip-path="url(#clip872)" cx="1573.01" cy="426.456" r="14.4" fill="#ffc0cb" fill-rule="evenodd" fill-opacity="1" stroke="#000000" stroke-opacity="1" stroke-width="3.2"></circle>
<circle clip-path="url(#clip872)" cx="1583.16" cy="548.98" r="14.4" fill="#ffc0cb" fill-rule="evenodd" fill-opacity="1" stroke="#000000" stroke-opacity="1" stroke-width="3.2"></circle>
<circle clip-path="url(#clip872)" cx="1593.31" cy="514.07" r="14.4" fill="#ffc0cb" fill-rule="evenodd" fill-opacity="1" stroke="#000000" stroke-opacity="1" stroke-width="3.2"></circle>
<circle clip-path="url(#clip872)" cx="1603.46" cy="398.474" r="14.4" fill="#ffc0cb" fill-rule="evenodd" fill-opacity="1" stroke="#000000" stroke-opacity="1" stroke-width="3.2"></circle>
<circle clip-path="url(#clip872)" cx="1613.61" cy="349.844" r="14.4" fill="#ffc0cb" fill-rule="evenodd" fill-opacity="1" stroke="#000000" stroke-opacity="1" stroke-width="3.2"></circle>
<circle clip-path="url(#clip872)" cx="1623.76" cy="662.811" r="14.4" fill="#ffc0cb" fill-rule="evenodd" fill-opacity="1" stroke="#000000" stroke-opacity="1" stroke-width="3.2"></circle>
<circle clip-path="url(#clip872)" cx="1633.91" cy="681.692" r="14.4" fill="#ffc0cb" fill-rule="evenodd" fill-opacity="1" stroke="#000000" stroke-opacity="1" stroke-width="3.2"></circle>
<circle clip-path="url(#clip872)" cx="1644.06" cy="452.536" r="14.4" fill="#ffc0cb" fill-rule="evenodd" fill-opacity="1" stroke="#000000" stroke-opacity="1" stroke-width="3.2"></circle>
<circle clip-path="url(#clip872)" cx="1654.21" cy="566.639" r="14.4" fill="#ffc0cb" fill-rule="evenodd" fill-opacity="1" stroke="#000000" stroke-opacity="1" stroke-width="3.2"></circle>
<circle clip-path="url(#clip872)" cx="1664.36" cy="238.051" r="14.4" fill="#ffc0cb" fill-rule="evenodd" fill-opacity="1" stroke="#000000" stroke-opacity="1" stroke-width="3.2"></circle>
<circle clip-path="url(#clip872)" cx="1674.51" cy="355.549" r="14.4" fill="#ffc0cb" fill-rule="evenodd" fill-opacity="1" stroke="#000000" stroke-opacity="1" stroke-width="3.2"></circle>
<circle clip-path="url(#clip872)" cx="1684.66" cy="467.207" r="14.4" fill="#ffc0cb" fill-rule="evenodd" fill-opacity="1" stroke="#000000" stroke-opacity="1" stroke-width="3.2"></circle>
<circle clip-path="url(#clip872)" cx="1694.81" cy="639.855" r="14.4" fill="#ffc0cb" fill-rule="evenodd" fill-opacity="1" stroke="#000000" stroke-opacity="1" stroke-width="3.2"></circle>
<circle clip-path="url(#clip872)" cx="1704.96" cy="708.724" r="14.4" fill="#ffc0cb" fill-rule="evenodd" fill-opacity="1" stroke="#000000" stroke-opacity="1" stroke-width="3.2"></circle>
<circle clip-path="url(#clip872)" cx="1715.11" cy="405.13" r="14.4" fill="#ffc0cb" fill-rule="evenodd" fill-opacity="1" stroke="#000000" stroke-opacity="1" stroke-width="3.2"></circle>
<circle clip-path="url(#clip872)" cx="1725.26" cy="602.907" r="14.4" fill="#ffc0cb" fill-rule="evenodd" fill-opacity="1" stroke="#000000" stroke-opacity="1" stroke-width="3.2"></circle>
<circle clip-path="url(#clip872)" cx="1735.41" cy="334.223" r="14.4" fill="#ffc0cb" fill-rule="evenodd" fill-opacity="1" stroke="#000000" stroke-opacity="1" stroke-width="3.2"></circle>
<circle clip-path="url(#clip872)" cx="1745.56" cy="235.334" r="14.4" fill="#ffc0cb" fill-rule="evenodd" fill-opacity="1" stroke="#000000" stroke-opacity="1" stroke-width="3.2"></circle>
<circle clip-path="url(#clip872)" cx="1755.71" cy="86.1857" r="14.4" fill="#ffc0cb" fill-rule="evenodd" fill-opacity="1" stroke="#000000" stroke-opacity="1" stroke-width="3.2"></circle>
<circle clip-path="url(#clip872)" cx="1765.86" cy="725.024" r="14.4" fill="#ffc0cb" fill-rule="evenodd" fill-opacity="1" stroke="#000000" stroke-opacity="1" stroke-width="3.2"></circle>
<circle clip-path="url(#clip872)" cx="1776.01" cy="736.706" r="14.4" fill="#ffc0cb" fill-rule="evenodd" fill-opacity="1" stroke="#000000" stroke-opacity="1" stroke-width="3.2"></circle>
<circle clip-path="url(#clip872)" cx="1786.17" cy="549.116" r="14.4" fill="#ffc0cb" fill-rule="evenodd" fill-opacity="1" stroke="#000000" stroke-opacity="1" stroke-width="3.2"></circle>
<circle clip-path="url(#clip872)" cx="1796.32" cy="550.339" r="14.4" fill="#ffc0cb" fill-rule="evenodd" fill-opacity="1" stroke="#000000" stroke-opacity="1" stroke-width="3.2"></circle>
<circle clip-path="url(#clip872)" cx="1806.47" cy="489.076" r="14.4" fill="#ffc0cb" fill-rule="evenodd" fill-opacity="1" stroke="#000000" stroke-opacity="1" stroke-width="3.2"></circle>
<circle clip-path="url(#clip872)" cx="1816.62" cy="471.825" r="14.4" fill="#ffc0cb" fill-rule="evenodd" fill-opacity="1" stroke="#000000" stroke-opacity="1" stroke-width="3.2"></circle>
<circle clip-path="url(#clip872)" cx="1826.77" cy="501.981" r="14.4" fill="#ffc0cb" fill-rule="evenodd" fill-opacity="1" stroke="#000000" stroke-opacity="1" stroke-width="3.2"></circle>
<circle clip-path="url(#clip872)" cx="1836.92" cy="789.818" r="14.4" fill="#ffc0cb" fill-rule="evenodd" fill-opacity="1" stroke="#000000" stroke-opacity="1" stroke-width="3.2"></circle>
<circle clip-path="url(#clip872)" cx="1847.07" cy="629.26" r="14.4" fill="#ffc0cb" fill-rule="evenodd" fill-opacity="1" stroke="#000000" stroke-opacity="1" stroke-width="3.2"></circle>
<circle clip-path="url(#clip872)" cx="1857.22" cy="476.036" r="14.4" fill="#ffc0cb" fill-rule="evenodd" fill-opacity="1" stroke="#000000" stroke-opacity="1" stroke-width="3.2"></circle>
<circle clip-path="url(#clip872)" cx="1867.37" cy="588.509" r="14.4" fill="#ffc0cb" fill-rule="evenodd" fill-opacity="1" stroke="#000000" stroke-opacity="1" stroke-width="3.2"></circle>
<circle clip-path="url(#clip872)" cx="1877.52" cy="382.988" r="14.4" fill="#ffc0cb" fill-rule="evenodd" fill-opacity="1" stroke="#000000" stroke-opacity="1" stroke-width="3.2"></circle>
<circle clip-path="url(#clip872)" cx="1887.67" cy="621.109" r="14.4" fill="#ffc0cb" fill-rule="evenodd" fill-opacity="1" stroke="#000000" stroke-opacity="1" stroke-width="3.2"></circle>
<circle clip-path="url(#clip872)" cx="1897.82" cy="522.356" r="14.4" fill="#ffc0cb" fill-rule="evenodd" fill-opacity="1" stroke="#000000" stroke-opacity="1" stroke-width="3.2"></circle>
<circle clip-path="url(#clip872)" cx="1907.97" cy="780.038" r="14.4" fill="#ffc0cb" fill-rule="evenodd" fill-opacity="1" stroke="#000000" stroke-opacity="1" stroke-width="3.2"></circle>
<circle clip-path="url(#clip872)" cx="1918.12" cy="899.166" r="14.4" fill="#ffc0cb" fill-rule="evenodd" fill-opacity="1" stroke="#000000" stroke-opacity="1" stroke-width="3.2"></circle>
<circle clip-path="url(#clip872)" cx="1928.27" cy="636.323" r="14.4" fill="#ffc0cb" fill-rule="evenodd" fill-opacity="1" stroke="#000000" stroke-opacity="1" stroke-width="3.2"></circle>
<circle clip-path="url(#clip872)" cx="1938.42" cy="597.474" r="14.4" fill="#ffc0cb" fill-rule="evenodd" fill-opacity="1" stroke="#000000" stroke-opacity="1" stroke-width="3.2"></circle>
<circle clip-path="url(#clip872)" cx="1948.57" cy="463.947" r="14.4" fill="#ffc0cb" fill-rule="evenodd" fill-opacity="1" stroke="#000000" stroke-opacity="1" stroke-width="3.2"></circle>
<circle clip-path="url(#clip872)" cx="1958.72" cy="579" r="14.4" fill="#ffc0cb" fill-rule="evenodd" fill-opacity="1" stroke="#000000" stroke-opacity="1" stroke-width="3.2"></circle>
<circle clip-path="url(#clip872)" cx="1968.87" cy="503.747" r="14.4" fill="#ffc0cb" fill-rule="evenodd" fill-opacity="1" stroke="#000000" stroke-opacity="1" stroke-width="3.2"></circle>
<circle clip-path="url(#clip872)" cx="1979.02" cy="847.956" r="14.4" fill="#ffc0cb" fill-rule="evenodd" fill-opacity="1" stroke="#000000" stroke-opacity="1" stroke-width="3.2"></circle>
<circle clip-path="url(#clip872)" cx="1989.17" cy="903.242" r="14.4" fill="#ffc0cb" fill-rule="evenodd" fill-opacity="1" stroke="#000000" stroke-opacity="1" stroke-width="3.2"></circle>
<circle clip-path="url(#clip872)" cx="1999.32" cy="716.467" r="14.4" fill="#ffc0cb" fill-rule="evenodd" fill-opacity="1" stroke="#000000" stroke-opacity="1" stroke-width="3.2"></circle>
<circle clip-path="url(#clip872)" cx="2009.47" cy="668.788" r="14.4" fill="#ffc0cb" fill-rule="evenodd" fill-opacity="1" stroke="#000000" stroke-opacity="1" stroke-width="3.2"></circle>
<circle clip-path="url(#clip872)" cx="2019.62" cy="565.688" r="14.4" fill="#ffc0cb" fill-rule="evenodd" fill-opacity="1" stroke="#000000" stroke-opacity="1" stroke-width="3.2"></circle>
<circle clip-path="url(#clip872)" cx="2029.77" cy="593.127" r="14.4" fill="#ffc0cb" fill-rule="evenodd" fill-opacity="1" stroke="#000000" stroke-opacity="1" stroke-width="3.2"></circle>
<circle clip-path="url(#clip872)" cx="2039.92" cy="572.752" r="14.4" fill="#ffc0cb" fill-rule="evenodd" fill-opacity="1" stroke="#000000" stroke-opacity="1" stroke-width="3.2"></circle>
<circle clip-path="url(#clip872)" cx="2050.07" cy="823.37" r="14.4" fill="#ffc0cb" fill-rule="evenodd" fill-opacity="1" stroke="#000000" stroke-opacity="1" stroke-width="3.2"></circle>
<circle clip-path="url(#clip872)" cx="2060.22" cy="879.063" r="14.4" fill="#ffc0cb" fill-rule="evenodd" fill-opacity="1" stroke="#000000" stroke-opacity="1" stroke-width="3.2"></circle>
<circle clip-path="url(#clip872)" cx="2070.37" cy="504.562" r="14.4" fill="#ffc0cb" fill-rule="evenodd" fill-opacity="1" stroke="#000000" stroke-opacity="1" stroke-width="3.2"></circle>
<circle clip-path="url(#clip872)" cx="2080.52" cy="715.787" r="14.4" fill="#ffc0cb" fill-rule="evenodd" fill-opacity="1" stroke="#000000" stroke-opacity="1" stroke-width="3.2"></circle>
<circle clip-path="url(#clip872)" cx="2090.67" cy="577.778" r="14.4" fill="#ffc0cb" fill-rule="evenodd" fill-opacity="1" stroke="#000000" stroke-opacity="1" stroke-width="3.2"></circle>
<circle clip-path="url(#clip872)" cx="2100.83" cy="542.596" r="14.4" fill="#ffc0cb" fill-rule="evenodd" fill-opacity="1" stroke="#000000" stroke-opacity="1" stroke-width="3.2"></circle>
<circle clip-path="url(#clip872)" cx="2110.98" cy="525.888" r="14.4" fill="#ffc0cb" fill-rule="evenodd" fill-opacity="1" stroke="#000000" stroke-opacity="1" stroke-width="3.2"></circle>
<circle clip-path="url(#clip872)" cx="2121.13" cy="757.489" r="14.4" fill="#ffc0cb" fill-rule="evenodd" fill-opacity="1" stroke="#000000" stroke-opacity="1" stroke-width="3.2"></circle>
<circle clip-path="url(#clip872)" cx="2131.28" cy="910.713" r="14.4" fill="#ffc0cb" fill-rule="evenodd" fill-opacity="1" stroke="#000000" stroke-opacity="1" stroke-width="3.2"></circle>
<circle clip-path="url(#clip872)" cx="2141.43" cy="657.378" r="14.4" fill="#ffc0cb" fill-rule="evenodd" fill-opacity="1" stroke="#000000" stroke-opacity="1" stroke-width="3.2"></circle>
<circle clip-path="url(#clip872)" cx="2151.58" cy="753.007" r="14.4" fill="#ffc0cb" fill-rule="evenodd" fill-opacity="1" stroke="#000000" stroke-opacity="1" stroke-width="3.2"></circle>
<circle clip-path="url(#clip872)" cx="2161.73" cy="724.481" r="14.4" fill="#ffc0cb" fill-rule="evenodd" fill-opacity="1" stroke="#000000" stroke-opacity="1" stroke-width="3.2"></circle>
<circle clip-path="url(#clip872)" cx="2171.88" cy="578.049" r="14.4" fill="#ffc0cb" fill-rule="evenodd" fill-opacity="1" stroke="#000000" stroke-opacity="1" stroke-width="3.2"></circle>
<circle clip-path="url(#clip872)" cx="2182.03" cy="613.503" r="14.4" fill="#ffc0cb" fill-rule="evenodd" fill-opacity="1" stroke="#000000" stroke-opacity="1" stroke-width="3.2"></circle>
<circle clip-path="url(#clip872)" cx="2192.18" cy="785.471" r="14.4" fill="#ffc0cb" fill-rule="evenodd" fill-opacity="1" stroke="#000000" stroke-opacity="1" stroke-width="3.2"></circle>
<circle clip-path="url(#clip872)" cx="2202.33" cy="931.224" r="14.4" fill="#ffc0cb" fill-rule="evenodd" fill-opacity="1" stroke="#000000" stroke-opacity="1" stroke-width="3.2"></circle>
<circle clip-path="url(#clip872)" cx="2212.48" cy="736.163" r="14.4" fill="#ffc0cb" fill-rule="evenodd" fill-opacity="1" stroke="#000000" stroke-opacity="1" stroke-width="3.2"></circle>
<circle clip-path="url(#clip872)" cx="2222.63" cy="780.581" r="14.4" fill="#ffc0cb" fill-rule="evenodd" fill-opacity="1" stroke="#000000" stroke-opacity="1" stroke-width="3.2"></circle>
<circle clip-path="url(#clip872)" cx="2232.78" cy="952.007" r="14.4" fill="#ffc0cb" fill-rule="evenodd" fill-opacity="1" stroke="#000000" stroke-opacity="1" stroke-width="3.2"></circle>
<circle clip-path="url(#clip872)" cx="2242.93" cy="726.654" r="14.4" fill="#ffc0cb" fill-rule="evenodd" fill-opacity="1" stroke="#000000" stroke-opacity="1" stroke-width="3.2"></circle>
<circle clip-path="url(#clip872)" cx="2253.08" cy="682.372" r="14.4" fill="#ffc0cb" fill-rule="evenodd" fill-opacity="1" stroke="#000000" stroke-opacity="1" stroke-width="3.2"></circle>
<circle clip-path="url(#clip872)" cx="2263.23" cy="903.106" r="14.4" fill="#ffc0cb" fill-rule="evenodd" fill-opacity="1" stroke="#000000" stroke-opacity="1" stroke-width="3.2"></circle>
<circle clip-path="url(#clip872)" cx="2273.38" cy="988.003" r="14.4" fill="#ffc0cb" fill-rule="evenodd" fill-opacity="1" stroke="#000000" stroke-opacity="1" stroke-width="3.2"></circle>
<circle clip-path="url(#clip872)" cx="2283.53" cy="748.116" r="14.4" fill="#ffc0cb" fill-rule="evenodd" fill-opacity="1" stroke="#000000" stroke-opacity="1" stroke-width="3.2"></circle>
<circle clip-path="url(#clip872)" cx="2293.68" cy="734.125" r="14.4" fill="#ffc0cb" fill-rule="evenodd" fill-opacity="1" stroke="#000000" stroke-opacity="1" stroke-width="3.2"></circle>
<polyline clip-path="url(#clip872)" style="stroke:#e26f46; stroke-linecap:round; stroke-linejoin:round; stroke-width:4; stroke-opacity:1; fill:none" points="324.52,1384.24 334.67,1384.24 344.82,1384.24 354.971,1384.24 365.121,1384.24 375.271,1384.24 385.421,1384.24 395.572,1384.24 405.722,1384.24 415.872,1384.24 426.023,1384.24 436.173,1384.23 446.323,1384.23 456.474,1384.22 466.624,1384.21 476.774,1384.19 486.925,1384.15 497.075,1384.1 507.225,1384.02 517.376,1383.9 527.526,1383.75 537.676,1383.53 547.827,1383.25 557.977,1382.89 568.127,1382.43 578.277,1381.86 588.428,1381.16 598.578,1380.31 608.728,1379.3 618.879,1378.1 629.029,1376.7 639.179,1375.07 649.33,1373.21 659.48,1371.09 669.63,1368.69 679.781,1366.01 689.931,1363.02 700.081,1359.71 710.232,1356.08 720.382,1352.1 730.532,1347.77 740.683,1343.08 750.833,1338.03 760.983,1332.61 771.134,1326.81 781.284,1320.64 791.434,1314.1 801.584,1307.18 811.735,1299.9 821.885,1292.25 832.035,1284.23 842.186,1275.87 852.336,1267.16 862.486,1258.12 872.637,1248.75 882.787,1239.06 892.937,1229.08 903.088,1218.8 913.238,1208.25 923.388,1197.44 933.539,1186.39 943.689,1175.1 953.839,1163.59 963.99,1151.89 974.14,1140.01 984.29,1127.95 994.44,1115.75 1004.59,1103.41 1014.74,1090.96 1024.89,1078.41 1035.04,1065.77 1045.19,1053.06 1055.34,1040.3 1065.49,1027.51 1075.64,1014.69 1085.79,1001.87 1095.94,989.059 1106.09,976.27 1116.24,963.518 1126.39,950.818 1136.54,938.182 1146.7,925.623 1156.85,913.153 1167,900.785 1177.15,888.529 1187.3,876.397 1197.45,864.399 1207.6,852.544 1217.75,840.842 1227.9,829.303 1238.05,817.933 1248.2,806.743 1258.35,795.737 1268.5,784.925 1278.65,774.312 1288.8,763.904 1298.95,753.707 1309.1,743.726 1319.25,733.966 1329.4,724.43 1339.55,715.124 1349.7,706.051 1359.85,697.213 1370,688.613 1380.15,680.253 1390.3,672.137 1400.45,664.265 1410.6,656.638 1420.75,649.258 1430.9,642.126 1441.05,635.241 1451.2,628.604 1461.36,622.216 1471.51,616.074 1481.66,610.18 1491.81,604.532 1501.96,599.128 1512.11,593.968 1522.26,589.051 1532.41,584.374 1542.56,579.936 1552.71,575.734 1562.86,571.767 1573.01,568.032 1583.16,564.527 1593.31,561.25 1603.46,558.197 1613.61,555.365 1623.76,552.752 1633.91,550.356 1644.06,548.171 1654.21,546.197 1664.36,544.429 1674.51,542.863 1684.66,541.498 1694.81,540.328 1704.96,539.351 1715.11,538.564 1725.26,537.962 1735.41,537.543 1745.56,537.302 1755.71,537.235 1765.86,537.341 1776.01,537.613 1786.17,538.05 1796.32,538.648 1806.47,539.402 1816.62,540.309 1826.77,541.365 1836.92,542.568 1847.07,543.913 1857.22,545.396 1867.37,547.014 1877.52,548.765 1887.67,550.643 1897.82,552.645 1907.97,554.769 1918.12,557.011 1928.27,559.367 1938.42,561.834 1948.57,564.408 1958.72,567.087 1968.87,569.867 1979.02,572.745 1989.17,575.717 1999.32,578.782 2009.47,581.935 2019.62,585.173 2029.77,588.494 2039.92,591.895 2050.07,595.372 2060.22,598.923 2070.37,602.546 2080.52,606.236 2090.67,609.993 2100.83,613.812 2110.98,617.692 2121.13,621.63 2131.28,625.623 2141.43,629.669 2151.58,633.765 2161.73,637.91 2171.88,642.1 2182.03,646.334 2192.18,650.609 2202.33,654.923 2212.48,659.274 2222.63,663.661 2232.78,668.08 2242.93,672.53 2253.08,677.009 2263.23,681.515 2273.38,686.046 2283.53,690.6 2293.68,695.177 "></polyline>
<polyline clip-path="url(#clip872)" style="stroke:#3da44d; stroke-linecap:round; stroke-linejoin:round; stroke-width:4; stroke-opacity:1; fill:none" points="324.52,1384.24 334.67,1384.24 344.82,1384.24 354.971,1384.24 365.121,1384.24 375.271,1384.24 385.421,1384.24 395.572,1384.24 405.722,1384.23 415.872,1384.23 426.023,1384.22 436.173,1384.2 446.323,1384.16 456.474,1384.1 466.624,1384.01 476.774,1383.88 486.925,1383.69 497.075,1383.42 507.225,1383.07 517.376,1382.61 527.526,1382.02 537.676,1381.28 547.827,1380.38 557.977,1379.28 568.127,1377.97 578.277,1376.42 588.428,1374.63 598.578,1372.56 608.728,1370.2 618.879,1367.53 629.029,1364.54 639.179,1361.22 649.33,1357.54 659.48,1353.51 669.63,1349.11 679.781,1344.34 689.931,1339.2 700.081,1333.67 710.232,1327.76 720.382,1321.47 730.532,1314.81 740.683,1307.77 750.833,1300.37 760.983,1292.61 771.134,1284.49 781.284,1276.03 791.434,1267.24 801.584,1258.14 811.735,1248.72 821.885,1239.01 832.035,1229.02 842.186,1218.76 852.336,1208.26 862.486,1197.51 872.637,1186.55 882.787,1175.39 892.937,1164.04 903.088,1152.52 913.238,1140.85 923.388,1129.04 933.539,1117.1 943.689,1105.07 953.839,1092.94 963.99,1080.74 974.14,1068.48 984.29,1056.18 994.44,1043.86 1004.59,1031.52 1014.74,1019.18 1024.89,1006.85 1035.04,994.552 1045.19,982.294 1055.34,970.09 1065.49,957.95 1075.64,945.886 1085.79,933.91 1095.94,922.031 1106.09,910.26 1116.24,898.607 1126.39,887.079 1136.54,875.686 1146.7,864.437 1156.85,853.337 1167,842.396 1177.15,831.619 1187.3,821.013 1197.45,810.583 1207.6,800.336 1217.75,790.275 1227.9,780.407 1238.05,770.734 1248.2,761.261 1258.35,751.991 1268.5,742.927 1278.65,734.073 1288.8,725.431 1298.95,717.002 1309.1,708.788 1319.25,700.792 1329.4,693.014 1339.55,685.455 1349.7,678.116 1359.85,670.997 1370,664.099 1380.15,657.422 1390.3,650.964 1400.45,644.727 1410.6,638.709 1420.75,632.909 1430.9,627.327 1441.05,621.961 1451.2,616.809 1461.36,611.871 1471.51,607.145 1481.66,602.628 1491.81,598.32 1501.96,594.218 1512.11,590.32 1522.26,586.623 1532.41,583.127 1542.56,579.827 1552.71,576.722 1562.86,573.809 1573.01,571.085 1583.16,568.549 1593.31,566.196 1603.46,564.025 1613.61,562.033 1623.76,560.216 1633.91,558.572 1644.06,557.098 1654.21,555.791 1664.36,554.648 1674.51,553.666 1684.66,552.843 1694.81,552.174 1704.96,551.658 1715.11,551.29 1725.26,551.069 1735.41,550.99 1745.56,551.052 1755.71,551.251 1765.86,551.584 1776.01,552.048 1786.17,552.64 1796.32,553.357 1806.47,554.197 1816.62,555.156 1826.77,556.232 1836.92,557.421 1847.07,558.721 1857.22,560.13 1867.37,561.643 1877.52,563.259 1887.67,564.975 1897.82,566.788 1907.97,568.695 1918.12,570.695 1928.27,572.783 1938.42,574.958 1948.57,577.218 1958.72,579.559 1968.87,581.979 1979.02,584.476 1989.17,587.048 1999.32,589.691 2009.47,592.405 2019.62,595.186 2029.77,598.032 2039.92,600.942 2050.07,603.912 2060.22,606.941 2070.37,610.027 2080.52,613.167 2090.67,616.36 2100.83,619.604 2110.98,622.897 2121.13,626.236 2131.28,629.621 2141.43,633.049 2151.58,636.518 2161.73,640.026 2171.88,643.573 2182.03,647.155 2192.18,650.773 2202.33,654.423 2212.48,658.104 2222.63,661.816 2232.78,665.555 2242.93,669.322 2253.08,673.113 2263.23,676.929 2273.38,680.767 2283.53,684.627 2293.68,688.506 "></polyline>
<path clip-path="url(#clip870)" d="M335.022 300.469 L962.964 300.469 L962.964 93.1086 L335.022 93.1086  Z" fill="#ffffff" fill-rule="evenodd" fill-opacity="1"></path>
<polyline clip-path="url(#clip870)" style="stroke:#000000; stroke-linecap:round; stroke-linejoin:round; stroke-width:4; stroke-opacity:1; fill:none" points="335.022,300.469 962.964,300.469 962.964,93.1086 335.022,93.1086 335.022,300.469 "></polyline>
<circle clip-path="url(#clip870)" cx="427.791" cy="144.949" r="20.48" fill="#ffc0cb" fill-rule="evenodd" fill-opacity="1" stroke="#000000" stroke-opacity="1" stroke-width="4.55111"></circle>
<path clip-path="url(#clip870)" d="M548.431 130.331 L548.431 135.261 Q546.07 133.062 543.384 131.974 Q540.722 130.886 537.713 130.886 Q531.787 130.886 528.639 134.52 Q525.491 138.132 525.491 144.983 Q525.491 151.812 528.639 155.446 Q531.787 159.057 537.713 159.057 Q540.722 159.057 543.384 157.969 Q546.07 156.881 548.431 154.682 L548.431 159.567 Q545.977 161.233 543.222 162.067 Q540.491 162.9 537.435 162.9 Q529.588 162.9 525.074 158.108 Q520.561 153.293 520.561 144.983 Q520.561 136.65 525.074 131.858 Q529.588 127.044 537.435 127.044 Q540.537 127.044 543.269 127.877 Q546.023 128.687 548.431 130.331 Z" fill="#000000" fill-rule="nonzero" fill-opacity="1"></path><path clip-path="url(#clip870)" d="M567.25 149.196 Q562.088 149.196 560.097 150.377 Q558.107 151.557 558.107 154.405 Q558.107 156.673 559.588 158.016 Q561.093 159.335 563.662 159.335 Q567.204 159.335 569.333 156.835 Q571.486 154.312 571.486 150.145 L571.486 149.196 L567.25 149.196 M575.745 147.437 L575.745 162.229 L571.486 162.229 L571.486 158.293 Q570.028 160.655 567.852 161.789 Q565.676 162.9 562.528 162.9 Q558.546 162.9 556.185 160.678 Q553.847 158.432 553.847 154.682 Q553.847 150.307 556.764 148.085 Q559.704 145.863 565.514 145.863 L571.486 145.863 L571.486 145.446 Q571.486 142.507 569.542 140.909 Q567.62 139.289 564.125 139.289 Q561.903 139.289 559.796 139.821 Q557.69 140.354 555.746 141.419 L555.746 137.483 Q558.083 136.581 560.283 136.141 Q562.482 135.678 564.565 135.678 Q570.19 135.678 572.968 138.594 Q575.745 141.511 575.745 147.437 Z" fill="#000000" fill-rule="nonzero" fill-opacity="1"></path><path clip-path="url(#clip870)" d="M601.046 137.067 L601.046 141.094 Q599.241 140.169 597.296 139.706 Q595.352 139.243 593.268 139.243 Q590.097 139.243 588.5 140.215 Q586.926 141.187 586.926 143.131 Q586.926 144.613 588.06 145.469 Q589.194 146.303 592.62 147.067 L594.079 147.391 Q598.616 148.363 600.514 150.145 Q602.435 151.905 602.435 155.076 Q602.435 158.687 599.565 160.793 Q596.718 162.9 591.718 162.9 Q589.634 162.9 587.366 162.483 Q585.12 162.09 582.62 161.28 L582.62 156.881 Q584.981 158.108 587.273 158.733 Q589.565 159.335 591.81 159.335 Q594.819 159.335 596.44 158.317 Q598.06 157.275 598.06 155.4 Q598.06 153.664 596.88 152.738 Q595.722 151.812 591.764 150.956 L590.282 150.608 Q586.324 149.775 584.565 148.062 Q582.806 146.326 582.806 143.317 Q582.806 139.659 585.398 137.669 Q587.991 135.678 592.759 135.678 Q595.12 135.678 597.204 136.025 Q599.287 136.372 601.046 137.067 Z" fill="#000000" fill-rule="nonzero" fill-opacity="1"></path><path clip-path="url(#clip870)" d="M619.264 139.289 Q615.838 139.289 613.847 141.974 Q611.856 144.636 611.856 149.289 Q611.856 153.942 613.824 156.627 Q615.815 159.289 619.264 159.289 Q622.666 159.289 624.657 156.604 Q626.648 153.918 626.648 149.289 Q626.648 144.682 624.657 141.997 Q622.666 139.289 619.264 139.289 M619.264 135.678 Q624.819 135.678 627.991 139.289 Q631.162 142.9 631.162 149.289 Q631.162 155.655 627.991 159.289 Q624.819 162.9 619.264 162.9 Q613.685 162.9 610.514 159.289 Q607.366 155.655 607.366 149.289 Q607.366 142.9 610.514 139.289 Q613.685 135.678 619.264 135.678 Z" fill="#000000" fill-rule="nonzero" fill-opacity="1"></path><path clip-path="url(#clip870)" d="M654.75 137.067 L654.75 141.094 Q652.944 140.169 651 139.706 Q649.055 139.243 646.972 139.243 Q643.801 139.243 642.203 140.215 Q640.629 141.187 640.629 143.131 Q640.629 144.613 641.764 145.469 Q642.898 146.303 646.324 147.067 L647.782 147.391 Q652.319 148.363 654.217 150.145 Q656.139 151.905 656.139 155.076 Q656.139 158.687 653.268 160.793 Q650.421 162.9 645.421 162.9 Q643.338 162.9 641.069 162.483 Q638.824 162.09 636.324 161.28 L636.324 156.881 Q638.685 158.108 640.977 158.733 Q643.268 159.335 645.514 159.335 Q648.523 159.335 650.143 158.317 Q651.764 157.275 651.764 155.4 Q651.764 153.664 650.583 152.738 Q649.426 151.812 645.467 150.956 L643.986 150.608 Q640.027 149.775 638.268 148.062 Q636.509 146.326 636.509 143.317 Q636.509 139.659 639.102 137.669 Q641.694 135.678 646.463 135.678 Q648.824 135.678 650.907 136.025 Q652.99 136.372 654.75 137.067 Z" fill="#000000" fill-rule="nonzero" fill-opacity="1"></path><path clip-path="url(#clip870)" d="M694.518 137.067 L694.518 141.094 Q692.712 140.169 690.768 139.706 Q688.824 139.243 686.74 139.243 Q683.569 139.243 681.972 140.215 Q680.398 141.187 680.398 143.131 Q680.398 144.613 681.532 145.469 Q682.666 146.303 686.092 147.067 L687.55 147.391 Q692.087 148.363 693.986 150.145 Q695.907 151.905 695.907 155.076 Q695.907 158.687 693.036 160.793 Q690.189 162.9 685.189 162.9 Q683.106 162.9 680.837 162.483 Q678.592 162.09 676.092 161.28 L676.092 156.881 Q678.453 158.108 680.745 158.733 Q683.037 159.335 685.282 159.335 Q688.291 159.335 689.911 158.317 Q691.532 157.275 691.532 155.4 Q691.532 153.664 690.351 152.738 Q689.194 151.812 685.236 150.956 L683.754 150.608 Q679.796 149.775 678.037 148.062 Q676.277 146.326 676.277 143.317 Q676.277 139.659 678.87 137.669 Q681.462 135.678 686.231 135.678 Q688.592 135.678 690.675 136.025 Q692.759 136.372 694.518 137.067 Z" fill="#000000" fill-rule="nonzero" fill-opacity="1"></path><path clip-path="url(#clip870)" d="M724.865 148.201 L724.865 150.284 L705.282 150.284 Q705.56 154.682 707.921 156.997 Q710.305 159.289 714.541 159.289 Q716.995 159.289 719.286 158.687 Q721.601 158.085 723.87 156.881 L723.87 160.909 Q721.578 161.881 719.171 162.391 Q716.763 162.9 714.286 162.9 Q708.083 162.9 704.448 159.289 Q700.837 155.678 700.837 149.52 Q700.837 143.155 704.263 139.428 Q707.712 135.678 713.546 135.678 Q718.777 135.678 721.809 139.057 Q724.865 142.414 724.865 148.201 M720.606 146.951 Q720.559 143.456 718.638 141.372 Q716.74 139.289 713.592 139.289 Q710.027 139.289 707.874 141.303 Q705.745 143.317 705.421 146.974 L720.606 146.951 Z" fill="#000000" fill-rule="nonzero" fill-opacity="1"></path><path clip-path="url(#clip870)" d="M735.976 158.34 L735.976 172.09 L731.694 172.09 L731.694 136.303 L735.976 136.303 L735.976 140.238 Q737.319 137.923 739.356 136.812 Q741.416 135.678 744.263 135.678 Q748.985 135.678 751.925 139.428 Q754.888 143.178 754.888 149.289 Q754.888 155.4 751.925 159.15 Q748.985 162.9 744.263 162.9 Q741.416 162.9 739.356 161.789 Q737.319 160.655 735.976 158.34 M750.467 149.289 Q750.467 144.59 748.522 141.928 Q746.601 139.243 743.221 139.243 Q739.842 139.243 737.897 141.928 Q735.976 144.59 735.976 149.289 Q735.976 153.988 737.897 156.673 Q739.842 159.335 743.221 159.335 Q746.601 159.335 748.522 156.673 Q750.467 153.988 750.467 149.289 Z" fill="#000000" fill-rule="nonzero" fill-opacity="1"></path><path clip-path="url(#clip870)" d="M766.161 128.942 L766.161 136.303 L774.934 136.303 L774.934 139.613 L766.161 139.613 L766.161 153.687 Q766.161 156.858 767.018 157.761 Q767.897 158.664 770.559 158.664 L774.934 158.664 L774.934 162.229 L770.559 162.229 Q765.629 162.229 763.754 160.4 Q761.879 158.548 761.879 153.687 L761.879 139.613 L758.754 139.613 L758.754 136.303 L761.879 136.303 L761.879 128.942 L766.161 128.942 Z" fill="#000000" fill-rule="nonzero" fill-opacity="1"></path><path clip-path="url(#clip870)" d="M780.536 136.303 L784.795 136.303 L784.795 162.229 L780.536 162.229 L780.536 136.303 M780.536 126.21 L784.795 126.21 L784.795 131.604 L780.536 131.604 L780.536 126.21 Z" fill="#000000" fill-rule="nonzero" fill-opacity="1"></path><path clip-path="url(#clip870)" d="M815.883 148.201 L815.883 150.284 L796.3 150.284 Q796.578 154.682 798.939 156.997 Q801.323 159.289 805.559 159.289 Q808.013 159.289 810.304 158.687 Q812.619 158.085 814.888 156.881 L814.888 160.909 Q812.596 161.881 810.189 162.391 Q807.781 162.9 805.304 162.9 Q799.101 162.9 795.466 159.289 Q791.855 155.678 791.855 149.52 Q791.855 143.155 795.281 139.428 Q798.73 135.678 804.564 135.678 Q809.795 135.678 812.827 139.057 Q815.883 142.414 815.883 148.201 M811.624 146.951 Q811.577 143.456 809.656 141.372 Q807.758 139.289 804.61 139.289 Q801.045 139.289 798.892 141.303 Q796.763 143.317 796.439 146.974 L811.624 146.951 Z" fill="#000000" fill-rule="nonzero" fill-opacity="1"></path><path clip-path="url(#clip870)" d="M843.059 141.28 Q844.656 138.409 846.878 137.044 Q849.1 135.678 852.11 135.678 Q856.161 135.678 858.36 138.525 Q860.559 141.349 860.559 146.581 L860.559 162.229 L856.276 162.229 L856.276 146.719 Q856.276 142.993 854.957 141.187 Q853.637 139.382 850.929 139.382 Q847.619 139.382 845.698 141.581 Q843.776 143.78 843.776 147.576 L843.776 162.229 L839.494 162.229 L839.494 146.719 Q839.494 142.969 838.175 141.187 Q836.855 139.382 834.101 139.382 Q830.837 139.382 828.915 141.604 Q826.994 143.803 826.994 147.576 L826.994 162.229 L822.712 162.229 L822.712 136.303 L826.994 136.303 L826.994 140.331 Q828.452 137.946 830.489 136.812 Q832.526 135.678 835.327 135.678 Q838.151 135.678 840.119 137.113 Q842.11 138.548 843.059 141.28 Z" fill="#000000" fill-rule="nonzero" fill-opacity="1"></path><path clip-path="url(#clip870)" d="M873.174 158.34 L873.174 172.09 L868.892 172.09 L868.892 136.303 L873.174 136.303 L873.174 140.238 Q874.517 137.923 876.554 136.812 Q878.614 135.678 881.461 135.678 Q886.184 135.678 889.123 139.428 Q892.086 143.178 892.086 149.289 Q892.086 155.4 889.123 159.15 Q886.184 162.9 881.461 162.9 Q878.614 162.9 876.554 161.789 Q874.517 160.655 873.174 158.34 M887.665 149.289 Q887.665 144.59 885.721 141.928 Q883.799 139.243 880.42 139.243 Q877.04 139.243 875.096 141.928 Q873.174 144.59 873.174 149.289 Q873.174 153.988 875.096 156.673 Q877.04 159.335 880.42 159.335 Q883.799 159.335 885.721 156.673 Q887.665 153.988 887.665 149.289 Z" fill="#000000" fill-rule="nonzero" fill-opacity="1"></path><path clip-path="url(#clip870)" d="M914.17 140.284 Q913.452 139.868 912.595 139.682 Q911.762 139.474 910.744 139.474 Q907.133 139.474 905.188 141.835 Q903.267 144.173 903.267 148.571 L903.267 162.229 L898.984 162.229 L898.984 136.303 L903.267 136.303 L903.267 140.331 Q904.609 137.969 906.762 136.835 Q908.915 135.678 911.994 135.678 Q912.433 135.678 912.966 135.747 Q913.498 135.794 914.146 135.909 L914.17 140.284 Z" fill="#000000" fill-rule="nonzero" fill-opacity="1"></path><path clip-path="url(#clip870)" d="M939.771 148.201 L939.771 150.284 L920.188 150.284 Q920.466 154.682 922.827 156.997 Q925.211 159.289 929.447 159.289 Q931.901 159.289 934.193 158.687 Q936.507 158.085 938.776 156.881 L938.776 160.909 Q936.484 161.881 934.077 162.391 Q931.669 162.9 929.193 162.9 Q922.989 162.9 919.355 159.289 Q915.744 155.678 915.744 149.52 Q915.744 143.155 919.17 139.428 Q922.619 135.678 928.452 135.678 Q933.683 135.678 936.716 139.057 Q939.771 142.414 939.771 148.201 M935.512 146.951 Q935.466 143.456 933.544 141.372 Q931.646 139.289 928.498 139.289 Q924.933 139.289 922.781 141.303 Q920.651 143.317 920.327 146.974 L935.512 146.951 Z" fill="#000000" fill-rule="nonzero" fill-opacity="1"></path><polyline clip-path="url(#clip870)" style="stroke:#e26f46; stroke-linecap:round; stroke-linejoin:round; stroke-width:4; stroke-opacity:1; fill:none" points="358.214,196.789 497.368,196.789 "></polyline>
<path clip-path="url(#clip870)" d="M520.561 179.509 L525.236 179.509 L525.236 214.069 L520.561 214.069 L520.561 179.509 Z" fill="#000000" fill-rule="nonzero" fill-opacity="1"></path><path clip-path="url(#clip870)" d="M555.908 198.421 L555.908 214.069 L551.648 214.069 L551.648 198.559 Q551.648 194.879 550.213 193.05 Q548.778 191.222 545.908 191.222 Q542.459 191.222 540.468 193.421 Q538.477 195.62 538.477 199.416 L538.477 214.069 L534.195 214.069 L534.195 188.143 L538.477 188.143 L538.477 192.171 Q540.005 189.833 542.065 188.675 Q544.148 187.518 546.857 187.518 Q551.324 187.518 553.616 190.296 Q555.908 193.05 555.908 198.421 Z" fill="#000000" fill-rule="nonzero" fill-opacity="1"></path><path clip-path="url(#clip870)" d="M564.403 188.143 L568.662 188.143 L568.662 214.069 L564.403 214.069 L564.403 188.143 M564.403 178.05 L568.662 178.05 L568.662 183.444 L564.403 183.444 L564.403 178.05 Z" fill="#000000" fill-rule="nonzero" fill-opacity="1"></path><path clip-path="url(#clip870)" d="M596.231 189.138 L596.231 193.12 Q594.426 192.124 592.597 191.638 Q590.792 191.129 588.94 191.129 Q584.796 191.129 582.505 193.768 Q580.213 196.384 580.213 201.129 Q580.213 205.874 582.505 208.513 Q584.796 211.129 588.94 211.129 Q590.792 211.129 592.597 210.643 Q594.426 210.133 596.231 209.138 L596.231 213.073 Q594.449 213.907 592.528 214.323 Q590.63 214.74 588.477 214.74 Q582.62 214.74 579.171 211.059 Q575.722 207.379 575.722 201.129 Q575.722 194.786 579.194 191.152 Q582.69 187.518 588.755 187.518 Q590.722 187.518 592.597 187.935 Q594.472 188.328 596.231 189.138 Z" fill="#000000" fill-rule="nonzero" fill-opacity="1"></path><path clip-path="url(#clip870)" d="M603.639 188.143 L607.898 188.143 L607.898 214.069 L603.639 214.069 L603.639 188.143 M603.639 178.05 L607.898 178.05 L607.898 183.444 L603.639 183.444 L603.639 178.05 Z" fill="#000000" fill-rule="nonzero" fill-opacity="1"></path><path clip-path="url(#clip870)" d="M628.592 201.036 Q623.43 201.036 621.44 202.217 Q619.449 203.397 619.449 206.245 Q619.449 208.513 620.93 209.856 Q622.435 211.175 625.004 211.175 Q628.546 211.175 630.676 208.675 Q632.828 206.152 632.828 201.985 L632.828 201.036 L628.592 201.036 M637.088 199.277 L637.088 214.069 L632.828 214.069 L632.828 210.133 Q631.37 212.495 629.194 213.629 Q627.018 214.74 623.87 214.74 Q619.889 214.74 617.528 212.518 Q615.19 210.272 615.19 206.522 Q615.19 202.147 618.106 199.925 Q621.046 197.703 626.856 197.703 L632.828 197.703 L632.828 197.286 Q632.828 194.347 630.884 192.749 Q628.963 191.129 625.467 191.129 Q623.245 191.129 621.139 191.661 Q619.032 192.194 617.088 193.259 L617.088 189.323 Q619.426 188.421 621.625 187.981 Q623.824 187.518 625.907 187.518 Q631.532 187.518 634.31 190.434 Q637.088 193.351 637.088 199.277 Z" fill="#000000" fill-rule="nonzero" fill-opacity="1"></path><path clip-path="url(#clip870)" d="M645.861 178.05 L650.12 178.05 L650.12 214.069 L645.861 214.069 L645.861 178.05 Z" fill="#000000" fill-rule="nonzero" fill-opacity="1"></path><polyline clip-path="url(#clip870)" style="stroke:#3da44d; stroke-linecap:round; stroke-linejoin:round; stroke-width:4; stroke-opacity:1; fill:none" points="358.214,248.629 497.368,248.629 "></polyline>
<path clip-path="url(#clip870)" d="M536.394 235.955 L530.051 253.154 L542.759 253.154 L536.394 235.955 M533.755 231.349 L539.056 231.349 L552.227 265.909 L547.366 265.909 L544.218 257.043 L528.639 257.043 L525.491 265.909 L520.561 265.909 L533.755 231.349 Z" fill="#000000" fill-rule="nonzero" fill-opacity="1"></path><path clip-path="url(#clip870)" d="M557.088 239.983 L561.347 239.983 L561.347 266.372 Q561.347 271.325 559.449 273.547 Q557.574 275.77 553.384 275.77 L551.764 275.77 L551.764 272.159 L552.898 272.159 Q555.329 272.159 556.208 271.024 Q557.088 269.913 557.088 266.372 L557.088 239.983 M557.088 229.89 L561.347 229.89 L561.347 235.284 L557.088 235.284 L557.088 229.89 Z" fill="#000000" fill-rule="nonzero" fill-opacity="1"></path><path clip-path="url(#clip870)" d="M569.82 255.677 L569.82 239.983 L574.079 239.983 L574.079 255.515 Q574.079 259.196 575.514 261.048 Q576.949 262.876 579.819 262.876 Q583.269 262.876 585.259 260.677 Q587.273 258.478 587.273 254.682 L587.273 239.983 L591.532 239.983 L591.532 265.909 L587.273 265.909 L587.273 261.927 Q585.722 264.288 583.662 265.446 Q581.625 266.58 578.917 266.58 Q574.449 266.58 572.134 263.802 Q569.82 261.024 569.82 255.677 M580.537 239.358 L580.537 239.358 Z" fill="#000000" fill-rule="nonzero" fill-opacity="1"></path><path clip-path="url(#clip870)" d="M616.833 240.747 L616.833 244.774 Q615.028 243.849 613.083 243.386 Q611.139 242.923 609.055 242.923 Q605.884 242.923 604.287 243.895 Q602.713 244.867 602.713 246.811 Q602.713 248.293 603.847 249.149 Q604.981 249.983 608.407 250.747 L609.866 251.071 Q614.403 252.043 616.301 253.825 Q618.222 255.585 618.222 258.756 Q618.222 262.367 615.352 264.473 Q612.504 266.58 607.505 266.58 Q605.421 266.58 603.153 266.163 Q600.907 265.77 598.407 264.96 L598.407 260.561 Q600.768 261.788 603.06 262.413 Q605.352 263.015 607.597 263.015 Q610.606 263.015 612.227 261.997 Q613.847 260.955 613.847 259.08 Q613.847 257.344 612.667 256.418 Q611.509 255.492 607.551 254.636 L606.069 254.288 Q602.111 253.455 600.352 251.742 Q598.593 250.006 598.593 246.997 Q598.593 243.339 601.185 241.349 Q603.778 239.358 608.546 239.358 Q610.907 239.358 612.991 239.705 Q615.074 240.052 616.833 240.747 Z" fill="#000000" fill-rule="nonzero" fill-opacity="1"></path><path clip-path="url(#clip870)" d="M629.217 232.622 L629.217 239.983 L637.99 239.983 L637.99 243.293 L629.217 243.293 L629.217 257.367 Q629.217 260.538 630.074 261.441 Q630.953 262.344 633.615 262.344 L637.99 262.344 L637.99 265.909 L633.615 265.909 Q628.685 265.909 626.81 264.08 Q624.935 262.228 624.935 257.367 L624.935 243.293 L621.81 243.293 L621.81 239.983 L624.935 239.983 L624.935 232.622 L629.217 232.622 Z" fill="#000000" fill-rule="nonzero" fill-opacity="1"></path><path clip-path="url(#clip870)" d="M665.768 251.881 L665.768 253.964 L646.185 253.964 Q646.463 258.362 648.824 260.677 Q651.208 262.969 655.444 262.969 Q657.898 262.969 660.189 262.367 Q662.504 261.765 664.773 260.561 L664.773 264.589 Q662.481 265.561 660.074 266.071 Q657.666 266.58 655.189 266.58 Q648.986 266.58 645.352 262.969 Q641.74 259.358 641.74 253.2 Q641.74 246.835 645.166 243.108 Q648.615 239.358 654.449 239.358 Q659.68 239.358 662.713 242.737 Q665.768 246.094 665.768 251.881 M661.509 250.631 Q661.463 247.136 659.541 245.052 Q657.643 242.969 654.495 242.969 Q650.93 242.969 648.777 244.983 Q646.648 246.997 646.324 250.654 L661.509 250.631 Z" fill="#000000" fill-rule="nonzero" fill-opacity="1"></path></svg>