<svg xmlns="http://www.w3.org/2000/svg" xmlns:xlink="http://www.w3.org/1999/xlink" width="600" height="400" viewBox="0 0 2400 1600">
<defs>
  <clipPath id="clip310">
    <rect x="0" y="0" width="2400" height="1600"></rect>
  </clipPath>
</defs>
<path clip-path="url(#clip310)" d="M0 1600 L2400 1600 L2400 0 L0 0  Z" fill="#ffffff" fill-rule="evenodd" fill-opacity="1"></path>
<defs>
  <clipPath id="clip311">
    <rect x="480" y="0" width="1681" height="1600"></rect>
  </clipPath>
</defs>
<path clip-path="url(#clip310)" d="M189.496 1474.16 L2352.76 1474.16 L2352.76 47.2441 L189.496 47.2441  Z" fill="#ffffff" fill-rule="evenodd" fill-opacity="1"></path>
<defs>
  <clipPath id="clip312">
    <rect x="189" y="47" width="2164" height="1428"></rect>
  </clipPath>
</defs>
<polyline clip-path="url(#clip312)" style="stroke:#000000; stroke-linecap:round; stroke-linejoin:round; stroke-width:2; stroke-opacity:0.1; fill:none" points="250.72,1474.16 250.72,47.2441 "></polyline>
<polyline clip-path="url(#clip312)" style="stroke:#000000; stroke-linecap:round; stroke-linejoin:round; stroke-width:2; stroke-opacity:0.1; fill:none" points="1542.55,1474.16 1542.55,47.2441 "></polyline>
<polyline clip-path="url(#clip310)" style="stroke:#000000; stroke-linecap:round; stroke-linejoin:round; stroke-width:4; stroke-opacity:1; fill:none" points="189.496,1474.16 2352.76,1474.16 "></polyline>
<polyline clip-path="url(#clip310)" style="stroke:#000000; stroke-linecap:round; stroke-linejoin:round; stroke-width:4; stroke-opacity:1; fill:none" points="250.72,1474.16 250.72,1455.27 "></polyline>
<polyline clip-path="url(#clip310)" style="stroke:#000000; stroke-linecap:round; stroke-linejoin:round; stroke-width:4; stroke-opacity:1; fill:none" points="1542.55,1474.16 1542.55,1455.27 "></polyline>
<path clip-path="url(#clip310)" d="M215.703 1548.29 L223.342 1548.29 L223.342 1521.92 L215.032 1523.59 L215.032 1519.33 L223.296 1517.66 L227.972 1517.66 L227.972 1548.29 L235.61 1548.29 L235.61 1552.22 L215.703 1552.22 L215.703 1548.29 Z" fill="#000000" fill-rule="nonzero" fill-opacity="1"></path><path clip-path="url(#clip310)" d="M255.055 1520.74 Q251.444 1520.74 249.615 1524.31 Q247.809 1527.85 247.809 1534.98 Q247.809 1542.09 249.615 1545.65 Q251.444 1549.19 255.055 1549.19 Q258.689 1549.19 260.495 1545.65 Q262.323 1542.09 262.323 1534.98 Q262.323 1527.85 260.495 1524.31 Q258.689 1520.74 255.055 1520.74 M255.055 1517.04 Q260.865 1517.04 263.92 1521.65 Q266.999 1526.23 266.999 1534.98 Q266.999 1543.71 263.92 1548.31 Q260.865 1552.9 255.055 1552.9 Q249.245 1552.9 246.166 1548.31 Q243.11 1543.71 243.11 1534.98 Q243.11 1526.23 246.166 1521.65 Q249.245 1517.04 255.055 1517.04 Z" fill="#000000" fill-rule="nonzero" fill-opacity="1"></path><path clip-path="url(#clip310)" d="M276.704 1499.24 Q273.77 1499.24 272.284 1502.13 Q270.817 1505.01 270.817 1510.8 Q270.817 1516.58 272.284 1519.47 Q273.77 1522.35 276.704 1522.35 Q279.657 1522.35 281.124 1519.47 Q282.61 1516.58 282.61 1510.8 Q282.61 1505.01 281.124 1502.13 Q279.657 1499.24 276.704 1499.24 M276.704 1496.23 Q281.425 1496.23 283.907 1499.97 Q286.409 1503.69 286.409 1510.8 Q286.409 1517.89 283.907 1521.64 Q281.425 1525.36 276.704 1525.36 Q271.983 1525.36 269.482 1521.64 Q266.999 1517.89 266.999 1510.8 Q266.999 1503.69 269.482 1499.97 Q271.983 1496.23 276.704 1496.23 Z" fill="#000000" fill-rule="nonzero" fill-opacity="1"></path><path clip-path="url(#clip310)" d="M1508.88 1548.29 L1516.52 1548.29 L1516.52 1521.92 L1508.21 1523.59 L1508.21 1519.33 L1516.47 1517.66 L1521.15 1517.66 L1521.15 1548.29 L1528.78 1548.29 L1528.78 1552.22 L1508.88 1552.22 L1508.88 1548.29 Z" fill="#000000" fill-rule="nonzero" fill-opacity="1"></path><path clip-path="url(#clip310)" d="M1548.23 1520.74 Q1544.62 1520.74 1542.79 1524.31 Q1540.98 1527.85 1540.98 1534.98 Q1540.98 1542.09 1542.79 1545.65 Q1544.62 1549.19 1548.23 1549.19 Q1551.86 1549.19 1553.67 1545.65 Q1555.5 1542.09 1555.5 1534.98 Q1555.5 1527.85 1553.67 1524.31 Q1551.86 1520.74 1548.23 1520.74 M1548.23 1517.04 Q1554.04 1517.04 1557.09 1521.65 Q1560.17 1526.23 1560.17 1534.98 Q1560.17 1543.71 1557.09 1548.31 Q1554.04 1552.9 1548.23 1552.9 Q1542.42 1552.9 1539.34 1548.31 Q1536.28 1543.71 1536.28 1534.98 Q1536.28 1526.23 1539.34 1521.65 Q1542.42 1517.04 1548.23 1517.04 Z" fill="#000000" fill-rule="nonzero" fill-opacity="1"></path><path clip-path="url(#clip310)" d="M1560.72 1521.62 L1566.93 1521.62 L1566.93 1500.19 L1560.17 1501.55 L1560.17 1498.09 L1566.89 1496.73 L1570.69 1496.73 L1570.69 1521.62 L1576.89 1521.62 L1576.89 1524.81 L1560.72 1524.81 L1560.72 1521.62 Z" fill="#000000" fill-rule="nonzero" fill-opacity="1"></path><polyline clip-path="url(#clip312)" style="stroke:#000000; stroke-linecap:round; stroke-linejoin:round; stroke-width:2; stroke-opacity:0.1; fill:none" points="189.496,1150.75 2352.76,1150.75 "></polyline>
<polyline clip-path="url(#clip312)" style="stroke:#000000; stroke-linecap:round; stroke-linejoin:round; stroke-width:2; stroke-opacity:0.1; fill:none" points="189.496,584.695 2352.76,584.695 "></polyline>
<polyline clip-path="url(#clip310)" style="stroke:#000000; stroke-linecap:round; stroke-linejoin:round; stroke-width:4; stroke-opacity:1; fill:none" points="189.496,1474.16 189.496,47.2441 "></polyline>
<polyline clip-path="url(#clip310)" style="stroke:#000000; stroke-linecap:round; stroke-linejoin:round; stroke-width:4; stroke-opacity:1; fill:none" points="189.496,1150.75 208.394,1150.75 "></polyline>
<polyline clip-path="url(#clip310)" style="stroke:#000000; stroke-linecap:round; stroke-linejoin:round; stroke-width:4; stroke-opacity:1; fill:none" points="189.496,584.695 208.394,584.695 "></polyline>
<path clip-path="url(#clip310)" d="M51.6634 1170.54 L59.3023 1170.54 L59.3023 1144.18 L50.9921 1145.84 L50.9921 1141.58 L59.256 1139.92 L63.9319 1139.92 L63.9319 1170.54 L71.5707 1170.54 L71.5707 1174.48 L51.6634 1174.48 L51.6634 1170.54 Z" fill="#000000" fill-rule="nonzero" fill-opacity="1"></path><path clip-path="url(#clip310)" d="M91.0151 1143 Q87.404 1143 85.5753 1146.56 Q83.7697 1150.1 83.7697 1157.23 Q83.7697 1164.34 85.5753 1167.9 Q87.404 1171.45 91.0151 1171.45 Q94.6493 1171.45 96.4548 1167.9 Q98.2835 1164.34 98.2835 1157.23 Q98.2835 1150.1 96.4548 1146.56 Q94.6493 1143 91.0151 1143 M91.0151 1139.29 Q96.8252 1139.29 99.8808 1143.9 Q102.959 1148.48 102.959 1157.23 Q102.959 1165.96 99.8808 1170.57 Q96.8252 1175.15 91.0151 1175.15 Q85.2049 1175.15 82.1262 1170.57 Q79.0707 1165.96 79.0707 1157.23 Q79.0707 1148.48 82.1262 1143.9 Q85.2049 1139.29 91.0151 1139.29 Z" fill="#000000" fill-rule="nonzero" fill-opacity="1"></path><path clip-path="url(#clip310)" d="M102.959 1133.39 L127.071 1133.39 L127.071 1136.59 L102.959 1136.59 L102.959 1133.39 Z" fill="#000000" fill-rule="nonzero" fill-opacity="1"></path><path clip-path="url(#clip310)" d="M145.71 1122.3 L136.118 1137.29 L145.71 1137.29 L145.71 1122.3 M144.713 1118.99 L149.49 1118.99 L149.49 1137.29 L153.496 1137.29 L153.496 1140.45 L149.49 1140.45 L149.49 1147.07 L145.71 1147.07 L145.71 1140.45 L133.033 1140.45 L133.033 1136.78 L144.713 1118.99 Z" fill="#000000" fill-rule="nonzero" fill-opacity="1"></path><path clip-path="url(#clip310)" d="M53.3561 604.487 L60.995 604.487 L60.995 578.122 L52.6848 579.788 L52.6848 575.529 L60.9487 573.863 L65.6246 573.863 L65.6246 604.487 L73.2634 604.487 L73.2634 608.423 L53.3561 608.423 L53.3561 604.487 Z" fill="#000000" fill-rule="nonzero" fill-opacity="1"></path><path clip-path="url(#clip310)" d="M92.7078 576.941 Q89.0967 576.941 87.268 580.506 Q85.4624 584.048 85.4624 591.177 Q85.4624 598.284 87.268 601.849 Q89.0967 605.39 92.7078 605.39 Q96.342 605.39 98.1475 601.849 Q99.9762 598.284 99.9762 591.177 Q99.9762 584.048 98.1475 580.506 Q96.342 576.941 92.7078 576.941 M92.7078 573.238 Q98.5179 573.238 101.573 577.844 Q104.652 582.427 104.652 591.177 Q104.652 599.904 101.573 604.511 Q98.5179 609.094 92.7078 609.094 Q86.8976 609.094 83.8189 604.511 Q80.7634 599.904 80.7634 591.177 Q80.7634 582.427 83.8189 577.844 Q86.8976 573.238 92.7078 573.238 Z" fill="#000000" fill-rule="nonzero" fill-opacity="1"></path><path clip-path="url(#clip310)" d="M104.652 567.339 L128.764 567.339 L128.764 570.536 L104.652 570.536 L104.652 567.339 Z" fill="#000000" fill-rule="nonzero" fill-opacity="1"></path><path clip-path="url(#clip310)" d="M140.236 577.815 L153.496 577.815 L153.496 581.012 L135.666 581.012 L135.666 577.815 Q137.829 575.577 141.553 571.815 Q145.296 568.035 146.255 566.944 Q148.079 564.894 148.794 563.483 Q149.527 562.054 149.527 560.681 Q149.527 558.443 147.948 557.032 Q146.387 555.622 143.866 555.622 Q142.08 555.622 140.086 556.242 Q138.111 556.863 135.854 558.123 L135.854 554.286 Q138.149 553.365 140.142 552.895 Q142.136 552.424 143.791 552.424 Q148.155 552.424 150.75 554.606 Q153.345 556.788 153.345 560.436 Q153.345 562.167 152.687 563.728 Q152.048 565.27 150.336 567.377 Q149.866 567.922 147.346 570.536 Q144.826 573.132 140.236 577.815 Z" fill="#000000" fill-rule="nonzero" fill-opacity="1"></path><polyline clip-path="url(#clip312)" style="stroke:#009af9; stroke-linecap:round; stroke-linejoin:round; stroke-width:4; stroke-opacity:1; fill:none" points="250.72,87.6286 639.6,212.253 867.08,305.249 1028.48,387.288 1153.67,458.976 1255.96,521.222 1342.44,573.43 1417.36,637.27 1483.44,697.018 1542.55,751.703 1596.02,778.297 1644.84,835.476 1689.75,866.502 1731.32,918.799 1770.03,945.763 1806.24,974.356 1840.25,1043.14 1872.32,1109.39 1902.65,1078.5 1931.43,1150.75 1958.8,1150.75 1984.9,1194.59 2009.84,1263.38 2033.72,1433.78 2056.62,1348.58 2078.62,1433.78 2099.8,1433.78 2139.89,1433.78 2195.12,1348.58 2291.53,1433.78 "></polyline>
<path clip-path="url(#clip310)" d="M1909.68 198.488 L2280.65 198.488 L2280.65 94.8081 L1909.68 94.8081  Z" fill="#ffffff" fill-rule="evenodd" fill-opacity="1"></path>
<polyline clip-path="url(#clip310)" style="stroke:#000000; stroke-linecap:round; stroke-linejoin:round; stroke-width:4; stroke-opacity:1; fill:none" points="1909.68,198.488 2280.65,198.488 2280.65,94.8081 1909.68,94.8081 1909.68,198.488 "></polyline>
<polyline clip-path="url(#clip310)" style="stroke:#009af9; stroke-linecap:round; stroke-linejoin:round; stroke-width:4; stroke-opacity:1; fill:none" points="1933.72,146.648 2077.94,146.648 "></polyline>
<path clip-path="url(#clip310)" d="M2128.89 143.582 Q2128.84 143.816 2128.75 144.238 Q2128.65 144.636 2128.23 145.901 Q2127.81 147.165 2127.25 148.454 Q2126.71 149.718 2125.65 151.499 Q2124.62 153.255 2123.36 154.848 Q2123.01 155.27 2122.94 155.527 Q2122.89 155.761 2122.89 156.534 Q2122.89 161.406 2124.37 161.406 Q2124.44 161.406 2124.55 161.406 Q2124.69 161.383 2125.05 161.266 Q2125.42 161.125 2125.75 160.914 Q2126.08 160.68 2126.45 160.212 Q2126.83 159.72 2127.06 159.064 Q2127.27 158.596 2127.69 158.596 Q2128.25 158.596 2128.25 159.064 Q2128.25 159.907 2127.08 161.195 Q2125.91 162.484 2124.23 162.484 Q2122.61 162.484 2121.46 161.43 Q2120.34 160.352 2119.87 158.432 Q2114.81 162.484 2109.75 162.484 Q2106.19 162.484 2104.08 160.165 Q2101.97 157.823 2101.97 154.356 Q2101.97 151.03 2103.8 147.868 Q2105.65 144.706 2108.65 142.739 Q2111.67 140.748 2114.88 140.748 Q2116 140.748 2117.08 141.052 Q2118.16 141.333 2119.24 142.059 Q2120.31 142.785 2121.11 143.886 Q2121.91 144.987 2122.4 146.72 Q2122.89 148.454 2122.89 150.632 L2122.89 153.607 Q2125.98 149.695 2127.6 144.097 Q2127.83 143.254 2127.97 143.16 Q2128.07 143.09 2128.3 143.09 Q2128.54 143.09 2128.68 143.23 Q2128.84 143.348 2128.86 143.465 L2128.89 143.582 M2119.68 157.19 Q2119.59 156.37 2119.59 151.826 Q2119.59 150.96 2119.59 150.491 Q2119.59 150 2119.54 149.063 Q2119.49 148.126 2119.4 147.54 Q2119.33 146.955 2119.17 146.111 Q2119 145.268 2118.77 144.729 Q2118.53 144.191 2118.16 143.582 Q2117.81 142.973 2117.34 142.621 Q2116.89 142.27 2116.24 142.036 Q2115.61 141.802 2114.83 141.802 Q2113.87 141.802 2112.87 142.153 Q2111.88 142.481 2110.62 143.535 Q2109.35 144.566 2108.3 146.205 Q2107.2 147.938 2106.35 151.124 Q2105.53 154.286 2105.53 156.183 Q2105.53 158.572 2106.64 160.001 Q2107.74 161.406 2109.84 161.406 Q2114.88 161.406 2119.68 157.19 Z" fill="#000000" fill-rule="nonzero" fill-opacity="1"></path><path clip-path="url(#clip310)" d="M2145.66 154.661 Q2145.71 154.075 2146.62 154.075 L2176.02 154.075 Q2177.4 154.075 2177.42 154.614 Q2177.42 155.199 2176.11 155.176 L2146.95 155.176 Q2145.66 155.199 2145.66 154.661 M2145.66 145.292 Q2145.66 144.706 2146.67 144.729 L2175.97 144.729 Q2177.4 144.729 2177.42 145.292 Q2177.42 145.83 2176.21 145.83 L2146.62 145.83 Q2145.66 145.83 2145.66 145.292 Z" fill="#000000" fill-rule="nonzero" fill-opacity="1"></path><path clip-path="url(#clip310)" d="M2195.91 146.603 Q2195.91 139.553 2197.69 135.712 Q2200.18 129.997 2206.03 129.997 Q2207.27 129.997 2208.56 130.348 Q2209.87 130.676 2211.51 131.964 Q2213.18 133.252 2214.18 135.361 Q2216.1 139.436 2216.1 146.603 Q2216.1 153.607 2214.32 157.424 Q2211.72 162.999 2205.99 162.999 Q2203.83 162.999 2201.63 161.898 Q2199.45 160.797 2198.07 158.151 Q2195.91 154.192 2195.91 146.603 M2199.9 146.018 Q2199.9 153.255 2200.41 156.136 Q2201 159.251 2202.59 160.61 Q2204.21 161.945 2205.99 161.945 Q2207.91 161.945 2209.5 160.516 Q2211.12 159.064 2211.61 155.949 Q2212.15 152.881 2212.12 146.018 Q2212.12 139.342 2211.65 136.672 Q2211.02 133.557 2209.34 132.316 Q2207.67 131.051 2205.99 131.051 Q2205.35 131.051 2204.67 131.238 Q2204.02 131.426 2203.06 131.964 Q2202.1 132.503 2201.35 133.838 Q2200.62 135.173 2200.27 137.187 Q2199.9 139.787 2199.9 146.018 Z" fill="#000000" fill-rule="nonzero" fill-opacity="1"></path><path clip-path="url(#clip310)" d="M2220.39 161.172 Q2219.66 160.399 2219.66 159.392 Q2219.66 158.385 2220.39 157.659 Q2221.12 156.909 2222.22 156.909 Q2223.27 156.909 2223.97 157.612 Q2224.7 158.291 2224.7 159.415 Q2224.7 160.516 2223.93 161.242 Q2223.18 161.945 2222.22 161.945 Q2221.12 161.945 2220.39 161.172 Z" fill="#000000" fill-rule="nonzero" fill-opacity="1"></path><path clip-path="url(#clip310)" d="M2232.86 154.216 Q2232.86 152.787 2233.63 152.248 Q2234.41 151.686 2235.23 151.686 Q2236.33 151.686 2236.96 152.389 Q2237.62 153.068 2237.62 154.028 Q2237.62 154.989 2236.96 155.691 Q2236.33 156.37 2235.23 156.37 Q2234.69 156.37 2234.41 156.277 Q2235.04 158.478 2236.96 160.071 Q2238.9 161.664 2241.46 161.664 Q2244.67 161.664 2246.59 158.549 Q2247.73 156.534 2247.73 151.967 Q2247.73 147.938 2246.87 145.924 Q2245.53 142.856 2242.79 142.856 Q2238.9 142.856 2236.61 146.205 Q2236.33 146.627 2236 146.65 Q2235.53 146.65 2235.41 146.392 Q2235.32 146.111 2235.32 145.385 L2235.32 131.191 Q2235.32 130.044 2235.79 130.044 Q2235.98 130.044 2236.37 130.184 Q2239.4 131.519 2242.75 131.543 Q2246.19 131.543 2249.28 130.137 Q2249.51 129.997 2249.65 129.997 Q2250.12 129.997 2250.15 130.535 Q2250.15 130.723 2249.75 131.285 Q2249.37 131.824 2248.55 132.55 Q2247.73 133.252 2246.68 133.932 Q2245.63 134.611 2244.08 135.079 Q2242.56 135.524 2240.87 135.524 Q2238.86 135.524 2236.8 134.892 L2236.8 144.238 Q2239.28 141.802 2242.89 141.802 Q2246.73 141.802 2249.37 144.893 Q2252.02 147.985 2252.02 152.295 Q2252.02 156.815 2248.88 159.907 Q2245.77 162.999 2241.55 162.999 Q2237.71 162.999 2235.27 160.259 Q2232.86 157.518 2232.86 154.216 Z" fill="#000000" fill-rule="nonzero" fill-opacity="1"></path></svg>