<svg xmlns="http://www.w3.org/2000/svg" xmlns:xlink="http://www.w3.org/1999/xlink" width="600" height="400" viewBox="0 0 2400 1600">
<defs>
  <clipPath id="clip270">
    <rect x="0" y="0" width="2400" height="1600"></rect>
  </clipPath>
</defs>
<path clip-path="url(#clip270)" d="M0 1600 L2400 1600 L2400 0 L0 0  Z" fill="#ffffff" fill-rule="evenodd" fill-opacity="1"></path>
<defs>
  <clipPath id="clip271">
    <rect x="480" y="0" width="1681" height="1600"></rect>
  </clipPath>
</defs>
<path clip-path="url(#clip270)" d="M189.496 1486.45 L2352.76 1486.45 L2352.76 47.2441 L189.496 47.2441  Z" fill="#ffffff" fill-rule="evenodd" fill-opacity="1"></path>
<defs>
  <clipPath id="clip272">
    <rect x="189" y="47" width="2164" height="1440"></rect>
  </clipPath>
</defs>
<polyline clip-path="url(#clip272)" style="stroke:#000000; stroke-linecap:round; stroke-linejoin:round; stroke-width:2; stroke-opacity:0.1; fill:none" points="195.563,1486.45 195.563,47.2441 "></polyline>
<polyline clip-path="url(#clip272)" style="stroke:#000000; stroke-linecap:round; stroke-linejoin:round; stroke-width:2; stroke-opacity:0.1; fill:none" points="747.134,1486.45 747.134,47.2441 "></polyline>
<polyline clip-path="url(#clip272)" style="stroke:#000000; stroke-linecap:round; stroke-linejoin:round; stroke-width:2; stroke-opacity:0.1; fill:none" points="1298.7,1486.45 1298.7,47.2441 "></polyline>
<polyline clip-path="url(#clip272)" style="stroke:#000000; stroke-linecap:round; stroke-linejoin:round; stroke-width:2; stroke-opacity:0.1; fill:none" points="1850.28,1486.45 1850.28,47.2441 "></polyline>
<polyline clip-path="url(#clip270)" style="stroke:#000000; stroke-linecap:round; stroke-linejoin:round; stroke-width:4; stroke-opacity:1; fill:none" points="189.496,1486.45 2352.76,1486.45 "></polyline>
<polyline clip-path="url(#clip270)" style="stroke:#000000; stroke-linecap:round; stroke-linejoin:round; stroke-width:4; stroke-opacity:1; fill:none" points="195.563,1486.45 195.563,1467.55 "></polyline>
<polyline clip-path="url(#clip270)" style="stroke:#000000; stroke-linecap:round; stroke-linejoin:round; stroke-width:4; stroke-opacity:1; fill:none" points="747.134,1486.45 747.134,1467.55 "></polyline>
<polyline clip-path="url(#clip270)" style="stroke:#000000; stroke-linecap:round; stroke-linejoin:round; stroke-width:4; stroke-opacity:1; fill:none" points="1298.7,1486.45 1298.7,1467.55 "></polyline>
<polyline clip-path="url(#clip270)" style="stroke:#000000; stroke-linecap:round; stroke-linejoin:round; stroke-width:4; stroke-opacity:1; fill:none" points="1850.28,1486.45 1850.28,1467.55 "></polyline>
<path clip-path="url(#clip270)" d="M195.563 1517.37 Q191.952 1517.37 190.123 1520.93 Q188.318 1524.47 188.318 1531.6 Q188.318 1538.71 190.123 1542.27 Q191.952 1545.82 195.563 1545.82 Q199.197 1545.82 201.003 1542.27 Q202.832 1538.71 202.832 1531.6 Q202.832 1524.47 201.003 1520.93 Q199.197 1517.37 195.563 1517.37 M195.563 1513.66 Q201.373 1513.66 204.429 1518.27 Q207.508 1522.85 207.508 1531.6 Q207.508 1540.33 204.429 1544.94 Q201.373 1549.52 195.563 1549.52 Q189.753 1549.52 186.674 1544.94 Q183.619 1540.33 183.619 1531.6 Q183.619 1522.85 186.674 1518.27 Q189.753 1513.66 195.563 1513.66 Z" fill="#000000" fill-rule="nonzero" fill-opacity="1"></path><path clip-path="url(#clip270)" d="M721.821 1544.91 L729.46 1544.91 L729.46 1518.55 L721.15 1520.21 L721.15 1515.95 L729.414 1514.29 L734.09 1514.29 L734.09 1544.91 L741.729 1544.91 L741.729 1548.85 L721.821 1548.85 L721.821 1544.91 Z" fill="#000000" fill-rule="nonzero" fill-opacity="1"></path><path clip-path="url(#clip270)" d="M761.173 1517.37 Q757.562 1517.37 755.733 1520.93 Q753.928 1524.47 753.928 1531.6 Q753.928 1538.71 755.733 1542.27 Q757.562 1545.82 761.173 1545.82 Q764.807 1545.82 766.613 1542.27 Q768.442 1538.71 768.442 1531.6 Q768.442 1524.47 766.613 1520.93 Q764.807 1517.37 761.173 1517.37 M761.173 1513.66 Q766.983 1513.66 770.039 1518.27 Q773.117 1522.85 773.117 1531.6 Q773.117 1540.33 770.039 1544.94 Q766.983 1549.52 761.173 1549.52 Q755.363 1549.52 752.284 1544.94 Q749.229 1540.33 749.229 1531.6 Q749.229 1522.85 752.284 1518.27 Q755.363 1513.66 761.173 1513.66 Z" fill="#000000" fill-rule="nonzero" fill-opacity="1"></path><path clip-path="url(#clip270)" d="M1277.48 1544.91 L1293.8 1544.91 L1293.8 1548.85 L1271.85 1548.85 L1271.85 1544.91 Q1274.51 1542.16 1279.1 1537.53 Q1283.7 1532.88 1284.89 1531.53 Q1287.13 1529.01 1288.01 1527.27 Q1288.91 1525.51 1288.91 1523.82 Q1288.91 1521.07 1286.97 1519.33 Q1285.05 1517.6 1281.95 1517.6 Q1279.75 1517.6 1277.29 1518.36 Q1274.86 1519.13 1272.08 1520.68 L1272.08 1515.95 Q1274.91 1514.82 1277.36 1514.24 Q1279.82 1513.66 1281.85 1513.66 Q1287.22 1513.66 1290.42 1516.35 Q1293.61 1519.03 1293.61 1523.52 Q1293.61 1525.65 1292.8 1527.57 Q1292.01 1529.47 1289.91 1532.07 Q1289.33 1532.74 1286.23 1535.95 Q1283.13 1539.15 1277.48 1544.91 Z" fill="#000000" fill-rule="nonzero" fill-opacity="1"></path><path clip-path="url(#clip270)" d="M1313.61 1517.37 Q1310 1517.37 1308.17 1520.93 Q1306.37 1524.47 1306.37 1531.6 Q1306.37 1538.71 1308.17 1542.27 Q1310 1545.82 1313.61 1545.82 Q1317.25 1545.82 1319.05 1542.27 Q1320.88 1538.71 1320.88 1531.6 Q1320.88 1524.47 1319.05 1520.93 Q1317.25 1517.37 1313.61 1517.37 M1313.61 1513.66 Q1319.42 1513.66 1322.48 1518.27 Q1325.56 1522.85 1325.56 1531.6 Q1325.56 1540.33 1322.48 1544.94 Q1319.42 1549.52 1313.61 1549.52 Q1307.8 1549.52 1304.72 1544.94 Q1301.67 1540.33 1301.67 1531.6 Q1301.67 1522.85 1304.72 1518.27 Q1307.8 1513.66 1313.61 1513.66 Z" fill="#000000" fill-rule="nonzero" fill-opacity="1"></path><path clip-path="url(#clip270)" d="M1839.12 1530.21 Q1842.47 1530.93 1844.35 1533.2 Q1846.25 1535.47 1846.25 1538.8 Q1846.25 1543.92 1842.73 1546.72 Q1839.21 1549.52 1832.73 1549.52 Q1830.55 1549.52 1828.24 1549.08 Q1825.95 1548.66 1823.49 1547.81 L1823.49 1543.29 Q1825.44 1544.43 1827.75 1545.01 Q1830.07 1545.58 1832.59 1545.58 Q1836.99 1545.58 1839.28 1543.85 Q1841.59 1542.11 1841.59 1538.8 Q1841.59 1535.75 1839.44 1534.03 Q1837.31 1532.3 1833.49 1532.3 L1829.46 1532.3 L1829.46 1528.45 L1833.68 1528.45 Q1837.13 1528.45 1838.96 1527.09 Q1840.78 1525.7 1840.78 1523.11 Q1840.78 1520.45 1838.89 1519.03 Q1837.01 1517.6 1833.49 1517.6 Q1831.57 1517.6 1829.37 1518.01 Q1827.17 1518.43 1824.53 1519.31 L1824.53 1515.14 Q1827.2 1514.4 1829.51 1514.03 Q1831.85 1513.66 1833.91 1513.66 Q1839.23 1513.66 1842.34 1516.09 Q1845.44 1518.5 1845.44 1522.62 Q1845.44 1525.49 1843.79 1527.48 Q1842.15 1529.45 1839.12 1530.21 Z" fill="#000000" fill-rule="nonzero" fill-opacity="1"></path><path clip-path="url(#clip270)" d="M1865.11 1517.37 Q1861.5 1517.37 1859.67 1520.93 Q1857.87 1524.47 1857.87 1531.6 Q1857.87 1538.71 1859.67 1542.27 Q1861.5 1545.82 1865.11 1545.82 Q1868.75 1545.82 1870.55 1542.27 Q1872.38 1538.71 1872.38 1531.6 Q1872.38 1524.47 1870.55 1520.93 Q1868.75 1517.37 1865.11 1517.37 M1865.11 1513.66 Q1870.92 1513.66 1873.98 1518.27 Q1877.06 1522.85 1877.06 1531.6 Q1877.06 1540.33 1873.98 1544.94 Q1870.92 1549.52 1865.11 1549.52 Q1859.3 1549.52 1856.22 1544.94 Q1853.17 1540.33 1853.17 1531.6 Q1853.17 1522.85 1856.22 1518.27 Q1859.3 1513.66 1865.11 1513.66 Z" fill="#000000" fill-rule="nonzero" fill-opacity="1"></path><polyline clip-path="url(#clip272)" style="stroke:#000000; stroke-linecap:round; stroke-linejoin:round; stroke-width:2; stroke-opacity:0.1; fill:none" points="189.496,1160.25 2352.76,1160.25 "></polyline>
<polyline clip-path="url(#clip272)" style="stroke:#000000; stroke-linecap:round; stroke-linejoin:round; stroke-width:2; stroke-opacity:0.1; fill:none" points="189.496,589.321 2352.76,589.321 "></polyline>
<polyline clip-path="url(#clip270)" style="stroke:#000000; stroke-linecap:round; stroke-linejoin:round; stroke-width:4; stroke-opacity:1; fill:none" points="189.496,1486.45 189.496,47.2441 "></polyline>
<polyline clip-path="url(#clip270)" style="stroke:#000000; stroke-linecap:round; stroke-linejoin:round; stroke-width:4; stroke-opacity:1; fill:none" points="189.496,1160.25 208.394,1160.25 "></polyline>
<polyline clip-path="url(#clip270)" style="stroke:#000000; stroke-linecap:round; stroke-linejoin:round; stroke-width:4; stroke-opacity:1; fill:none" points="189.496,589.321 208.394,589.321 "></polyline>
<path clip-path="url(#clip270)" d="M51.6634 1180.04 L59.3023 1180.04 L59.3023 1153.68 L50.9921 1155.34 L50.9921 1151.08 L59.256 1149.42 L63.9319 1149.42 L63.9319 1180.04 L71.5707 1180.04 L71.5707 1183.98 L51.6634 1183.98 L51.6634 1180.04 Z" fill="#000000" fill-rule="nonzero" fill-opacity="1"></path><path clip-path="url(#clip270)" d="M91.0151 1152.5 Q87.404 1152.5 85.5753 1156.06 Q83.7697 1159.6 83.7697 1166.73 Q83.7697 1173.84 85.5753 1177.4 Q87.404 1180.94 91.0151 1180.94 Q94.6493 1180.94 96.4548 1177.4 Q98.2835 1173.84 98.2835 1166.73 Q98.2835 1159.6 96.4548 1156.06 Q94.6493 1152.5 91.0151 1152.5 M91.0151 1148.79 Q96.8252 1148.79 99.8808 1153.4 Q102.959 1157.98 102.959 1166.73 Q102.959 1175.46 99.8808 1180.06 Q96.8252 1184.65 91.0151 1184.65 Q85.2049 1184.65 82.1262 1180.06 Q79.0707 1175.46 79.0707 1166.73 Q79.0707 1157.98 82.1262 1153.4 Q85.2049 1148.79 91.0151 1148.79 Z" fill="#000000" fill-rule="nonzero" fill-opacity="1"></path><path clip-path="url(#clip270)" d="M102.959 1142.89 L127.071 1142.89 L127.071 1146.09 L102.959 1146.09 L102.959 1142.89 Z" fill="#000000" fill-rule="nonzero" fill-opacity="1"></path><path clip-path="url(#clip270)" d="M145.71 1131.8 L136.118 1146.79 L145.71 1146.79 L145.71 1131.8 M144.713 1128.49 L149.49 1128.49 L149.49 1146.79 L153.496 1146.79 L153.496 1149.95 L149.49 1149.95 L149.49 1156.57 L145.71 1156.57 L145.71 1149.95 L133.033 1149.95 L133.033 1146.28 L144.713 1128.49 Z" fill="#000000" fill-rule="nonzero" fill-opacity="1"></path><path clip-path="url(#clip270)" d="M53.3561 609.114 L60.995 609.114 L60.995 582.748 L52.6848 584.415 L52.6848 580.156 L60.9487 578.489 L65.6246 578.489 L65.6246 609.114 L73.2634 609.114 L73.2634 613.049 L53.3561 613.049 L53.3561 609.114 Z" fill="#000000" fill-rule="nonzero" fill-opacity="1"></path><path clip-path="url(#clip270)" d="M92.7078 581.568 Q89.0967 581.568 87.268 585.133 Q85.4624 588.674 85.4624 595.804 Q85.4624 602.91 87.268 606.475 Q89.0967 610.017 92.7078 610.017 Q96.342 610.017 98.1475 606.475 Q99.9762 602.91 99.9762 595.804 Q99.9762 588.674 98.1475 585.133 Q96.342 581.568 92.7078 581.568 M92.7078 577.864 Q98.5179 577.864 101.573 582.47 Q104.652 587.054 104.652 595.804 Q104.652 604.531 101.573 609.137 Q98.5179 613.72 92.7078 613.72 Q86.8976 613.72 83.8189 609.137 Q80.7634 604.531 80.7634 595.804 Q80.7634 587.054 83.8189 582.47 Q86.8976 577.864 92.7078 577.864 Z" fill="#000000" fill-rule="nonzero" fill-opacity="1"></path><path clip-path="url(#clip270)" d="M104.652 571.965 L128.764 571.965 L128.764 575.163 L104.652 575.163 L104.652 571.965 Z" fill="#000000" fill-rule="nonzero" fill-opacity="1"></path><path clip-path="url(#clip270)" d="M140.236 582.441 L153.496 582.441 L153.496 585.639 L135.666 585.639 L135.666 582.441 Q137.829 580.203 141.553 576.442 Q145.296 572.661 146.255 571.57 Q148.079 569.52 148.794 568.11 Q149.527 566.68 149.527 565.307 Q149.527 563.069 147.948 561.659 Q146.387 560.248 143.866 560.248 Q142.08 560.248 140.086 560.869 Q138.111 561.489 135.854 562.75 L135.854 558.913 Q138.149 557.991 140.142 557.521 Q142.136 557.051 143.791 557.051 Q148.155 557.051 150.75 559.233 Q153.345 561.414 153.345 565.063 Q153.345 566.793 152.687 568.354 Q152.048 569.897 150.336 572.003 Q149.866 572.548 147.346 575.163 Q144.826 577.758 140.236 582.441 Z" fill="#000000" fill-rule="nonzero" fill-opacity="1"></path><polyline clip-path="url(#clip272)" style="stroke:#009af9; stroke-linecap:round; stroke-linejoin:round; stroke-width:4; stroke-opacity:1; fill:none" points="250.72,87.9763 305.877,213.674 361.034,307.47 416.191,390.215 471.349,462.521 526.506,525.302 581.663,577.959 636.82,642.35 691.977,702.612 747.134,757.767 802.291,784.59 857.448,842.261 912.605,873.554 967.762,926.302 1022.92,953.497 1078.08,982.337 1133.23,1051.72 1188.39,1118.54 1243.55,1087.38 1298.7,1160.25 1353.86,1160.25 1409.02,1204.47 1464.18,1273.85 1519.33,1445.72 1574.49,1359.78 1629.65,1445.72 1684.8,1445.72 1795.12,1445.72 1960.59,1359.78 2291.53,1445.72 "></polyline>
<path clip-path="url(#clip270)" d="M1909.68 198.898 L2280.65 198.898 L2280.65 95.2176 L1909.68 95.2176  Z" fill="#ffffff" fill-rule="evenodd" fill-opacity="1"></path>
<polyline clip-path="url(#clip270)" style="stroke:#000000; stroke-linecap:round; stroke-linejoin:round; stroke-width:4; stroke-opacity:1; fill:none" points="1909.68,198.898 2280.65,198.898 2280.65,95.2176 1909.68,95.2176 1909.68,198.898 "></polyline>
<polyline clip-path="url(#clip270)" style="stroke:#009af9; stroke-linecap:round; stroke-linejoin:round; stroke-width:4; stroke-opacity:1; fill:none" points="1933.72,147.058 2077.94,147.058 "></polyline>
<path clip-path="url(#clip270)" d="M2128.89 143.991 Q2128.84 144.225 2128.75 144.647 Q2128.65 145.045 2128.23 146.31 Q2127.81 147.575 2127.25 148.863 Q2126.71 150.128 2125.65 151.908 Q2124.62 153.665 2123.36 155.257 Q2123.01 155.679 2122.94 155.937 Q2122.89 156.171 2122.89 156.944 Q2122.89 161.816 2124.37 161.816 Q2124.44 161.816 2124.55 161.816 Q2124.69 161.792 2125.05 161.675 Q2125.42 161.535 2125.75 161.324 Q2126.08 161.09 2126.45 160.621 Q2126.83 160.129 2127.06 159.473 Q2127.27 159.005 2127.69 159.005 Q2128.25 159.005 2128.25 159.473 Q2128.25 160.317 2127.08 161.605 Q2125.91 162.893 2124.23 162.893 Q2122.61 162.893 2121.46 161.839 Q2120.34 160.762 2119.87 158.841 Q2114.81 162.893 2109.75 162.893 Q2106.19 162.893 2104.08 160.574 Q2101.97 158.232 2101.97 154.766 Q2101.97 151.44 2103.8 148.278 Q2105.65 145.116 2108.65 143.148 Q2111.67 141.157 2114.88 141.157 Q2116 141.157 2117.08 141.462 Q2118.16 141.743 2119.24 142.469 Q2120.31 143.195 2121.11 144.296 Q2121.91 145.397 2122.4 147.13 Q2122.89 148.863 2122.89 151.041 L2122.89 154.016 Q2125.98 150.104 2127.6 144.507 Q2127.83 143.663 2127.97 143.57 Q2128.07 143.499 2128.3 143.499 Q2128.54 143.499 2128.68 143.64 Q2128.84 143.757 2128.86 143.874 L2128.89 143.991 M2119.68 157.6 Q2119.59 156.78 2119.59 152.236 Q2119.59 151.369 2119.59 150.901 Q2119.59 150.409 2119.54 149.472 Q2119.49 148.535 2119.4 147.95 Q2119.33 147.364 2119.17 146.521 Q2119 145.678 2118.77 145.139 Q2118.53 144.6 2118.16 143.991 Q2117.81 143.382 2117.34 143.031 Q2116.89 142.68 2116.24 142.445 Q2115.61 142.211 2114.83 142.211 Q2113.87 142.211 2112.87 142.562 Q2111.88 142.89 2110.62 143.944 Q2109.35 144.975 2108.3 146.615 Q2107.2 148.348 2106.35 151.533 Q2105.53 154.695 2105.53 156.593 Q2105.53 158.982 2106.64 160.41 Q2107.74 161.816 2109.84 161.816 Q2114.88 161.816 2119.68 157.6 Z" fill="#000000" fill-rule="nonzero" fill-opacity="1"></path><path clip-path="url(#clip270)" d="M2145.66 155.07 Q2145.71 154.484 2146.62 154.484 L2176.02 154.484 Q2177.4 154.484 2177.42 155.023 Q2177.42 155.609 2176.11 155.585 L2146.95 155.585 Q2145.66 155.609 2145.66 155.07 M2145.66 145.701 Q2145.66 145.116 2146.67 145.139 L2175.97 145.139 Q2177.4 145.139 2177.42 145.701 Q2177.42 146.24 2176.21 146.24 L2146.62 146.24 Q2145.66 146.24 2145.66 145.701 Z" fill="#000000" fill-rule="nonzero" fill-opacity="1"></path><path clip-path="url(#clip270)" d="M2195.91 147.013 Q2195.91 139.963 2197.69 136.121 Q2200.18 130.406 2206.03 130.406 Q2207.27 130.406 2208.56 130.758 Q2209.87 131.085 2211.51 132.374 Q2213.18 133.662 2214.18 135.77 Q2216.1 139.845 2216.1 147.013 Q2216.1 154.016 2214.32 157.834 Q2211.72 163.408 2205.99 163.408 Q2203.83 163.408 2201.63 162.308 Q2199.45 161.207 2198.07 158.56 Q2195.91 154.602 2195.91 147.013 M2199.9 146.427 Q2199.9 153.665 2200.41 156.546 Q2201 159.661 2202.59 161.019 Q2204.21 162.354 2205.99 162.354 Q2207.91 162.354 2209.5 160.926 Q2211.12 159.473 2211.61 156.358 Q2212.15 153.29 2212.12 146.427 Q2212.12 139.752 2211.65 137.082 Q2211.02 133.966 2209.34 132.725 Q2207.67 131.46 2205.99 131.46 Q2205.35 131.46 2204.67 131.648 Q2204.02 131.835 2203.06 132.374 Q2202.1 132.912 2201.35 134.247 Q2200.62 135.583 2200.27 137.597 Q2199.9 140.197 2199.9 146.427 Z" fill="#000000" fill-rule="nonzero" fill-opacity="1"></path><path clip-path="url(#clip270)" d="M2220.39 161.581 Q2219.66 160.809 2219.66 159.801 Q2219.66 158.794 2220.39 158.068 Q2221.12 157.319 2222.22 157.319 Q2223.27 157.319 2223.97 158.021 Q2224.7 158.701 2224.7 159.825 Q2224.7 160.926 2223.93 161.652 Q2223.18 162.354 2222.22 162.354 Q2221.12 162.354 2220.39 161.581 Z" fill="#000000" fill-rule="nonzero" fill-opacity="1"></path><path clip-path="url(#clip270)" d="M2232.86 154.625 Q2232.86 153.196 2233.63 152.658 Q2234.41 152.095 2235.23 152.095 Q2236.33 152.095 2236.96 152.798 Q2237.62 153.477 2237.62 154.438 Q2237.62 155.398 2236.96 156.101 Q2236.33 156.78 2235.23 156.78 Q2234.69 156.78 2234.41 156.686 Q2235.04 158.888 2236.96 160.481 Q2238.9 162.073 2241.46 162.073 Q2244.67 162.073 2246.59 158.958 Q2247.73 156.944 2247.73 152.376 Q2247.73 148.348 2246.87 146.333 Q2245.53 143.265 2242.79 143.265 Q2238.9 143.265 2236.61 146.615 Q2236.33 147.036 2236 147.06 Q2235.53 147.06 2235.41 146.802 Q2235.32 146.521 2235.32 145.795 L2235.32 131.601 Q2235.32 130.453 2235.79 130.453 Q2235.98 130.453 2236.37 130.594 Q2239.4 131.929 2242.75 131.952 Q2246.19 131.952 2249.28 130.547 Q2249.51 130.406 2249.65 130.406 Q2250.12 130.406 2250.15 130.945 Q2250.15 131.132 2249.75 131.694 Q2249.37 132.233 2248.55 132.959 Q2247.73 133.662 2246.68 134.341 Q2245.63 135.02 2244.08 135.489 Q2242.56 135.934 2240.87 135.934 Q2238.86 135.934 2236.8 135.302 L2236.8 144.647 Q2239.28 142.211 2242.89 142.211 Q2246.73 142.211 2249.37 145.303 Q2252.02 148.395 2252.02 152.704 Q2252.02 157.225 2248.88 160.317 Q2245.77 163.408 2241.55 163.408 Q2237.71 163.408 2235.27 160.668 Q2232.86 157.928 2232.86 154.625 Z" fill="#000000" fill-rule="nonzero" fill-opacity="1"></path></svg>