<svg xmlns="http://www.w3.org/2000/svg" xmlns:xlink="http://www.w3.org/1999/xlink" width="600" height="400" viewBox="0 0 2400 1600">
<defs>
  <clipPath id="clip190">
    <rect x="0" y="0" width="2400" height="1600"></rect>
  </clipPath>
</defs>
<path clip-path="url(#clip190)" d="M0 1600 L2400 1600 L2400 0 L0 0  Z" fill="#ffffff" fill-rule="evenodd" fill-opacity="1"></path>
<defs>
  <clipPath id="clip191">
    <rect x="480" y="0" width="1681" height="1600"></rect>
  </clipPath>
</defs>
<path clip-path="url(#clip190)" d="M189.496 1486.45 L2352.76 1486.45 L2352.76 47.2441 L189.496 47.2441  Z" fill="#ffffff" fill-rule="evenodd" fill-opacity="1"></path>
<defs>
  <clipPath id="clip192">
    <rect x="189" y="47" width="2164" height="1440"></rect>
  </clipPath>
</defs>
<polyline clip-path="url(#clip192)" style="stroke:#000000; stroke-linecap:round; stroke-linejoin:round; stroke-width:2; stroke-opacity:0.1; fill:none" points="245.293,1486.45 245.293,47.2441 "></polyline>
<polyline clip-path="url(#clip192)" style="stroke:#000000; stroke-linecap:round; stroke-linejoin:round; stroke-width:2; stroke-opacity:0.1; fill:none" points="788.062,1486.45 788.062,47.2441 "></polyline>
<polyline clip-path="url(#clip192)" style="stroke:#000000; stroke-linecap:round; stroke-linejoin:round; stroke-width:2; stroke-opacity:0.1; fill:none" points="1330.83,1486.45 1330.83,47.2441 "></polyline>
<polyline clip-path="url(#clip192)" style="stroke:#000000; stroke-linecap:round; stroke-linejoin:round; stroke-width:2; stroke-opacity:0.1; fill:none" points="1873.6,1486.45 1873.6,47.2441 "></polyline>
<polyline clip-path="url(#clip190)" style="stroke:#000000; stroke-linecap:round; stroke-linejoin:round; stroke-width:4; stroke-opacity:1; fill:none" points="189.496,1486.45 2352.76,1486.45 "></polyline>
<polyline clip-path="url(#clip190)" style="stroke:#000000; stroke-linecap:round; stroke-linejoin:round; stroke-width:4; stroke-opacity:1; fill:none" points="245.293,1486.45 245.293,1467.55 "></polyline>
<polyline clip-path="url(#clip190)" style="stroke:#000000; stroke-linecap:round; stroke-linejoin:round; stroke-width:4; stroke-opacity:1; fill:none" points="788.062,1486.45 788.062,1467.55 "></polyline>
<polyline clip-path="url(#clip190)" style="stroke:#000000; stroke-linecap:round; stroke-linejoin:round; stroke-width:4; stroke-opacity:1; fill:none" points="1330.83,1486.45 1330.83,1467.55 "></polyline>
<polyline clip-path="url(#clip190)" style="stroke:#000000; stroke-linecap:round; stroke-linejoin:round; stroke-width:4; stroke-opacity:1; fill:none" points="1873.6,1486.45 1873.6,1467.55 "></polyline>
<path clip-path="url(#clip190)" d="M245.293 1517.37 Q241.681 1517.37 239.853 1520.93 Q238.047 1524.47 238.047 1531.6 Q238.047 1538.71 239.853 1542.27 Q241.681 1545.82 245.293 1545.82 Q248.927 1545.82 250.732 1542.27 Q252.561 1538.71 252.561 1531.6 Q252.561 1524.47 250.732 1520.93 Q248.927 1517.37 245.293 1517.37 M245.293 1513.66 Q251.103 1513.66 254.158 1518.27 Q257.237 1522.85 257.237 1531.6 Q257.237 1540.33 254.158 1544.94 Q251.103 1549.52 245.293 1549.52 Q239.482 1549.52 236.404 1544.94 Q233.348 1540.33 233.348 1531.6 Q233.348 1522.85 236.404 1518.27 Q239.482 1513.66 245.293 1513.66 Z" fill="#000000" fill-rule="nonzero" fill-opacity="1"></path><path clip-path="url(#clip190)" d="M747.668 1544.91 L755.307 1544.91 L755.307 1518.55 L746.997 1520.21 L746.997 1515.95 L755.261 1514.29 L759.937 1514.29 L759.937 1544.91 L767.576 1544.91 L767.576 1548.85 L747.668 1548.85 L747.668 1544.91 Z" fill="#000000" fill-rule="nonzero" fill-opacity="1"></path><path clip-path="url(#clip190)" d="M787.02 1517.37 Q783.409 1517.37 781.58 1520.93 Q779.775 1524.47 779.775 1531.6 Q779.775 1538.71 781.58 1542.27 Q783.409 1545.82 787.02 1545.82 Q790.654 1545.82 792.46 1542.27 Q794.288 1538.71 794.288 1531.6 Q794.288 1524.47 792.46 1520.93 Q790.654 1517.37 787.02 1517.37 M787.02 1513.66 Q792.83 1513.66 795.886 1518.27 Q798.964 1522.85 798.964 1531.6 Q798.964 1540.33 795.886 1544.94 Q792.83 1549.52 787.02 1549.52 Q781.21 1549.52 778.131 1544.94 Q775.075 1540.33 775.075 1531.6 Q775.075 1522.85 778.131 1518.27 Q781.21 1513.66 787.02 1513.66 Z" fill="#000000" fill-rule="nonzero" fill-opacity="1"></path><path clip-path="url(#clip190)" d="M817.182 1517.37 Q813.571 1517.37 811.742 1520.93 Q809.936 1524.47 809.936 1531.6 Q809.936 1538.71 811.742 1542.27 Q813.571 1545.82 817.182 1545.82 Q820.816 1545.82 822.622 1542.27 Q824.45 1538.71 824.45 1531.6 Q824.45 1524.47 822.622 1520.93 Q820.816 1517.37 817.182 1517.37 M817.182 1513.66 Q822.992 1513.66 826.047 1518.27 Q829.126 1522.85 829.126 1531.6 Q829.126 1540.33 826.047 1544.94 Q822.992 1549.52 817.182 1549.52 Q811.372 1549.52 808.293 1544.94 Q805.237 1540.33 805.237 1531.6 Q805.237 1522.85 808.293 1518.27 Q811.372 1513.66 817.182 1513.66 Z" fill="#000000" fill-rule="nonzero" fill-opacity="1"></path><path clip-path="url(#clip190)" d="M1294.52 1544.91 L1310.84 1544.91 L1310.84 1548.85 L1288.9 1548.85 L1288.9 1544.91 Q1291.56 1542.16 1296.14 1537.53 Q1300.75 1532.88 1301.93 1531.53 Q1304.18 1529.01 1305.06 1527.27 Q1305.96 1525.51 1305.96 1523.82 Q1305.96 1521.07 1304.01 1519.33 Q1302.09 1517.6 1298.99 1517.6 Q1296.79 1517.6 1294.34 1518.36 Q1291.91 1519.13 1289.13 1520.68 L1289.13 1515.95 Q1291.95 1514.82 1294.41 1514.24 Q1296.86 1513.66 1298.9 1513.66 Q1304.27 1513.66 1307.46 1516.35 Q1310.66 1519.03 1310.66 1523.52 Q1310.66 1525.65 1309.85 1527.57 Q1309.06 1529.47 1306.95 1532.07 Q1306.37 1532.74 1303.27 1535.95 Q1300.17 1539.15 1294.52 1544.91 Z" fill="#000000" fill-rule="nonzero" fill-opacity="1"></path><path clip-path="url(#clip190)" d="M1330.66 1517.37 Q1327.05 1517.37 1325.22 1520.93 Q1323.41 1524.47 1323.41 1531.6 Q1323.41 1538.71 1325.22 1542.27 Q1327.05 1545.82 1330.66 1545.82 Q1334.29 1545.82 1336.1 1542.27 Q1337.93 1538.71 1337.93 1531.6 Q1337.93 1524.47 1336.1 1520.93 Q1334.29 1517.37 1330.66 1517.37 M1330.66 1513.66 Q1336.47 1513.66 1339.52 1518.27 Q1342.6 1522.85 1342.6 1531.6 Q1342.6 1540.33 1339.52 1544.94 Q1336.47 1549.52 1330.66 1549.52 Q1324.85 1549.52 1321.77 1544.94 Q1318.71 1540.33 1318.71 1531.6 Q1318.71 1522.85 1321.77 1518.27 Q1324.85 1513.66 1330.66 1513.66 Z" fill="#000000" fill-rule="nonzero" fill-opacity="1"></path><path clip-path="url(#clip190)" d="M1360.82 1517.37 Q1357.21 1517.37 1355.38 1520.93 Q1353.57 1524.47 1353.57 1531.6 Q1353.57 1538.71 1355.38 1542.27 Q1357.21 1545.82 1360.82 1545.82 Q1364.45 1545.82 1366.26 1542.27 Q1368.09 1538.71 1368.09 1531.6 Q1368.09 1524.47 1366.26 1520.93 Q1364.45 1517.37 1360.82 1517.37 M1360.82 1513.66 Q1366.63 1513.66 1369.68 1518.27 Q1372.76 1522.85 1372.76 1531.6 Q1372.76 1540.33 1369.68 1544.94 Q1366.63 1549.52 1360.82 1549.52 Q1355.01 1549.52 1351.93 1544.94 Q1348.87 1540.33 1348.87 1531.6 Q1348.87 1522.85 1351.93 1518.27 Q1355.01 1513.66 1360.82 1513.66 Z" fill="#000000" fill-rule="nonzero" fill-opacity="1"></path><path clip-path="url(#clip190)" d="M1847.36 1530.21 Q1850.72 1530.93 1852.59 1533.2 Q1854.49 1535.47 1854.49 1538.8 Q1854.49 1543.92 1850.97 1546.72 Q1847.45 1549.52 1840.97 1549.52 Q1838.8 1549.52 1836.48 1549.08 Q1834.19 1548.66 1831.74 1547.81 L1831.74 1543.29 Q1833.68 1544.43 1836 1545.01 Q1838.31 1545.58 1840.83 1545.58 Q1845.23 1545.58 1847.52 1543.85 Q1849.84 1542.11 1849.84 1538.8 Q1849.84 1535.75 1847.69 1534.03 Q1845.56 1532.3 1841.74 1532.3 L1837.71 1532.3 L1837.71 1528.45 L1841.92 1528.45 Q1845.37 1528.45 1847.2 1527.09 Q1849.03 1525.7 1849.03 1523.11 Q1849.03 1520.45 1847.13 1519.03 Q1845.25 1517.6 1841.74 1517.6 Q1839.81 1517.6 1837.62 1518.01 Q1835.42 1518.43 1832.78 1519.31 L1832.78 1515.14 Q1835.44 1514.4 1837.75 1514.03 Q1840.09 1513.66 1842.15 1513.66 Q1847.48 1513.66 1850.58 1516.09 Q1853.68 1518.5 1853.68 1522.62 Q1853.68 1525.49 1852.04 1527.48 Q1850.39 1529.45 1847.36 1530.21 Z" fill="#000000" fill-rule="nonzero" fill-opacity="1"></path><path clip-path="url(#clip190)" d="M1873.36 1517.37 Q1869.75 1517.37 1867.92 1520.93 Q1866.11 1524.47 1866.11 1531.6 Q1866.11 1538.71 1867.92 1542.27 Q1869.75 1545.82 1873.36 1545.82 Q1876.99 1545.82 1878.8 1542.27 Q1880.62 1538.71 1880.62 1531.6 Q1880.62 1524.47 1878.8 1520.93 Q1876.99 1517.37 1873.36 1517.37 M1873.36 1513.66 Q1879.17 1513.66 1882.22 1518.27 Q1885.3 1522.85 1885.3 1531.6 Q1885.3 1540.33 1882.22 1544.94 Q1879.17 1549.52 1873.36 1549.52 Q1867.55 1549.52 1864.47 1544.94 Q1861.41 1540.33 1861.41 1531.6 Q1861.41 1522.85 1864.47 1518.27 Q1867.55 1513.66 1873.36 1513.66 Z" fill="#000000" fill-rule="nonzero" fill-opacity="1"></path><path clip-path="url(#clip190)" d="M1903.52 1517.37 Q1899.91 1517.37 1898.08 1520.93 Q1896.27 1524.47 1896.27 1531.6 Q1896.27 1538.71 1898.08 1542.27 Q1899.91 1545.82 1903.52 1545.82 Q1907.15 1545.82 1908.96 1542.27 Q1910.79 1538.71 1910.79 1531.6 Q1910.79 1524.47 1908.96 1520.93 Q1907.15 1517.37 1903.52 1517.37 M1903.52 1513.66 Q1909.33 1513.66 1912.38 1518.27 Q1915.46 1522.85 1915.46 1531.6 Q1915.46 1540.33 1912.38 1544.94 Q1909.33 1549.52 1903.52 1549.52 Q1897.71 1549.52 1894.63 1544.94 Q1891.57 1540.33 1891.57 1531.6 Q1891.57 1522.85 1894.63 1518.27 Q1897.71 1513.66 1903.52 1513.66 Z" fill="#000000" fill-rule="nonzero" fill-opacity="1"></path><polyline clip-path="url(#clip192)" style="stroke:#000000; stroke-linecap:round; stroke-linejoin:round; stroke-width:2; stroke-opacity:0.1; fill:none" points="189.496,1164.24 2352.76,1164.24 "></polyline>
<polyline clip-path="url(#clip192)" style="stroke:#000000; stroke-linecap:round; stroke-linejoin:round; stroke-width:2; stroke-opacity:0.1; fill:none" points="189.496,601.281 2352.76,601.281 "></polyline>
<polyline clip-path="url(#clip190)" style="stroke:#000000; stroke-linecap:round; stroke-linejoin:round; stroke-width:4; stroke-opacity:1; fill:none" points="189.496,1486.45 189.496,47.2441 "></polyline>
<polyline clip-path="url(#clip190)" style="stroke:#000000; stroke-linecap:round; stroke-linejoin:round; stroke-width:4; stroke-opacity:1; fill:none" points="189.496,1164.24 208.394,1164.24 "></polyline>
<polyline clip-path="url(#clip190)" style="stroke:#000000; stroke-linecap:round; stroke-linejoin:round; stroke-width:4; stroke-opacity:1; fill:none" points="189.496,601.281 208.394,601.281 "></polyline>
<path clip-path="url(#clip190)" d="M51.6634 1184.03 L59.3023 1184.03 L59.3023 1157.66 L50.9921 1159.33 L50.9921 1155.07 L59.256 1153.4 L63.9319 1153.4 L63.9319 1184.03 L71.5707 1184.03 L71.5707 1187.96 L51.6634 1187.96 L51.6634 1184.03 Z" fill="#000000" fill-rule="nonzero" fill-opacity="1"></path><path clip-path="url(#clip190)" d="M91.0151 1156.48 Q87.404 1156.48 85.5753 1160.05 Q83.7697 1163.59 83.7697 1170.72 Q83.7697 1177.82 85.5753 1181.39 Q87.404 1184.93 91.0151 1184.93 Q94.6493 1184.93 96.4548 1181.39 Q98.2835 1177.82 98.2835 1170.72 Q98.2835 1163.59 96.4548 1160.05 Q94.6493 1156.48 91.0151 1156.48 M91.0151 1152.78 Q96.8252 1152.78 99.8808 1157.38 Q102.959 1161.97 102.959 1170.72 Q102.959 1179.44 99.8808 1184.05 Q96.8252 1188.63 91.0151 1188.63 Q85.2049 1188.63 82.1262 1184.05 Q79.0707 1179.44 79.0707 1170.72 Q79.0707 1161.97 82.1262 1157.38 Q85.2049 1152.78 91.0151 1152.78 Z" fill="#000000" fill-rule="nonzero" fill-opacity="1"></path><path clip-path="url(#clip190)" d="M102.959 1146.88 L127.071 1146.88 L127.071 1150.08 L102.959 1150.08 L102.959 1146.88 Z" fill="#000000" fill-rule="nonzero" fill-opacity="1"></path><path clip-path="url(#clip190)" d="M145.71 1135.78 L136.118 1150.77 L145.71 1150.77 L145.71 1135.78 M144.713 1132.47 L149.49 1132.47 L149.49 1150.77 L153.496 1150.77 L153.496 1153.93 L149.49 1153.93 L149.49 1160.55 L145.71 1160.55 L145.71 1153.93 L133.033 1153.93 L133.033 1150.27 L144.713 1132.47 Z" fill="#000000" fill-rule="nonzero" fill-opacity="1"></path><path clip-path="url(#clip190)" d="M53.3561 621.073 L60.995 621.073 L60.995 594.708 L52.6848 596.375 L52.6848 592.115 L60.9487 590.449 L65.6246 590.449 L65.6246 621.073 L73.2634 621.073 L73.2634 625.009 L53.3561 625.009 L53.3561 621.073 Z" fill="#000000" fill-rule="nonzero" fill-opacity="1"></path><path clip-path="url(#clip190)" d="M92.7078 593.527 Q89.0967 593.527 87.268 597.092 Q85.4624 600.634 85.4624 607.763 Q85.4624 614.87 87.268 618.435 Q89.0967 621.976 92.7078 621.976 Q96.342 621.976 98.1475 618.435 Q99.9762 614.87 99.9762 607.763 Q99.9762 600.634 98.1475 597.092 Q96.342 593.527 92.7078 593.527 M92.7078 589.824 Q98.5179 589.824 101.573 594.43 Q104.652 599.013 104.652 607.763 Q104.652 616.49 101.573 621.097 Q98.5179 625.68 92.7078 625.68 Q86.8976 625.68 83.8189 621.097 Q80.7634 616.49 80.7634 607.763 Q80.7634 599.013 83.8189 594.43 Q86.8976 589.824 92.7078 589.824 Z" fill="#000000" fill-rule="nonzero" fill-opacity="1"></path><path clip-path="url(#clip190)" d="M104.652 583.925 L128.764 583.925 L128.764 587.122 L104.652 587.122 L104.652 583.925 Z" fill="#000000" fill-rule="nonzero" fill-opacity="1"></path><path clip-path="url(#clip190)" d="M140.236 594.401 L153.496 594.401 L153.496 597.598 L135.666 597.598 L135.666 594.401 Q137.829 592.163 141.553 588.401 Q145.296 584.621 146.255 583.53 Q148.079 581.48 148.794 580.069 Q149.527 578.64 149.527 577.267 Q149.527 575.029 147.948 573.618 Q146.387 572.208 143.866 572.208 Q142.08 572.208 140.086 572.828 Q138.111 573.449 135.854 574.709 L135.854 570.872 Q138.149 569.951 140.142 569.481 Q142.136 569.01 143.791 569.01 Q148.155 569.01 150.75 571.192 Q153.345 573.374 153.345 577.023 Q153.345 578.753 152.687 580.314 Q152.048 581.856 150.336 583.963 Q149.866 584.508 147.346 587.122 Q144.826 589.718 140.236 594.401 Z" fill="#000000" fill-rule="nonzero" fill-opacity="1"></path><polyline clip-path="url(#clip192)" style="stroke:#009af9; stroke-linecap:round; stroke-linejoin:round; stroke-width:4; stroke-opacity:1; fill:none" points="250.72,87.9763 256.148,257.652 261.576,369.018 267.003,455.001 272.431,519.896 277.859,575.58 283.286,628.256 288.714,671.293 294.142,707.914 299.569,740.955 304.997,786.377 310.425,814.351 315.853,838.185 321.28,863.568 326.708,904.075 332.136,929.906 337.563,933.555 342.991,972.484 348.419,943.186 353.846,972.484 359.274,983.121 364.702,1073.54 370.129,1014.64 375.557,1047.43 380.985,1042.82 386.412,1085.78 391.84,1092.38 397.268,1152.59 402.696,1114.67 408.123,1114.67 413.551,1123.11 418.979,1106.78 424.406,1152.59 429.834,1177.12 435.262,1191.52 440.689,1177.12 446.117,1207.84 451.545,1226.68 456.972,1311.42 462.4,1311.42 467.828,1207.84 473.256,1311.42 478.683,1276.25 484.111,1276.25 489.539,1226.68 494.966,1276.25 500.394,1191.52 505.822,1360.98 511.249,1248.97 516.677,1311.42 522.105,1311.42 527.532,1248.97 532.96,1226.68 538.388,1311.42 543.815,1311.42 554.671,1445.72 560.099,1360.98 576.382,1311.42 581.809,1360.98 592.665,1360.98 598.092,1445.72 603.52,1445.72 614.375,1360.98 619.803,1445.72 625.231,1360.98 630.659,1360.98 636.086,1445.72 657.797,1360.98 668.652,1445.72 684.935,1360.98 690.363,1360.98 695.791,1445.72 701.218,1445.72 706.646,1445.72 712.074,1445.72 717.502,1360.98 728.357,1445.72 739.212,1445.72 744.64,1360.98 771.778,1445.72 782.634,1445.72 788.062,1445.72 793.489,1360.98 809.772,1360.98 815.2,1360.98 826.055,1445.72 831.483,1445.72 836.911,1445.72 842.338,1360.98 853.194,1445.72 869.477,1445.72 891.188,1445.72 1178.86,1445.72 1200.57,1445.72 1222.28,1445.72 1227.7,1445.72 1249.42,1445.72 1879.03,1445.72 1906.17,1445.72 2291.53,1445.72 "></polyline>
<path clip-path="url(#clip190)" d="M1946.63 198.898 L2280.65 198.898 L2280.65 95.2176 L1946.63 95.2176  Z" fill="#ffffff" fill-rule="evenodd" fill-opacity="1"></path>
<polyline clip-path="url(#clip190)" style="stroke:#000000; stroke-linecap:round; stroke-linejoin:round; stroke-width:4; stroke-opacity:1; fill:none" points="1946.63,198.898 2280.65,198.898 2280.65,95.2176 1946.63,95.2176 1946.63,198.898 "></polyline>
<polyline clip-path="url(#clip190)" style="stroke:#009af9; stroke-linecap:round; stroke-linejoin:round; stroke-width:4; stroke-opacity:1; fill:none" points="1970.67,147.058 2114.89,147.058 "></polyline>
<path clip-path="url(#clip190)" d="M2165.83 144.249 Q2165.79 144.483 2165.69 144.905 Q2165.6 145.303 2165.18 146.568 Q2164.76 147.833 2164.19 149.121 Q2163.66 150.386 2162.6 152.166 Q2161.57 153.923 2160.31 155.515 Q2159.95 155.937 2159.88 156.194 Q2159.84 156.429 2159.84 157.202 Q2159.84 162.074 2161.31 162.074 Q2161.38 162.074 2161.5 162.074 Q2161.64 162.05 2161.99 161.933 Q2162.37 161.792 2162.7 161.582 Q2163.02 161.347 2163.4 160.879 Q2163.77 160.387 2164.01 159.731 Q2164.22 159.263 2164.64 159.263 Q2165.2 159.263 2165.2 159.731 Q2165.2 160.574 2164.03 161.863 Q2162.86 163.151 2161.17 163.151 Q2159.56 163.151 2158.41 162.097 Q2157.28 161.02 2156.82 159.099 Q2151.76 163.151 2146.7 163.151 Q2143.14 163.151 2141.03 160.832 Q2138.92 158.49 2138.92 155.023 Q2138.92 151.697 2140.75 148.535 Q2142.6 145.373 2145.6 143.406 Q2148.62 141.415 2151.83 141.415 Q2152.95 141.415 2154.03 141.719 Q2155.11 142 2156.18 142.727 Q2157.26 143.453 2158.06 144.554 Q2158.85 145.654 2159.35 147.388 Q2159.84 149.121 2159.84 151.299 L2159.84 154.274 Q2162.93 150.362 2164.55 144.764 Q2164.78 143.921 2164.92 143.827 Q2165.01 143.757 2165.25 143.757 Q2165.48 143.757 2165.62 143.898 Q2165.79 144.015 2165.81 144.132 L2165.83 144.249 M2156.63 157.857 Q2156.53 157.038 2156.53 152.494 Q2156.53 151.627 2156.53 151.159 Q2156.53 150.667 2156.49 149.73 Q2156.44 148.793 2156.35 148.207 Q2156.28 147.622 2156.11 146.779 Q2155.95 145.935 2155.72 145.397 Q2155.48 144.858 2155.11 144.249 Q2154.75 143.64 2154.29 143.289 Q2153.84 142.937 2153.19 142.703 Q2152.55 142.469 2151.78 142.469 Q2150.82 142.469 2149.81 142.82 Q2148.83 143.148 2147.56 144.202 Q2146.3 145.233 2145.25 146.872 Q2144.14 148.606 2143.3 151.791 Q2142.48 154.953 2142.48 156.85 Q2142.48 159.239 2143.58 160.668 Q2144.68 162.074 2146.79 162.074 Q2151.83 162.074 2156.63 157.857 Z" fill="#000000" fill-rule="nonzero" fill-opacity="1"></path><path clip-path="url(#clip190)" d="M2182.61 155.328 Q2182.66 154.742 2183.57 154.742 L2212.96 154.742 Q2214.35 154.742 2214.37 155.281 Q2214.37 155.867 2213.06 155.843 L2183.9 155.843 Q2182.61 155.867 2182.61 155.328 M2182.61 145.959 Q2182.61 145.373 2183.62 145.397 L2212.92 145.397 Q2214.35 145.397 2214.37 145.959 Q2214.37 146.498 2213.15 146.498 L2183.57 146.498 Q2182.61 146.498 2182.61 145.959 Z" fill="#000000" fill-rule="nonzero" fill-opacity="1"></path><path clip-path="url(#clip190)" d="M2232.86 135.231 L2232.86 133.732 Q2238.62 133.732 2241.6 130.664 Q2242.42 130.664 2242.56 130.851 Q2242.7 131.039 2242.7 131.905 L2242.7 158.818 Q2242.7 160.247 2243.4 160.692 Q2244.1 161.137 2247.17 161.137 L2248.69 161.137 L2248.69 162.612 Q2247.01 162.472 2240.92 162.472 Q2234.83 162.472 2233.17 162.612 L2233.17 161.137 L2234.69 161.137 Q2237.71 161.137 2238.44 160.715 Q2239.16 160.27 2239.16 158.818 L2239.16 133.967 Q2236.66 135.231 2232.86 135.231 Z" fill="#000000" fill-rule="nonzero" fill-opacity="1"></path></svg>