<svg xmlns="http://www.w3.org/2000/svg" xmlns:xlink="http://www.w3.org/1999/xlink" width="600" height="400" viewBox="0 0 2400 1600">
<defs>
  <clipPath id="clip150">
    <rect x="0" y="0" width="2400" height="1600"></rect>
  </clipPath>
</defs>
<path clip-path="url(#clip150)" d="M0 1600 L2400 1600 L2400 0 L0 0  Z" fill="#ffffff" fill-rule="evenodd" fill-opacity="1"></path>
<defs>
  <clipPath id="clip151">
    <rect x="480" y="0" width="1681" height="1600"></rect>
  </clipPath>
</defs>
<path clip-path="url(#clip150)" d="M189.496 1474.16 L2352.76 1474.16 L2352.76 47.2441 L189.496 47.2441  Z" fill="#ffffff" fill-rule="evenodd" fill-opacity="1"></path>
<defs>
  <clipPath id="clip152">
    <rect x="189" y="47" width="2164" height="1428"></rect>
  </clipPath>
</defs>
<polyline clip-path="url(#clip152)" style="stroke:#000000; stroke-linecap:round; stroke-linejoin:round; stroke-width:2; stroke-opacity:0.1; fill:none" points="250.72,1474.16 250.72,47.2441 "></polyline>
<polyline clip-path="url(#clip152)" style="stroke:#000000; stroke-linecap:round; stroke-linejoin:round; stroke-width:2; stroke-opacity:0.1; fill:none" points="1042.86,1474.16 1042.86,47.2441 "></polyline>
<polyline clip-path="url(#clip152)" style="stroke:#000000; stroke-linecap:round; stroke-linejoin:round; stroke-width:2; stroke-opacity:0.1; fill:none" points="1834.99,1474.16 1834.99,47.2441 "></polyline>
<polyline clip-path="url(#clip150)" style="stroke:#000000; stroke-linecap:round; stroke-linejoin:round; stroke-width:4; stroke-opacity:1; fill:none" points="189.496,1474.16 2352.76,1474.16 "></polyline>
<polyline clip-path="url(#clip150)" style="stroke:#000000; stroke-linecap:round; stroke-linejoin:round; stroke-width:4; stroke-opacity:1; fill:none" points="250.72,1474.16 250.72,1455.27 "></polyline>
<polyline clip-path="url(#clip150)" style="stroke:#000000; stroke-linecap:round; stroke-linejoin:round; stroke-width:4; stroke-opacity:1; fill:none" points="1042.86,1474.16 1042.86,1455.27 "></polyline>
<polyline clip-path="url(#clip150)" style="stroke:#000000; stroke-linecap:round; stroke-linejoin:round; stroke-width:4; stroke-opacity:1; fill:none" points="1834.99,1474.16 1834.99,1455.27 "></polyline>
<path clip-path="url(#clip150)" d="M215.703 1548.29 L223.342 1548.29 L223.342 1521.92 L215.032 1523.59 L215.032 1519.33 L223.296 1517.66 L227.972 1517.66 L227.972 1548.29 L235.61 1548.29 L235.61 1552.22 L215.703 1552.22 L215.703 1548.29 Z" fill="#000000" fill-rule="nonzero" fill-opacity="1"></path><path clip-path="url(#clip150)" d="M255.055 1520.74 Q251.444 1520.74 249.615 1524.31 Q247.809 1527.85 247.809 1534.98 Q247.809 1542.09 249.615 1545.65 Q251.444 1549.19 255.055 1549.19 Q258.689 1549.19 260.495 1545.65 Q262.323 1542.09 262.323 1534.98 Q262.323 1527.85 260.495 1524.31 Q258.689 1520.74 255.055 1520.74 M255.055 1517.04 Q260.865 1517.04 263.92 1521.65 Q266.999 1526.23 266.999 1534.98 Q266.999 1543.71 263.92 1548.31 Q260.865 1552.9 255.055 1552.9 Q249.245 1552.9 246.166 1548.31 Q243.11 1543.71 243.11 1534.98 Q243.11 1526.23 246.166 1521.65 Q249.245 1517.04 255.055 1517.04 Z" fill="#000000" fill-rule="nonzero" fill-opacity="1"></path><path clip-path="url(#clip150)" d="M276.704 1499.24 Q273.77 1499.24 272.284 1502.13 Q270.817 1505.01 270.817 1510.8 Q270.817 1516.58 272.284 1519.47 Q273.77 1522.35 276.704 1522.35 Q279.657 1522.35 281.124 1519.47 Q282.61 1516.58 282.61 1510.8 Q282.61 1505.01 281.124 1502.13 Q279.657 1499.24 276.704 1499.24 M276.704 1496.23 Q281.425 1496.23 283.907 1499.97 Q286.409 1503.69 286.409 1510.8 Q286.409 1517.89 283.907 1521.64 Q281.425 1525.36 276.704 1525.36 Q271.983 1525.36 269.482 1521.64 Q266.999 1517.89 266.999 1510.8 Q266.999 1503.69 269.482 1499.97 Q271.983 1496.23 276.704 1496.23 Z" fill="#000000" fill-rule="nonzero" fill-opacity="1"></path><path clip-path="url(#clip150)" d="M1009.18 1548.29 L1016.82 1548.29 L1016.82 1521.92 L1008.51 1523.59 L1008.51 1519.33 L1016.78 1517.66 L1021.45 1517.66 L1021.45 1548.29 L1029.09 1548.29 L1029.09 1552.22 L1009.18 1552.22 L1009.18 1548.29 Z" fill="#000000" fill-rule="nonzero" fill-opacity="1"></path><path clip-path="url(#clip150)" d="M1048.53 1520.74 Q1044.92 1520.74 1043.1 1524.31 Q1041.29 1527.85 1041.29 1534.98 Q1041.29 1542.09 1043.1 1545.65 Q1044.92 1549.19 1048.53 1549.19 Q1052.17 1549.19 1053.97 1545.65 Q1055.8 1542.09 1055.8 1534.98 Q1055.8 1527.85 1053.97 1524.31 Q1052.17 1520.74 1048.53 1520.74 M1048.53 1517.04 Q1054.35 1517.04 1057.4 1521.65 Q1060.48 1526.23 1060.48 1534.98 Q1060.48 1543.71 1057.4 1548.31 Q1054.35 1552.9 1048.53 1552.9 Q1042.72 1552.9 1039.65 1548.31 Q1036.59 1543.71 1036.59 1534.98 Q1036.59 1526.23 1039.65 1521.65 Q1042.72 1517.04 1048.53 1517.04 Z" fill="#000000" fill-rule="nonzero" fill-opacity="1"></path><path clip-path="url(#clip150)" d="M1061.02 1521.62 L1067.23 1521.62 L1067.23 1500.19 L1060.48 1501.55 L1060.48 1498.09 L1067.19 1496.73 L1070.99 1496.73 L1070.99 1521.62 L1077.2 1521.62 L1077.2 1524.81 L1061.02 1524.81 L1061.02 1521.62 Z" fill="#000000" fill-rule="nonzero" fill-opacity="1"></path><path clip-path="url(#clip150)" d="M1800.76 1548.29 L1808.4 1548.29 L1808.4 1521.92 L1800.09 1523.59 L1800.09 1519.33 L1808.36 1517.66 L1813.03 1517.66 L1813.03 1548.29 L1820.67 1548.29 L1820.67 1552.22 L1800.76 1552.22 L1800.76 1548.29 Z" fill="#000000" fill-rule="nonzero" fill-opacity="1"></path><path clip-path="url(#clip150)" d="M1840.12 1520.74 Q1836.5 1520.74 1834.68 1524.31 Q1832.87 1527.85 1832.87 1534.98 Q1832.87 1542.09 1834.68 1545.65 Q1836.5 1549.19 1840.12 1549.19 Q1843.75 1549.19 1845.56 1545.65 Q1847.38 1542.09 1847.38 1534.98 Q1847.38 1527.85 1845.56 1524.31 Q1843.75 1520.74 1840.12 1520.74 M1840.12 1517.04 Q1845.93 1517.04 1848.98 1521.65 Q1852.06 1526.23 1852.06 1534.98 Q1852.06 1543.71 1848.98 1548.31 Q1845.93 1552.9 1840.12 1552.9 Q1834.31 1552.9 1831.23 1548.31 Q1828.17 1543.71 1828.17 1534.98 Q1828.17 1526.23 1831.23 1521.65 Q1834.31 1517.04 1840.12 1517.04 Z" fill="#000000" fill-rule="nonzero" fill-opacity="1"></path><path clip-path="url(#clip150)" d="M1856.63 1521.62 L1869.89 1521.62 L1869.89 1524.81 L1852.06 1524.81 L1852.06 1521.62 Q1854.22 1519.38 1857.95 1515.62 Q1861.69 1511.84 1862.65 1510.75 Q1864.47 1508.7 1865.19 1507.29 Q1865.92 1505.86 1865.92 1504.48 Q1865.92 1502.24 1864.34 1500.83 Q1862.78 1499.42 1860.26 1499.42 Q1858.47 1499.42 1856.48 1500.04 Q1854.5 1500.67 1852.25 1501.93 L1852.25 1498.09 Q1854.54 1497.17 1856.54 1496.7 Q1858.53 1496.23 1860.18 1496.23 Q1864.55 1496.23 1867.14 1498.41 Q1869.74 1500.59 1869.74 1504.24 Q1869.74 1505.97 1869.08 1507.53 Q1868.44 1509.07 1866.73 1511.18 Q1866.26 1511.72 1863.74 1514.34 Q1861.22 1516.93 1856.63 1521.62 Z" fill="#000000" fill-rule="nonzero" fill-opacity="1"></path><polyline clip-path="url(#clip152)" style="stroke:#000000; stroke-linecap:round; stroke-linejoin:round; stroke-width:2; stroke-opacity:0.1; fill:none" points="189.496,1154.7 2352.76,1154.7 "></polyline>
<polyline clip-path="url(#clip152)" style="stroke:#000000; stroke-linecap:round; stroke-linejoin:round; stroke-width:2; stroke-opacity:0.1; fill:none" points="189.496,596.552 2352.76,596.552 "></polyline>
<polyline clip-path="url(#clip150)" style="stroke:#000000; stroke-linecap:round; stroke-linejoin:round; stroke-width:4; stroke-opacity:1; fill:none" points="189.496,1474.16 189.496,47.2441 "></polyline>
<polyline clip-path="url(#clip150)" style="stroke:#000000; stroke-linecap:round; stroke-linejoin:round; stroke-width:4; stroke-opacity:1; fill:none" points="189.496,1154.7 208.394,1154.7 "></polyline>
<polyline clip-path="url(#clip150)" style="stroke:#000000; stroke-linecap:round; stroke-linejoin:round; stroke-width:4; stroke-opacity:1; fill:none" points="189.496,596.552 208.394,596.552 "></polyline>
<path clip-path="url(#clip150)" d="M51.6634 1174.5 L59.3023 1174.5 L59.3023 1148.13 L50.9921 1149.8 L50.9921 1145.54 L59.256 1143.87 L63.9319 1143.87 L63.9319 1174.5 L71.5707 1174.5 L71.5707 1178.43 L51.6634 1178.43 L51.6634 1174.5 Z" fill="#000000" fill-rule="nonzero" fill-opacity="1"></path><path clip-path="url(#clip150)" d="M91.0151 1146.95 Q87.404 1146.95 85.5753 1150.51 Q83.7697 1154.06 83.7697 1161.18 Q83.7697 1168.29 85.5753 1171.86 Q87.404 1175.4 91.0151 1175.4 Q94.6493 1175.4 96.4548 1171.86 Q98.2835 1168.29 98.2835 1161.18 Q98.2835 1154.06 96.4548 1150.51 Q94.6493 1146.95 91.0151 1146.95 M91.0151 1143.25 Q96.8252 1143.25 99.8808 1147.85 Q102.959 1152.43 102.959 1161.18 Q102.959 1169.91 99.8808 1174.52 Q96.8252 1179.1 91.0151 1179.1 Q85.2049 1179.1 82.1262 1174.52 Q79.0707 1169.91 79.0707 1161.18 Q79.0707 1152.43 82.1262 1147.85 Q85.2049 1143.25 91.0151 1143.25 Z" fill="#000000" fill-rule="nonzero" fill-opacity="1"></path><path clip-path="url(#clip150)" d="M102.959 1137.35 L127.071 1137.35 L127.071 1140.54 L102.959 1140.54 L102.959 1137.35 Z" fill="#000000" fill-rule="nonzero" fill-opacity="1"></path><path clip-path="url(#clip150)" d="M145.71 1126.25 L136.118 1141.24 L145.71 1141.24 L145.71 1126.25 M144.713 1122.94 L149.49 1122.94 L149.49 1141.24 L153.496 1141.24 L153.496 1144.4 L149.49 1144.4 L149.49 1151.02 L145.71 1151.02 L145.71 1144.4 L133.033 1144.4 L133.033 1140.73 L144.713 1122.94 Z" fill="#000000" fill-rule="nonzero" fill-opacity="1"></path><path clip-path="url(#clip150)" d="M53.3561 616.345 L60.995 616.345 L60.995 589.979 L52.6848 591.646 L52.6848 587.387 L60.9487 585.72 L65.6246 585.72 L65.6246 616.345 L73.2634 616.345 L73.2634 620.28 L53.3561 620.28 L53.3561 616.345 Z" fill="#000000" fill-rule="nonzero" fill-opacity="1"></path><path clip-path="url(#clip150)" d="M92.7078 588.799 Q89.0967 588.799 87.268 592.364 Q85.4624 595.905 85.4624 603.035 Q85.4624 610.141 87.268 613.706 Q89.0967 617.248 92.7078 617.248 Q96.342 617.248 98.1475 613.706 Q99.9762 610.141 99.9762 603.035 Q99.9762 595.905 98.1475 592.364 Q96.342 588.799 92.7078 588.799 M92.7078 585.095 Q98.5179 585.095 101.573 589.702 Q104.652 594.285 104.652 603.035 Q104.652 611.762 101.573 616.368 Q98.5179 620.951 92.7078 620.951 Q86.8976 620.951 83.8189 616.368 Q80.7634 611.762 80.7634 603.035 Q80.7634 594.285 83.8189 589.702 Q86.8976 585.095 92.7078 585.095 Z" fill="#000000" fill-rule="nonzero" fill-opacity="1"></path><path clip-path="url(#clip150)" d="M104.652 579.196 L128.764 579.196 L128.764 582.394 L104.652 582.394 L104.652 579.196 Z" fill="#000000" fill-rule="nonzero" fill-opacity="1"></path><path clip-path="url(#clip150)" d="M140.236 589.672 L153.496 589.672 L153.496 592.87 L135.666 592.87 L135.666 589.672 Q137.829 587.434 141.553 583.673 Q145.296 579.892 146.255 578.801 Q148.079 576.751 148.794 575.341 Q149.527 573.911 149.527 572.538 Q149.527 570.3 147.948 568.89 Q146.387 567.479 143.866 567.479 Q142.08 567.479 140.086 568.1 Q138.111 568.72 135.854 569.981 L135.854 566.144 Q138.149 565.222 140.142 564.752 Q142.136 564.282 143.791 564.282 Q148.155 564.282 150.75 566.464 Q153.345 568.645 153.345 572.294 Q153.345 574.024 152.687 575.585 Q152.048 577.128 150.336 579.234 Q149.866 579.779 147.346 582.394 Q144.826 584.989 140.236 589.672 Z" fill="#000000" fill-rule="nonzero" fill-opacity="1"></path><polyline clip-path="url(#clip152)" style="stroke:#009af9; stroke-linecap:round; stroke-linejoin:round; stroke-width:4; stroke-opacity:1; fill:none" points="250.72,87.6286 489.177,255.856 628.665,366.272 727.633,451.52 804.399,515.862 867.121,571.071 920.152,623.297 966.09,665.967 1006.61,702.275 1042.86,735.035 1075.64,780.068 1105.58,807.804 1133.11,831.435 1158.61,856.601 1182.34,896.762 1204.55,922.373 1225.4,925.991 1245.07,964.588 1263.67,935.539 1281.31,964.588 1298.1,975.133 1314.1,1064.78 1329.39,1006.38 1344.03,1038.9 1358.08,1034.32 1371.57,1076.91 1384.55,1083.46 1397.07,1143.15 1409.14,1105.56 1420.8,1105.56 1432.08,1113.92 1443,1097.74 1453.59,1143.15 1463.86,1167.47 1473.83,1181.75 1483.52,1167.47 1492.95,1197.93 1502.12,1216.62 1511.06,1300.63 1519.77,1300.63 1528.26,1197.93 1536.55,1300.63 1544.65,1265.76 1552.56,1265.76 1560.29,1216.62 1567.85,1265.76 1575.25,1181.75 1582.49,1349.77 1589.58,1238.72 1596.53,1300.63 1603.35,1300.63 1610.03,1238.72 1616.58,1216.62 1623.01,1300.63 1629.32,1300.63 1641.61,1433.78 1647.59,1349.77 1664.94,1300.63 1670.54,1349.77 1681.46,1349.77 1686.79,1433.78 1692.05,1433.78 1702.32,1349.77 1707.34,1433.78 1712.29,1349.77 1717.17,1349.77 1721.98,1433.78 1740.58,1349.77 1749.52,1433.78 1762.5,1349.77 1766.72,1349.77 1770.89,1433.78 1775.01,1433.78 1779.08,1433.78 1783.11,1433.78 1787.08,1349.77 1794.9,1433.78 1802.55,1433.78 1806.31,1349.77 1824.51,1433.78 1831.53,1433.78 1834.99,1433.78 1838.41,1349.77 1848.48,1349.77 1851.78,1349.77 1858.27,1433.78 1861.47,1433.78 1864.64,1433.78 1867.78,1349.77 1873.98,1433.78 1883.07,1433.78 1894.83,1433.78 2021.56,1433.78 2029.47,1433.78 2037.2,1433.78 2039.11,1433.78 2046.63,1433.78 2214.08,1433.78 2219.75,1433.78 2291.53,1433.78 "></polyline>
<path clip-path="url(#clip150)" d="M1946.63 198.488 L2280.65 198.488 L2280.65 94.8081 L1946.63 94.8081  Z" fill="#ffffff" fill-rule="evenodd" fill-opacity="1"></path>
<polyline clip-path="url(#clip150)" style="stroke:#000000; stroke-linecap:round; stroke-linejoin:round; stroke-width:4; stroke-opacity:1; fill:none" points="1946.63,198.488 2280.65,198.488 2280.65,94.8081 1946.63,94.8081 1946.63,198.488 "></polyline>
<polyline clip-path="url(#clip150)" style="stroke:#009af9; stroke-linecap:round; stroke-linejoin:round; stroke-width:4; stroke-opacity:1; fill:none" points="1970.67,146.648 2114.89,146.648 "></polyline>
<path clip-path="url(#clip150)" d="M2165.83 143.84 Q2165.79 144.074 2165.69 144.495 Q2165.6 144.894 2165.18 146.158 Q2164.76 147.423 2164.19 148.711 Q2163.66 149.976 2162.6 151.756 Q2161.57 153.513 2160.31 155.106 Q2159.95 155.527 2159.88 155.785 Q2159.84 156.019 2159.84 156.792 Q2159.84 161.664 2161.31 161.664 Q2161.38 161.664 2161.5 161.664 Q2161.64 161.641 2161.99 161.524 Q2162.37 161.383 2162.7 161.172 Q2163.02 160.938 2163.4 160.47 Q2163.77 159.978 2164.01 159.322 Q2164.22 158.853 2164.64 158.853 Q2165.2 158.853 2165.2 159.322 Q2165.2 160.165 2164.03 161.453 Q2162.86 162.742 2161.17 162.742 Q2159.56 162.742 2158.41 161.688 Q2157.28 160.61 2156.82 158.689 Q2151.76 162.742 2146.7 162.742 Q2143.14 162.742 2141.03 160.423 Q2138.92 158.08 2138.92 154.614 Q2138.92 151.288 2140.75 148.126 Q2142.6 144.964 2145.6 142.996 Q2148.62 141.005 2151.83 141.005 Q2152.95 141.005 2154.03 141.31 Q2155.11 141.591 2156.18 142.317 Q2157.26 143.043 2158.06 144.144 Q2158.85 145.245 2159.35 146.978 Q2159.84 148.711 2159.84 150.89 L2159.84 153.864 Q2162.93 149.953 2164.55 144.355 Q2164.78 143.512 2164.92 143.418 Q2165.01 143.348 2165.25 143.348 Q2165.48 143.348 2165.62 143.488 Q2165.79 143.605 2165.81 143.722 L2165.83 143.84 M2156.63 157.448 Q2156.53 156.628 2156.53 152.084 Q2156.53 151.218 2156.53 150.749 Q2156.53 150.257 2156.49 149.32 Q2156.44 148.384 2156.35 147.798 Q2156.28 147.212 2156.11 146.369 Q2155.95 145.526 2155.72 144.987 Q2155.48 144.449 2155.11 143.84 Q2154.75 143.231 2154.29 142.879 Q2153.84 142.528 2153.19 142.294 Q2152.55 142.059 2151.78 142.059 Q2150.82 142.059 2149.81 142.411 Q2148.83 142.739 2147.56 143.793 Q2146.3 144.823 2145.25 146.463 Q2144.14 148.196 2143.3 151.382 Q2142.48 154.544 2142.48 156.441 Q2142.48 158.83 2143.58 160.259 Q2144.68 161.664 2146.79 161.664 Q2151.83 161.664 2156.63 157.448 Z" fill="#000000" fill-rule="nonzero" fill-opacity="1"></path><path clip-path="url(#clip150)" d="M2182.61 154.918 Q2182.66 154.333 2183.57 154.333 L2212.96 154.333 Q2214.35 154.333 2214.37 154.872 Q2214.37 155.457 2213.06 155.434 L2183.9 155.434 Q2182.61 155.457 2182.61 154.918 M2182.61 145.549 Q2182.61 144.964 2183.62 144.987 L2212.92 144.987 Q2214.35 144.987 2214.37 145.549 Q2214.37 146.088 2213.15 146.088 L2183.57 146.088 Q2182.61 146.088 2182.61 145.549 Z" fill="#000000" fill-rule="nonzero" fill-opacity="1"></path><path clip-path="url(#clip150)" d="M2232.86 134.822 L2232.86 133.323 Q2238.62 133.323 2241.6 130.255 Q2242.42 130.255 2242.56 130.442 Q2242.7 130.629 2242.7 131.496 L2242.7 158.408 Q2242.7 159.837 2243.4 160.282 Q2244.1 160.727 2247.17 160.727 L2248.69 160.727 L2248.69 162.203 Q2247.01 162.062 2240.92 162.062 Q2234.83 162.062 2233.17 162.203 L2233.17 160.727 L2234.69 160.727 Q2237.71 160.727 2238.44 160.306 Q2239.16 159.861 2239.16 158.408 L2239.16 133.557 Q2236.66 134.822 2232.86 134.822 Z" fill="#000000" fill-rule="nonzero" fill-opacity="1"></path></svg>