<svg xmlns="http://www.w3.org/2000/svg" xmlns:xlink="http://www.w3.org/1999/xlink" width="600" height="400" viewBox="0 0 2400 1600">
<defs>
  <clipPath id="clip350">
    <rect x="0" y="0" width="2400" height="1600"></rect>
  </clipPath>
</defs>
<path clip-path="url(#clip350)" d="M0 1600 L2400 1600 L2400 0 L0 0  Z" fill="#ffffff" fill-rule="evenodd" fill-opacity="1"></path>
<defs>
  <clipPath id="clip351">
    <rect x="480" y="0" width="1681" height="1600"></rect>
  </clipPath>
</defs>
<path clip-path="url(#clip350)" d="M188.574 1474.16 L2352.76 1474.16 L2352.76 47.2441 L188.574 47.2441  Z" fill="#ffffff" fill-rule="evenodd" fill-opacity="1"></path>
<defs>
  <clipPath id="clip352">
    <rect x="188" y="47" width="2165" height="1428"></rect>
  </clipPath>
</defs>
<polyline clip-path="url(#clip352)" style="stroke:#000000; stroke-linecap:round; stroke-linejoin:round; stroke-width:2; stroke-opacity:0.1; fill:none" points="249.804,1474.16 249.804,47.2441 "></polyline>
<polyline clip-path="url(#clip352)" style="stroke:#000000; stroke-linecap:round; stroke-linejoin:round; stroke-width:2; stroke-opacity:0.1; fill:none" points="763.471,1474.16 763.471,47.2441 "></polyline>
<polyline clip-path="url(#clip352)" style="stroke:#000000; stroke-linecap:round; stroke-linejoin:round; stroke-width:2; stroke-opacity:0.1; fill:none" points="1277.14,1474.16 1277.14,47.2441 "></polyline>
<polyline clip-path="url(#clip352)" style="stroke:#000000; stroke-linecap:round; stroke-linejoin:round; stroke-width:2; stroke-opacity:0.1; fill:none" points="1790.8,1474.16 1790.8,47.2441 "></polyline>
<polyline clip-path="url(#clip352)" style="stroke:#000000; stroke-linecap:round; stroke-linejoin:round; stroke-width:2; stroke-opacity:0.1; fill:none" points="2304.47,1474.16 2304.47,47.2441 "></polyline>
<polyline clip-path="url(#clip350)" style="stroke:#000000; stroke-linecap:round; stroke-linejoin:round; stroke-width:4; stroke-opacity:1; fill:none" points="188.574,1474.16 2352.76,1474.16 "></polyline>
<polyline clip-path="url(#clip350)" style="stroke:#000000; stroke-linecap:round; stroke-linejoin:round; stroke-width:4; stroke-opacity:1; fill:none" points="249.804,1474.16 249.804,1455.27 "></polyline>
<polyline clip-path="url(#clip350)" style="stroke:#000000; stroke-linecap:round; stroke-linejoin:round; stroke-width:4; stroke-opacity:1; fill:none" points="763.471,1474.16 763.471,1455.27 "></polyline>
<polyline clip-path="url(#clip350)" style="stroke:#000000; stroke-linecap:round; stroke-linejoin:round; stroke-width:4; stroke-opacity:1; fill:none" points="1277.14,1474.16 1277.14,1455.27 "></polyline>
<polyline clip-path="url(#clip350)" style="stroke:#000000; stroke-linecap:round; stroke-linejoin:round; stroke-width:4; stroke-opacity:1; fill:none" points="1790.8,1474.16 1790.8,1455.27 "></polyline>
<polyline clip-path="url(#clip350)" style="stroke:#000000; stroke-linecap:round; stroke-linejoin:round; stroke-width:4; stroke-opacity:1; fill:none" points="2304.47,1474.16 2304.47,1455.27 "></polyline>
<path clip-path="url(#clip350)" d="M249.804 1505.08 Q246.193 1505.08 244.364 1508.65 Q242.559 1512.19 242.559 1519.32 Q242.559 1526.43 244.364 1529.99 Q246.193 1533.53 249.804 1533.53 Q253.438 1533.53 255.244 1529.99 Q257.073 1526.43 257.073 1519.32 Q257.073 1512.19 255.244 1508.65 Q253.438 1505.08 249.804 1505.08 M249.804 1501.38 Q255.614 1501.38 258.67 1505.99 Q261.749 1510.57 261.749 1519.32 Q261.749 1528.05 258.67 1532.65 Q255.614 1537.24 249.804 1537.24 Q243.994 1537.24 240.915 1532.65 Q237.86 1528.05 237.86 1519.32 Q237.86 1510.57 240.915 1505.99 Q243.994 1501.38 249.804 1501.38 Z" fill="#000000" fill-rule="nonzero" fill-opacity="1"></path><path clip-path="url(#clip350)" d="M659.374 1548.29 L675.693 1548.29 L675.693 1552.22 L653.749 1552.22 L653.749 1548.29 Q656.411 1545.53 660.994 1540.91 Q665.601 1536.25 666.781 1534.91 Q669.027 1532.39 669.906 1530.65 Q670.809 1528.89 670.809 1527.2 Q670.809 1524.45 668.865 1522.71 Q666.944 1520.97 663.842 1520.97 Q661.643 1520.97 659.189 1521.74 Q656.758 1522.5 653.981 1524.05 L653.981 1519.33 Q656.805 1518.2 659.258 1517.62 Q661.712 1517.04 663.749 1517.04 Q669.119 1517.04 672.314 1519.72 Q675.508 1522.41 675.508 1526.9 Q675.508 1529.03 674.698 1530.95 Q673.911 1532.85 671.805 1535.44 Q671.226 1536.11 668.124 1539.33 Q665.022 1542.53 659.374 1548.29 Z" fill="#000000" fill-rule="nonzero" fill-opacity="1"></path><path clip-path="url(#clip350)" d="M685.508 1546.35 L690.392 1546.35 L690.392 1552.22 L685.508 1552.22 L685.508 1546.35 Z" fill="#000000" fill-rule="nonzero" fill-opacity="1"></path><path clip-path="url(#clip350)" d="M700.624 1517.66 L718.98 1517.66 L718.98 1521.6 L704.906 1521.6 L704.906 1530.07 Q705.925 1529.72 706.943 1529.56 Q707.962 1529.38 708.98 1529.38 Q714.767 1529.38 718.147 1532.55 Q721.527 1535.72 721.527 1541.14 Q721.527 1546.72 718.054 1549.82 Q714.582 1552.9 708.263 1552.9 Q706.087 1552.9 703.818 1552.53 Q701.573 1552.16 699.166 1551.41 L699.166 1546.72 Q701.249 1547.85 703.471 1548.41 Q705.693 1548.96 708.17 1548.96 Q712.175 1548.96 714.513 1546.85 Q716.851 1544.75 716.851 1541.14 Q716.851 1537.53 714.513 1535.42 Q712.175 1533.31 708.17 1533.31 Q706.295 1533.31 704.42 1533.73 Q702.568 1534.15 700.624 1535.03 L700.624 1517.66 Z" fill="#000000" fill-rule="nonzero" fill-opacity="1"></path><path clip-path="url(#clip350)" d="M740.739 1520.74 Q737.128 1520.74 735.3 1524.31 Q733.494 1527.85 733.494 1534.98 Q733.494 1542.09 735.3 1545.65 Q737.128 1549.19 740.739 1549.19 Q744.374 1549.19 746.179 1545.65 Q748.008 1542.09 748.008 1534.98 Q748.008 1527.85 746.179 1524.31 Q744.374 1520.74 740.739 1520.74 M740.739 1517.04 Q746.55 1517.04 749.605 1521.65 Q752.684 1526.23 752.684 1534.98 Q752.684 1543.71 749.605 1548.31 Q746.55 1552.9 740.739 1552.9 Q734.929 1552.9 731.851 1548.31 Q728.795 1543.71 728.795 1534.98 Q728.795 1526.23 731.851 1521.65 Q734.929 1517.04 740.739 1517.04 Z" fill="#000000" fill-rule="nonzero" fill-opacity="1"></path><path clip-path="url(#clip350)" d="M789.072 1526.76 L778.494 1537.39 L789.072 1547.97 L786.318 1550.77 L775.693 1540.14 L765.068 1550.77 L762.337 1547.97 L772.892 1537.39 L762.337 1526.76 L765.068 1523.96 L775.693 1534.59 L786.318 1523.96 L789.072 1526.76 Z" fill="#000000" fill-rule="nonzero" fill-opacity="1"></path><path clip-path="url(#clip350)" d="M801.434 1548.29 L809.072 1548.29 L809.072 1521.92 L800.762 1523.59 L800.762 1519.33 L809.026 1517.66 L813.702 1517.66 L813.702 1548.29 L821.341 1548.29 L821.341 1552.22 L801.434 1552.22 L801.434 1548.29 Z" fill="#000000" fill-rule="nonzero" fill-opacity="1"></path><path clip-path="url(#clip350)" d="M840.785 1520.74 Q837.174 1520.74 835.345 1524.31 Q833.54 1527.85 833.54 1534.98 Q833.54 1542.09 835.345 1545.65 Q837.174 1549.19 840.785 1549.19 Q844.419 1549.19 846.225 1545.65 Q848.054 1542.09 848.054 1534.98 Q848.054 1527.85 846.225 1524.31 Q844.419 1520.74 840.785 1520.74 M840.785 1517.04 Q846.595 1517.04 849.651 1521.65 Q852.73 1526.23 852.73 1534.98 Q852.73 1543.71 849.651 1548.31 Q846.595 1552.9 840.785 1552.9 Q834.975 1552.9 831.896 1548.31 Q828.841 1543.71 828.841 1534.98 Q828.841 1526.23 831.896 1521.65 Q834.975 1517.04 840.785 1517.04 Z" fill="#000000" fill-rule="nonzero" fill-opacity="1"></path><path clip-path="url(#clip350)" d="M865.406 1500.04 L855.814 1515.03 L865.406 1515.03 L865.406 1500.04 M864.409 1496.73 L869.186 1496.73 L869.186 1515.03 L873.192 1515.03 L873.192 1518.19 L869.186 1518.19 L869.186 1524.81 L865.406 1524.81 L865.406 1518.19 L852.73 1518.19 L852.73 1514.53 L864.409 1496.73 Z" fill="#000000" fill-rule="nonzero" fill-opacity="1"></path><path clip-path="url(#clip350)" d="M1168.97 1517.66 L1187.32 1517.66 L1187.32 1521.6 L1173.25 1521.6 L1173.25 1530.07 Q1174.27 1529.72 1175.29 1529.56 Q1176.3 1529.38 1177.32 1529.38 Q1183.11 1529.38 1186.49 1532.55 Q1189.87 1535.72 1189.87 1541.14 Q1189.87 1546.72 1186.4 1549.82 Q1182.92 1552.9 1176.61 1552.9 Q1174.43 1552.9 1172.16 1552.53 Q1169.92 1552.16 1167.51 1551.41 L1167.51 1546.72 Q1169.59 1547.85 1171.81 1548.41 Q1174.04 1548.96 1176.51 1548.96 Q1180.52 1548.96 1182.86 1546.85 Q1185.19 1544.75 1185.19 1541.14 Q1185.19 1537.53 1182.86 1535.42 Q1180.52 1533.31 1176.51 1533.31 Q1174.64 1533.31 1172.76 1533.73 Q1170.91 1534.15 1168.97 1535.03 L1168.97 1517.66 Z" fill="#000000" fill-rule="nonzero" fill-opacity="1"></path><path clip-path="url(#clip350)" d="M1199.08 1546.35 L1203.97 1546.35 L1203.97 1552.22 L1199.08 1552.22 L1199.08 1546.35 Z" fill="#000000" fill-rule="nonzero" fill-opacity="1"></path><path clip-path="url(#clip350)" d="M1224.15 1520.74 Q1220.54 1520.74 1218.71 1524.31 Q1216.91 1527.85 1216.91 1534.98 Q1216.91 1542.09 1218.71 1545.65 Q1220.54 1549.19 1224.15 1549.19 Q1227.79 1549.19 1229.59 1545.65 Q1231.42 1542.09 1231.42 1534.98 Q1231.42 1527.85 1229.59 1524.31 Q1227.79 1520.74 1224.15 1520.74 M1224.15 1517.04 Q1229.96 1517.04 1233.02 1521.65 Q1236.1 1526.23 1236.1 1534.98 Q1236.1 1543.71 1233.02 1548.31 Q1229.96 1552.9 1224.15 1552.9 Q1218.34 1552.9 1215.26 1548.31 Q1212.21 1543.71 1212.21 1534.98 Q1212.21 1526.23 1215.26 1521.65 Q1218.34 1517.04 1224.15 1517.04 Z" fill="#000000" fill-rule="nonzero" fill-opacity="1"></path><path clip-path="url(#clip350)" d="M1254.31 1520.74 Q1250.7 1520.74 1248.87 1524.31 Q1247.07 1527.85 1247.07 1534.98 Q1247.07 1542.09 1248.87 1545.65 Q1250.7 1549.19 1254.31 1549.19 Q1257.95 1549.19 1259.75 1545.65 Q1261.58 1542.09 1261.58 1534.98 Q1261.58 1527.85 1259.75 1524.31 Q1257.95 1520.74 1254.31 1520.74 M1254.31 1517.04 Q1260.12 1517.04 1263.18 1521.65 Q1266.26 1526.23 1266.26 1534.98 Q1266.26 1543.71 1263.18 1548.31 Q1260.12 1552.9 1254.31 1552.9 Q1248.5 1552.9 1245.42 1548.31 Q1242.37 1543.71 1242.37 1534.98 Q1242.37 1526.23 1245.42 1521.65 Q1248.5 1517.04 1254.31 1517.04 Z" fill="#000000" fill-rule="nonzero" fill-opacity="1"></path><path clip-path="url(#clip350)" d="M1302.65 1526.76 L1292.07 1537.39 L1302.65 1547.97 L1299.89 1550.77 L1289.27 1540.14 L1278.64 1550.77 L1275.91 1547.97 L1286.47 1537.39 L1275.91 1526.76 L1278.64 1523.96 L1289.27 1534.59 L1299.89 1523.96 L1302.65 1526.76 Z" fill="#000000" fill-rule="nonzero" fill-opacity="1"></path><path clip-path="url(#clip350)" d="M1315.01 1548.29 L1322.65 1548.29 L1322.65 1521.92 L1314.34 1523.59 L1314.34 1519.33 L1322.6 1517.66 L1327.28 1517.66 L1327.28 1548.29 L1334.91 1548.29 L1334.91 1552.22 L1315.01 1552.22 L1315.01 1548.29 Z" fill="#000000" fill-rule="nonzero" fill-opacity="1"></path><path clip-path="url(#clip350)" d="M1354.36 1520.74 Q1350.75 1520.74 1348.92 1524.31 Q1347.11 1527.85 1347.11 1534.98 Q1347.11 1542.09 1348.92 1545.65 Q1350.75 1549.19 1354.36 1549.19 Q1357.99 1549.19 1359.8 1545.65 Q1361.63 1542.09 1361.63 1534.98 Q1361.63 1527.85 1359.8 1524.31 Q1357.99 1520.74 1354.36 1520.74 M1354.36 1517.04 Q1360.17 1517.04 1363.22 1521.65 Q1366.3 1526.23 1366.3 1534.98 Q1366.3 1543.71 1363.22 1548.31 Q1360.17 1552.9 1354.36 1552.9 Q1348.55 1552.9 1345.47 1548.31 Q1342.41 1543.71 1342.41 1534.98 Q1342.41 1526.23 1345.47 1521.65 Q1348.55 1517.04 1354.36 1517.04 Z" fill="#000000" fill-rule="nonzero" fill-opacity="1"></path><path clip-path="url(#clip350)" d="M1378.98 1500.04 L1369.39 1515.03 L1378.98 1515.03 L1378.98 1500.04 M1377.98 1496.73 L1382.76 1496.73 L1382.76 1515.03 L1386.77 1515.03 L1386.77 1518.19 L1382.76 1518.19 L1382.76 1524.81 L1378.98 1524.81 L1378.98 1518.19 L1366.3 1518.19 L1366.3 1514.53 L1377.98 1496.73 Z" fill="#000000" fill-rule="nonzero" fill-opacity="1"></path><path clip-path="url(#clip350)" d="M1681.29 1517.66 L1703.51 1517.66 L1703.51 1519.66 L1690.97 1552.22 L1686.08 1552.22 L1697.89 1521.6 L1681.29 1521.6 L1681.29 1517.66 Z" fill="#000000" fill-rule="nonzero" fill-opacity="1"></path><path clip-path="url(#clip350)" d="M1712.63 1546.35 L1717.52 1546.35 L1717.52 1552.22 L1712.63 1552.22 L1712.63 1546.35 Z" fill="#000000" fill-rule="nonzero" fill-opacity="1"></path><path clip-path="url(#clip350)" d="M1727.75 1517.66 L1746.11 1517.66 L1746.11 1521.6 L1732.03 1521.6 L1732.03 1530.07 Q1733.05 1529.72 1734.07 1529.56 Q1735.09 1529.38 1736.11 1529.38 Q1741.89 1529.38 1745.27 1532.55 Q1748.65 1535.72 1748.65 1541.14 Q1748.65 1546.72 1745.18 1549.82 Q1741.71 1552.9 1735.39 1552.9 Q1733.21 1552.9 1730.94 1552.53 Q1728.7 1552.16 1726.29 1551.41 L1726.29 1546.72 Q1728.37 1547.85 1730.6 1548.41 Q1732.82 1548.96 1735.29 1548.96 Q1739.3 1548.96 1741.64 1546.85 Q1743.98 1544.75 1743.98 1541.14 Q1743.98 1537.53 1741.64 1535.42 Q1739.3 1533.31 1735.29 1533.31 Q1733.42 1533.31 1731.54 1533.73 Q1729.69 1534.15 1727.75 1535.03 L1727.75 1517.66 Z" fill="#000000" fill-rule="nonzero" fill-opacity="1"></path><path clip-path="url(#clip350)" d="M1767.86 1520.74 Q1764.25 1520.74 1762.42 1524.31 Q1760.62 1527.85 1760.62 1534.98 Q1760.62 1542.09 1762.42 1545.65 Q1764.25 1549.19 1767.86 1549.19 Q1771.5 1549.19 1773.3 1545.65 Q1775.13 1542.09 1775.13 1534.98 Q1775.13 1527.85 1773.3 1524.31 Q1771.5 1520.74 1767.86 1520.74 M1767.86 1517.04 Q1773.67 1517.04 1776.73 1521.65 Q1779.81 1526.23 1779.81 1534.98 Q1779.81 1543.71 1776.73 1548.31 Q1773.67 1552.9 1767.86 1552.9 Q1762.05 1552.9 1758.98 1548.31 Q1755.92 1543.71 1755.92 1534.98 Q1755.92 1526.23 1758.98 1521.65 Q1762.05 1517.04 1767.86 1517.04 Z" fill="#000000" fill-rule="nonzero" fill-opacity="1"></path><path clip-path="url(#clip350)" d="M1816.2 1526.76 L1805.62 1537.39 L1816.2 1547.97 L1813.44 1550.77 L1802.82 1540.14 L1792.19 1550.77 L1789.46 1547.97 L1800.02 1537.39 L1789.46 1526.76 L1792.19 1523.96 L1802.82 1534.59 L1813.44 1523.96 L1816.2 1526.76 Z" fill="#000000" fill-rule="nonzero" fill-opacity="1"></path><path clip-path="url(#clip350)" d="M1828.56 1548.29 L1836.2 1548.29 L1836.2 1521.92 L1827.89 1523.59 L1827.89 1519.33 L1836.15 1517.66 L1840.83 1517.66 L1840.83 1548.29 L1848.47 1548.29 L1848.47 1552.22 L1828.56 1552.22 L1828.56 1548.29 Z" fill="#000000" fill-rule="nonzero" fill-opacity="1"></path><path clip-path="url(#clip350)" d="M1867.91 1520.74 Q1864.3 1520.74 1862.47 1524.31 Q1860.66 1527.85 1860.66 1534.98 Q1860.66 1542.09 1862.47 1545.65 Q1864.3 1549.19 1867.91 1549.19 Q1871.54 1549.19 1873.35 1545.65 Q1875.18 1542.09 1875.18 1534.98 Q1875.18 1527.85 1873.35 1524.31 Q1871.54 1520.74 1867.91 1520.74 M1867.91 1517.04 Q1873.72 1517.04 1876.78 1521.65 Q1879.85 1526.23 1879.85 1534.98 Q1879.85 1543.71 1876.78 1548.31 Q1873.72 1552.9 1867.91 1552.9 Q1862.1 1552.9 1859.02 1548.31 Q1855.97 1543.71 1855.97 1534.98 Q1855.97 1526.23 1859.02 1521.65 Q1862.1 1517.04 1867.91 1517.04 Z" fill="#000000" fill-rule="nonzero" fill-opacity="1"></path><path clip-path="url(#clip350)" d="M1892.53 1500.04 L1882.94 1515.03 L1892.53 1515.03 L1892.53 1500.04 M1891.53 1496.73 L1896.31 1496.73 L1896.31 1515.03 L1900.32 1515.03 L1900.32 1518.19 L1896.31 1518.19 L1896.31 1524.81 L1892.53 1524.81 L1892.53 1518.19 L1879.85 1518.19 L1879.85 1514.53 L1891.53 1496.73 Z" fill="#000000" fill-rule="nonzero" fill-opacity="1"></path><path clip-path="url(#clip350)" d="M2197.44 1548.29 L2205.07 1548.29 L2205.07 1521.92 L2196.76 1523.59 L2196.76 1519.33 L2205.03 1517.66 L2209.7 1517.66 L2209.7 1548.29 L2217.34 1548.29 L2217.34 1552.22 L2197.44 1552.22 L2197.44 1548.29 Z" fill="#000000" fill-rule="nonzero" fill-opacity="1"></path><path clip-path="url(#clip350)" d="M2226.79 1546.35 L2231.67 1546.35 L2231.67 1552.22 L2226.79 1552.22 L2226.79 1546.35 Z" fill="#000000" fill-rule="nonzero" fill-opacity="1"></path><path clip-path="url(#clip350)" d="M2251.86 1520.74 Q2248.25 1520.74 2246.42 1524.31 Q2244.61 1527.85 2244.61 1534.98 Q2244.61 1542.09 2246.42 1545.65 Q2248.25 1549.19 2251.86 1549.19 Q2255.49 1549.19 2257.3 1545.65 Q2259.12 1542.09 2259.12 1534.98 Q2259.12 1527.85 2257.3 1524.31 Q2255.49 1520.74 2251.86 1520.74 M2251.86 1517.04 Q2257.67 1517.04 2260.72 1521.65 Q2263.8 1526.23 2263.8 1534.98 Q2263.8 1543.71 2260.72 1548.31 Q2257.67 1552.9 2251.86 1552.9 Q2246.05 1552.9 2242.97 1548.31 Q2239.91 1543.71 2239.91 1534.98 Q2239.91 1526.23 2242.97 1521.65 Q2246.05 1517.04 2251.86 1517.04 Z" fill="#000000" fill-rule="nonzero" fill-opacity="1"></path><path clip-path="url(#clip350)" d="M2282.02 1520.74 Q2278.41 1520.74 2276.58 1524.31 Q2274.77 1527.85 2274.77 1534.98 Q2274.77 1542.09 2276.58 1545.65 Q2278.41 1549.19 2282.02 1549.19 Q2285.65 1549.19 2287.46 1545.65 Q2289.29 1542.09 2289.29 1534.98 Q2289.29 1527.85 2287.46 1524.31 Q2285.65 1520.74 2282.02 1520.74 M2282.02 1517.04 Q2287.83 1517.04 2290.88 1521.65 Q2293.96 1526.23 2293.96 1534.98 Q2293.96 1543.71 2290.88 1548.31 Q2287.83 1552.9 2282.02 1552.9 Q2276.21 1552.9 2273.13 1548.31 Q2270.07 1543.71 2270.07 1534.98 Q2270.07 1526.23 2273.13 1521.65 Q2276.21 1517.04 2282.02 1517.04 Z" fill="#000000" fill-rule="nonzero" fill-opacity="1"></path><path clip-path="url(#clip350)" d="M2330.35 1526.76 L2319.77 1537.39 L2330.35 1547.97 L2327.6 1550.77 L2316.97 1540.14 L2306.35 1550.77 L2303.62 1547.97 L2314.17 1537.39 L2303.62 1526.76 L2306.35 1523.96 L2316.97 1534.59 L2327.6 1523.96 L2330.35 1526.76 Z" fill="#000000" fill-rule="nonzero" fill-opacity="1"></path><path clip-path="url(#clip350)" d="M2342.71 1548.29 L2350.35 1548.29 L2350.35 1521.92 L2342.04 1523.59 L2342.04 1519.33 L2350.3 1517.66 L2354.98 1517.66 L2354.98 1548.29 L2362.62 1548.29 L2362.62 1552.22 L2342.71 1552.22 L2342.71 1548.29 Z" fill="#000000" fill-rule="nonzero" fill-opacity="1"></path><path clip-path="url(#clip350)" d="M2382.06 1520.74 Q2378.45 1520.74 2376.62 1524.31 Q2374.82 1527.85 2374.82 1534.98 Q2374.82 1542.09 2376.62 1545.65 Q2378.45 1549.19 2382.06 1549.19 Q2385.7 1549.19 2387.5 1545.65 Q2389.33 1542.09 2389.33 1534.98 Q2389.33 1527.85 2387.5 1524.31 Q2385.7 1520.74 2382.06 1520.74 M2382.06 1517.04 Q2387.87 1517.04 2390.93 1521.65 Q2394.01 1526.23 2394.01 1534.98 Q2394.01 1543.71 2390.93 1548.31 Q2387.87 1552.9 2382.06 1552.9 Q2376.25 1552.9 2373.18 1548.31 Q2370.12 1543.71 2370.12 1534.98 Q2370.12 1526.23 2373.18 1521.65 Q2376.25 1517.04 2382.06 1517.04 Z" fill="#000000" fill-rule="nonzero" fill-opacity="1"></path><path clip-path="url(#clip350)" d="M2395.19 1496.73 L2410.11 1496.73 L2410.11 1499.93 L2398.67 1499.93 L2398.67 1506.82 Q2399.5 1506.53 2400.33 1506.4 Q2401.16 1506.25 2401.98 1506.25 Q2406.68 1506.25 2409.43 1508.83 Q2412.18 1511.4 2412.18 1515.81 Q2412.18 1520.34 2409.36 1522.86 Q2406.53 1525.36 2401.4 1525.36 Q2399.63 1525.36 2397.79 1525.06 Q2395.96 1524.76 2394.01 1524.16 L2394.01 1520.34 Q2395.7 1521.26 2397.51 1521.71 Q2399.31 1522.16 2401.32 1522.16 Q2404.58 1522.16 2406.48 1520.45 Q2408.38 1518.74 2408.38 1515.81 Q2408.38 1512.87 2406.48 1511.16 Q2404.58 1509.45 2401.32 1509.45 Q2399.8 1509.45 2398.28 1509.79 Q2396.77 1510.13 2395.19 1510.84 L2395.19 1496.73 Z" fill="#000000" fill-rule="nonzero" fill-opacity="1"></path><polyline clip-path="url(#clip352)" style="stroke:#000000; stroke-linecap:round; stroke-linejoin:round; stroke-width:2; stroke-opacity:0.1; fill:none" points="188.574,895.039 2352.76,895.039 "></polyline>
<polyline clip-path="url(#clip352)" style="stroke:#000000; stroke-linecap:round; stroke-linejoin:round; stroke-width:2; stroke-opacity:0.1; fill:none" points="188.574,86.9317 2352.76,86.9317 "></polyline>
<polyline clip-path="url(#clip350)" style="stroke:#000000; stroke-linecap:round; stroke-linejoin:round; stroke-width:4; stroke-opacity:1; fill:none" points="188.574,1474.16 188.574,47.2441 "></polyline>
<polyline clip-path="url(#clip350)" style="stroke:#000000; stroke-linecap:round; stroke-linejoin:round; stroke-width:4; stroke-opacity:1; fill:none" points="188.574,895.039 207.472,895.039 "></polyline>
<polyline clip-path="url(#clip350)" style="stroke:#000000; stroke-linecap:round; stroke-linejoin:round; stroke-width:4; stroke-opacity:1; fill:none" points="188.574,86.9317 207.472,86.9317 "></polyline>
<path clip-path="url(#clip350)" d="M51.6634 914.832 L59.3023 914.832 L59.3023 888.466 L50.9921 890.133 L50.9921 885.874 L59.256 884.207 L63.9319 884.207 L63.9319 914.832 L71.5707 914.832 L71.5707 918.767 L51.6634 918.767 L51.6634 914.832 Z" fill="#000000" fill-rule="nonzero" fill-opacity="1"></path><path clip-path="url(#clip350)" d="M91.0151 887.286 Q87.404 887.286 85.5753 890.85 Q83.7697 894.392 83.7697 901.522 Q83.7697 908.628 85.5753 912.193 Q87.404 915.735 91.0151 915.735 Q94.6493 915.735 96.4548 912.193 Q98.2835 908.628 98.2835 901.522 Q98.2835 894.392 96.4548 890.85 Q94.6493 887.286 91.0151 887.286 M91.0151 883.582 Q96.8252 883.582 99.8808 888.188 Q102.959 892.772 102.959 901.522 Q102.959 910.248 99.8808 914.855 Q96.8252 919.438 91.0151 919.438 Q85.2049 919.438 82.1262 914.855 Q79.0707 910.248 79.0707 901.522 Q79.0707 892.772 82.1262 888.188 Q85.2049 883.582 91.0151 883.582 Z" fill="#000000" fill-rule="nonzero" fill-opacity="1"></path><path clip-path="url(#clip350)" d="M102.959 877.683 L127.071 877.683 L127.071 880.881 L102.959 880.881 L102.959 877.683 Z" fill="#000000" fill-rule="nonzero" fill-opacity="1"></path><path clip-path="url(#clip350)" d="M146.782 876.216 Q149.509 876.799 151.032 878.642 Q152.574 880.486 152.574 883.194 Q152.574 887.35 149.716 889.626 Q146.857 891.902 141.591 891.902 Q139.823 891.902 137.942 891.545 Q136.08 891.206 134.086 890.51 L134.086 886.843 Q135.666 887.764 137.547 888.234 Q139.428 888.705 141.478 888.705 Q145.051 888.705 146.913 887.294 Q148.794 885.883 148.794 883.194 Q148.794 880.711 147.045 879.32 Q145.315 877.909 142.211 877.909 L138.939 877.909 L138.939 874.787 L142.362 874.787 Q145.164 874.787 146.65 873.677 Q148.136 872.549 148.136 870.442 Q148.136 868.279 146.593 867.132 Q145.07 865.966 142.211 865.966 Q140.65 865.966 138.863 866.305 Q137.077 866.643 134.933 867.358 L134.933 863.972 Q137.096 863.371 138.976 863.07 Q140.876 862.769 142.55 862.769 Q146.876 862.769 149.396 864.744 Q151.916 866.7 151.916 870.047 Q151.916 872.38 150.581 873.997 Q149.245 875.596 146.782 876.216 Z" fill="#000000" fill-rule="nonzero" fill-opacity="1"></path><path clip-path="url(#clip350)" d="M81.8687 106.724 L89.5075 106.724 L89.5075 80.3585 L81.1974 82.0252 L81.1974 77.7659 L89.4612 76.0993 L94.1371 76.0993 L94.1371 106.724 L101.776 106.724 L101.776 110.659 L81.8687 110.659 L81.8687 106.724 Z" fill="#000000" fill-rule="nonzero" fill-opacity="1"></path><path clip-path="url(#clip350)" d="M121.22 79.178 Q117.609 79.178 115.781 82.7428 Q113.975 86.2844 113.975 93.414 Q113.975 100.52 115.781 104.085 Q117.609 107.627 121.22 107.627 Q124.855 107.627 126.66 104.085 Q128.489 100.52 128.489 93.414 Q128.489 86.2844 126.66 82.7428 Q124.855 79.178 121.22 79.178 M121.22 75.4743 Q127.03 75.4743 130.086 80.0807 Q133.165 84.6641 133.165 93.414 Q133.165 102.141 130.086 106.747 Q127.03 111.331 121.22 111.331 Q115.41 111.331 112.331 106.747 Q109.276 102.141 109.276 93.414 Q109.276 84.6641 112.331 80.0807 Q115.41 75.4743 121.22 75.4743 Z" fill="#000000" fill-rule="nonzero" fill-opacity="1"></path><path clip-path="url(#clip350)" d="M142.87 57.6703 Q139.936 57.6703 138.45 60.5667 Q136.983 63.4443 136.983 69.2371 Q136.983 75.0111 138.45 77.9075 Q139.936 80.7851 142.87 80.7851 Q145.822 80.7851 147.289 77.9075 Q148.775 75.0111 148.775 69.2371 Q148.775 63.4443 147.289 60.5667 Q145.822 57.6703 142.87 57.6703 M142.87 54.6611 Q147.59 54.6611 150.073 58.4038 Q152.574 62.1278 152.574 69.2371 Q152.574 76.3276 150.073 80.0704 Q147.59 83.7943 142.87 83.7943 Q138.149 83.7943 135.647 80.0704 Q133.165 76.3276 133.165 69.2371 Q133.165 62.1278 135.647 58.4038 Q138.149 54.6611 142.87 54.6611 Z" fill="#000000" fill-rule="nonzero" fill-opacity="1"></path><polyline clip-path="url(#clip352)" style="stroke:#009af9; stroke-linecap:round; stroke-linejoin:round; stroke-width:4; stroke-opacity:1; fill:none" points="249.825,87.6286 249.845,693.712 249.866,1039.86 249.886,1245.5 2291.51,1433.78 "></polyline>
<path clip-path="url(#clip350)" d="M1914.44 198.488 L2280.62 198.488 L2280.62 94.8081 L1914.44 94.8081  Z" fill="#ffffff" fill-rule="evenodd" fill-opacity="1"></path>
<polyline clip-path="url(#clip350)" style="stroke:#000000; stroke-linecap:round; stroke-linejoin:round; stroke-width:4; stroke-opacity:1; fill:none" points="1914.44,198.488 2280.62,198.488 2280.62,94.8081 1914.44,94.8081 1914.44,198.488 "></polyline>
<polyline clip-path="url(#clip350)" style="stroke:#009af9; stroke-linecap:round; stroke-linejoin:round; stroke-width:4; stroke-opacity:1; fill:none" points="1938.48,146.648 2082.76,146.648 "></polyline>
<path clip-path="url(#clip350)" d="M2133.72 143.582 Q2133.67 143.816 2133.58 144.238 Q2133.49 144.636 2133.06 145.901 Q2132.64 147.165 2132.08 148.454 Q2131.54 149.718 2130.49 151.499 Q2129.46 153.255 2128.19 154.848 Q2127.84 155.27 2127.77 155.527 Q2127.72 155.761 2127.72 156.534 Q2127.72 161.406 2129.2 161.406 Q2129.27 161.406 2129.39 161.406 Q2129.53 161.383 2129.88 161.266 Q2130.25 161.125 2130.58 160.914 Q2130.91 160.68 2131.28 160.212 Q2131.66 159.72 2131.89 159.064 Q2132.1 158.596 2132.53 158.596 Q2133.09 158.596 2133.09 159.064 Q2133.09 159.907 2131.92 161.195 Q2130.75 162.484 2129.06 162.484 Q2127.44 162.484 2126.3 161.43 Q2125.17 160.352 2124.7 158.432 Q2119.64 162.484 2114.58 162.484 Q2111.02 162.484 2108.92 160.165 Q2106.81 157.823 2106.81 154.356 Q2106.81 151.03 2108.64 147.868 Q2110.49 144.706 2113.48 142.739 Q2116.51 140.748 2119.71 140.748 Q2120.84 140.748 2121.92 141.052 Q2122.99 141.333 2124.07 142.059 Q2125.15 142.785 2125.94 143.886 Q2126.74 144.987 2127.23 146.72 Q2127.72 148.454 2127.72 150.632 L2127.72 153.607 Q2130.82 149.695 2132.43 144.097 Q2132.67 143.254 2132.81 143.16 Q2132.9 143.09 2133.14 143.09 Q2133.37 143.09 2133.51 143.23 Q2133.67 143.348 2133.7 143.465 L2133.72 143.582 M2124.52 157.19 Q2124.42 156.37 2124.42 151.826 Q2124.42 150.96 2124.42 150.491 Q2124.42 150 2124.38 149.063 Q2124.33 148.126 2124.23 147.54 Q2124.16 146.955 2124 146.111 Q2123.84 145.268 2123.6 144.729 Q2123.37 144.191 2122.99 143.582 Q2122.64 142.973 2122.17 142.621 Q2121.73 142.27 2121.07 142.036 Q2120.44 141.802 2119.67 141.802 Q2118.71 141.802 2117.7 142.153 Q2116.72 142.481 2115.45 143.535 Q2114.19 144.566 2113.13 146.205 Q2112.03 147.938 2111.19 151.124 Q2110.37 154.286 2110.37 156.183 Q2110.37 158.572 2111.47 160.001 Q2112.57 161.406 2114.68 161.406 Q2119.71 161.406 2124.52 157.19 Z" fill="#000000" fill-rule="nonzero" fill-opacity="1"></path><path clip-path="url(#clip350)" d="M2150.5 154.661 Q2150.54 154.075 2151.46 154.075 L2180.85 154.075 Q2182.23 154.075 2182.26 154.614 Q2182.26 155.199 2180.95 155.176 L2151.78 155.176 Q2150.5 155.199 2150.5 154.661 M2150.5 145.292 Q2150.5 144.706 2151.5 144.729 L2180.8 144.729 Q2182.23 144.729 2182.26 145.292 Q2182.26 145.83 2181.04 145.83 L2151.46 145.83 Q2150.5 145.83 2150.5 145.292 Z" fill="#000000" fill-rule="nonzero" fill-opacity="1"></path><path clip-path="url(#clip350)" d="M2200.75 134.564 L2200.75 133.065 Q2206.51 133.065 2209.48 129.997 Q2210.3 129.997 2210.44 130.184 Q2210.59 130.372 2210.59 131.238 L2210.59 158.151 Q2210.59 159.579 2211.29 160.024 Q2211.99 160.469 2215.06 160.469 L2216.58 160.469 L2216.58 161.945 Q2214.9 161.804 2208.81 161.804 Q2202.72 161.804 2201.05 161.945 L2201.05 160.469 L2202.57 160.469 Q2205.6 160.469 2206.32 160.048 Q2207.05 159.603 2207.05 158.151 L2207.05 133.299 Q2204.54 134.564 2200.75 134.564 Z" fill="#000000" fill-rule="nonzero" fill-opacity="1"></path><path clip-path="url(#clip350)" d="M2220.35 161.172 Q2219.62 160.399 2219.62 159.392 Q2219.62 158.385 2220.35 157.659 Q2221.08 156.909 2222.18 156.909 Q2223.23 156.909 2223.93 157.612 Q2224.66 158.291 2224.66 159.415 Q2224.66 160.516 2223.89 161.242 Q2223.14 161.945 2222.18 161.945 Q2221.08 161.945 2220.35 161.172 Z" fill="#000000" fill-rule="nonzero" fill-opacity="1"></path><path clip-path="url(#clip350)" d="M2232.82 154.216 Q2232.82 152.787 2233.59 152.248 Q2234.37 151.686 2235.19 151.686 Q2236.29 151.686 2236.92 152.389 Q2237.57 153.068 2237.57 154.028 Q2237.57 154.989 2236.92 155.691 Q2236.29 156.37 2235.19 156.37 Q2234.65 156.37 2234.37 156.277 Q2235 158.478 2236.92 160.071 Q2238.86 161.664 2241.42 161.664 Q2244.62 161.664 2246.55 158.549 Q2247.69 156.534 2247.69 151.967 Q2247.69 147.938 2246.83 145.924 Q2245.49 142.856 2242.75 142.856 Q2238.86 142.856 2236.57 146.205 Q2236.29 146.627 2235.96 146.65 Q2235.49 146.65 2235.37 146.392 Q2235.28 146.111 2235.28 145.385 L2235.28 131.191 Q2235.28 130.044 2235.75 130.044 Q2235.94 130.044 2236.33 130.184 Q2239.35 131.519 2242.7 131.543 Q2246.15 131.543 2249.24 130.137 Q2249.47 129.997 2249.61 129.997 Q2250.08 129.997 2250.11 130.535 Q2250.11 130.723 2249.71 131.285 Q2249.33 131.824 2248.51 132.55 Q2247.69 133.252 2246.64 133.932 Q2245.59 134.611 2244.04 135.079 Q2242.52 135.524 2240.83 135.524 Q2238.82 135.524 2236.76 134.892 L2236.76 144.238 Q2239.24 141.802 2242.84 141.802 Q2246.69 141.802 2249.33 144.893 Q2251.98 147.985 2251.98 152.295 Q2251.98 156.815 2248.84 159.907 Q2245.73 162.999 2241.51 162.999 Q2237.67 162.999 2235.23 160.259 Q2232.82 157.518 2232.82 154.216 Z" fill="#000000" fill-rule="nonzero" fill-opacity="1"></path></svg>