<svg xmlns="http://www.w3.org/2000/svg" xmlns:xlink="http://www.w3.org/1999/xlink" width="600" height="400" viewBox="0 0 2400 1600">
<defs>
  <clipPath id="clip390">
    <rect x="0" y="0" width="2400" height="1600"></rect>
  </clipPath>
</defs>
<path clip-path="url(#clip390)" d="M0 1600 L2400 1600 L2400 0 L0 0  Z" fill="#ffffff" fill-rule="evenodd" fill-opacity="1"></path>
<defs>
  <clipPath id="clip391">
    <rect x="480" y="0" width="1681" height="1600"></rect>
  </clipPath>
</defs>
<path clip-path="url(#clip390)" d="M188.574 1474.16 L2352.76 1474.16 L2352.76 47.2441 L188.574 47.2441  Z" fill="#ffffff" fill-rule="evenodd" fill-opacity="1"></path>
<defs>
  <clipPath id="clip392">
    <rect x="188" y="47" width="2165" height="1428"></rect>
  </clipPath>
</defs>
<polyline clip-path="url(#clip392)" style="stroke:#000000; stroke-linecap:round; stroke-linejoin:round; stroke-width:2; stroke-opacity:0.1; fill:none" points="249.825,1474.16 249.825,47.2441 "></polyline>
<polyline clip-path="url(#clip392)" style="stroke:#000000; stroke-linecap:round; stroke-linejoin:round; stroke-width:2; stroke-opacity:0.1; fill:none" points="1475.51,1474.16 1475.51,47.2441 "></polyline>
<polyline clip-path="url(#clip390)" style="stroke:#000000; stroke-linecap:round; stroke-linejoin:round; stroke-width:4; stroke-opacity:1; fill:none" points="188.574,1474.16 2352.76,1474.16 "></polyline>
<polyline clip-path="url(#clip390)" style="stroke:#000000; stroke-linecap:round; stroke-linejoin:round; stroke-width:4; stroke-opacity:1; fill:none" points="249.825,1474.16 249.825,1455.27 "></polyline>
<polyline clip-path="url(#clip390)" style="stroke:#000000; stroke-linecap:round; stroke-linejoin:round; stroke-width:4; stroke-opacity:1; fill:none" points="1475.51,1474.16 1475.51,1455.27 "></polyline>
<path clip-path="url(#clip390)" d="M214.808 1548.29 L222.446 1548.29 L222.446 1521.92 L214.136 1523.59 L214.136 1519.33 L222.4 1517.66 L227.076 1517.66 L227.076 1548.29 L234.715 1548.29 L234.715 1552.22 L214.808 1552.22 L214.808 1548.29 Z" fill="#000000" fill-rule="nonzero" fill-opacity="1"></path><path clip-path="url(#clip390)" d="M254.159 1520.74 Q250.548 1520.74 248.719 1524.31 Q246.914 1527.85 246.914 1534.98 Q246.914 1542.09 248.719 1545.65 Q250.548 1549.19 254.159 1549.19 Q257.793 1549.19 259.599 1545.65 Q261.428 1542.09 261.428 1534.98 Q261.428 1527.85 259.599 1524.31 Q257.793 1520.74 254.159 1520.74 M254.159 1517.04 Q259.969 1517.04 263.025 1521.65 Q266.104 1526.23 266.104 1534.98 Q266.104 1543.71 263.025 1548.31 Q259.969 1552.9 254.159 1552.9 Q248.349 1552.9 245.27 1548.31 Q242.215 1543.71 242.215 1534.98 Q242.215 1526.23 245.27 1521.65 Q248.349 1517.04 254.159 1517.04 Z" fill="#000000" fill-rule="nonzero" fill-opacity="1"></path><path clip-path="url(#clip390)" d="M275.808 1499.24 Q272.874 1499.24 271.389 1502.13 Q269.922 1505.01 269.922 1510.8 Q269.922 1516.58 271.389 1519.47 Q272.874 1522.35 275.808 1522.35 Q278.761 1522.35 280.228 1519.47 Q281.714 1516.58 281.714 1510.8 Q281.714 1505.01 280.228 1502.13 Q278.761 1499.24 275.808 1499.24 M275.808 1496.23 Q280.529 1496.23 283.012 1499.97 Q285.513 1503.69 285.513 1510.8 Q285.513 1517.89 283.012 1521.64 Q280.529 1525.36 275.808 1525.36 Q271.088 1525.36 268.586 1521.64 Q266.104 1517.89 266.104 1510.8 Q266.104 1503.69 268.586 1499.97 Q271.088 1496.23 275.808 1496.23 Z" fill="#000000" fill-rule="nonzero" fill-opacity="1"></path><path clip-path="url(#clip390)" d="M1440.95 1548.29 L1448.59 1548.29 L1448.59 1521.92 L1440.28 1523.59 L1440.28 1519.33 L1448.54 1517.66 L1453.22 1517.66 L1453.22 1548.29 L1460.86 1548.29 L1460.86 1552.22 L1440.95 1552.22 L1440.95 1548.29 Z" fill="#000000" fill-rule="nonzero" fill-opacity="1"></path><path clip-path="url(#clip390)" d="M1480.3 1520.74 Q1476.69 1520.74 1474.86 1524.31 Q1473.06 1527.85 1473.06 1534.98 Q1473.06 1542.09 1474.86 1545.65 Q1476.69 1549.19 1480.3 1549.19 Q1483.94 1549.19 1485.74 1545.65 Q1487.57 1542.09 1487.57 1534.98 Q1487.57 1527.85 1485.74 1524.31 Q1483.94 1520.74 1480.3 1520.74 M1480.3 1517.04 Q1486.11 1517.04 1489.17 1521.65 Q1492.25 1526.23 1492.25 1534.98 Q1492.25 1543.71 1489.17 1548.31 Q1486.11 1552.9 1480.3 1552.9 Q1474.49 1552.9 1471.41 1548.31 Q1468.36 1543.71 1468.36 1534.98 Q1468.36 1526.23 1471.41 1521.65 Q1474.49 1517.04 1480.3 1517.04 Z" fill="#000000" fill-rule="nonzero" fill-opacity="1"></path><path clip-path="url(#clip390)" d="M1504.94 1509.67 Q1507.67 1510.26 1509.19 1512.1 Q1510.73 1513.94 1510.73 1516.65 Q1510.73 1520.81 1507.88 1523.08 Q1505.02 1525.36 1499.75 1525.36 Q1497.98 1525.36 1496.1 1525 Q1494.24 1524.66 1492.25 1523.97 L1492.25 1520.3 Q1493.83 1521.22 1495.71 1521.69 Q1497.59 1522.16 1499.64 1522.16 Q1503.21 1522.16 1505.07 1520.75 Q1506.95 1519.34 1506.95 1516.65 Q1506.95 1514.17 1505.21 1512.78 Q1503.47 1511.37 1500.37 1511.37 L1497.1 1511.37 L1497.1 1508.24 L1500.52 1508.24 Q1503.32 1508.24 1504.81 1507.13 Q1506.3 1506.01 1506.3 1503.9 Q1506.3 1501.74 1504.75 1500.59 Q1503.23 1499.42 1500.37 1499.42 Q1498.81 1499.42 1497.02 1499.76 Q1495.24 1500.1 1493.09 1500.82 L1493.09 1497.43 Q1495.26 1496.83 1497.14 1496.53 Q1499.04 1496.23 1500.71 1496.23 Q1505.04 1496.23 1507.56 1498.2 Q1510.08 1500.16 1510.08 1503.51 Q1510.08 1505.84 1508.74 1507.45 Q1507.41 1509.05 1504.94 1509.67 Z" fill="#000000" fill-rule="nonzero" fill-opacity="1"></path><polyline clip-path="url(#clip392)" style="stroke:#000000; stroke-linecap:round; stroke-linejoin:round; stroke-width:2; stroke-opacity:0.1; fill:none" points="188.574,895.039 2352.76,895.039 "></polyline>
<polyline clip-path="url(#clip392)" style="stroke:#000000; stroke-linecap:round; stroke-linejoin:round; stroke-width:2; stroke-opacity:0.1; fill:none" points="188.574,86.9317 2352.76,86.9317 "></polyline>
<polyline clip-path="url(#clip390)" style="stroke:#000000; stroke-linecap:round; stroke-linejoin:round; stroke-width:4; stroke-opacity:1; fill:none" points="188.574,1474.16 188.574,47.2441 "></polyline>
<polyline clip-path="url(#clip390)" style="stroke:#000000; stroke-linecap:round; stroke-linejoin:round; stroke-width:4; stroke-opacity:1; fill:none" points="188.574,895.039 207.472,895.039 "></polyline>
<polyline clip-path="url(#clip390)" style="stroke:#000000; stroke-linecap:round; stroke-linejoin:round; stroke-width:4; stroke-opacity:1; fill:none" points="188.574,86.9317 207.472,86.9317 "></polyline>
<path clip-path="url(#clip390)" d="M51.6634 914.832 L59.3023 914.832 L59.3023 888.466 L50.9921 890.133 L50.9921 885.874 L59.256 884.207 L63.9319 884.207 L63.9319 914.832 L71.5707 914.832 L71.5707 918.767 L51.6634 918.767 L51.6634 914.832 Z" fill="#000000" fill-rule="nonzero" fill-opacity="1"></path><path clip-path="url(#clip390)" d="M91.0151 887.286 Q87.404 887.286 85.5753 890.85 Q83.7697 894.392 83.7697 901.522 Q83.7697 908.628 85.5753 912.193 Q87.404 915.735 91.0151 915.735 Q94.6493 915.735 96.4548 912.193 Q98.2835 908.628 98.2835 901.522 Q98.2835 894.392 96.4548 890.85 Q94.6493 887.286 91.0151 887.286 M91.0151 883.582 Q96.8252 883.582 99.8808 888.188 Q102.959 892.772 102.959 901.522 Q102.959 910.248 99.8808 914.855 Q96.8252 919.438 91.0151 919.438 Q85.2049 919.438 82.1262 914.855 Q79.0707 910.248 79.0707 901.522 Q79.0707 892.772 82.1262 888.188 Q85.2049 883.582 91.0151 883.582 Z" fill="#000000" fill-rule="nonzero" fill-opacity="1"></path><path clip-path="url(#clip390)" d="M102.959 877.683 L127.071 877.683 L127.071 880.881 L102.959 880.881 L102.959 877.683 Z" fill="#000000" fill-rule="nonzero" fill-opacity="1"></path><path clip-path="url(#clip390)" d="M146.782 876.216 Q149.509 876.799 151.032 878.642 Q152.574 880.486 152.574 883.194 Q152.574 887.35 149.716 889.626 Q146.857 891.902 141.591 891.902 Q139.823 891.902 137.942 891.545 Q136.08 891.206 134.086 890.51 L134.086 886.843 Q135.666 887.764 137.547 888.234 Q139.428 888.705 141.478 888.705 Q145.051 888.705 146.913 887.294 Q148.794 885.883 148.794 883.194 Q148.794 880.711 147.045 879.32 Q145.315 877.909 142.211 877.909 L138.939 877.909 L138.939 874.787 L142.362 874.787 Q145.164 874.787 146.65 873.677 Q148.136 872.549 148.136 870.442 Q148.136 868.279 146.593 867.132 Q145.07 865.966 142.211 865.966 Q140.65 865.966 138.863 866.305 Q137.077 866.643 134.933 867.358 L134.933 863.972 Q137.096 863.371 138.976 863.07 Q140.876 862.769 142.55 862.769 Q146.876 862.769 149.396 864.744 Q151.916 866.7 151.916 870.047 Q151.916 872.38 150.581 873.997 Q149.245 875.596 146.782 876.216 Z" fill="#000000" fill-rule="nonzero" fill-opacity="1"></path><path clip-path="url(#clip390)" d="M81.8687 106.724 L89.5075 106.724 L89.5075 80.3585 L81.1974 82.0252 L81.1974 77.7659 L89.4612 76.0993 L94.1371 76.0993 L94.1371 106.724 L101.776 106.724 L101.776 110.659 L81.8687 110.659 L81.8687 106.724 Z" fill="#000000" fill-rule="nonzero" fill-opacity="1"></path><path clip-path="url(#clip390)" d="M121.22 79.178 Q117.609 79.178 115.781 82.7428 Q113.975 86.2844 113.975 93.414 Q113.975 100.52 115.781 104.085 Q117.609 107.627 121.22 107.627 Q124.855 107.627 126.66 104.085 Q128.489 100.52 128.489 93.414 Q128.489 86.2844 126.66 82.7428 Q124.855 79.178 121.22 79.178 M121.22 75.4743 Q127.03 75.4743 130.086 80.0807 Q133.165 84.6641 133.165 93.414 Q133.165 102.141 130.086 106.747 Q127.03 111.331 121.22 111.331 Q115.41 111.331 112.331 106.747 Q109.276 102.141 109.276 93.414 Q109.276 84.6641 112.331 80.0807 Q115.41 75.4743 121.22 75.4743 Z" fill="#000000" fill-rule="nonzero" fill-opacity="1"></path><path clip-path="url(#clip390)" d="M142.87 57.6703 Q139.936 57.6703 138.45 60.5667 Q136.983 63.4443 136.983 69.2371 Q136.983 75.0111 138.45 77.9075 Q139.936 80.7851 142.87 80.7851 Q145.822 80.7851 147.289 77.9075 Q148.775 75.0111 148.775 69.2371 Q148.775 63.4443 147.289 60.5667 Q145.822 57.6703 142.87 57.6703 M142.87 54.6611 Q147.59 54.6611 150.073 58.4038 Q152.574 62.1278 152.574 69.2371 Q152.574 76.3276 150.073 80.0704 Q147.59 83.7943 142.87 83.7943 Q138.149 83.7943 135.647 80.0704 Q133.165 76.3276 133.165 69.2371 Q133.165 62.1278 135.647 58.4038 Q138.149 54.6611 142.87 54.6611 Z" fill="#000000" fill-rule="nonzero" fill-opacity="1"></path><polyline clip-path="url(#clip392)" style="stroke:#009af9; stroke-linecap:round; stroke-linejoin:round; stroke-width:4; stroke-opacity:1; fill:none" points="249.825,87.6286 372.814,693.712 444.758,1039.86 495.803,1245.5 2291.51,1433.78 "></polyline>
<path clip-path="url(#clip390)" d="M1914.44 198.488 L2280.62 198.488 L2280.62 94.8081 L1914.44 94.8081  Z" fill="#ffffff" fill-rule="evenodd" fill-opacity="1"></path>
<polyline clip-path="url(#clip390)" style="stroke:#000000; stroke-linecap:round; stroke-linejoin:round; stroke-width:4; stroke-opacity:1; fill:none" points="1914.44,198.488 2280.62,198.488 2280.62,94.8081 1914.44,94.8081 1914.44,198.488 "></polyline>
<polyline clip-path="url(#clip390)" style="stroke:#009af9; stroke-linecap:round; stroke-linejoin:round; stroke-width:4; stroke-opacity:1; fill:none" points="1938.48,146.648 2082.76,146.648 "></polyline>
<path clip-path="url(#clip390)" d="M2133.72 143.582 Q2133.67 143.816 2133.58 144.238 Q2133.49 144.636 2133.06 145.901 Q2132.64 147.165 2132.08 148.454 Q2131.54 149.718 2130.49 151.499 Q2129.46 153.255 2128.19 154.848 Q2127.84 155.27 2127.77 155.527 Q2127.72 155.761 2127.72 156.534 Q2127.72 161.406 2129.2 161.406 Q2129.27 161.406 2129.39 161.406 Q2129.53 161.383 2129.88 161.266 Q2130.25 161.125 2130.58 160.914 Q2130.91 160.68 2131.28 160.212 Q2131.66 159.72 2131.89 159.064 Q2132.1 158.596 2132.53 158.596 Q2133.09 158.596 2133.09 159.064 Q2133.09 159.907 2131.92 161.195 Q2130.75 162.484 2129.06 162.484 Q2127.44 162.484 2126.3 161.43 Q2125.17 160.352 2124.7 158.432 Q2119.64 162.484 2114.58 162.484 Q2111.02 162.484 2108.92 160.165 Q2106.81 157.823 2106.81 154.356 Q2106.81 151.03 2108.64 147.868 Q2110.49 144.706 2113.48 142.739 Q2116.51 140.748 2119.71 140.748 Q2120.84 140.748 2121.92 141.052 Q2122.99 141.333 2124.07 142.059 Q2125.15 142.785 2125.94 143.886 Q2126.74 144.987 2127.23 146.72 Q2127.72 148.454 2127.72 150.632 L2127.72 153.607 Q2130.82 149.695 2132.43 144.097 Q2132.67 143.254 2132.81 143.16 Q2132.9 143.09 2133.14 143.09 Q2133.37 143.09 2133.51 143.23 Q2133.67 143.348 2133.7 143.465 L2133.72 143.582 M2124.52 157.19 Q2124.42 156.37 2124.42 151.826 Q2124.42 150.96 2124.42 150.491 Q2124.42 150 2124.38 149.063 Q2124.33 148.126 2124.23 147.54 Q2124.16 146.955 2124 146.111 Q2123.84 145.268 2123.6 144.729 Q2123.37 144.191 2122.99 143.582 Q2122.64 142.973 2122.17 142.621 Q2121.73 142.27 2121.07 142.036 Q2120.44 141.802 2119.67 141.802 Q2118.71 141.802 2117.7 142.153 Q2116.72 142.481 2115.45 143.535 Q2114.19 144.566 2113.13 146.205 Q2112.03 147.938 2111.19 151.124 Q2110.37 154.286 2110.37 156.183 Q2110.37 158.572 2111.47 160.001 Q2112.57 161.406 2114.68 161.406 Q2119.71 161.406 2124.52 157.19 Z" fill="#000000" fill-rule="nonzero" fill-opacity="1"></path><path clip-path="url(#clip390)" d="M2150.5 154.661 Q2150.54 154.075 2151.46 154.075 L2180.85 154.075 Q2182.23 154.075 2182.26 154.614 Q2182.26 155.199 2180.95 155.176 L2151.78 155.176 Q2150.5 155.199 2150.5 154.661 M2150.5 145.292 Q2150.5 144.706 2151.5 144.729 L2180.8 144.729 Q2182.23 144.729 2182.26 145.292 Q2182.26 145.83 2181.04 145.83 L2151.46 145.83 Q2150.5 145.83 2150.5 145.292 Z" fill="#000000" fill-rule="nonzero" fill-opacity="1"></path><path clip-path="url(#clip390)" d="M2200.75 134.564 L2200.75 133.065 Q2206.51 133.065 2209.48 129.997 Q2210.3 129.997 2210.44 130.184 Q2210.59 130.372 2210.59 131.238 L2210.59 158.151 Q2210.59 159.579 2211.29 160.024 Q2211.99 160.469 2215.06 160.469 L2216.58 160.469 L2216.58 161.945 Q2214.9 161.804 2208.81 161.804 Q2202.72 161.804 2201.05 161.945 L2201.05 160.469 L2202.57 160.469 Q2205.6 160.469 2206.32 160.048 Q2207.05 159.603 2207.05 158.151 L2207.05 133.299 Q2204.54 134.564 2200.75 134.564 Z" fill="#000000" fill-rule="nonzero" fill-opacity="1"></path><path clip-path="url(#clip390)" d="M2220.35 161.172 Q2219.62 160.399 2219.62 159.392 Q2219.62 158.385 2220.35 157.659 Q2221.08 156.909 2222.18 156.909 Q2223.23 156.909 2223.93 157.612 Q2224.66 158.291 2224.66 159.415 Q2224.66 160.516 2223.89 161.242 Q2223.14 161.945 2222.18 161.945 Q2221.08 161.945 2220.35 161.172 Z" fill="#000000" fill-rule="nonzero" fill-opacity="1"></path><path clip-path="url(#clip390)" d="M2232.82 154.216 Q2232.82 152.787 2233.59 152.248 Q2234.37 151.686 2235.19 151.686 Q2236.29 151.686 2236.92 152.389 Q2237.57 153.068 2237.57 154.028 Q2237.57 154.989 2236.92 155.691 Q2236.29 156.37 2235.19 156.37 Q2234.65 156.37 2234.37 156.277 Q2235 158.478 2236.92 160.071 Q2238.86 161.664 2241.42 161.664 Q2244.62 161.664 2246.55 158.549 Q2247.69 156.534 2247.69 151.967 Q2247.69 147.938 2246.83 145.924 Q2245.49 142.856 2242.75 142.856 Q2238.86 142.856 2236.57 146.205 Q2236.29 146.627 2235.96 146.65 Q2235.49 146.65 2235.37 146.392 Q2235.28 146.111 2235.28 145.385 L2235.28 131.191 Q2235.28 130.044 2235.75 130.044 Q2235.94 130.044 2236.33 130.184 Q2239.35 131.519 2242.7 131.543 Q2246.15 131.543 2249.24 130.137 Q2249.47 129.997 2249.61 129.997 Q2250.08 129.997 2250.11 130.535 Q2250.11 130.723 2249.71 131.285 Q2249.33 131.824 2248.51 132.55 Q2247.69 133.252 2246.64 133.932 Q2245.59 134.611 2244.04 135.079 Q2242.52 135.524 2240.83 135.524 Q2238.82 135.524 2236.76 134.892 L2236.76 144.238 Q2239.24 141.802 2242.84 141.802 Q2246.69 141.802 2249.33 144.893 Q2251.98 147.985 2251.98 152.295 Q2251.98 156.815 2248.84 159.907 Q2245.73 162.999 2241.51 162.999 Q2237.67 162.999 2235.23 160.259 Q2232.82 157.518 2232.82 154.216 Z" fill="#000000" fill-rule="nonzero" fill-opacity="1"></path></svg>