<svg xmlns="http://www.w3.org/2000/svg" xmlns:xlink="http://www.w3.org/1999/xlink" width="600" height="400" viewBox="0 0 2400 1600">
<defs>
  <clipPath id="clip430">
    <rect x="0" y="0" width="2400" height="1600"></rect>
  </clipPath>
</defs>
<path clip-path="url(#clip430)" d="M0 1600 L2400 1600 L2400 0 L0 0  Z" fill="#ffffff" fill-rule="evenodd" fill-opacity="1"></path>
<defs>
  <clipPath id="clip431">
    <rect x="480" y="0" width="1681" height="1600"></rect>
  </clipPath>
</defs>
<path clip-path="url(#clip430)" d="M188.574 1486.45 L2352.76 1486.45 L2352.76 47.2441 L188.574 47.2441  Z" fill="#ffffff" fill-rule="evenodd" fill-opacity="1"></path>
<defs>
  <clipPath id="clip432">
    <rect x="188" y="47" width="2165" height="1440"></rect>
  </clipPath>
</defs>
<polyline clip-path="url(#clip432)" style="stroke:#000000; stroke-linecap:round; stroke-linejoin:round; stroke-width:2; stroke-opacity:0.1; fill:none" points="243.484,1486.45 243.484,47.2441 "></polyline>
<polyline clip-path="url(#clip432)" style="stroke:#000000; stroke-linecap:round; stroke-linejoin:round; stroke-width:2; stroke-opacity:0.1; fill:none" points="877.546,1486.45 877.546,47.2441 "></polyline>
<polyline clip-path="url(#clip432)" style="stroke:#000000; stroke-linecap:round; stroke-linejoin:round; stroke-width:2; stroke-opacity:0.1; fill:none" points="1511.61,1486.45 1511.61,47.2441 "></polyline>
<polyline clip-path="url(#clip432)" style="stroke:#000000; stroke-linecap:round; stroke-linejoin:round; stroke-width:2; stroke-opacity:0.1; fill:none" points="2145.67,1486.45 2145.67,47.2441 "></polyline>
<polyline clip-path="url(#clip430)" style="stroke:#000000; stroke-linecap:round; stroke-linejoin:round; stroke-width:4; stroke-opacity:1; fill:none" points="188.574,1486.45 2352.76,1486.45 "></polyline>
<polyline clip-path="url(#clip430)" style="stroke:#000000; stroke-linecap:round; stroke-linejoin:round; stroke-width:4; stroke-opacity:1; fill:none" points="243.484,1486.45 243.484,1467.55 "></polyline>
<polyline clip-path="url(#clip430)" style="stroke:#000000; stroke-linecap:round; stroke-linejoin:round; stroke-width:4; stroke-opacity:1; fill:none" points="877.546,1486.45 877.546,1467.55 "></polyline>
<polyline clip-path="url(#clip430)" style="stroke:#000000; stroke-linecap:round; stroke-linejoin:round; stroke-width:4; stroke-opacity:1; fill:none" points="1511.61,1486.45 1511.61,1467.55 "></polyline>
<polyline clip-path="url(#clip430)" style="stroke:#000000; stroke-linecap:round; stroke-linejoin:round; stroke-width:4; stroke-opacity:1; fill:none" points="2145.67,1486.45 2145.67,1467.55 "></polyline>
<path clip-path="url(#clip430)" d="M243.484 1517.37 Q239.873 1517.37 238.044 1520.93 Q236.239 1524.47 236.239 1531.6 Q236.239 1538.71 238.044 1542.27 Q239.873 1545.82 243.484 1545.82 Q247.118 1545.82 248.924 1542.27 Q250.753 1538.71 250.753 1531.6 Q250.753 1524.47 248.924 1520.93 Q247.118 1517.37 243.484 1517.37 M243.484 1513.66 Q249.294 1513.66 252.35 1518.27 Q255.429 1522.85 255.429 1531.6 Q255.429 1540.33 252.35 1544.94 Q249.294 1549.52 243.484 1549.52 Q237.674 1549.52 234.595 1544.94 Q231.54 1540.33 231.54 1531.6 Q231.54 1522.85 234.595 1518.27 Q237.674 1513.66 243.484 1513.66 Z" fill="#000000" fill-rule="nonzero" fill-opacity="1"></path><path clip-path="url(#clip430)" d="M837.153 1544.91 L844.792 1544.91 L844.792 1518.55 L836.482 1520.21 L836.482 1515.95 L844.746 1514.29 L849.422 1514.29 L849.422 1544.91 L857.06 1544.91 L857.06 1548.85 L837.153 1548.85 L837.153 1544.91 Z" fill="#000000" fill-rule="nonzero" fill-opacity="1"></path><path clip-path="url(#clip430)" d="M876.505 1517.37 Q872.894 1517.37 871.065 1520.93 Q869.259 1524.47 869.259 1531.6 Q869.259 1538.71 871.065 1542.27 Q872.894 1545.82 876.505 1545.82 Q880.139 1545.82 881.945 1542.27 Q883.773 1538.71 883.773 1531.6 Q883.773 1524.47 881.945 1520.93 Q880.139 1517.37 876.505 1517.37 M876.505 1513.66 Q882.315 1513.66 885.371 1518.27 Q888.449 1522.85 888.449 1531.6 Q888.449 1540.33 885.371 1544.94 Q882.315 1549.52 876.505 1549.52 Q870.695 1549.52 867.616 1544.94 Q864.56 1540.33 864.56 1531.6 Q864.56 1522.85 867.616 1518.27 Q870.695 1513.66 876.505 1513.66 Z" fill="#000000" fill-rule="nonzero" fill-opacity="1"></path><path clip-path="url(#clip430)" d="M906.667 1517.37 Q903.056 1517.37 901.227 1520.93 Q899.421 1524.47 899.421 1531.6 Q899.421 1538.71 901.227 1542.27 Q903.056 1545.82 906.667 1545.82 Q910.301 1545.82 912.106 1542.27 Q913.935 1538.71 913.935 1531.6 Q913.935 1524.47 912.106 1520.93 Q910.301 1517.37 906.667 1517.37 M906.667 1513.66 Q912.477 1513.66 915.532 1518.27 Q918.611 1522.85 918.611 1531.6 Q918.611 1540.33 915.532 1544.94 Q912.477 1549.52 906.667 1549.52 Q900.857 1549.52 897.778 1544.94 Q894.722 1540.33 894.722 1531.6 Q894.722 1522.85 897.778 1518.27 Q900.857 1513.66 906.667 1513.66 Z" fill="#000000" fill-rule="nonzero" fill-opacity="1"></path><path clip-path="url(#clip430)" d="M1475.3 1544.91 L1491.62 1544.91 L1491.62 1548.85 L1469.68 1548.85 L1469.68 1544.91 Q1472.34 1542.16 1476.92 1537.53 Q1481.53 1532.88 1482.71 1531.53 Q1484.95 1529.01 1485.83 1527.27 Q1486.74 1525.51 1486.74 1523.82 Q1486.74 1521.07 1484.79 1519.33 Q1482.87 1517.6 1479.77 1517.6 Q1477.57 1517.6 1475.12 1518.36 Q1472.69 1519.13 1469.91 1520.68 L1469.91 1515.95 Q1472.73 1514.82 1475.19 1514.24 Q1477.64 1513.66 1479.68 1513.66 Q1485.05 1513.66 1488.24 1516.35 Q1491.44 1519.03 1491.44 1523.52 Q1491.44 1525.65 1490.63 1527.57 Q1489.84 1529.47 1487.73 1532.07 Q1487.15 1532.74 1484.05 1535.95 Q1480.95 1539.15 1475.3 1544.91 Z" fill="#000000" fill-rule="nonzero" fill-opacity="1"></path><path clip-path="url(#clip430)" d="M1511.44 1517.37 Q1507.82 1517.37 1506 1520.93 Q1504.19 1524.47 1504.19 1531.6 Q1504.19 1538.71 1506 1542.27 Q1507.82 1545.82 1511.44 1545.82 Q1515.07 1545.82 1516.87 1542.27 Q1518.7 1538.71 1518.7 1531.6 Q1518.7 1524.47 1516.87 1520.93 Q1515.07 1517.37 1511.44 1517.37 M1511.44 1513.66 Q1517.25 1513.66 1520.3 1518.27 Q1523.38 1522.85 1523.38 1531.6 Q1523.38 1540.33 1520.3 1544.94 Q1517.25 1549.52 1511.44 1549.52 Q1505.63 1549.52 1502.55 1544.94 Q1499.49 1540.33 1499.49 1531.6 Q1499.49 1522.85 1502.55 1518.27 Q1505.63 1513.66 1511.44 1513.66 Z" fill="#000000" fill-rule="nonzero" fill-opacity="1"></path><path clip-path="url(#clip430)" d="M1541.6 1517.37 Q1537.99 1517.37 1536.16 1520.93 Q1534.35 1524.47 1534.35 1531.6 Q1534.35 1538.71 1536.16 1542.27 Q1537.99 1545.82 1541.6 1545.82 Q1545.23 1545.82 1547.04 1542.27 Q1548.87 1538.71 1548.87 1531.6 Q1548.87 1524.47 1547.04 1520.93 Q1545.23 1517.37 1541.6 1517.37 M1541.6 1513.66 Q1547.41 1513.66 1550.46 1518.27 Q1553.54 1522.85 1553.54 1531.6 Q1553.54 1540.33 1550.46 1544.94 Q1547.41 1549.52 1541.6 1549.52 Q1535.79 1549.52 1532.71 1544.94 Q1529.65 1540.33 1529.65 1531.6 Q1529.65 1522.85 1532.71 1518.27 Q1535.79 1513.66 1541.6 1513.66 Z" fill="#000000" fill-rule="nonzero" fill-opacity="1"></path><path clip-path="url(#clip430)" d="M2119.43 1530.21 Q2122.79 1530.93 2124.66 1533.2 Q2126.56 1535.47 2126.56 1538.8 Q2126.56 1543.92 2123.04 1546.72 Q2119.53 1549.52 2113.04 1549.52 Q2110.87 1549.52 2108.55 1549.08 Q2106.26 1548.66 2103.81 1547.81 L2103.81 1543.29 Q2105.75 1544.43 2108.07 1545.01 Q2110.38 1545.58 2112.91 1545.58 Q2117.3 1545.58 2119.59 1543.85 Q2121.91 1542.11 2121.91 1538.8 Q2121.91 1535.75 2119.76 1534.03 Q2117.63 1532.3 2113.81 1532.3 L2109.78 1532.3 L2109.78 1528.45 L2113.99 1528.45 Q2117.44 1528.45 2119.27 1527.09 Q2121.1 1525.7 2121.1 1523.11 Q2121.1 1520.45 2119.2 1519.03 Q2117.33 1517.6 2113.81 1517.6 Q2111.89 1517.6 2109.69 1518.01 Q2107.49 1518.43 2104.85 1519.31 L2104.85 1515.14 Q2107.51 1514.4 2109.83 1514.03 Q2112.16 1513.66 2114.22 1513.66 Q2119.55 1513.66 2122.65 1516.09 Q2125.75 1518.5 2125.75 1522.62 Q2125.75 1525.49 2124.11 1527.48 Q2122.47 1529.45 2119.43 1530.21 Z" fill="#000000" fill-rule="nonzero" fill-opacity="1"></path><path clip-path="url(#clip430)" d="M2145.43 1517.37 Q2141.82 1517.37 2139.99 1520.93 Q2138.18 1524.47 2138.18 1531.6 Q2138.18 1538.71 2139.99 1542.27 Q2141.82 1545.82 2145.43 1545.82 Q2149.06 1545.82 2150.87 1542.27 Q2152.7 1538.71 2152.7 1531.6 Q2152.7 1524.47 2150.87 1520.93 Q2149.06 1517.37 2145.43 1517.37 M2145.43 1513.66 Q2151.24 1513.66 2154.29 1518.27 Q2157.37 1522.85 2157.37 1531.6 Q2157.37 1540.33 2154.29 1544.94 Q2151.24 1549.52 2145.43 1549.52 Q2139.62 1549.52 2136.54 1544.94 Q2133.48 1540.33 2133.48 1531.6 Q2133.48 1522.85 2136.54 1518.27 Q2139.62 1513.66 2145.43 1513.66 Z" fill="#000000" fill-rule="nonzero" fill-opacity="1"></path><path clip-path="url(#clip430)" d="M2175.59 1517.37 Q2171.98 1517.37 2170.15 1520.93 Q2168.34 1524.47 2168.34 1531.6 Q2168.34 1538.71 2170.15 1542.27 Q2171.98 1545.82 2175.59 1545.82 Q2179.22 1545.82 2181.03 1542.27 Q2182.86 1538.71 2182.86 1531.6 Q2182.86 1524.47 2181.03 1520.93 Q2179.22 1517.37 2175.59 1517.37 M2175.59 1513.66 Q2181.4 1513.66 2184.46 1518.27 Q2187.53 1522.85 2187.53 1531.6 Q2187.53 1540.33 2184.46 1544.94 Q2181.4 1549.52 2175.59 1549.52 Q2169.78 1549.52 2166.7 1544.94 Q2163.65 1540.33 2163.65 1531.6 Q2163.65 1522.85 2166.7 1518.27 Q2169.78 1513.66 2175.59 1513.66 Z" fill="#000000" fill-rule="nonzero" fill-opacity="1"></path><polyline clip-path="url(#clip432)" style="stroke:#000000; stroke-linecap:round; stroke-linejoin:round; stroke-width:2; stroke-opacity:0.1; fill:none" points="188.574,1069.67 2352.76,1069.67 "></polyline>
<polyline clip-path="url(#clip432)" style="stroke:#000000; stroke-linecap:round; stroke-linejoin:round; stroke-width:2; stroke-opacity:0.1; fill:none" points="188.574,582.208 2352.76,582.208 "></polyline>
<polyline clip-path="url(#clip432)" style="stroke:#000000; stroke-linecap:round; stroke-linejoin:round; stroke-width:2; stroke-opacity:0.1; fill:none" points="188.574,94.7468 2352.76,94.7468 "></polyline>
<polyline clip-path="url(#clip430)" style="stroke:#000000; stroke-linecap:round; stroke-linejoin:round; stroke-width:4; stroke-opacity:1; fill:none" points="188.574,1486.45 188.574,47.2441 "></polyline>
<polyline clip-path="url(#clip430)" style="stroke:#000000; stroke-linecap:round; stroke-linejoin:round; stroke-width:4; stroke-opacity:1; fill:none" points="188.574,1069.67 207.472,1069.67 "></polyline>
<polyline clip-path="url(#clip430)" style="stroke:#000000; stroke-linecap:round; stroke-linejoin:round; stroke-width:4; stroke-opacity:1; fill:none" points="188.574,582.208 207.472,582.208 "></polyline>
<polyline clip-path="url(#clip430)" style="stroke:#000000; stroke-linecap:round; stroke-linejoin:round; stroke-width:4; stroke-opacity:1; fill:none" points="188.574,94.7468 207.472,94.7468 "></polyline>
<path clip-path="url(#clip430)" d="M51.6634 1089.46 L59.3023 1089.46 L59.3023 1063.1 L50.9921 1064.76 L50.9921 1060.5 L59.256 1058.84 L63.9319 1058.84 L63.9319 1089.46 L71.5707 1089.46 L71.5707 1093.4 L51.6634 1093.4 L51.6634 1089.46 Z" fill="#000000" fill-rule="nonzero" fill-opacity="1"></path><path clip-path="url(#clip430)" d="M91.0151 1061.91 Q87.404 1061.91 85.5753 1065.48 Q83.7697 1069.02 83.7697 1076.15 Q83.7697 1083.26 85.5753 1086.82 Q87.404 1090.36 91.0151 1090.36 Q94.6493 1090.36 96.4548 1086.82 Q98.2835 1083.26 98.2835 1076.15 Q98.2835 1069.02 96.4548 1065.48 Q94.6493 1061.91 91.0151 1061.91 M91.0151 1058.21 Q96.8252 1058.21 99.8808 1062.82 Q102.959 1067.4 102.959 1076.15 Q102.959 1084.88 99.8808 1089.48 Q96.8252 1094.07 91.0151 1094.07 Q85.2049 1094.07 82.1262 1089.48 Q79.0707 1084.88 79.0707 1076.15 Q79.0707 1067.4 82.1262 1062.82 Q85.2049 1058.21 91.0151 1058.21 Z" fill="#000000" fill-rule="nonzero" fill-opacity="1"></path><path clip-path="url(#clip430)" d="M102.959 1052.31 L127.071 1052.31 L127.071 1055.51 L102.959 1055.51 L102.959 1052.31 Z" fill="#000000" fill-rule="nonzero" fill-opacity="1"></path><path clip-path="url(#clip430)" d="M146.782 1050.85 Q149.509 1051.43 151.032 1053.27 Q152.574 1055.11 152.574 1057.82 Q152.574 1061.98 149.716 1064.26 Q146.857 1066.53 141.591 1066.53 Q139.823 1066.53 137.942 1066.17 Q136.08 1065.84 134.086 1065.14 L134.086 1061.47 Q135.666 1062.39 137.547 1062.86 Q139.428 1063.33 141.478 1063.33 Q145.051 1063.33 146.913 1061.92 Q148.794 1060.51 148.794 1057.82 Q148.794 1055.34 147.045 1053.95 Q145.315 1052.54 142.211 1052.54 L138.939 1052.54 L138.939 1049.42 L142.362 1049.42 Q145.164 1049.42 146.65 1048.31 Q148.136 1047.18 148.136 1045.07 Q148.136 1042.91 146.593 1041.76 Q145.07 1040.6 142.211 1040.6 Q140.65 1040.6 138.863 1040.93 Q137.077 1041.27 134.933 1041.99 L134.933 1038.6 Q137.096 1038 138.976 1037.7 Q140.876 1037.4 142.55 1037.4 Q146.876 1037.4 149.396 1039.37 Q151.916 1041.33 151.916 1044.68 Q151.916 1047.01 150.581 1048.63 Q149.245 1050.22 146.782 1050.85 Z" fill="#000000" fill-rule="nonzero" fill-opacity="1"></path><path clip-path="url(#clip430)" d="M52.4345 602 L60.0734 602 L60.0734 575.635 L51.7632 577.301 L51.7632 573.042 L60.0271 571.375 L64.703 571.375 L64.703 602 L72.3418 602 L72.3418 605.935 L52.4345 605.935 L52.4345 602 Z" fill="#000000" fill-rule="nonzero" fill-opacity="1"></path><path clip-path="url(#clip430)" d="M91.7862 574.454 Q88.1751 574.454 86.3464 578.019 Q84.5408 581.56 84.5408 588.69 Q84.5408 595.796 86.3464 599.361 Q88.1751 602.903 91.7862 602.903 Q95.4204 602.903 97.226 599.361 Q99.0547 595.796 99.0547 588.69 Q99.0547 581.56 97.226 578.019 Q95.4204 574.454 91.7862 574.454 M91.7862 570.75 Q97.5963 570.75 100.652 575.357 Q103.731 579.94 103.731 588.69 Q103.731 597.417 100.652 602.023 Q97.5963 606.607 91.7862 606.607 Q85.976 606.607 82.8973 602.023 Q79.8418 597.417 79.8418 588.69 Q79.8418 579.94 82.8973 575.357 Q85.976 570.75 91.7862 570.75 Z" fill="#000000" fill-rule="nonzero" fill-opacity="1"></path><path clip-path="url(#clip430)" d="M103.731 564.852 L127.842 564.852 L127.842 568.049 L103.731 568.049 L103.731 564.852 Z" fill="#000000" fill-rule="nonzero" fill-opacity="1"></path><path clip-path="url(#clip430)" d="M139.315 575.328 L152.574 575.328 L152.574 578.525 L134.745 578.525 L134.745 575.328 Q136.907 573.089 140.631 569.328 Q144.374 565.548 145.333 564.457 Q147.158 562.407 147.872 560.996 Q148.606 559.567 148.606 558.194 Q148.606 555.956 147.026 554.545 Q145.465 553.134 142.945 553.134 Q141.158 553.134 139.164 553.755 Q137.19 554.376 134.933 555.636 L134.933 551.799 Q137.227 550.877 139.221 550.407 Q141.214 549.937 142.87 549.937 Q147.233 549.937 149.828 552.119 Q152.424 554.3 152.424 557.949 Q152.424 559.68 151.766 561.241 Q151.126 562.783 149.415 564.889 Q148.944 565.435 146.424 568.049 Q143.904 570.644 139.315 575.328 Z" fill="#000000" fill-rule="nonzero" fill-opacity="1"></path><path clip-path="url(#clip430)" d="M52.1336 114.539 L59.7725 114.539 L59.7725 88.1736 L51.4623 89.8403 L51.4623 85.581 L59.7262 83.9144 L64.4021 83.9144 L64.4021 114.539 L72.0409 114.539 L72.0409 118.474 L52.1336 118.474 L52.1336 114.539 Z" fill="#000000" fill-rule="nonzero" fill-opacity="1"></path><path clip-path="url(#clip430)" d="M91.4853 86.9931 Q87.8742 86.9931 86.0455 90.5579 Q84.2399 94.0995 84.2399 101.229 Q84.2399 108.336 86.0455 111.9 Q87.8742 115.442 91.4853 115.442 Q95.1195 115.442 96.925 111.9 Q98.7537 108.336 98.7537 101.229 Q98.7537 94.0995 96.925 90.5579 Q95.1195 86.9931 91.4853 86.9931 M91.4853 83.2894 Q97.2954 83.2894 100.351 87.8959 Q103.43 92.4792 103.43 101.229 Q103.43 109.956 100.351 114.562 Q97.2954 119.146 91.4853 119.146 Q85.6751 119.146 82.5964 114.562 Q79.5409 109.956 79.5409 101.229 Q79.5409 92.4792 82.5964 87.8959 Q85.6751 83.2894 91.4853 83.2894 Z" fill="#000000" fill-rule="nonzero" fill-opacity="1"></path><path clip-path="url(#clip430)" d="M103.43 77.3907 L127.541 77.3907 L127.541 80.5881 L103.43 80.5881 L103.43 77.3907 Z" fill="#000000" fill-rule="nonzero" fill-opacity="1"></path><path clip-path="url(#clip430)" d="M136.4 87.8667 L142.606 87.8667 L142.606 66.4446 L135.854 67.7988 L135.854 64.3382 L142.569 62.984 L146.368 62.984 L146.368 87.8667 L152.574 87.8667 L152.574 91.064 L136.4 91.064 L136.4 87.8667 Z" fill="#000000" fill-rule="nonzero" fill-opacity="1"></path><polyline clip-path="url(#clip432)" style="stroke:#009af9; stroke-linecap:round; stroke-linejoin:round; stroke-width:4; stroke-opacity:1; fill:none" points="249.825,91.8287 256.165,87.9763 262.506,136.522 268.847,164.978 275.187,200.207 281.528,250.566 287.868,261.306 294.209,288.119 300.55,345.186 306.89,359.708 313.231,404.148 319.572,420.194 325.912,398.055 332.253,466.602 338.593,481.653 344.934,470.794 351.275,446.802 357.615,488.446 363.956,518.034 370.297,534.538 376.637,528.893 382.978,565.274 389.318,575.437 395.659,609.231 402,582.495 408.34,635.186 414.681,644.597 421.022,613.342 427.362,675.633 433.703,699.18 440.043,725.677 446.384,681.279 452.725,718.735 459.065,681.279 465.406,732.854 471.747,747.982 478.087,764.275 484.428,732.854 490.768,822.373 497.109,791.337 503.45,740.283 509.79,887.023 516.131,845.92 522.472,801.185 528.812,845.92 535.153,887.023 541.493,938.077 547.834,872.417 554.175,958.255 560.515,919.657 566.856,902.712 573.197,902.712 579.537,1105 585.878,1005.49 592.218,919.657 598.559,1152.23 604.9,872.417 611.24,1105 617.581,1105 623.922,1105 630.262,980.56 636.603,1066.4 642.943,1105 649.284,1105 655.625,1066.4 661.965,1066.4 668.306,1152.23 674.647,1298.98 680.987,1298.98 687.328,1298.98 693.668,1066.4 700.009,1105 706.35,1152.23 712.69,1213.14 719.031,1152.23 725.372,1298.98 731.712,1152.23 738.053,1105 744.393,1298.98 750.734,1213.14 757.075,1298.98 763.415,1213.14 776.096,1298.98 782.437,1152.23 788.778,1213.14 795.118,1298.98 801.459,1298.98 807.8,1298.98 814.14,1445.72 820.481,1445.72 826.821,1298.98 833.162,1298.98 839.503,1298.98 845.843,1298.98 852.184,1298.98 871.206,1213.14 877.546,1445.72 890.228,1298.98 896.568,1445.72 902.909,1298.98 909.25,1445.72 915.59,1445.72 921.931,1298.98 928.271,1445.72 940.953,1445.72 947.293,1213.14 953.634,1445.72 959.975,1298.98 966.315,1298.98 972.656,1445.72 978.996,1445.72 991.678,1298.98 1010.7,1445.72 1023.38,1445.72 1029.72,1445.72 1061.42,1445.72 1067.77,1445.72 1074.11,1445.72 1086.79,1445.72 1112.15,1445.72 1118.49,1445.72 1131.17,1445.72 1137.51,1445.72 1143.85,1445.72 1156.53,1445.72 1162.87,1298.98 1169.22,1445.72 1181.9,1445.72 1194.58,1445.72 1238.96,1445.72 1264.32,1445.72 1296.03,1445.72 1315.05,1445.72 1334.07,1445.72 1340.41,1445.72 1391.14,1445.72 1467.22,1445.72 1555.99,1445.72 1638.42,1445.72 1651.1,1445.72 1695.49,1445.72 1720.85,1445.72 1828.64,1445.72 2291.51,1445.72 "></polyline>
<path clip-path="url(#clip430)" d="M1774.55 198.898 L2280.62 198.898 L2280.62 95.2176 L1774.55 95.2176  Z" fill="#ffffff" fill-rule="evenodd" fill-opacity="1"></path>
<polyline clip-path="url(#clip430)" style="stroke:#000000; stroke-linecap:round; stroke-linejoin:round; stroke-width:4; stroke-opacity:1; fill:none" points="1774.55,198.898 2280.62,198.898 2280.62,95.2176 1774.55,95.2176 1774.55,198.898 "></polyline>
<polyline clip-path="url(#clip430)" style="stroke:#009af9; stroke-linecap:round; stroke-linejoin:round; stroke-width:4; stroke-opacity:1; fill:none" points="1798.59,147.058 1942.87,147.058 "></polyline>
<path clip-path="url(#clip430)" d="M1971.59 133.62 L1971.59 160.495 L1977.24 160.495 Q1984.4 160.495 1987.71 157.254 Q1991.04 154.014 1991.04 147.023 Q1991.04 140.078 1987.71 136.861 Q1984.4 133.62 1977.24 133.62 L1971.59 133.62 M1966.92 129.778 L1976.53 129.778 Q1986.57 129.778 1991.27 133.967 Q1995.97 138.134 1995.97 147.023 Q1995.97 155.958 1991.25 160.148 Q1986.53 164.338 1976.53 164.338 L1966.92 164.338 L1966.92 129.778 Z" fill="#000000" fill-rule="nonzero" fill-opacity="1"></path><path clip-path="url(#clip430)" d="M2015.02 151.305 Q2009.86 151.305 2007.87 152.486 Q2005.88 153.666 2005.88 156.514 Q2005.88 158.782 2007.36 160.125 Q2008.86 161.444 2011.43 161.444 Q2014.97 161.444 2017.1 158.944 Q2019.26 156.421 2019.26 152.254 L2019.26 151.305 L2015.02 151.305 M2023.52 149.546 L2023.52 164.338 L2019.26 164.338 L2019.26 160.402 Q2017.8 162.763 2015.62 163.898 Q2013.45 165.009 2010.3 165.009 Q2006.32 165.009 2003.96 162.787 Q2001.62 160.541 2001.62 156.791 Q2001.62 152.416 2004.53 150.194 Q2007.47 147.972 2013.28 147.972 L2019.26 147.972 L2019.26 147.555 Q2019.26 144.615 2017.31 143.018 Q2015.39 141.398 2011.9 141.398 Q2009.67 141.398 2007.57 141.93 Q2005.46 142.463 2003.52 143.527 L2003.52 139.592 Q2005.85 138.69 2008.05 138.25 Q2010.25 137.787 2012.34 137.787 Q2017.96 137.787 2020.74 140.703 Q2023.52 143.62 2023.52 149.546 Z" fill="#000000" fill-rule="nonzero" fill-opacity="1"></path><path clip-path="url(#clip430)" d="M2036.5 131.051 L2036.5 138.412 L2045.27 138.412 L2045.27 141.722 L2036.5 141.722 L2036.5 155.796 Q2036.5 158.967 2037.36 159.87 Q2038.24 160.773 2040.9 160.773 L2045.27 160.773 L2045.27 164.338 L2040.9 164.338 Q2035.97 164.338 2034.09 162.509 Q2032.22 160.657 2032.22 155.796 L2032.22 141.722 L2029.09 141.722 L2029.09 138.412 L2032.22 138.412 L2032.22 131.051 L2036.5 131.051 Z" fill="#000000" fill-rule="nonzero" fill-opacity="1"></path><path clip-path="url(#clip430)" d="M2060.92 141.398 Q2057.5 141.398 2055.51 144.083 Q2053.52 146.745 2053.52 151.398 Q2053.52 156.051 2055.48 158.736 Q2057.47 161.398 2060.92 161.398 Q2064.33 161.398 2066.32 158.713 Q2068.31 156.027 2068.31 151.398 Q2068.31 146.791 2066.32 144.106 Q2064.33 141.398 2060.92 141.398 M2060.92 137.787 Q2066.48 137.787 2069.65 141.398 Q2072.82 145.009 2072.82 151.398 Q2072.82 157.764 2069.65 161.398 Q2066.48 165.009 2060.92 165.009 Q2055.34 165.009 2052.17 161.398 Q2049.02 157.764 2049.02 151.398 Q2049.02 145.009 2052.17 141.398 Q2055.34 137.787 2060.92 137.787 Z" fill="#000000" fill-rule="nonzero" fill-opacity="1"></path><path clip-path="url(#clip430)" d="M2096.41 139.176 L2096.41 143.203 Q2094.6 142.277 2092.66 141.815 Q2090.71 141.352 2088.63 141.352 Q2085.46 141.352 2083.86 142.324 Q2082.29 143.296 2082.29 145.24 Q2082.29 146.722 2083.42 147.578 Q2084.56 148.412 2087.98 149.176 L2089.44 149.5 Q2093.98 150.472 2095.88 152.254 Q2097.8 154.014 2097.8 157.185 Q2097.8 160.796 2094.93 162.902 Q2092.08 165.009 2087.08 165.009 Q2085 165.009 2082.73 164.592 Q2080.48 164.199 2077.98 163.388 L2077.98 158.99 Q2080.34 160.217 2082.64 160.842 Q2084.93 161.444 2087.17 161.444 Q2090.18 161.444 2091.8 160.426 Q2093.42 159.384 2093.42 157.509 Q2093.42 155.773 2092.24 154.847 Q2091.08 153.921 2087.13 153.064 L2085.65 152.717 Q2081.69 151.884 2079.93 150.171 Q2078.17 148.435 2078.17 145.426 Q2078.17 141.768 2080.76 139.778 Q2083.35 137.787 2088.12 137.787 Q2090.48 137.787 2092.57 138.134 Q2094.65 138.481 2096.41 139.176 Z" fill="#000000" fill-rule="nonzero" fill-opacity="1"></path><path clip-path="url(#clip430)" d="M2134.67 142.393 Q2133.95 141.977 2133.1 141.791 Q2132.27 141.583 2131.25 141.583 Q2127.64 141.583 2125.69 143.944 Q2123.77 146.282 2123.77 150.68 L2123.77 164.338 L2119.49 164.338 L2119.49 138.412 L2123.77 138.412 L2123.77 142.44 Q2125.11 140.078 2127.27 138.944 Q2129.42 137.787 2132.5 137.787 Q2132.94 137.787 2133.47 137.856 Q2134 137.903 2134.65 138.018 L2134.67 142.393 Z" fill="#000000" fill-rule="nonzero" fill-opacity="1"></path><path clip-path="url(#clip430)" d="M2160.27 150.31 L2160.27 152.393 L2140.69 152.393 Q2140.97 156.791 2143.33 159.106 Q2145.71 161.398 2149.95 161.398 Q2152.4 161.398 2154.7 160.796 Q2157.01 160.194 2159.28 158.99 L2159.28 163.018 Q2156.99 163.99 2154.58 164.5 Q2152.17 165.009 2149.7 165.009 Q2143.49 165.009 2139.86 161.398 Q2136.25 157.787 2136.25 151.629 Q2136.25 145.264 2139.67 141.537 Q2143.12 137.787 2148.95 137.787 Q2154.19 137.787 2157.22 141.166 Q2160.27 144.523 2160.27 150.31 M2156.02 149.06 Q2155.97 145.565 2154.05 143.481 Q2152.15 141.398 2149 141.398 Q2145.44 141.398 2143.28 143.412 Q2141.15 145.426 2140.83 149.083 L2156.02 149.06 Z" fill="#000000" fill-rule="nonzero" fill-opacity="1"></path><path clip-path="url(#clip430)" d="M2179.05 151.305 Q2173.89 151.305 2171.89 152.486 Q2169.9 153.666 2169.9 156.514 Q2169.9 158.782 2171.39 160.125 Q2172.89 161.444 2175.46 161.444 Q2179 161.444 2181.13 158.944 Q2183.28 156.421 2183.28 152.254 L2183.28 151.305 L2179.05 151.305 M2187.54 149.546 L2187.54 164.338 L2183.28 164.338 L2183.28 160.402 Q2181.83 162.763 2179.65 163.898 Q2177.47 165.009 2174.33 165.009 Q2170.34 165.009 2167.98 162.787 Q2165.64 160.541 2165.64 156.791 Q2165.64 152.416 2168.56 150.194 Q2171.5 147.972 2177.31 147.972 L2183.28 147.972 L2183.28 147.555 Q2183.28 144.615 2181.34 143.018 Q2179.42 141.398 2175.92 141.398 Q2173.7 141.398 2171.59 141.93 Q2169.49 142.463 2167.54 143.527 L2167.54 139.592 Q2169.88 138.69 2172.08 138.25 Q2174.28 137.787 2176.36 137.787 Q2181.99 137.787 2184.76 140.703 Q2187.54 143.62 2187.54 149.546 Z" fill="#000000" fill-rule="nonzero" fill-opacity="1"></path><path clip-path="url(#clip430)" d="M2196.32 128.319 L2200.57 128.319 L2200.57 164.338 L2196.32 164.338 L2196.32 128.319 Z" fill="#000000" fill-rule="nonzero" fill-opacity="1"></path><path clip-path="url(#clip430)" d="M2231.66 150.31 L2231.66 152.393 L2212.08 152.393 Q2212.36 156.791 2214.72 159.106 Q2217.1 161.398 2221.34 161.398 Q2223.79 161.398 2226.08 160.796 Q2228.4 160.194 2230.67 158.99 L2230.67 163.018 Q2228.38 163.99 2225.97 164.5 Q2223.56 165.009 2221.08 165.009 Q2214.88 165.009 2211.25 161.398 Q2207.64 157.787 2207.64 151.629 Q2207.64 145.264 2211.06 141.537 Q2214.51 137.787 2220.34 137.787 Q2225.57 137.787 2228.61 141.166 Q2231.66 144.523 2231.66 150.31 M2227.4 149.06 Q2227.36 145.565 2225.44 143.481 Q2223.54 141.398 2220.39 141.398 Q2216.82 141.398 2214.67 143.412 Q2212.54 145.426 2212.22 149.083 L2227.4 149.06 Z" fill="#000000" fill-rule="nonzero" fill-opacity="1"></path><path clip-path="url(#clip430)" d="M2255.18 139.176 L2255.18 143.203 Q2253.38 142.277 2251.43 141.815 Q2249.49 141.352 2247.4 141.352 Q2244.23 141.352 2242.63 142.324 Q2241.06 143.296 2241.06 145.24 Q2241.06 146.722 2242.2 147.578 Q2243.33 148.412 2246.76 149.176 L2248.21 149.5 Q2252.75 150.472 2254.65 152.254 Q2256.57 154.014 2256.57 157.185 Q2256.57 160.796 2253.7 162.902 Q2250.85 165.009 2245.85 165.009 Q2243.77 165.009 2241.5 164.592 Q2239.26 164.199 2236.76 163.388 L2236.76 158.99 Q2239.12 160.217 2241.41 160.842 Q2243.7 161.444 2245.95 161.444 Q2248.95 161.444 2250.57 160.426 Q2252.2 159.384 2252.2 157.509 Q2252.2 155.773 2251.01 154.847 Q2249.86 153.921 2245.9 153.064 L2244.42 152.717 Q2240.46 151.884 2238.7 150.171 Q2236.94 148.435 2236.94 145.426 Q2236.94 141.768 2239.53 139.778 Q2242.13 137.787 2246.89 137.787 Q2249.26 137.787 2251.34 138.134 Q2253.42 138.481 2255.18 139.176 Z" fill="#000000" fill-rule="nonzero" fill-opacity="1"></path></svg>