<svg xmlns="http://www.w3.org/2000/svg" xmlns:xlink="http://www.w3.org/1999/xlink" width="600" height="400" viewBox="0 0 2400 1600">
<defs>
  <clipPath id="clip470">
    <rect x="0" y="0" width="2400" height="1600"></rect>
  </clipPath>
</defs>
<path clip-path="url(#clip470)" d="M0 1600 L2400 1600 L2400 0 L0 0  Z" fill="#ffffff" fill-rule="evenodd" fill-opacity="1"></path>
<defs>
  <clipPath id="clip471">
    <rect x="480" y="0" width="1681" height="1600"></rect>
  </clipPath>
</defs>
<path clip-path="url(#clip470)" d="M188.574 1474.16 L2352.76 1474.16 L2352.76 47.2441 L188.574 47.2441  Z" fill="#ffffff" fill-rule="evenodd" fill-opacity="1"></path>
<defs>
  <clipPath id="clip472">
    <rect x="188" y="47" width="2165" height="1428"></rect>
  </clipPath>
</defs>
<polyline clip-path="url(#clip472)" style="stroke:#000000; stroke-linecap:round; stroke-linejoin:round; stroke-width:2; stroke-opacity:0.1; fill:none" points="249.825,1474.16 249.825,47.2441 "></polyline>
<polyline clip-path="url(#clip472)" style="stroke:#000000; stroke-linecap:round; stroke-linejoin:round; stroke-width:2; stroke-opacity:0.1; fill:none" points="1063.5,1474.16 1063.5,47.2441 "></polyline>
<polyline clip-path="url(#clip472)" style="stroke:#000000; stroke-linecap:round; stroke-linejoin:round; stroke-width:2; stroke-opacity:0.1; fill:none" points="1877.18,1474.16 1877.18,47.2441 "></polyline>
<polyline clip-path="url(#clip470)" style="stroke:#000000; stroke-linecap:round; stroke-linejoin:round; stroke-width:4; stroke-opacity:1; fill:none" points="188.574,1474.16 2352.76,1474.16 "></polyline>
<polyline clip-path="url(#clip470)" style="stroke:#000000; stroke-linecap:round; stroke-linejoin:round; stroke-width:4; stroke-opacity:1; fill:none" points="249.825,1474.16 249.825,1455.27 "></polyline>
<polyline clip-path="url(#clip470)" style="stroke:#000000; stroke-linecap:round; stroke-linejoin:round; stroke-width:4; stroke-opacity:1; fill:none" points="1063.5,1474.16 1063.5,1455.27 "></polyline>
<polyline clip-path="url(#clip470)" style="stroke:#000000; stroke-linecap:round; stroke-linejoin:round; stroke-width:4; stroke-opacity:1; fill:none" points="1877.18,1474.16 1877.18,1455.27 "></polyline>
<path clip-path="url(#clip470)" d="M214.808 1548.29 L222.446 1548.29 L222.446 1521.92 L214.136 1523.59 L214.136 1519.33 L222.4 1517.66 L227.076 1517.66 L227.076 1548.29 L234.715 1548.29 L234.715 1552.22 L214.808 1552.22 L214.808 1548.29 Z" fill="#000000" fill-rule="nonzero" fill-opacity="1"></path><path clip-path="url(#clip470)" d="M254.159 1520.74 Q250.548 1520.74 248.719 1524.31 Q246.914 1527.85 246.914 1534.98 Q246.914 1542.09 248.719 1545.65 Q250.548 1549.19 254.159 1549.19 Q257.793 1549.19 259.599 1545.65 Q261.428 1542.09 261.428 1534.98 Q261.428 1527.85 259.599 1524.31 Q257.793 1520.74 254.159 1520.74 M254.159 1517.04 Q259.969 1517.04 263.025 1521.65 Q266.104 1526.23 266.104 1534.98 Q266.104 1543.71 263.025 1548.31 Q259.969 1552.9 254.159 1552.9 Q248.349 1552.9 245.27 1548.31 Q242.215 1543.71 242.215 1534.98 Q242.215 1526.23 245.27 1521.65 Q248.349 1517.04 254.159 1517.04 Z" fill="#000000" fill-rule="nonzero" fill-opacity="1"></path><path clip-path="url(#clip470)" d="M275.808 1499.24 Q272.874 1499.24 271.389 1502.13 Q269.922 1505.01 269.922 1510.8 Q269.922 1516.58 271.389 1519.47 Q272.874 1522.35 275.808 1522.35 Q278.761 1522.35 280.228 1519.47 Q281.714 1516.58 281.714 1510.8 Q281.714 1505.01 280.228 1502.13 Q278.761 1499.24 275.808 1499.24 M275.808 1496.23 Q280.529 1496.23 283.012 1499.97 Q285.513 1503.69 285.513 1510.8 Q285.513 1517.89 283.012 1521.64 Q280.529 1525.36 275.808 1525.36 Q271.088 1525.36 268.586 1521.64 Q266.104 1517.89 266.104 1510.8 Q266.104 1503.69 268.586 1499.97 Q271.088 1496.23 275.808 1496.23 Z" fill="#000000" fill-rule="nonzero" fill-opacity="1"></path><path clip-path="url(#clip470)" d="M1029.83 1548.29 L1037.47 1548.29 L1037.47 1521.92 L1029.16 1523.59 L1029.16 1519.33 L1037.42 1517.66 L1042.1 1517.66 L1042.1 1548.29 L1049.74 1548.29 L1049.74 1552.22 L1029.83 1552.22 L1029.83 1548.29 Z" fill="#000000" fill-rule="nonzero" fill-opacity="1"></path><path clip-path="url(#clip470)" d="M1069.18 1520.74 Q1065.57 1520.74 1063.74 1524.31 Q1061.94 1527.85 1061.94 1534.98 Q1061.94 1542.09 1063.74 1545.65 Q1065.57 1549.19 1069.18 1549.19 Q1072.82 1549.19 1074.62 1545.65 Q1076.45 1542.09 1076.45 1534.98 Q1076.45 1527.85 1074.62 1524.31 Q1072.82 1520.74 1069.18 1520.74 M1069.18 1517.04 Q1074.99 1517.04 1078.05 1521.65 Q1081.13 1526.23 1081.13 1534.98 Q1081.13 1543.71 1078.05 1548.31 Q1074.99 1552.9 1069.18 1552.9 Q1063.37 1552.9 1060.29 1548.31 Q1057.24 1543.71 1057.24 1534.98 Q1057.24 1526.23 1060.29 1521.65 Q1063.37 1517.04 1069.18 1517.04 Z" fill="#000000" fill-rule="nonzero" fill-opacity="1"></path><path clip-path="url(#clip470)" d="M1081.67 1521.62 L1087.88 1521.62 L1087.88 1500.19 L1081.13 1501.55 L1081.13 1498.09 L1087.84 1496.73 L1091.64 1496.73 L1091.64 1521.62 L1097.85 1521.62 L1097.85 1524.81 L1081.67 1524.81 L1081.67 1521.62 Z" fill="#000000" fill-rule="nonzero" fill-opacity="1"></path><path clip-path="url(#clip470)" d="M1842.95 1548.29 L1850.59 1548.29 L1850.59 1521.92 L1842.28 1523.59 L1842.28 1519.33 L1850.54 1517.66 L1855.22 1517.66 L1855.22 1548.29 L1862.86 1548.29 L1862.86 1552.22 L1842.95 1552.22 L1842.95 1548.29 Z" fill="#000000" fill-rule="nonzero" fill-opacity="1"></path><path clip-path="url(#clip470)" d="M1882.3 1520.74 Q1878.69 1520.74 1876.86 1524.31 Q1875.06 1527.85 1875.06 1534.98 Q1875.06 1542.09 1876.86 1545.65 Q1878.69 1549.19 1882.3 1549.19 Q1885.94 1549.19 1887.74 1545.65 Q1889.57 1542.09 1889.57 1534.98 Q1889.57 1527.85 1887.74 1524.31 Q1885.94 1520.74 1882.3 1520.74 M1882.3 1517.04 Q1888.11 1517.04 1891.17 1521.65 Q1894.25 1526.23 1894.25 1534.98 Q1894.25 1543.71 1891.17 1548.31 Q1888.11 1552.9 1882.3 1552.9 Q1876.49 1552.9 1873.41 1548.31 Q1870.36 1543.71 1870.36 1534.98 Q1870.36 1526.23 1873.41 1521.65 Q1876.49 1517.04 1882.3 1517.04 Z" fill="#000000" fill-rule="nonzero" fill-opacity="1"></path><path clip-path="url(#clip470)" d="M1898.82 1521.62 L1912.08 1521.62 L1912.08 1524.81 L1894.25 1524.81 L1894.25 1521.62 Q1896.41 1519.38 1900.13 1515.62 Q1903.88 1511.84 1904.84 1510.75 Q1906.66 1508.7 1907.38 1507.29 Q1908.11 1505.86 1908.11 1504.48 Q1908.11 1502.24 1906.53 1500.83 Q1904.97 1499.42 1902.45 1499.42 Q1900.66 1499.42 1898.67 1500.04 Q1896.69 1500.67 1894.44 1501.93 L1894.44 1498.09 Q1896.73 1497.17 1898.72 1496.7 Q1900.72 1496.23 1902.37 1496.23 Q1906.74 1496.23 1909.33 1498.41 Q1911.93 1500.59 1911.93 1504.24 Q1911.93 1505.97 1911.27 1507.53 Q1910.63 1509.07 1908.92 1511.18 Q1908.45 1511.72 1905.93 1514.34 Q1903.41 1516.93 1898.82 1521.62 Z" fill="#000000" fill-rule="nonzero" fill-opacity="1"></path><polyline clip-path="url(#clip472)" style="stroke:#000000; stroke-linecap:round; stroke-linejoin:round; stroke-width:2; stroke-opacity:0.1; fill:none" points="188.574,1060.94 2352.76,1060.94 "></polyline>
<polyline clip-path="url(#clip472)" style="stroke:#000000; stroke-linecap:round; stroke-linejoin:round; stroke-width:2; stroke-opacity:0.1; fill:none" points="188.574,577.642 2352.76,577.642 "></polyline>
<polyline clip-path="url(#clip472)" style="stroke:#000000; stroke-linecap:round; stroke-linejoin:round; stroke-width:2; stroke-opacity:0.1; fill:none" points="188.574,94.3414 2352.76,94.3414 "></polyline>
<polyline clip-path="url(#clip470)" style="stroke:#000000; stroke-linecap:round; stroke-linejoin:round; stroke-width:4; stroke-opacity:1; fill:none" points="188.574,1474.16 188.574,47.2441 "></polyline>
<polyline clip-path="url(#clip470)" style="stroke:#000000; stroke-linecap:round; stroke-linejoin:round; stroke-width:4; stroke-opacity:1; fill:none" points="188.574,1060.94 207.472,1060.94 "></polyline>
<polyline clip-path="url(#clip470)" style="stroke:#000000; stroke-linecap:round; stroke-linejoin:round; stroke-width:4; stroke-opacity:1; fill:none" points="188.574,577.642 207.472,577.642 "></polyline>
<polyline clip-path="url(#clip470)" style="stroke:#000000; stroke-linecap:round; stroke-linejoin:round; stroke-width:4; stroke-opacity:1; fill:none" points="188.574,94.3414 207.472,94.3414 "></polyline>
<path clip-path="url(#clip470)" d="M51.6634 1080.73 L59.3023 1080.73 L59.3023 1054.37 L50.9921 1056.04 L50.9921 1051.78 L59.256 1050.11 L63.9319 1050.11 L63.9319 1080.73 L71.5707 1080.73 L71.5707 1084.67 L51.6634 1084.67 L51.6634 1080.73 Z" fill="#000000" fill-rule="nonzero" fill-opacity="1"></path><path clip-path="url(#clip470)" d="M91.0151 1053.19 Q87.404 1053.19 85.5753 1056.75 Q83.7697 1060.3 83.7697 1067.42 Q83.7697 1074.53 85.5753 1078.1 Q87.404 1081.64 91.0151 1081.64 Q94.6493 1081.64 96.4548 1078.1 Q98.2835 1074.53 98.2835 1067.42 Q98.2835 1060.3 96.4548 1056.75 Q94.6493 1053.19 91.0151 1053.19 M91.0151 1049.49 Q96.8252 1049.49 99.8808 1054.09 Q102.959 1058.67 102.959 1067.42 Q102.959 1076.15 99.8808 1080.76 Q96.8252 1085.34 91.0151 1085.34 Q85.2049 1085.34 82.1262 1080.76 Q79.0707 1076.15 79.0707 1067.42 Q79.0707 1058.67 82.1262 1054.09 Q85.2049 1049.49 91.0151 1049.49 Z" fill="#000000" fill-rule="nonzero" fill-opacity="1"></path><path clip-path="url(#clip470)" d="M102.959 1043.59 L127.071 1043.59 L127.071 1046.78 L102.959 1046.78 L102.959 1043.59 Z" fill="#000000" fill-rule="nonzero" fill-opacity="1"></path><path clip-path="url(#clip470)" d="M146.782 1042.12 Q149.509 1042.7 151.032 1044.55 Q152.574 1046.39 152.574 1049.1 Q152.574 1053.25 149.716 1055.53 Q146.857 1057.81 141.591 1057.81 Q139.823 1057.81 137.942 1057.45 Q136.08 1057.11 134.086 1056.41 L134.086 1052.75 Q135.666 1053.67 137.547 1054.14 Q139.428 1054.61 141.478 1054.61 Q145.051 1054.61 146.913 1053.2 Q148.794 1051.79 148.794 1049.1 Q148.794 1046.61 147.045 1045.22 Q145.315 1043.81 142.211 1043.81 L138.939 1043.81 L138.939 1040.69 L142.362 1040.69 Q145.164 1040.69 146.65 1039.58 Q148.136 1038.45 148.136 1036.35 Q148.136 1034.18 146.593 1033.04 Q145.07 1031.87 142.211 1031.87 Q140.65 1031.87 138.863 1032.21 Q137.077 1032.55 134.933 1033.26 L134.933 1029.88 Q137.096 1029.27 138.976 1028.97 Q140.876 1028.67 142.55 1028.67 Q146.876 1028.67 149.396 1030.65 Q151.916 1032.6 151.916 1035.95 Q151.916 1038.28 150.581 1039.9 Q149.245 1041.5 146.782 1042.12 Z" fill="#000000" fill-rule="nonzero" fill-opacity="1"></path><path clip-path="url(#clip470)" d="M52.4345 597.434 L60.0734 597.434 L60.0734 571.069 L51.7632 572.735 L51.7632 568.476 L60.0271 566.81 L64.703 566.81 L64.703 597.434 L72.3418 597.434 L72.3418 601.37 L52.4345 601.37 L52.4345 597.434 Z" fill="#000000" fill-rule="nonzero" fill-opacity="1"></path><path clip-path="url(#clip470)" d="M91.7862 569.888 Q88.1751 569.888 86.3464 573.453 Q84.5408 576.995 84.5408 584.124 Q84.5408 591.231 86.3464 594.795 Q88.1751 598.337 91.7862 598.337 Q95.4204 598.337 97.226 594.795 Q99.0547 591.231 99.0547 584.124 Q99.0547 576.995 97.226 573.453 Q95.4204 569.888 91.7862 569.888 M91.7862 566.185 Q97.5963 566.185 100.652 570.791 Q103.731 575.374 103.731 584.124 Q103.731 592.851 100.652 597.458 Q97.5963 602.041 91.7862 602.041 Q85.976 602.041 82.8973 597.458 Q79.8418 592.851 79.8418 584.124 Q79.8418 575.374 82.8973 570.791 Q85.976 566.185 91.7862 566.185 Z" fill="#000000" fill-rule="nonzero" fill-opacity="1"></path><path clip-path="url(#clip470)" d="M103.731 560.286 L127.842 560.286 L127.842 563.483 L103.731 563.483 L103.731 560.286 Z" fill="#000000" fill-rule="nonzero" fill-opacity="1"></path><path clip-path="url(#clip470)" d="M139.315 570.762 L152.574 570.762 L152.574 573.959 L134.745 573.959 L134.745 570.762 Q136.907 568.524 140.631 564.762 Q144.374 560.982 145.333 559.891 Q147.158 557.841 147.872 556.43 Q148.606 555.001 148.606 553.628 Q148.606 551.39 147.026 549.979 Q145.465 548.569 142.945 548.569 Q141.158 548.569 139.164 549.189 Q137.19 549.81 134.933 551.07 L134.933 547.233 Q137.227 546.312 139.221 545.842 Q141.214 545.371 142.87 545.371 Q147.233 545.371 149.828 547.553 Q152.424 549.735 152.424 553.383 Q152.424 555.114 151.766 556.675 Q151.126 558.217 149.415 560.324 Q148.944 560.869 146.424 563.483 Q143.904 566.079 139.315 570.762 Z" fill="#000000" fill-rule="nonzero" fill-opacity="1"></path><path clip-path="url(#clip470)" d="M52.1336 114.134 L59.7725 114.134 L59.7725 87.7682 L51.4623 89.4349 L51.4623 85.1756 L59.7262 83.509 L64.4021 83.509 L64.4021 114.134 L72.0409 114.134 L72.0409 118.069 L52.1336 118.069 L52.1336 114.134 Z" fill="#000000" fill-rule="nonzero" fill-opacity="1"></path><path clip-path="url(#clip470)" d="M91.4853 86.5877 Q87.8742 86.5877 86.0455 90.1525 Q84.2399 93.6941 84.2399 100.824 Q84.2399 107.93 86.0455 111.495 Q87.8742 115.037 91.4853 115.037 Q95.1195 115.037 96.925 111.495 Q98.7537 107.93 98.7537 100.824 Q98.7537 93.6941 96.925 90.1525 Q95.1195 86.5877 91.4853 86.5877 M91.4853 82.884 Q97.2954 82.884 100.351 87.4904 Q103.43 92.0737 103.43 100.824 Q103.43 109.55 100.351 114.157 Q97.2954 118.74 91.4853 118.74 Q85.6751 118.74 82.5964 114.157 Q79.5409 109.55 79.5409 100.824 Q79.5409 92.0737 82.5964 87.4904 Q85.6751 82.884 91.4853 82.884 Z" fill="#000000" fill-rule="nonzero" fill-opacity="1"></path><path clip-path="url(#clip470)" d="M103.43 76.9853 L127.541 76.9853 L127.541 80.1826 L103.43 80.1826 L103.43 76.9853 Z" fill="#000000" fill-rule="nonzero" fill-opacity="1"></path><path clip-path="url(#clip470)" d="M136.4 87.4612 L142.606 87.4612 L142.606 66.0392 L135.854 67.3934 L135.854 63.9327 L142.569 62.5786 L146.368 62.5786 L146.368 87.4612 L152.574 87.4612 L152.574 90.6586 L136.4 90.6586 L136.4 87.4612 Z" fill="#000000" fill-rule="nonzero" fill-opacity="1"></path><polyline clip-path="url(#clip472)" style="stroke:#009af9; stroke-linecap:round; stroke-linejoin:round; stroke-width:4; stroke-opacity:1; fill:none" points="249.825,91.4482 494.766,87.6286 638.047,135.76 739.707,163.973 818.561,198.902 882.989,248.83 937.462,259.479 984.648,286.063 1026.27,342.643 1063.5,357.041 1097.18,401.102 1127.93,417.011 1156.21,395.061 1182.4,463.023 1206.78,477.945 1229.59,467.179 1251.01,443.392 1271.21,484.68 1290.32,514.016 1308.44,530.379 1325.68,524.782 1342.12,560.852 1357.83,570.929 1372.87,604.435 1387.3,577.926 1401.16,630.168 1414.49,639.499 1427.34,608.51 1439.74,670.27 1451.72,693.615 1463.31,719.887 1474.53,675.867 1485.4,713.004 1495.95,675.867 1506.2,727.002 1516.15,742.001 1525.83,758.155 1535.26,727.002 1544.44,815.758 1553.38,784.986 1562.11,734.368 1570.63,879.856 1578.94,839.103 1587.06,794.751 1595.01,839.103 1602.77,879.856 1610.37,930.474 1617.81,865.375 1625.1,950.48 1632.24,912.211 1639.24,895.411 1646.1,895.411 1652.83,1095.97 1659.43,997.316 1665.92,912.211 1672.29,1142.8 1678.54,865.375 1684.69,1095.97 1690.73,1095.97 1696.67,1095.97 1702.51,972.594 1708.25,1057.7 1713.91,1095.97 1719.47,1095.97 1724.95,1057.7 1730.35,1057.7 1735.66,1142.8 1740.9,1288.29 1746.05,1288.29 1751.14,1288.29 1756.15,1057.7 1761.09,1095.97 1765.97,1142.8 1770.78,1203.19 1775.52,1142.8 1780.2,1288.29 1784.82,1142.8 1789.38,1095.97 1793.88,1288.29 1798.33,1203.19 1802.72,1288.29 1807.05,1203.19 1815.57,1288.29 1819.75,1142.8 1823.88,1203.19 1827.97,1288.29 1832.01,1288.29 1836,1288.29 1839.95,1433.78 1843.85,1433.78 1847.71,1288.29 1851.53,1288.29 1855.31,1288.29 1859.05,1288.29 1862.75,1288.29 1873.63,1203.19 1877.18,1433.78 1884.18,1288.29 1887.62,1433.78 1891.04,1288.29 1894.42,1433.78 1897.77,1433.78 1901.09,1288.29 1904.38,1433.78 1910.86,1433.78 1914.06,1203.19 1917.23,1433.78 1920.37,1288.29 1923.48,1288.29 1926.57,1433.78 1929.63,1433.78 1935.67,1288.29 1944.54,1433.78 1950.33,1433.78 1953.19,1433.78 1967.16,1433.78 1969.89,1433.78 1972.6,1433.78 1977.95,1433.78 1988.43,1433.78 1991,1433.78 1996.08,1433.78 1998.6,1433.78 2001.09,1433.78 2006.03,1433.78 2008.48,1288.29 2010.91,1433.78 2015.72,1433.78 2020.46,1433.78 2036.58,1433.78 2045.47,1433.78 2056.28,1433.78 2062.61,1433.78 2068.82,1433.78 2070.87,1433.78 2086.85,1433.78 2109.53,1433.78 2134.28,1433.78 2155.8,1433.78 2159,1433.78 2169.97,1433.78 2176.09,1433.78 2200.97,1433.78 2291.51,1433.78 "></polyline>
<path clip-path="url(#clip470)" d="M1774.55 198.488 L2280.62 198.488 L2280.62 94.8081 L1774.55 94.8081  Z" fill="#ffffff" fill-rule="evenodd" fill-opacity="1"></path>
<polyline clip-path="url(#clip470)" style="stroke:#000000; stroke-linecap:round; stroke-linejoin:round; stroke-width:4; stroke-opacity:1; fill:none" points="1774.55,198.488 2280.62,198.488 2280.62,94.8081 1774.55,94.8081 1774.55,198.488 "></polyline>
<polyline clip-path="url(#clip470)" style="stroke:#009af9; stroke-linecap:round; stroke-linejoin:round; stroke-width:4; stroke-opacity:1; fill:none" points="1798.59,146.648 1942.87,146.648 "></polyline>
<path clip-path="url(#clip470)" d="M1971.59 133.211 L1971.59 160.086 L1977.24 160.086 Q1984.4 160.086 1987.71 156.845 Q1991.04 153.604 1991.04 146.613 Q1991.04 139.669 1987.71 136.451 Q1984.4 133.211 1977.24 133.211 L1971.59 133.211 M1966.92 129.368 L1976.53 129.368 Q1986.57 129.368 1991.27 133.558 Q1995.97 137.725 1995.97 146.613 Q1995.97 155.549 1991.25 159.738 Q1986.53 163.928 1976.53 163.928 L1966.92 163.928 L1966.92 129.368 Z" fill="#000000" fill-rule="nonzero" fill-opacity="1"></path><path clip-path="url(#clip470)" d="M2015.02 150.896 Q2009.86 150.896 2007.87 152.076 Q2005.88 153.257 2005.88 156.104 Q2005.88 158.373 2007.36 159.715 Q2008.86 161.035 2011.43 161.035 Q2014.97 161.035 2017.1 158.535 Q2019.26 156.011 2019.26 151.845 L2019.26 150.896 L2015.02 150.896 M2023.52 149.137 L2023.52 163.928 L2019.26 163.928 L2019.26 159.993 Q2017.8 162.354 2015.62 163.488 Q2013.45 164.599 2010.3 164.599 Q2006.32 164.599 2003.96 162.377 Q2001.62 160.132 2001.62 156.382 Q2001.62 152.007 2004.53 149.785 Q2007.47 147.562 2013.28 147.562 L2019.26 147.562 L2019.26 147.146 Q2019.26 144.206 2017.31 142.609 Q2015.39 140.988 2011.9 140.988 Q2009.67 140.988 2007.57 141.521 Q2005.46 142.053 2003.52 143.118 L2003.52 139.183 Q2005.85 138.28 2008.05 137.84 Q2010.25 137.377 2012.34 137.377 Q2017.96 137.377 2020.74 140.294 Q2023.52 143.211 2023.52 149.137 Z" fill="#000000" fill-rule="nonzero" fill-opacity="1"></path><path clip-path="url(#clip470)" d="M2036.5 130.641 L2036.5 138.002 L2045.27 138.002 L2045.27 141.312 L2036.5 141.312 L2036.5 155.386 Q2036.5 158.558 2037.36 159.461 Q2038.24 160.363 2040.9 160.363 L2045.27 160.363 L2045.27 163.928 L2040.9 163.928 Q2035.97 163.928 2034.09 162.099 Q2032.22 160.248 2032.22 155.386 L2032.22 141.312 L2029.09 141.312 L2029.09 138.002 L2032.22 138.002 L2032.22 130.641 L2036.5 130.641 Z" fill="#000000" fill-rule="nonzero" fill-opacity="1"></path><path clip-path="url(#clip470)" d="M2060.92 140.988 Q2057.5 140.988 2055.51 143.674 Q2053.52 146.336 2053.52 150.988 Q2053.52 155.641 2055.48 158.326 Q2057.47 160.988 2060.92 160.988 Q2064.33 160.988 2066.32 158.303 Q2068.31 155.618 2068.31 150.988 Q2068.31 146.382 2066.32 143.697 Q2064.33 140.988 2060.92 140.988 M2060.92 137.377 Q2066.48 137.377 2069.65 140.988 Q2072.82 144.6 2072.82 150.988 Q2072.82 157.354 2069.65 160.988 Q2066.48 164.599 2060.92 164.599 Q2055.34 164.599 2052.17 160.988 Q2049.02 157.354 2049.02 150.988 Q2049.02 144.6 2052.17 140.988 Q2055.34 137.377 2060.92 137.377 Z" fill="#000000" fill-rule="nonzero" fill-opacity="1"></path><path clip-path="url(#clip470)" d="M2096.41 138.766 L2096.41 142.794 Q2094.6 141.868 2092.66 141.405 Q2090.71 140.942 2088.63 140.942 Q2085.46 140.942 2083.86 141.914 Q2082.29 142.887 2082.29 144.831 Q2082.29 146.312 2083.42 147.169 Q2084.56 148.002 2087.98 148.766 L2089.44 149.09 Q2093.98 150.062 2095.88 151.845 Q2097.8 153.604 2097.8 156.775 Q2097.8 160.386 2094.93 162.493 Q2092.08 164.599 2087.08 164.599 Q2085 164.599 2082.73 164.183 Q2080.48 163.789 2077.98 162.979 L2077.98 158.581 Q2080.34 159.808 2082.64 160.433 Q2084.93 161.035 2087.17 161.035 Q2090.18 161.035 2091.8 160.016 Q2093.42 158.974 2093.42 157.099 Q2093.42 155.363 2092.24 154.437 Q2091.08 153.512 2087.13 152.655 L2085.65 152.308 Q2081.69 151.474 2079.93 149.762 Q2078.17 148.025 2078.17 145.016 Q2078.17 141.359 2080.76 139.368 Q2083.35 137.377 2088.12 137.377 Q2090.48 137.377 2092.57 137.725 Q2094.65 138.072 2096.41 138.766 Z" fill="#000000" fill-rule="nonzero" fill-opacity="1"></path><path clip-path="url(#clip470)" d="M2134.67 141.984 Q2133.95 141.567 2133.1 141.382 Q2132.27 141.174 2131.25 141.174 Q2127.64 141.174 2125.69 143.535 Q2123.77 145.873 2123.77 150.271 L2123.77 163.928 L2119.49 163.928 L2119.49 138.002 L2123.77 138.002 L2123.77 142.03 Q2125.11 139.669 2127.27 138.535 Q2129.42 137.377 2132.5 137.377 Q2132.94 137.377 2133.47 137.447 Q2134 137.493 2134.65 137.609 L2134.67 141.984 Z" fill="#000000" fill-rule="nonzero" fill-opacity="1"></path><path clip-path="url(#clip470)" d="M2160.27 149.9 L2160.27 151.984 L2140.69 151.984 Q2140.97 156.382 2143.33 158.697 Q2145.71 160.988 2149.95 160.988 Q2152.4 160.988 2154.7 160.386 Q2157.01 159.785 2159.28 158.581 L2159.28 162.609 Q2156.99 163.581 2154.58 164.09 Q2152.17 164.599 2149.7 164.599 Q2143.49 164.599 2139.86 160.988 Q2136.25 157.377 2136.25 151.22 Q2136.25 144.854 2139.67 141.127 Q2143.12 137.377 2148.95 137.377 Q2154.19 137.377 2157.22 140.757 Q2160.27 144.113 2160.27 149.9 M2156.02 148.65 Q2155.97 145.155 2154.05 143.072 Q2152.15 140.988 2149 140.988 Q2145.44 140.988 2143.28 143.002 Q2141.15 145.016 2140.83 148.674 L2156.02 148.65 Z" fill="#000000" fill-rule="nonzero" fill-opacity="1"></path><path clip-path="url(#clip470)" d="M2179.05 150.896 Q2173.89 150.896 2171.89 152.076 Q2169.9 153.257 2169.9 156.104 Q2169.9 158.373 2171.39 159.715 Q2172.89 161.035 2175.46 161.035 Q2179 161.035 2181.13 158.535 Q2183.28 156.011 2183.28 151.845 L2183.28 150.896 L2179.05 150.896 M2187.54 149.137 L2187.54 163.928 L2183.28 163.928 L2183.28 159.993 Q2181.83 162.354 2179.65 163.488 Q2177.47 164.599 2174.33 164.599 Q2170.34 164.599 2167.98 162.377 Q2165.64 160.132 2165.64 156.382 Q2165.64 152.007 2168.56 149.785 Q2171.5 147.562 2177.31 147.562 L2183.28 147.562 L2183.28 147.146 Q2183.28 144.206 2181.34 142.609 Q2179.42 140.988 2175.92 140.988 Q2173.7 140.988 2171.59 141.521 Q2169.49 142.053 2167.54 143.118 L2167.54 139.183 Q2169.88 138.28 2172.08 137.84 Q2174.28 137.377 2176.36 137.377 Q2181.99 137.377 2184.76 140.294 Q2187.54 143.211 2187.54 149.137 Z" fill="#000000" fill-rule="nonzero" fill-opacity="1"></path><path clip-path="url(#clip470)" d="M2196.32 127.91 L2200.57 127.91 L2200.57 163.928 L2196.32 163.928 L2196.32 127.91 Z" fill="#000000" fill-rule="nonzero" fill-opacity="1"></path><path clip-path="url(#clip470)" d="M2231.66 149.9 L2231.66 151.984 L2212.08 151.984 Q2212.36 156.382 2214.72 158.697 Q2217.1 160.988 2221.34 160.988 Q2223.79 160.988 2226.08 160.386 Q2228.4 159.785 2230.67 158.581 L2230.67 162.609 Q2228.38 163.581 2225.97 164.09 Q2223.56 164.599 2221.08 164.599 Q2214.88 164.599 2211.25 160.988 Q2207.64 157.377 2207.64 151.22 Q2207.64 144.854 2211.06 141.127 Q2214.51 137.377 2220.34 137.377 Q2225.57 137.377 2228.61 140.757 Q2231.66 144.113 2231.66 149.9 M2227.4 148.65 Q2227.36 145.155 2225.44 143.072 Q2223.54 140.988 2220.39 140.988 Q2216.82 140.988 2214.67 143.002 Q2212.54 145.016 2212.22 148.674 L2227.4 148.65 Z" fill="#000000" fill-rule="nonzero" fill-opacity="1"></path><path clip-path="url(#clip470)" d="M2255.18 138.766 L2255.18 142.794 Q2253.38 141.868 2251.43 141.405 Q2249.49 140.942 2247.4 140.942 Q2244.23 140.942 2242.63 141.914 Q2241.06 142.887 2241.06 144.831 Q2241.06 146.312 2242.2 147.169 Q2243.33 148.002 2246.76 148.766 L2248.21 149.09 Q2252.75 150.062 2254.65 151.845 Q2256.57 153.604 2256.57 156.775 Q2256.57 160.386 2253.7 162.493 Q2250.85 164.599 2245.85 164.599 Q2243.77 164.599 2241.5 164.183 Q2239.26 163.789 2236.76 162.979 L2236.76 158.581 Q2239.12 159.808 2241.41 160.433 Q2243.7 161.035 2245.95 161.035 Q2248.95 161.035 2250.57 160.016 Q2252.2 158.974 2252.2 157.099 Q2252.2 155.363 2251.01 154.437 Q2249.86 153.512 2245.9 152.655 L2244.42 152.308 Q2240.46 151.474 2238.7 149.762 Q2236.94 148.025 2236.94 145.016 Q2236.94 141.359 2239.53 139.368 Q2242.13 137.377 2246.89 137.377 Q2249.26 137.377 2251.34 137.725 Q2253.42 138.072 2255.18 138.766 Z" fill="#000000" fill-rule="nonzero" fill-opacity="1"></path></svg>