<svg xmlns="http://www.w3.org/2000/svg" xmlns:xlink="http://www.w3.org/1999/xlink" width="600" height="400" viewBox="0 0 2400 1600">
<defs>
  <clipPath id="clip770">
    <rect x="0" y="0" width="2400" height="1600"></rect>
  </clipPath>
</defs>
<path clip-path="url(#clip770)" d="M0 1600 L2400 1600 L2400 0 L0 0  Z" fill="#ffffff" fill-rule="evenodd" fill-opacity="1"></path>
<defs>
  <clipPath id="clip771">
    <rect x="480" y="0" width="1681" height="1600"></rect>
  </clipPath>
</defs>
<path clip-path="url(#clip770)" d="M186.274 1486.45 L2352.76 1486.45 L2352.76 127.244 L186.274 127.244  Z" fill="#ffffff" fill-rule="evenodd" fill-opacity="1"></path>
<defs>
  <clipPath id="clip772">
    <rect x="186" y="127" width="2167" height="1360"></rect>
  </clipPath>
</defs>
<polyline clip-path="url(#clip772)" style="stroke:#000000; stroke-linecap:round; stroke-linejoin:round; stroke-width:2; stroke-opacity:0.1; fill:none" points="205.009,1486.45 205.009,127.244 "></polyline>
<polyline clip-path="url(#clip772)" style="stroke:#000000; stroke-linecap:round; stroke-linejoin:round; stroke-width:2; stroke-opacity:0.1; fill:none" points="630.812,1486.45 630.812,127.244 "></polyline>
<polyline clip-path="url(#clip772)" style="stroke:#000000; stroke-linecap:round; stroke-linejoin:round; stroke-width:2; stroke-opacity:0.1; fill:none" points="1056.61,1486.45 1056.61,127.244 "></polyline>
<polyline clip-path="url(#clip772)" style="stroke:#000000; stroke-linecap:round; stroke-linejoin:round; stroke-width:2; stroke-opacity:0.1; fill:none" points="1482.42,1486.45 1482.42,127.244 "></polyline>
<polyline clip-path="url(#clip772)" style="stroke:#000000; stroke-linecap:round; stroke-linejoin:round; stroke-width:2; stroke-opacity:0.1; fill:none" points="1908.22,1486.45 1908.22,127.244 "></polyline>
<polyline clip-path="url(#clip772)" style="stroke:#000000; stroke-linecap:round; stroke-linejoin:round; stroke-width:2; stroke-opacity:0.1; fill:none" points="2334.02,1486.45 2334.02,127.244 "></polyline>
<polyline clip-path="url(#clip770)" style="stroke:#000000; stroke-linecap:round; stroke-linejoin:round; stroke-width:4; stroke-opacity:1; fill:none" points="186.274,1486.45 2352.76,1486.45 "></polyline>
<polyline clip-path="url(#clip770)" style="stroke:#000000; stroke-linecap:round; stroke-linejoin:round; stroke-width:4; stroke-opacity:1; fill:none" points="205.009,1486.45 205.009,1467.55 "></polyline>
<polyline clip-path="url(#clip770)" style="stroke:#000000; stroke-linecap:round; stroke-linejoin:round; stroke-width:4; stroke-opacity:1; fill:none" points="630.812,1486.45 630.812,1467.55 "></polyline>
<polyline clip-path="url(#clip770)" style="stroke:#000000; stroke-linecap:round; stroke-linejoin:round; stroke-width:4; stroke-opacity:1; fill:none" points="1056.61,1486.45 1056.61,1467.55 "></polyline>
<polyline clip-path="url(#clip770)" style="stroke:#000000; stroke-linecap:round; stroke-linejoin:round; stroke-width:4; stroke-opacity:1; fill:none" points="1482.42,1486.45 1482.42,1467.55 "></polyline>
<polyline clip-path="url(#clip770)" style="stroke:#000000; stroke-linecap:round; stroke-linejoin:round; stroke-width:4; stroke-opacity:1; fill:none" points="1908.22,1486.45 1908.22,1467.55 "></polyline>
<polyline clip-path="url(#clip770)" style="stroke:#000000; stroke-linecap:round; stroke-linejoin:round; stroke-width:4; stroke-opacity:1; fill:none" points="2334.02,1486.45 2334.02,1467.55 "></polyline>
<path clip-path="url(#clip770)" d="M205.009 1517.37 Q201.398 1517.37 199.57 1520.93 Q197.764 1524.47 197.764 1531.6 Q197.764 1538.71 199.57 1542.27 Q201.398 1545.82 205.009 1545.82 Q208.644 1545.82 210.449 1542.27 Q212.278 1538.71 212.278 1531.6 Q212.278 1524.47 210.449 1520.93 Q208.644 1517.37 205.009 1517.37 M205.009 1513.66 Q210.819 1513.66 213.875 1518.27 Q216.954 1522.85 216.954 1531.6 Q216.954 1540.33 213.875 1544.94 Q210.819 1549.52 205.009 1549.52 Q199.199 1549.52 196.12 1544.94 Q193.065 1540.33 193.065 1531.6 Q193.065 1522.85 196.12 1518.27 Q199.199 1513.66 205.009 1513.66 Z" fill="#000000" fill-rule="nonzero" fill-opacity="1"></path><path clip-path="url(#clip770)" d="M605.499 1544.91 L613.138 1544.91 L613.138 1518.55 L604.828 1520.21 L604.828 1515.95 L613.092 1514.29 L617.768 1514.29 L617.768 1544.91 L625.406 1544.91 L625.406 1548.85 L605.499 1548.85 L605.499 1544.91 Z" fill="#000000" fill-rule="nonzero" fill-opacity="1"></path><path clip-path="url(#clip770)" d="M644.851 1517.37 Q641.24 1517.37 639.411 1520.93 Q637.606 1524.47 637.606 1531.6 Q637.606 1538.71 639.411 1542.27 Q641.24 1545.82 644.851 1545.82 Q648.485 1545.82 650.291 1542.27 Q652.119 1538.71 652.119 1531.6 Q652.119 1524.47 650.291 1520.93 Q648.485 1517.37 644.851 1517.37 M644.851 1513.66 Q650.661 1513.66 653.717 1518.27 Q656.795 1522.85 656.795 1531.6 Q656.795 1540.33 653.717 1544.94 Q650.661 1549.52 644.851 1549.52 Q639.041 1549.52 635.962 1544.94 Q632.906 1540.33 632.906 1531.6 Q632.906 1522.85 635.962 1518.27 Q639.041 1513.66 644.851 1513.66 Z" fill="#000000" fill-rule="nonzero" fill-opacity="1"></path><path clip-path="url(#clip770)" d="M1035.39 1544.91 L1051.71 1544.91 L1051.71 1548.85 L1029.76 1548.85 L1029.76 1544.91 Q1032.42 1542.16 1037.01 1537.53 Q1041.61 1532.88 1042.79 1531.53 Q1045.04 1529.01 1045.92 1527.27 Q1046.82 1525.51 1046.82 1523.82 Q1046.82 1521.07 1044.88 1519.33 Q1042.96 1517.6 1039.85 1517.6 Q1037.66 1517.6 1035.2 1518.36 Q1032.77 1519.13 1029.99 1520.68 L1029.99 1515.95 Q1032.82 1514.82 1035.27 1514.24 Q1037.73 1513.66 1039.76 1513.66 Q1045.13 1513.66 1048.33 1516.35 Q1051.52 1519.03 1051.52 1523.52 Q1051.52 1525.65 1050.71 1527.57 Q1049.92 1529.47 1047.82 1532.07 Q1047.24 1532.74 1044.14 1535.95 Q1041.04 1539.15 1035.39 1544.91 Z" fill="#000000" fill-rule="nonzero" fill-opacity="1"></path><path clip-path="url(#clip770)" d="M1071.52 1517.37 Q1067.91 1517.37 1066.08 1520.93 Q1064.28 1524.47 1064.28 1531.6 Q1064.28 1538.71 1066.08 1542.27 Q1067.91 1545.82 1071.52 1545.82 Q1075.16 1545.82 1076.96 1542.27 Q1078.79 1538.71 1078.79 1531.6 Q1078.79 1524.47 1076.96 1520.93 Q1075.16 1517.37 1071.52 1517.37 M1071.52 1513.66 Q1077.33 1513.66 1080.39 1518.27 Q1083.47 1522.85 1083.47 1531.6 Q1083.47 1540.33 1080.39 1544.94 Q1077.33 1549.52 1071.52 1549.52 Q1065.71 1549.52 1062.63 1544.94 Q1059.58 1540.33 1059.58 1531.6 Q1059.58 1522.85 1062.63 1518.27 Q1065.71 1513.66 1071.52 1513.66 Z" fill="#000000" fill-rule="nonzero" fill-opacity="1"></path><path clip-path="url(#clip770)" d="M1471.26 1530.21 Q1474.62 1530.93 1476.49 1533.2 Q1478.39 1535.47 1478.39 1538.8 Q1478.39 1543.92 1474.87 1546.72 Q1471.35 1549.52 1464.87 1549.52 Q1462.69 1549.52 1460.38 1549.08 Q1458.09 1548.66 1455.63 1547.81 L1455.63 1543.29 Q1457.58 1544.43 1459.89 1545.01 Q1462.21 1545.58 1464.73 1545.58 Q1469.13 1545.58 1471.42 1543.85 Q1473.74 1542.11 1473.74 1538.8 Q1473.74 1535.75 1471.58 1534.03 Q1469.45 1532.3 1465.63 1532.3 L1461.61 1532.3 L1461.61 1528.45 L1465.82 1528.45 Q1469.27 1528.45 1471.1 1527.09 Q1472.93 1525.7 1472.93 1523.11 Q1472.93 1520.45 1471.03 1519.03 Q1469.15 1517.6 1465.63 1517.6 Q1463.71 1517.6 1461.51 1518.01 Q1459.31 1518.43 1456.68 1519.31 L1456.68 1515.14 Q1459.34 1514.4 1461.65 1514.03 Q1463.99 1513.66 1466.05 1513.66 Q1471.37 1513.66 1474.48 1516.09 Q1477.58 1518.5 1477.58 1522.62 Q1477.58 1525.49 1475.93 1527.48 Q1474.29 1529.45 1471.26 1530.21 Z" fill="#000000" fill-rule="nonzero" fill-opacity="1"></path><path clip-path="url(#clip770)" d="M1497.25 1517.37 Q1493.64 1517.37 1491.81 1520.93 Q1490.01 1524.47 1490.01 1531.6 Q1490.01 1538.71 1491.81 1542.27 Q1493.64 1545.82 1497.25 1545.82 Q1500.89 1545.82 1502.69 1542.27 Q1504.52 1538.71 1504.52 1531.6 Q1504.52 1524.47 1502.69 1520.93 Q1500.89 1517.37 1497.25 1517.37 M1497.25 1513.66 Q1503.06 1513.66 1506.12 1518.27 Q1509.2 1522.85 1509.2 1531.6 Q1509.2 1540.33 1506.12 1544.94 Q1503.06 1549.52 1497.25 1549.52 Q1491.44 1549.52 1488.37 1544.94 Q1485.31 1540.33 1485.31 1531.6 Q1485.31 1522.85 1488.37 1518.27 Q1491.44 1513.66 1497.25 1513.66 Z" fill="#000000" fill-rule="nonzero" fill-opacity="1"></path><path clip-path="url(#clip770)" d="M1896.39 1518.36 L1884.58 1536.81 L1896.39 1536.81 L1896.39 1518.36 M1895.16 1514.29 L1901.04 1514.29 L1901.04 1536.81 L1905.97 1536.81 L1905.97 1540.7 L1901.04 1540.7 L1901.04 1548.85 L1896.39 1548.85 L1896.39 1540.7 L1880.79 1540.7 L1880.79 1536.19 L1895.16 1514.29 Z" fill="#000000" fill-rule="nonzero" fill-opacity="1"></path><path clip-path="url(#clip770)" d="M1923.7 1517.37 Q1920.09 1517.37 1918.26 1520.93 Q1916.46 1524.47 1916.46 1531.6 Q1916.46 1538.71 1918.26 1542.27 Q1920.09 1545.82 1923.7 1545.82 Q1927.34 1545.82 1929.14 1542.27 Q1930.97 1538.71 1930.97 1531.6 Q1930.97 1524.47 1929.14 1520.93 Q1927.34 1517.37 1923.7 1517.37 M1923.7 1513.66 Q1929.51 1513.66 1932.57 1518.27 Q1935.65 1522.85 1935.65 1531.6 Q1935.65 1540.33 1932.57 1544.94 Q1929.51 1549.52 1923.7 1549.52 Q1917.89 1549.52 1914.82 1544.94 Q1911.76 1540.33 1911.76 1531.6 Q1911.76 1522.85 1914.82 1518.27 Q1917.89 1513.66 1923.7 1513.66 Z" fill="#000000" fill-rule="nonzero" fill-opacity="1"></path><path clip-path="url(#clip770)" d="M2308.72 1514.29 L2327.08 1514.29 L2327.08 1518.22 L2313 1518.22 L2313 1526.7 Q2314.02 1526.35 2315.04 1526.19 Q2316.06 1526 2317.08 1526 Q2322.86 1526 2326.24 1529.17 Q2329.62 1532.34 2329.62 1537.76 Q2329.62 1543.34 2326.15 1546.44 Q2322.68 1549.52 2316.36 1549.52 Q2314.18 1549.52 2311.91 1549.15 Q2309.67 1548.78 2307.26 1548.04 L2307.26 1543.34 Q2309.34 1544.47 2311.57 1545.03 Q2313.79 1545.58 2316.27 1545.58 Q2320.27 1545.58 2322.61 1543.48 Q2324.95 1541.37 2324.95 1537.76 Q2324.95 1534.15 2322.61 1532.04 Q2320.27 1529.94 2316.27 1529.94 Q2314.39 1529.94 2312.52 1530.35 Q2310.66 1530.77 2308.72 1531.65 L2308.72 1514.29 Z" fill="#000000" fill-rule="nonzero" fill-opacity="1"></path><path clip-path="url(#clip770)" d="M2348.84 1517.37 Q2345.22 1517.37 2343.4 1520.93 Q2341.59 1524.47 2341.59 1531.6 Q2341.59 1538.71 2343.4 1542.27 Q2345.22 1545.82 2348.84 1545.82 Q2352.47 1545.82 2354.28 1542.27 Q2356.1 1538.71 2356.1 1531.6 Q2356.1 1524.47 2354.28 1520.93 Q2352.47 1517.37 2348.84 1517.37 M2348.84 1513.66 Q2354.65 1513.66 2357.7 1518.27 Q2360.78 1522.85 2360.78 1531.6 Q2360.78 1540.33 2357.7 1544.94 Q2354.65 1549.52 2348.84 1549.52 Q2343.03 1549.52 2339.95 1544.94 Q2336.89 1540.33 2336.89 1531.6 Q2336.89 1522.85 2339.95 1518.27 Q2343.03 1513.66 2348.84 1513.66 Z" fill="#000000" fill-rule="nonzero" fill-opacity="1"></path><polyline clip-path="url(#clip772)" style="stroke:#000000; stroke-linecap:round; stroke-linejoin:round; stroke-width:2; stroke-opacity:0.1; fill:none" points="186.274,1426.04 2352.76,1426.04 "></polyline>
<polyline clip-path="url(#clip772)" style="stroke:#000000; stroke-linecap:round; stroke-linejoin:round; stroke-width:2; stroke-opacity:0.1; fill:none" points="186.274,1110.96 2352.76,1110.96 "></polyline>
<polyline clip-path="url(#clip772)" style="stroke:#000000; stroke-linecap:round; stroke-linejoin:round; stroke-width:2; stroke-opacity:0.1; fill:none" points="186.274,795.875 2352.76,795.875 "></polyline>
<polyline clip-path="url(#clip772)" style="stroke:#000000; stroke-linecap:round; stroke-linejoin:round; stroke-width:2; stroke-opacity:0.1; fill:none" points="186.274,480.794 2352.76,480.794 "></polyline>
<polyline clip-path="url(#clip772)" style="stroke:#000000; stroke-linecap:round; stroke-linejoin:round; stroke-width:2; stroke-opacity:0.1; fill:none" points="186.274,165.712 2352.76,165.712 "></polyline>
<polyline clip-path="url(#clip770)" style="stroke:#000000; stroke-linecap:round; stroke-linejoin:round; stroke-width:4; stroke-opacity:1; fill:none" points="186.274,1486.45 186.274,127.244 "></polyline>
<polyline clip-path="url(#clip770)" style="stroke:#000000; stroke-linecap:round; stroke-linejoin:round; stroke-width:4; stroke-opacity:1; fill:none" points="186.274,1426.04 205.172,1426.04 "></polyline>
<polyline clip-path="url(#clip770)" style="stroke:#000000; stroke-linecap:round; stroke-linejoin:round; stroke-width:4; stroke-opacity:1; fill:none" points="186.274,1110.96 205.172,1110.96 "></polyline>
<polyline clip-path="url(#clip770)" style="stroke:#000000; stroke-linecap:round; stroke-linejoin:round; stroke-width:4; stroke-opacity:1; fill:none" points="186.274,795.875 205.172,795.875 "></polyline>
<polyline clip-path="url(#clip770)" style="stroke:#000000; stroke-linecap:round; stroke-linejoin:round; stroke-width:4; stroke-opacity:1; fill:none" points="186.274,480.794 205.172,480.794 "></polyline>
<polyline clip-path="url(#clip770)" style="stroke:#000000; stroke-linecap:round; stroke-linejoin:round; stroke-width:4; stroke-opacity:1; fill:none" points="186.274,165.712 205.172,165.712 "></polyline>
<path clip-path="url(#clip770)" d="M62.9365 1411.84 Q59.3254 1411.84 57.4967 1415.4 Q55.6912 1418.94 55.6912 1426.07 Q55.6912 1433.18 57.4967 1436.74 Q59.3254 1440.29 62.9365 1440.29 Q66.5707 1440.29 68.3763 1436.74 Q70.205 1433.18 70.205 1426.07 Q70.205 1418.94 68.3763 1415.4 Q66.5707 1411.84 62.9365 1411.84 M62.9365 1408.13 Q68.7467 1408.13 71.8022 1412.74 Q74.8809 1417.32 74.8809 1426.07 Q74.8809 1434.8 71.8022 1439.41 Q68.7467 1443.99 62.9365 1443.99 Q57.1264 1443.99 54.0477 1439.41 Q50.9921 1434.8 50.9921 1426.07 Q50.9921 1417.32 54.0477 1412.74 Q57.1264 1408.13 62.9365 1408.13 Z" fill="#000000" fill-rule="nonzero" fill-opacity="1"></path><path clip-path="url(#clip770)" d="M83.0984 1437.44 L87.9827 1437.44 L87.9827 1443.32 L83.0984 1443.32 L83.0984 1437.44 Z" fill="#000000" fill-rule="nonzero" fill-opacity="1"></path><path clip-path="url(#clip770)" d="M108.168 1411.84 Q104.557 1411.84 102.728 1415.4 Q100.922 1418.94 100.922 1426.07 Q100.922 1433.18 102.728 1436.74 Q104.557 1440.29 108.168 1440.29 Q111.802 1440.29 113.608 1436.74 Q115.436 1433.18 115.436 1426.07 Q115.436 1418.94 113.608 1415.4 Q111.802 1411.84 108.168 1411.84 M108.168 1408.13 Q113.978 1408.13 117.033 1412.74 Q120.112 1417.32 120.112 1426.07 Q120.112 1434.8 117.033 1439.41 Q113.978 1443.99 108.168 1443.99 Q102.358 1443.99 99.2789 1439.41 Q96.2234 1434.8 96.2234 1426.07 Q96.2234 1417.32 99.2789 1412.74 Q102.358 1408.13 108.168 1408.13 Z" fill="#000000" fill-rule="nonzero" fill-opacity="1"></path><path clip-path="url(#clip770)" d="M138.33 1411.84 Q134.719 1411.84 132.89 1415.4 Q131.084 1418.94 131.084 1426.07 Q131.084 1433.18 132.89 1436.74 Q134.719 1440.29 138.33 1440.29 Q141.964 1440.29 143.769 1436.74 Q145.598 1433.18 145.598 1426.07 Q145.598 1418.94 143.769 1415.4 Q141.964 1411.84 138.33 1411.84 M138.33 1408.13 Q144.14 1408.13 147.195 1412.74 Q150.274 1417.32 150.274 1426.07 Q150.274 1434.8 147.195 1439.41 Q144.14 1443.99 138.33 1443.99 Q132.519 1443.99 129.441 1439.41 Q126.385 1434.8 126.385 1426.07 Q126.385 1417.32 129.441 1412.74 Q132.519 1408.13 138.33 1408.13 Z" fill="#000000" fill-rule="nonzero" fill-opacity="1"></path><path clip-path="url(#clip770)" d="M63.9319 1096.76 Q60.3208 1096.76 58.4921 1100.32 Q56.6865 1103.86 56.6865 1110.99 Q56.6865 1118.1 58.4921 1121.66 Q60.3208 1125.2 63.9319 1125.2 Q67.5661 1125.2 69.3717 1121.66 Q71.2004 1118.1 71.2004 1110.99 Q71.2004 1103.86 69.3717 1100.32 Q67.5661 1096.76 63.9319 1096.76 M63.9319 1093.05 Q69.742 1093.05 72.7976 1097.66 Q75.8763 1102.24 75.8763 1110.99 Q75.8763 1119.72 72.7976 1124.32 Q69.742 1128.91 63.9319 1128.91 Q58.1217 1128.91 55.043 1124.32 Q51.9875 1119.72 51.9875 1110.99 Q51.9875 1102.24 55.043 1097.66 Q58.1217 1093.05 63.9319 1093.05 Z" fill="#000000" fill-rule="nonzero" fill-opacity="1"></path><path clip-path="url(#clip770)" d="M84.0938 1122.36 L88.978 1122.36 L88.978 1128.24 L84.0938 1128.24 L84.0938 1122.36 Z" fill="#000000" fill-rule="nonzero" fill-opacity="1"></path><path clip-path="url(#clip770)" d="M103.191 1124.3 L119.51 1124.3 L119.51 1128.24 L97.566 1128.24 L97.566 1124.3 Q100.228 1121.55 104.811 1116.92 Q109.418 1112.26 110.598 1110.92 Q112.844 1108.4 113.723 1106.66 Q114.626 1104.9 114.626 1103.21 Q114.626 1100.46 112.682 1098.72 Q110.76 1096.99 107.658 1096.99 Q105.459 1096.99 103.006 1097.75 Q100.575 1098.51 97.7974 1100.07 L97.7974 1095.34 Q100.621 1094.21 103.075 1093.63 Q105.529 1093.05 107.566 1093.05 Q112.936 1093.05 116.131 1095.74 Q119.325 1098.42 119.325 1102.91 Q119.325 1105.04 118.515 1106.96 Q117.728 1108.86 115.621 1111.45 Q115.043 1112.13 111.941 1115.34 Q108.839 1118.54 103.191 1124.3 Z" fill="#000000" fill-rule="nonzero" fill-opacity="1"></path><path clip-path="url(#clip770)" d="M129.371 1093.68 L147.728 1093.68 L147.728 1097.61 L133.654 1097.61 L133.654 1106.08 Q134.672 1105.74 135.691 1105.57 Q136.709 1105.39 137.728 1105.39 Q143.515 1105.39 146.894 1108.56 Q150.274 1111.73 150.274 1117.15 Q150.274 1122.73 146.802 1125.83 Q143.33 1128.91 137.01 1128.91 Q134.834 1128.91 132.566 1128.54 Q130.32 1128.17 127.913 1127.43 L127.913 1122.73 Q129.996 1123.86 132.219 1124.42 Q134.441 1124.97 136.918 1124.97 Q140.922 1124.97 143.26 1122.87 Q145.598 1120.76 145.598 1117.15 Q145.598 1113.54 143.26 1111.43 Q140.922 1109.32 136.918 1109.32 Q135.043 1109.32 133.168 1109.74 Q131.316 1110.16 129.371 1111.04 L129.371 1093.68 Z" fill="#000000" fill-rule="nonzero" fill-opacity="1"></path><path clip-path="url(#clip770)" d="M62.9365 781.674 Q59.3254 781.674 57.4967 785.239 Q55.6912 788.78 55.6912 795.91 Q55.6912 803.016 57.4967 806.581 Q59.3254 810.123 62.9365 810.123 Q66.5707 810.123 68.3763 806.581 Q70.205 803.016 70.205 795.91 Q70.205 788.78 68.3763 785.239 Q66.5707 781.674 62.9365 781.674 M62.9365 777.97 Q68.7467 777.97 71.8022 782.577 Q74.8809 787.16 74.8809 795.91 Q74.8809 804.637 71.8022 809.243 Q68.7467 813.827 62.9365 813.827 Q57.1264 813.827 54.0477 809.243 Q50.9921 804.637 50.9921 795.91 Q50.9921 787.16 54.0477 782.577 Q57.1264 777.97 62.9365 777.97 Z" fill="#000000" fill-rule="nonzero" fill-opacity="1"></path><path clip-path="url(#clip770)" d="M83.0984 807.276 L87.9827 807.276 L87.9827 813.155 L83.0984 813.155 L83.0984 807.276 Z" fill="#000000" fill-rule="nonzero" fill-opacity="1"></path><path clip-path="url(#clip770)" d="M98.2141 778.595 L116.57 778.595 L116.57 782.53 L102.496 782.53 L102.496 791.003 Q103.515 790.655 104.534 790.493 Q105.552 790.308 106.571 790.308 Q112.358 790.308 115.737 793.479 Q119.117 796.651 119.117 802.067 Q119.117 807.646 115.645 810.748 Q112.172 813.827 105.853 813.827 Q103.677 813.827 101.409 813.456 Q99.1632 813.086 96.7558 812.345 L96.7558 807.646 Q98.8391 808.78 101.061 809.336 Q103.284 809.891 105.76 809.891 Q109.765 809.891 112.103 807.785 Q114.441 805.678 114.441 802.067 Q114.441 798.456 112.103 796.35 Q109.765 794.243 105.76 794.243 Q103.885 794.243 102.01 794.66 Q100.159 795.077 98.2141 795.956 L98.2141 778.595 Z" fill="#000000" fill-rule="nonzero" fill-opacity="1"></path><path clip-path="url(#clip770)" d="M138.33 781.674 Q134.719 781.674 132.89 785.239 Q131.084 788.78 131.084 795.91 Q131.084 803.016 132.89 806.581 Q134.719 810.123 138.33 810.123 Q141.964 810.123 143.769 806.581 Q145.598 803.016 145.598 795.91 Q145.598 788.78 143.769 785.239 Q141.964 781.674 138.33 781.674 M138.33 777.97 Q144.14 777.97 147.195 782.577 Q150.274 787.16 150.274 795.91 Q150.274 804.637 147.195 809.243 Q144.14 813.827 138.33 813.827 Q132.519 813.827 129.441 809.243 Q126.385 804.637 126.385 795.91 Q126.385 787.16 129.441 782.577 Q132.519 777.97 138.33 777.97 Z" fill="#000000" fill-rule="nonzero" fill-opacity="1"></path><path clip-path="url(#clip770)" d="M63.9319 466.592 Q60.3208 466.592 58.4921 470.157 Q56.6865 473.699 56.6865 480.828 Q56.6865 487.935 58.4921 491.5 Q60.3208 495.041 63.9319 495.041 Q67.5661 495.041 69.3717 491.5 Q71.2004 487.935 71.2004 480.828 Q71.2004 473.699 69.3717 470.157 Q67.5661 466.592 63.9319 466.592 M63.9319 462.889 Q69.742 462.889 72.7976 467.495 Q75.8763 472.078 75.8763 480.828 Q75.8763 489.555 72.7976 494.162 Q69.742 498.745 63.9319 498.745 Q58.1217 498.745 55.043 494.162 Q51.9875 489.555 51.9875 480.828 Q51.9875 472.078 55.043 467.495 Q58.1217 462.889 63.9319 462.889 Z" fill="#000000" fill-rule="nonzero" fill-opacity="1"></path><path clip-path="url(#clip770)" d="M84.0938 492.194 L88.978 492.194 L88.978 498.074 L84.0938 498.074 L84.0938 492.194 Z" fill="#000000" fill-rule="nonzero" fill-opacity="1"></path><path clip-path="url(#clip770)" d="M97.9826 463.514 L120.205 463.514 L120.205 465.504 L107.658 498.074 L102.774 498.074 L114.58 467.449 L97.9826 467.449 L97.9826 463.514 Z" fill="#000000" fill-rule="nonzero" fill-opacity="1"></path><path clip-path="url(#clip770)" d="M129.371 463.514 L147.728 463.514 L147.728 467.449 L133.654 467.449 L133.654 475.921 Q134.672 475.574 135.691 475.412 Q136.709 475.227 137.728 475.227 Q143.515 475.227 146.894 478.398 Q150.274 481.569 150.274 486.986 Q150.274 492.564 146.802 495.666 Q143.33 498.745 137.01 498.745 Q134.834 498.745 132.566 498.375 Q130.32 498.004 127.913 497.264 L127.913 492.564 Q129.996 493.699 132.219 494.254 Q134.441 494.81 136.918 494.81 Q140.922 494.81 143.26 492.703 Q145.598 490.597 145.598 486.986 Q145.598 483.375 143.26 481.268 Q140.922 479.162 136.918 479.162 Q135.043 479.162 133.168 479.578 Q131.316 479.995 129.371 480.875 L129.371 463.514 Z" fill="#000000" fill-rule="nonzero" fill-opacity="1"></path><path clip-path="url(#clip770)" d="M53.7467 179.057 L61.3856 179.057 L61.3856 152.691 L53.0754 154.358 L53.0754 150.099 L61.3393 148.432 L66.0152 148.432 L66.0152 179.057 L73.654 179.057 L73.654 182.992 L53.7467 182.992 L53.7467 179.057 Z" fill="#000000" fill-rule="nonzero" fill-opacity="1"></path><path clip-path="url(#clip770)" d="M83.0984 177.113 L87.9827 177.113 L87.9827 182.992 L83.0984 182.992 L83.0984 177.113 Z" fill="#000000" fill-rule="nonzero" fill-opacity="1"></path><path clip-path="url(#clip770)" d="M108.168 151.511 Q104.557 151.511 102.728 155.076 Q100.922 158.617 100.922 165.747 Q100.922 172.853 102.728 176.418 Q104.557 179.96 108.168 179.96 Q111.802 179.96 113.608 176.418 Q115.436 172.853 115.436 165.747 Q115.436 158.617 113.608 155.076 Q111.802 151.511 108.168 151.511 M108.168 147.807 Q113.978 147.807 117.033 152.414 Q120.112 156.997 120.112 165.747 Q120.112 174.474 117.033 179.08 Q113.978 183.663 108.168 183.663 Q102.358 183.663 99.2789 179.08 Q96.2234 174.474 96.2234 165.747 Q96.2234 156.997 99.2789 152.414 Q102.358 147.807 108.168 147.807 Z" fill="#000000" fill-rule="nonzero" fill-opacity="1"></path><path clip-path="url(#clip770)" d="M138.33 151.511 Q134.719 151.511 132.89 155.076 Q131.084 158.617 131.084 165.747 Q131.084 172.853 132.89 176.418 Q134.719 179.96 138.33 179.96 Q141.964 179.96 143.769 176.418 Q145.598 172.853 145.598 165.747 Q145.598 158.617 143.769 155.076 Q141.964 151.511 138.33 151.511 M138.33 147.807 Q144.14 147.807 147.195 152.414 Q150.274 156.997 150.274 165.747 Q150.274 174.474 147.195 179.08 Q144.14 183.663 138.33 183.663 Q132.519 183.663 129.441 179.08 Q126.385 174.474 126.385 165.747 Q126.385 156.997 129.441 152.414 Q132.519 147.807 138.33 147.807 Z" fill="#000000" fill-rule="nonzero" fill-opacity="1"></path><polyline clip-path="url(#clip772)" style="stroke:#009af9; stroke-linecap:round; stroke-linejoin:round; stroke-width:4; stroke-opacity:1; fill:none" points="247.59,165.712 290.17,527.821 332.75,792.222 375.33,981.119 417.91,1114.49 460.491,1209.23 503.071,1270.16 545.651,1317.09 588.231,1352.05 630.812,1374.79 673.392,1395.45 715.972,1413.37 758.552,1427.4 801.132,1433.95 843.713,1437.05 886.293,1436.76 928.873,1436.18 971.453,1429.74 1014.03,1430.73 1056.61,1430.19 1099.19,1426.93 1141.77,1428.22 1184.35,1429.32 1226.93,1430.61 1269.51,1430.96 1312.1,1427.76 1354.68,1424.71 1397.26,1422.25 1439.84,1424.2 1482.42,1422.55 1525,1421.85 1567.58,1419.92 1610.16,1421.84 1652.74,1421.5 1695.32,1420 1737.9,1422.32 1780.48,1418.95 1823.06,1415.75 1865.64,1418.78 1908.22,1425.45 1950.8,1431.39 1993.38,1434.98 2035.96,1437.32 2078.54,1440.34 2121.12,1441.62 2163.7,1441.62 2206.28,1439.02 2248.86,1439.85 2291.44,1443.19 "></polyline>
<polyline clip-path="url(#clip772)" style="stroke:#e26f46; stroke-linecap:round; stroke-linejoin:round; stroke-width:4; stroke-opacity:1; fill:none" points="247.59,165.712 290.17,797.586 332.75,1115.06 375.33,1270.37 417.91,1346.8 460.491,1392.08 503.071,1411.77 545.651,1421.64 588.231,1421.3 630.812,1421.18 673.392,1420.66 715.972,1427.59 758.552,1432.37 801.132,1433.35 843.713,1430.1 886.293,1432.71 928.873,1436.9 971.453,1434.91 1014.03,1425.85 1056.61,1424.48 1099.19,1421.31 1141.77,1425.79 1184.35,1426.28 1226.93,1434.65 1269.51,1434.21 1312.1,1438.46 1354.68,1437.64 1397.26,1431.88 1439.84,1428.11 1482.42,1422.83 1525,1428.74 1567.58,1433.87 1610.16,1432.79 1652.74,1444.14 1695.32,1447.98 1737.9,1444.6 1780.48,1440 1823.06,1436.11 1865.64,1434.26 1908.22,1432.91 1950.8,1428.79 1993.38,1429.86 2035.96,1426.58 2078.54,1423.46 2121.12,1420.11 2163.7,1423.84 2206.28,1431.8 2248.86,1431.5 2291.44,1437.06 "></polyline>
<polyline clip-path="url(#clip772)" style="stroke:#3da44d; stroke-linecap:round; stroke-linejoin:round; stroke-width:4; stroke-opacity:1; fill:none" points="247.59,165.712 290.17,167.221 332.75,168.982 375.33,170.817 417.91,172.659 460.491,174.473 503.071,176.265 545.651,177.996 588.231,179.72 630.812,181.407 673.392,183.055 715.972,184.671 758.552,186.243 801.132,187.813 843.713,189.367 886.293,190.924 928.873,192.467 971.453,193.978 1014.03,195.471 1056.61,196.951 1099.19,198.415 1141.77,199.859 1184.35,201.289 1226.93,202.701 1269.51,204.076 1312.1,205.414 1354.68,206.723 1397.26,208.037 1439.84,209.324 1482.42,210.593 1525,211.837 1567.58,213.063 1610.16,214.284 1652.74,215.514 1695.32,216.724 1737.9,217.925 1780.48,219.103 1823.06,220.266 1865.64,221.411 1908.22,222.527 1950.8,223.653 1993.38,224.774 2035.96,225.898 2078.54,227.033 2121.12,228.157 2163.7,229.265 2206.28,230.355 2248.86,231.42 2291.44,232.476 "></polyline>
<path clip-path="url(#clip770)" d="M258.49 1441.14 L634.536 1441.14 L634.536 1233.78 L258.49 1233.78  Z" fill="#ffffff" fill-rule="evenodd" fill-opacity="1"></path>
<polyline clip-path="url(#clip770)" style="stroke:#000000; stroke-linecap:round; stroke-linejoin:round; stroke-width:4; stroke-opacity:1; fill:none" points="258.49,1441.14 634.536,1441.14 634.536,1233.78 258.49,1233.78 258.49,1441.14 "></polyline>
<polyline clip-path="url(#clip770)" style="stroke:#009af9; stroke-linecap:round; stroke-linejoin:round; stroke-width:4; stroke-opacity:1; fill:none" points="282.562,1285.62 426.994,1285.62 "></polyline>
<path clip-path="url(#clip770)" d="M473.311 1269.48 L473.311 1274.04 Q470.649 1272.76 468.288 1272.14 Q465.927 1271.51 463.728 1271.51 Q459.909 1271.51 457.825 1272.99 Q455.765 1274.48 455.765 1277.21 Q455.765 1279.5 457.131 1280.68 Q458.52 1281.84 462.362 1282.55 L465.187 1283.13 Q470.418 1284.13 472.895 1286.65 Q475.395 1289.15 475.395 1293.36 Q475.395 1298.39 472.015 1300.98 Q468.659 1303.57 462.154 1303.57 Q459.7 1303.57 456.923 1303.02 Q454.168 1302.46 451.205 1301.37 L451.205 1296.56 Q454.052 1298.16 456.784 1298.97 Q459.515 1299.78 462.154 1299.78 Q466.159 1299.78 468.335 1298.2 Q470.511 1296.63 470.511 1293.71 Q470.511 1291.17 468.937 1289.73 Q467.386 1288.29 463.821 1287.58 L460.974 1287.02 Q455.742 1285.98 453.404 1283.76 Q451.066 1281.54 451.066 1277.58 Q451.066 1272.99 454.284 1270.35 Q457.525 1267.72 463.196 1267.72 Q465.626 1267.72 468.149 1268.16 Q470.673 1268.6 473.311 1269.48 Z" fill="#000000" fill-rule="nonzero" fill-opacity="1"></path><path clip-path="url(#clip770)" d="M504.677 1288.87 L504.677 1290.96 L485.094 1290.96 Q485.372 1295.35 487.733 1297.67 Q490.117 1299.96 494.353 1299.96 Q496.807 1299.96 499.098 1299.36 Q501.413 1298.76 503.682 1297.55 L503.682 1301.58 Q501.39 1302.55 498.983 1303.06 Q496.575 1303.57 494.098 1303.57 Q487.895 1303.57 484.261 1299.96 Q480.649 1296.35 480.649 1290.19 Q480.649 1283.83 484.075 1280.1 Q487.524 1276.35 493.358 1276.35 Q498.589 1276.35 501.622 1279.73 Q504.677 1283.09 504.677 1288.87 M500.418 1287.62 Q500.372 1284.13 498.45 1282.04 Q496.552 1279.96 493.404 1279.96 Q489.839 1279.96 487.686 1281.98 Q485.557 1283.99 485.233 1287.65 L500.418 1287.62 Z" fill="#000000" fill-rule="nonzero" fill-opacity="1"></path><path clip-path="url(#clip770)" d="M526.691 1280.96 Q525.973 1280.54 525.117 1280.35 Q524.283 1280.15 523.265 1280.15 Q519.654 1280.15 517.709 1282.51 Q515.788 1284.85 515.788 1289.24 L515.788 1302.9 L511.506 1302.9 L511.506 1276.98 L515.788 1276.98 L515.788 1281 Q517.131 1278.64 519.283 1277.51 Q521.436 1276.35 524.515 1276.35 Q524.955 1276.35 525.487 1276.42 Q526.02 1276.47 526.668 1276.58 L526.691 1280.96 Z" fill="#000000" fill-rule="nonzero" fill-opacity="1"></path><path clip-path="url(#clip770)" d="M531.158 1276.98 L535.418 1276.98 L535.418 1302.9 L531.158 1302.9 L531.158 1276.98 M531.158 1266.88 L535.418 1266.88 L535.418 1272.28 L531.158 1272.28 L531.158 1266.88 Z" fill="#000000" fill-rule="nonzero" fill-opacity="1"></path><path clip-path="url(#clip770)" d="M566.505 1288.87 L566.505 1290.96 L546.922 1290.96 Q547.2 1295.35 549.561 1297.67 Q551.945 1299.96 556.181 1299.96 Q558.635 1299.96 560.927 1299.36 Q563.242 1298.76 565.51 1297.55 L565.51 1301.58 Q563.218 1302.55 560.811 1303.06 Q558.404 1303.57 555.927 1303.57 Q549.723 1303.57 546.089 1299.96 Q542.478 1296.35 542.478 1290.19 Q542.478 1283.83 545.904 1280.1 Q549.353 1276.35 555.186 1276.35 Q560.418 1276.35 563.45 1279.73 Q566.505 1283.09 566.505 1288.87 M562.246 1287.62 Q562.2 1284.13 560.279 1282.04 Q558.38 1279.96 555.232 1279.96 Q551.668 1279.96 549.515 1281.98 Q547.385 1283.99 547.061 1287.65 L562.246 1287.62 Z" fill="#000000" fill-rule="nonzero" fill-opacity="1"></path><path clip-path="url(#clip770)" d="M589.978 1298.97 L597.616 1298.97 L597.616 1272.6 L589.306 1274.27 L589.306 1270.01 L597.57 1268.34 L602.246 1268.34 L602.246 1298.97 L609.885 1298.97 L609.885 1302.9 L589.978 1302.9 L589.978 1298.97 Z" fill="#000000" fill-rule="nonzero" fill-opacity="1"></path><polyline clip-path="url(#clip770)" style="stroke:#e26f46; stroke-linecap:round; stroke-linejoin:round; stroke-width:4; stroke-opacity:1; fill:none" points="282.562,1337.46 426.994,1337.46 "></polyline>
<path clip-path="url(#clip770)" d="M473.311 1321.32 L473.311 1325.88 Q470.649 1324.6 468.288 1323.98 Q465.927 1323.35 463.728 1323.35 Q459.909 1323.35 457.825 1324.83 Q455.765 1326.32 455.765 1329.05 Q455.765 1331.34 457.131 1332.52 Q458.52 1333.68 462.362 1334.39 L465.187 1334.97 Q470.418 1335.97 472.895 1338.49 Q475.395 1340.99 475.395 1345.2 Q475.395 1350.23 472.015 1352.82 Q468.659 1355.41 462.154 1355.41 Q459.7 1355.41 456.923 1354.86 Q454.168 1354.3 451.205 1353.21 L451.205 1348.4 Q454.052 1350 456.784 1350.81 Q459.515 1351.62 462.154 1351.62 Q466.159 1351.62 468.335 1350.04 Q470.511 1348.47 470.511 1345.55 Q470.511 1343.01 468.937 1341.57 Q467.386 1340.13 463.821 1339.42 L460.974 1338.86 Q455.742 1337.82 453.404 1335.6 Q451.066 1333.38 451.066 1329.42 Q451.066 1324.83 454.284 1322.19 Q457.525 1319.56 463.196 1319.56 Q465.626 1319.56 468.149 1320 Q470.673 1320.44 473.311 1321.32 Z" fill="#000000" fill-rule="nonzero" fill-opacity="1"></path><path clip-path="url(#clip770)" d="M504.677 1340.71 L504.677 1342.8 L485.094 1342.8 Q485.372 1347.19 487.733 1349.51 Q490.117 1351.8 494.353 1351.8 Q496.807 1351.8 499.098 1351.2 Q501.413 1350.6 503.682 1349.39 L503.682 1353.42 Q501.39 1354.39 498.983 1354.9 Q496.575 1355.41 494.098 1355.41 Q487.895 1355.41 484.261 1351.8 Q480.649 1348.19 480.649 1342.03 Q480.649 1335.67 484.075 1331.94 Q487.524 1328.19 493.358 1328.19 Q498.589 1328.19 501.622 1331.57 Q504.677 1334.93 504.677 1340.71 M500.418 1339.46 Q500.372 1335.97 498.45 1333.88 Q496.552 1331.8 493.404 1331.8 Q489.839 1331.8 487.686 1333.82 Q485.557 1335.83 485.233 1339.49 L500.418 1339.46 Z" fill="#000000" fill-rule="nonzero" fill-opacity="1"></path><path clip-path="url(#clip770)" d="M526.691 1332.8 Q525.973 1332.38 525.117 1332.19 Q524.283 1331.99 523.265 1331.99 Q519.654 1331.99 517.709 1334.35 Q515.788 1336.69 515.788 1341.08 L515.788 1354.74 L511.506 1354.74 L511.506 1328.82 L515.788 1328.82 L515.788 1332.84 Q517.131 1330.48 519.283 1329.35 Q521.436 1328.19 524.515 1328.19 Q524.955 1328.19 525.487 1328.26 Q526.02 1328.31 526.668 1328.42 L526.691 1332.8 Z" fill="#000000" fill-rule="nonzero" fill-opacity="1"></path><path clip-path="url(#clip770)" d="M531.158 1328.82 L535.418 1328.82 L535.418 1354.74 L531.158 1354.74 L531.158 1328.82 M531.158 1318.72 L535.418 1318.72 L535.418 1324.12 L531.158 1324.12 L531.158 1318.72 Z" fill="#000000" fill-rule="nonzero" fill-opacity="1"></path><path clip-path="url(#clip770)" d="M566.505 1340.71 L566.505 1342.8 L546.922 1342.8 Q547.2 1347.19 549.561 1349.51 Q551.945 1351.8 556.181 1351.8 Q558.635 1351.8 560.927 1351.2 Q563.242 1350.6 565.51 1349.39 L565.51 1353.42 Q563.218 1354.39 560.811 1354.9 Q558.404 1355.41 555.927 1355.41 Q549.723 1355.41 546.089 1351.8 Q542.478 1348.19 542.478 1342.03 Q542.478 1335.67 545.904 1331.94 Q549.353 1328.19 555.186 1328.19 Q560.418 1328.19 563.45 1331.57 Q566.505 1334.93 566.505 1340.71 M562.246 1339.46 Q562.2 1335.97 560.279 1333.88 Q558.38 1331.8 555.232 1331.8 Q551.668 1331.8 549.515 1333.82 Q547.385 1335.83 547.061 1339.49 L562.246 1339.46 Z" fill="#000000" fill-rule="nonzero" fill-opacity="1"></path><path clip-path="url(#clip770)" d="M593.195 1350.81 L609.514 1350.81 L609.514 1354.74 L587.57 1354.74 L587.57 1350.81 Q590.232 1348.05 594.815 1343.42 Q599.422 1338.77 600.602 1337.43 Q602.848 1334.9 603.727 1333.17 Q604.63 1331.41 604.63 1329.72 Q604.63 1326.96 602.686 1325.23 Q600.765 1323.49 597.663 1323.49 Q595.464 1323.49 593.01 1324.26 Q590.579 1325.02 587.802 1326.57 L587.802 1321.85 Q590.626 1320.71 593.079 1320.13 Q595.533 1319.56 597.57 1319.56 Q602.94 1319.56 606.135 1322.24 Q609.329 1324.93 609.329 1329.42 Q609.329 1331.55 608.519 1333.47 Q607.732 1335.37 605.626 1337.96 Q605.047 1338.63 601.945 1341.85 Q598.843 1345.04 593.195 1350.81 Z" fill="#000000" fill-rule="nonzero" fill-opacity="1"></path><polyline clip-path="url(#clip770)" style="stroke:#3da44d; stroke-linecap:round; stroke-linejoin:round; stroke-width:4; stroke-opacity:1; fill:none" points="282.562,1389.3 426.994,1389.3 "></polyline>
<path clip-path="url(#clip770)" d="M473.311 1373.16 L473.311 1377.72 Q470.649 1376.44 468.288 1375.82 Q465.927 1375.19 463.728 1375.19 Q459.909 1375.19 457.825 1376.67 Q455.765 1378.16 455.765 1380.89 Q455.765 1383.18 457.131 1384.36 Q458.52 1385.52 462.362 1386.23 L465.187 1386.81 Q470.418 1387.81 472.895 1390.33 Q475.395 1392.83 475.395 1397.04 Q475.395 1402.07 472.015 1404.66 Q468.659 1407.25 462.154 1407.25 Q459.7 1407.25 456.923 1406.7 Q454.168 1406.14 451.205 1405.05 L451.205 1400.24 Q454.052 1401.84 456.784 1402.65 Q459.515 1403.46 462.154 1403.46 Q466.159 1403.46 468.335 1401.88 Q470.511 1400.31 470.511 1397.39 Q470.511 1394.85 468.937 1393.41 Q467.386 1391.97 463.821 1391.26 L460.974 1390.7 Q455.742 1389.66 453.404 1387.44 Q451.066 1385.22 451.066 1381.26 Q451.066 1376.67 454.284 1374.03 Q457.525 1371.4 463.196 1371.4 Q465.626 1371.4 468.149 1371.84 Q470.673 1372.28 473.311 1373.16 Z" fill="#000000" fill-rule="nonzero" fill-opacity="1"></path><path clip-path="url(#clip770)" d="M504.677 1392.55 L504.677 1394.64 L485.094 1394.64 Q485.372 1399.03 487.733 1401.35 Q490.117 1403.64 494.353 1403.64 Q496.807 1403.64 499.098 1403.04 Q501.413 1402.44 503.682 1401.23 L503.682 1405.26 Q501.39 1406.23 498.983 1406.74 Q496.575 1407.25 494.098 1407.25 Q487.895 1407.25 484.261 1403.64 Q480.649 1400.03 480.649 1393.87 Q480.649 1387.51 484.075 1383.78 Q487.524 1380.03 493.358 1380.03 Q498.589 1380.03 501.622 1383.41 Q504.677 1386.77 504.677 1392.55 M500.418 1391.3 Q500.372 1387.81 498.45 1385.72 Q496.552 1383.64 493.404 1383.64 Q489.839 1383.64 487.686 1385.66 Q485.557 1387.67 485.233 1391.33 L500.418 1391.3 Z" fill="#000000" fill-rule="nonzero" fill-opacity="1"></path><path clip-path="url(#clip770)" d="M526.691 1384.64 Q525.973 1384.22 525.117 1384.03 Q524.283 1383.83 523.265 1383.83 Q519.654 1383.83 517.709 1386.19 Q515.788 1388.53 515.788 1392.92 L515.788 1406.58 L511.506 1406.58 L511.506 1380.66 L515.788 1380.66 L515.788 1384.68 Q517.131 1382.32 519.283 1381.19 Q521.436 1380.03 524.515 1380.03 Q524.955 1380.03 525.487 1380.1 Q526.02 1380.15 526.668 1380.26 L526.691 1384.64 Z" fill="#000000" fill-rule="nonzero" fill-opacity="1"></path><path clip-path="url(#clip770)" d="M531.158 1380.66 L535.418 1380.66 L535.418 1406.58 L531.158 1406.58 L531.158 1380.66 M531.158 1370.56 L535.418 1370.56 L535.418 1375.96 L531.158 1375.96 L531.158 1370.56 Z" fill="#000000" fill-rule="nonzero" fill-opacity="1"></path><path clip-path="url(#clip770)" d="M566.505 1392.55 L566.505 1394.64 L546.922 1394.64 Q547.2 1399.03 549.561 1401.35 Q551.945 1403.64 556.181 1403.64 Q558.635 1403.64 560.927 1403.04 Q563.242 1402.44 565.51 1401.23 L565.51 1405.26 Q563.218 1406.23 560.811 1406.74 Q558.404 1407.25 555.927 1407.25 Q549.723 1407.25 546.089 1403.64 Q542.478 1400.03 542.478 1393.87 Q542.478 1387.51 545.904 1383.78 Q549.353 1380.03 555.186 1380.03 Q560.418 1380.03 563.45 1383.41 Q566.505 1386.77 566.505 1392.55 M562.246 1391.3 Q562.2 1387.81 560.279 1385.72 Q558.38 1383.64 555.232 1383.64 Q551.668 1383.64 549.515 1385.66 Q547.385 1387.67 547.061 1391.33 L562.246 1391.3 Z" fill="#000000" fill-rule="nonzero" fill-opacity="1"></path><path clip-path="url(#clip770)" d="M603.334 1387.95 Q606.69 1388.66 608.565 1390.93 Q610.464 1393.2 610.464 1396.53 Q610.464 1401.65 606.945 1404.45 Q603.427 1407.25 596.945 1407.25 Q594.769 1407.25 592.454 1406.81 Q590.163 1406.4 587.709 1405.54 L587.709 1401.03 Q589.653 1402.16 591.968 1402.74 Q594.283 1403.32 596.806 1403.32 Q601.204 1403.32 603.496 1401.58 Q605.811 1399.85 605.811 1396.53 Q605.811 1393.48 603.658 1391.77 Q601.528 1390.03 597.709 1390.03 L593.681 1390.03 L593.681 1386.19 L597.894 1386.19 Q601.343 1386.19 603.172 1384.82 Q605.001 1383.43 605.001 1380.84 Q605.001 1378.18 603.102 1376.77 Q601.227 1375.33 597.709 1375.33 Q595.788 1375.33 593.589 1375.75 Q591.39 1376.16 588.751 1377.04 L588.751 1372.88 Q591.413 1372.14 593.728 1371.77 Q596.065 1371.4 598.126 1371.4 Q603.45 1371.4 606.552 1373.83 Q609.653 1376.23 609.653 1380.35 Q609.653 1383.22 608.01 1385.22 Q606.366 1387.18 603.334 1387.95 Z" fill="#000000" fill-rule="nonzero" fill-opacity="1"></path><path clip-path="url(#clip770)" d="M186.274 80 L2352.76 80 L2352.76 0 L186.274 0  Z" fill="#ffffff" fill-rule="evenodd" fill-opacity="1"></path>
<defs>
  <clipPath id="clip773">
    <rect x="186" y="0" width="2167" height="81"></rect>
  </clipPath>
</defs>
<path clip-path="url(#clip770)" d="M933.66 23.0369 L920.975 57.4349 L946.392 57.4349 L933.66 23.0369 M928.383 13.824 L938.984 13.824 L965.327 82.944 L955.605 82.944 L949.308 65.2126 L918.151 65.2126 L911.855 82.944 L901.994 82.944 L928.383 13.824 Z" fill="#000000" fill-rule="nonzero" fill-opacity="1"></path><path clip-path="url(#clip770)" d="M974.169 62.4811 L974.169 31.0924 L982.688 31.0924 L982.688 62.1571 Q982.688 69.5181 985.558 73.2218 Q988.428 76.8792 994.169 76.8792 Q1001.07 76.8792 1005.05 72.4811 Q1009.08 68.083 1009.08 60.4904 L1009.08 31.0924 L1017.6 31.0924 L1017.6 82.944 L1009.08 82.944 L1009.08 74.9811 Q1005.97 79.7033 1001.85 82.0181 Q997.78 84.2866 992.364 84.2866 Q983.429 84.2866 978.799 78.7311 Q974.169 73.1755 974.169 62.4811 M995.604 29.8424 L995.604 29.8424 Z" fill="#000000" fill-rule="nonzero" fill-opacity="1"></path><path clip-path="url(#clip770)" d="M1043.57 16.3703 L1043.57 31.0924 L1061.11 31.0924 L1061.11 37.7128 L1043.57 37.7128 L1043.57 65.8608 Q1043.57 72.2033 1045.28 74.0089 Q1047.04 75.8144 1052.36 75.8144 L1061.11 75.8144 L1061.11 82.944 L1052.36 82.944 Q1042.5 82.944 1038.75 79.2866 Q1035 75.5829 1035 65.8608 L1035 37.7128 L1028.75 37.7128 L1028.75 31.0924 L1035 31.0924 L1035 16.3703 L1043.57 16.3703 Z" fill="#000000" fill-rule="nonzero" fill-opacity="1"></path><path clip-path="url(#clip770)" d="M1092.41 37.0646 Q1085.56 37.0646 1081.58 42.435 Q1077.59 47.759 1077.59 57.0645 Q1077.59 66.37 1081.53 71.7404 Q1085.51 77.0644 1092.41 77.0644 Q1099.21 77.0644 1103.2 71.6941 Q1107.18 66.3237 1107.18 57.0645 Q1107.18 47.8516 1103.2 42.4813 Q1099.21 37.0646 1092.41 37.0646 M1092.41 29.8424 Q1103.52 29.8424 1109.86 37.0646 Q1116.21 44.2868 1116.21 57.0645 Q1116.21 69.7959 1109.86 77.0644 Q1103.52 84.2866 1092.41 84.2866 Q1081.25 84.2866 1074.91 77.0644 Q1068.61 69.7959 1068.61 57.0645 Q1068.61 44.2868 1074.91 37.0646 Q1081.25 29.8424 1092.41 29.8424 Z" fill="#000000" fill-rule="nonzero" fill-opacity="1"></path><path clip-path="url(#clip770)" d="M1167.64 33.0832 L1167.64 41.0461 Q1164.03 39.0553 1160.37 38.0831 Q1156.76 37.0646 1153.06 37.0646 Q1144.77 37.0646 1140.19 42.3424 Q1135.6 47.5738 1135.6 57.0645 Q1135.6 66.5552 1140.19 71.8329 Q1144.77 77.0644 1153.06 77.0644 Q1156.76 77.0644 1160.37 76.0922 Q1164.03 75.0737 1167.64 73.0829 L1167.64 80.9533 Q1164.08 82.6199 1160.23 83.4533 Q1156.44 84.2866 1152.13 84.2866 Q1140.42 84.2866 1133.52 76.9255 Q1126.62 69.5644 1126.62 57.0645 Q1126.62 44.3794 1133.57 37.1109 Q1140.56 29.8424 1152.69 29.8424 Q1156.62 29.8424 1160.37 30.6758 Q1164.12 31.4628 1167.64 33.0832 Z" fill="#000000" fill-rule="nonzero" fill-opacity="1"></path><path clip-path="url(#clip770)" d="M1202.55 37.0646 Q1195.7 37.0646 1191.71 42.435 Q1187.73 47.759 1187.73 57.0645 Q1187.73 66.37 1191.67 71.7404 Q1195.65 77.0644 1202.55 77.0644 Q1209.35 77.0644 1213.33 71.6941 Q1217.32 66.3237 1217.32 57.0645 Q1217.32 47.8516 1213.33 42.4813 Q1209.35 37.0646 1202.55 37.0646 M1202.55 29.8424 Q1213.66 29.8424 1220 37.0646 Q1226.34 44.2868 1226.34 57.0645 Q1226.34 69.7959 1220 77.0644 Q1213.66 84.2866 1202.55 84.2866 Q1191.39 84.2866 1185.05 77.0644 Q1178.75 69.7959 1178.75 57.0645 Q1178.75 44.2868 1185.05 37.0646 Q1191.39 29.8424 1202.55 29.8424 Z" fill="#000000" fill-rule="nonzero" fill-opacity="1"></path><path clip-path="url(#clip770)" d="M1270.51 39.0553 Q1269.08 38.222 1267.36 37.8516 Q1265.7 37.435 1263.66 37.435 Q1256.44 37.435 1252.55 42.1572 Q1248.7 46.8331 1248.7 55.6293 L1248.7 82.944 L1240.14 82.944 L1240.14 31.0924 L1248.7 31.0924 L1248.7 39.1479 Q1251.39 34.4257 1255.7 32.1572 Q1260 29.8424 1266.16 29.8424 Q1267.04 29.8424 1268.1 29.9813 Q1269.17 30.0739 1270.46 30.3054 L1270.51 39.0553 Z" fill="#000000" fill-rule="nonzero" fill-opacity="1"></path><path clip-path="url(#clip770)" d="M1307.82 39.0553 Q1306.39 38.222 1304.68 37.8516 Q1303.01 37.435 1300.97 37.435 Q1293.75 37.435 1289.86 42.1572 Q1286.02 46.8331 1286.02 55.6293 L1286.02 82.944 L1277.45 82.944 L1277.45 31.0924 L1286.02 31.0924 L1286.02 39.1479 Q1288.7 34.4257 1293.01 32.1572 Q1297.32 29.8424 1303.47 29.8424 Q1304.35 29.8424 1305.42 29.9813 Q1306.48 30.0739 1307.78 30.3054 L1307.82 39.0553 Z" fill="#000000" fill-rule="nonzero" fill-opacity="1"></path><path clip-path="url(#clip770)" d="M1359.03 54.8886 L1359.03 59.0552 L1319.86 59.0552 Q1320.42 67.8515 1325.14 72.4811 Q1329.91 77.0644 1338.38 77.0644 Q1343.29 77.0644 1347.87 75.8607 Q1352.5 74.657 1357.04 72.2496 L1357.04 80.3051 Q1352.45 82.2496 1347.64 83.2681 Q1342.82 84.2866 1337.87 84.2866 Q1325.46 84.2866 1318.2 77.0644 Q1310.97 69.8422 1310.97 57.5275 Q1310.97 44.7961 1317.82 37.3424 Q1324.72 29.8424 1336.39 29.8424 Q1346.85 29.8424 1352.92 36.6017 Q1359.03 43.3146 1359.03 54.8886 M1350.51 52.3886 Q1350.42 45.3979 1346.57 41.2313 Q1342.78 37.0646 1336.48 37.0646 Q1329.35 37.0646 1325.05 41.0924 Q1320.79 45.1201 1320.14 52.4349 L1350.51 52.3886 Z" fill="#000000" fill-rule="nonzero" fill-opacity="1"></path><path clip-path="url(#clip770)" d="M1373.01 10.9073 L1381.53 10.9073 L1381.53 82.944 L1373.01 82.944 L1373.01 10.9073 Z" fill="#000000" fill-rule="nonzero" fill-opacity="1"></path><path clip-path="url(#clip770)" d="M1422.92 56.8793 Q1412.59 56.8793 1408.61 59.2404 Q1404.63 61.6015 1404.63 67.2959 Q1404.63 71.8329 1407.59 74.5181 Q1410.6 77.157 1415.74 77.157 Q1422.82 77.157 1427.08 72.157 Q1431.39 67.1108 1431.39 58.7775 L1431.39 56.8793 L1422.92 56.8793 M1439.91 53.3608 L1439.91 82.944 L1431.39 82.944 L1431.39 75.0737 Q1428.47 79.7959 1424.12 82.0644 Q1419.77 84.2866 1413.47 84.2866 Q1405.51 84.2866 1400.79 79.8422 Q1396.11 75.3514 1396.11 67.8515 Q1396.11 59.1015 1401.94 54.6571 Q1407.82 50.2127 1419.44 50.2127 L1431.39 50.2127 L1431.39 49.3794 Q1431.39 43.4998 1427.5 40.3053 Q1423.66 37.0646 1416.67 37.0646 Q1412.22 37.0646 1408.01 38.1294 Q1403.8 39.1942 1399.91 41.3239 L1399.91 33.4535 Q1404.58 31.648 1408.98 30.7684 Q1413.38 29.8424 1417.55 29.8424 Q1428.8 29.8424 1434.35 35.6757 Q1439.91 41.509 1439.91 53.3608 Z" fill="#000000" fill-rule="nonzero" fill-opacity="1"></path><path clip-path="url(#clip770)" d="M1494.77 33.0832 L1494.77 41.0461 Q1491.16 39.0553 1487.5 38.0831 Q1483.89 37.0646 1480.19 37.0646 Q1471.9 37.0646 1467.31 42.3424 Q1462.73 47.5738 1462.73 57.0645 Q1462.73 66.5552 1467.31 71.8329 Q1471.9 77.0644 1480.19 77.0644 Q1483.89 77.0644 1487.5 76.0922 Q1491.16 75.0737 1494.77 73.0829 L1494.77 80.9533 Q1491.2 82.6199 1487.36 83.4533 Q1483.56 84.2866 1479.26 84.2866 Q1467.55 84.2866 1460.65 76.9255 Q1453.75 69.5644 1453.75 57.0645 Q1453.75 44.3794 1460.69 37.1109 Q1467.69 29.8424 1479.81 29.8424 Q1483.75 29.8424 1487.5 30.6758 Q1491.25 31.4628 1494.77 33.0832 Z" fill="#000000" fill-rule="nonzero" fill-opacity="1"></path><path clip-path="url(#clip770)" d="M1509.58 31.0924 L1518.1 31.0924 L1518.1 82.944 L1509.58 82.944 L1509.58 31.0924 M1509.58 10.9073 L1518.1 10.9073 L1518.1 21.6943 L1509.58 21.6943 L1509.58 10.9073 Z" fill="#000000" fill-rule="nonzero" fill-opacity="1"></path><path clip-path="url(#clip770)" d="M1556.02 37.0646 Q1549.17 37.0646 1545.18 42.435 Q1541.2 47.759 1541.2 57.0645 Q1541.2 66.37 1545.14 71.7404 Q1549.12 77.0644 1556.02 77.0644 Q1562.82 77.0644 1566.81 71.6941 Q1570.79 66.3237 1570.79 57.0645 Q1570.79 47.8516 1566.81 42.4813 Q1562.82 37.0646 1556.02 37.0646 M1556.02 29.8424 Q1567.13 29.8424 1573.47 37.0646 Q1579.81 44.2868 1579.81 57.0645 Q1579.81 69.7959 1573.47 77.0644 Q1567.13 84.2866 1556.02 84.2866 Q1544.86 84.2866 1538.52 77.0644 Q1532.22 69.7959 1532.22 57.0645 Q1532.22 44.2868 1538.52 37.0646 Q1544.86 29.8424 1556.02 29.8424 M1562.45 7.11107 L1571.67 7.11107 L1556.57 24.5184 L1549.49 24.5184 L1562.45 7.11107 Z" fill="#000000" fill-rule="nonzero" fill-opacity="1"></path><path clip-path="url(#clip770)" d="M1637.04 51.6479 L1637.04 82.944 L1628.52 82.944 L1628.52 51.9256 Q1628.52 44.5646 1625.65 40.9072 Q1622.78 37.2498 1617.04 37.2498 Q1610.14 37.2498 1606.16 41.6479 Q1602.18 46.046 1602.18 53.6386 L1602.18 82.944 L1593.61 82.944 L1593.61 31.0924 L1602.18 31.0924 L1602.18 39.1479 Q1605.23 34.472 1609.35 32.1572 Q1613.52 29.8424 1618.93 29.8424 Q1627.87 29.8424 1632.45 35.398 Q1637.04 40.9072 1637.04 51.6479 Z" fill="#000000" fill-rule="nonzero" fill-opacity="1"></path></svg>