<svg xmlns="http://www.w3.org/2000/svg" xmlns:xlink="http://www.w3.org/1999/xlink" width="600" height="400" viewBox="0 0 2400 1600">
<defs>
  <clipPath id="clip680">
    <rect x="0" y="0" width="2400" height="1600"></rect>
  </clipPath>
</defs>
<path clip-path="url(#clip680)" d="M0 1600 L2400 1600 L2400 0 L0 0  Z" fill="#ffffff" fill-rule="evenodd" fill-opacity="1"></path>
<defs>
  <clipPath id="clip681">
    <rect x="480" y="0" width="1681" height="1600"></rect>
  </clipPath>
</defs>
<path clip-path="url(#clip680)" d="M188.104 1474.16 L2352.76 1474.16 L2352.76 127.244 L188.104 127.244  Z" fill="#ffffff" fill-rule="evenodd" fill-opacity="1"></path>
<defs>
  <clipPath id="clip682">
    <rect x="188" y="127" width="2166" height="1348"></rect>
  </clipPath>
</defs>
<polyline clip-path="url(#clip682)" style="stroke:#000000; stroke-linecap:round; stroke-linejoin:round; stroke-width:2; stroke-opacity:0.1; fill:none" points="249.368,1474.16 249.368,127.244 "></polyline>
<polyline clip-path="url(#clip682)" style="stroke:#000000; stroke-linecap:round; stroke-linejoin:round; stroke-width:2; stroke-opacity:0.1; fill:none" points="1457.59,1474.16 1457.59,127.244 "></polyline>
<polyline clip-path="url(#clip680)" style="stroke:#000000; stroke-linecap:round; stroke-linejoin:round; stroke-width:4; stroke-opacity:1; fill:none" points="188.104,1474.16 2352.76,1474.16 "></polyline>
<polyline clip-path="url(#clip680)" style="stroke:#000000; stroke-linecap:round; stroke-linejoin:round; stroke-width:4; stroke-opacity:1; fill:none" points="249.368,1474.16 249.368,1455.27 "></polyline>
<polyline clip-path="url(#clip680)" style="stroke:#000000; stroke-linecap:round; stroke-linejoin:round; stroke-width:4; stroke-opacity:1; fill:none" points="1457.59,1474.16 1457.59,1455.27 "></polyline>
<path clip-path="url(#clip680)" d="M214.351 1548.29 L221.99 1548.29 L221.99 1521.92 L213.679 1523.59 L213.679 1519.33 L221.943 1517.66 L226.619 1517.66 L226.619 1548.29 L234.258 1548.29 L234.258 1552.22 L214.351 1552.22 L214.351 1548.29 Z" fill="#000000" fill-rule="nonzero" fill-opacity="1"></path><path clip-path="url(#clip680)" d="M253.702 1520.74 Q250.091 1520.74 248.263 1524.31 Q246.457 1527.85 246.457 1534.98 Q246.457 1542.09 248.263 1545.65 Q250.091 1549.19 253.702 1549.19 Q257.337 1549.19 259.142 1545.65 Q260.971 1542.09 260.971 1534.98 Q260.971 1527.85 259.142 1524.31 Q257.337 1520.74 253.702 1520.74 M253.702 1517.04 Q259.512 1517.04 262.568 1521.65 Q265.647 1526.23 265.647 1534.98 Q265.647 1543.71 262.568 1548.31 Q259.512 1552.9 253.702 1552.9 Q247.892 1552.9 244.813 1548.31 Q241.758 1543.71 241.758 1534.98 Q241.758 1526.23 244.813 1521.65 Q247.892 1517.04 253.702 1517.04 Z" fill="#000000" fill-rule="nonzero" fill-opacity="1"></path><path clip-path="url(#clip680)" d="M275.352 1499.24 Q272.418 1499.24 270.932 1502.13 Q269.465 1505.01 269.465 1510.8 Q269.465 1516.58 270.932 1519.47 Q272.418 1522.35 275.352 1522.35 Q278.304 1522.35 279.771 1519.47 Q281.257 1516.58 281.257 1510.8 Q281.257 1505.01 279.771 1502.13 Q278.304 1499.24 275.352 1499.24 M275.352 1496.23 Q280.072 1496.23 282.555 1499.97 Q285.056 1503.69 285.056 1510.8 Q285.056 1517.89 282.555 1521.64 Q280.072 1525.36 275.352 1525.36 Q270.631 1525.36 268.129 1521.64 Q265.647 1517.89 265.647 1510.8 Q265.647 1503.69 268.129 1499.97 Q270.631 1496.23 275.352 1496.23 Z" fill="#000000" fill-rule="nonzero" fill-opacity="1"></path><path clip-path="url(#clip680)" d="M1423.91 1548.29 L1431.55 1548.29 L1431.55 1521.92 L1423.24 1523.59 L1423.24 1519.33 L1431.51 1517.66 L1436.18 1517.66 L1436.18 1548.29 L1443.82 1548.29 L1443.82 1552.22 L1423.91 1552.22 L1423.91 1548.29 Z" fill="#000000" fill-rule="nonzero" fill-opacity="1"></path><path clip-path="url(#clip680)" d="M1463.26 1520.74 Q1459.65 1520.74 1457.82 1524.31 Q1456.02 1527.85 1456.02 1534.98 Q1456.02 1542.09 1457.82 1545.65 Q1459.65 1549.19 1463.26 1549.19 Q1466.9 1549.19 1468.7 1545.65 Q1470.53 1542.09 1470.53 1534.98 Q1470.53 1527.85 1468.7 1524.31 Q1466.9 1520.74 1463.26 1520.74 M1463.26 1517.04 Q1469.07 1517.04 1472.13 1521.65 Q1475.21 1526.23 1475.21 1534.98 Q1475.21 1543.71 1472.13 1548.31 Q1469.07 1552.9 1463.26 1552.9 Q1457.45 1552.9 1454.38 1548.31 Q1451.32 1543.71 1451.32 1534.98 Q1451.32 1526.23 1454.38 1521.65 Q1457.45 1517.04 1463.26 1517.04 Z" fill="#000000" fill-rule="nonzero" fill-opacity="1"></path><path clip-path="url(#clip680)" d="M1475.75 1521.62 L1481.96 1521.62 L1481.96 1500.19 L1475.21 1501.55 L1475.21 1498.09 L1481.92 1496.73 L1485.72 1496.73 L1485.72 1521.62 L1491.93 1521.62 L1491.93 1524.81 L1475.75 1524.81 L1475.75 1521.62 Z" fill="#000000" fill-rule="nonzero" fill-opacity="1"></path><polyline clip-path="url(#clip682)" style="stroke:#000000; stroke-linecap:round; stroke-linejoin:round; stroke-width:2; stroke-opacity:0.1; fill:none" points="188.104,1148.84 2352.76,1148.84 "></polyline>
<polyline clip-path="url(#clip682)" style="stroke:#000000; stroke-linecap:round; stroke-linejoin:round; stroke-width:2; stroke-opacity:0.1; fill:none" points="188.104,659.205 2352.76,659.205 "></polyline>
<polyline clip-path="url(#clip682)" style="stroke:#000000; stroke-linecap:round; stroke-linejoin:round; stroke-width:2; stroke-opacity:0.1; fill:none" points="188.104,169.575 2352.76,169.575 "></polyline>
<polyline clip-path="url(#clip680)" style="stroke:#000000; stroke-linecap:round; stroke-linejoin:round; stroke-width:4; stroke-opacity:1; fill:none" points="188.104,1474.16 188.104,127.244 "></polyline>
<polyline clip-path="url(#clip680)" style="stroke:#000000; stroke-linecap:round; stroke-linejoin:round; stroke-width:4; stroke-opacity:1; fill:none" points="188.104,1148.84 207.002,1148.84 "></polyline>
<polyline clip-path="url(#clip680)" style="stroke:#000000; stroke-linecap:round; stroke-linejoin:round; stroke-width:4; stroke-opacity:1; fill:none" points="188.104,659.205 207.002,659.205 "></polyline>
<polyline clip-path="url(#clip680)" style="stroke:#000000; stroke-linecap:round; stroke-linejoin:round; stroke-width:4; stroke-opacity:1; fill:none" points="188.104,169.575 207.002,169.575 "></polyline>
<path clip-path="url(#clip680)" d="M51.9643 1168.63 L59.6032 1168.63 L59.6032 1142.26 L51.2931 1143.93 L51.2931 1139.67 L59.5569 1138 L64.2328 1138 L64.2328 1168.63 L71.8716 1168.63 L71.8716 1172.56 L51.9643 1172.56 L51.9643 1168.63 Z" fill="#000000" fill-rule="nonzero" fill-opacity="1"></path><path clip-path="url(#clip680)" d="M91.316 1141.08 Q87.7049 1141.08 85.8762 1144.65 Q84.0707 1148.19 84.0707 1155.32 Q84.0707 1162.42 85.8762 1165.99 Q87.7049 1169.53 91.316 1169.53 Q94.9502 1169.53 96.7558 1165.99 Q98.5845 1162.42 98.5845 1155.32 Q98.5845 1148.19 96.7558 1144.65 Q94.9502 1141.08 91.316 1141.08 M91.316 1137.38 Q97.1261 1137.38 100.182 1141.98 Q103.26 1146.57 103.26 1155.32 Q103.26 1164.04 100.182 1168.65 Q97.1261 1173.23 91.316 1173.23 Q85.5058 1173.23 82.4271 1168.65 Q79.3716 1164.04 79.3716 1155.32 Q79.3716 1146.57 82.4271 1141.98 Q85.5058 1137.38 91.316 1137.38 Z" fill="#000000" fill-rule="nonzero" fill-opacity="1"></path><path clip-path="url(#clip680)" d="M103.26 1131.48 L127.372 1131.48 L127.372 1134.68 L103.26 1134.68 L103.26 1131.48 Z" fill="#000000" fill-rule="nonzero" fill-opacity="1"></path><path clip-path="url(#clip680)" d="M138.845 1141.96 L152.104 1141.96 L152.104 1145.15 L134.274 1145.15 L134.274 1141.96 Q136.437 1139.72 140.161 1135.96 Q143.904 1132.18 144.863 1131.08 Q146.688 1129.03 147.402 1127.62 Q148.136 1126.19 148.136 1124.82 Q148.136 1122.58 146.556 1121.17 Q144.995 1119.76 142.475 1119.76 Q140.688 1119.76 138.694 1120.38 Q136.719 1121 134.462 1122.26 L134.462 1118.43 Q136.757 1117.51 138.751 1117.03 Q140.744 1116.56 142.399 1116.56 Q146.763 1116.56 149.358 1118.75 Q151.954 1120.93 151.954 1124.58 Q151.954 1126.31 151.295 1127.87 Q150.656 1129.41 148.944 1131.52 Q148.474 1132.06 145.954 1134.68 Q143.434 1137.27 138.845 1141.96 Z" fill="#000000" fill-rule="nonzero" fill-opacity="1"></path><path clip-path="url(#clip680)" d="M51.6634 678.998 L59.3023 678.998 L59.3023 652.632 L50.9921 654.299 L50.9921 650.04 L59.256 648.373 L63.9319 648.373 L63.9319 678.998 L71.5707 678.998 L71.5707 682.933 L51.6634 682.933 L51.6634 678.998 Z" fill="#000000" fill-rule="nonzero" fill-opacity="1"></path><path clip-path="url(#clip680)" d="M91.0151 651.452 Q87.404 651.452 85.5753 655.016 Q83.7697 658.558 83.7697 665.688 Q83.7697 672.794 85.5753 676.359 Q87.404 679.901 91.0151 679.901 Q94.6493 679.901 96.4548 676.359 Q98.2835 672.794 98.2835 665.688 Q98.2835 658.558 96.4548 655.016 Q94.6493 651.452 91.0151 651.452 M91.0151 647.748 Q96.8252 647.748 99.8808 652.354 Q102.959 656.938 102.959 665.688 Q102.959 674.415 99.8808 679.021 Q96.8252 683.604 91.0151 683.604 Q85.2049 683.604 82.1262 679.021 Q79.0707 674.415 79.0707 665.688 Q79.0707 656.938 82.1262 652.354 Q85.2049 647.748 91.0151 647.748 Z" fill="#000000" fill-rule="nonzero" fill-opacity="1"></path><path clip-path="url(#clip680)" d="M102.959 641.849 L127.071 641.849 L127.071 645.047 L102.959 645.047 L102.959 641.849 Z" fill="#000000" fill-rule="nonzero" fill-opacity="1"></path><path clip-path="url(#clip680)" d="M135.929 652.325 L142.136 652.325 L142.136 630.903 L135.384 632.257 L135.384 628.797 L142.098 627.443 L145.898 627.443 L145.898 652.325 L152.104 652.325 L152.104 655.523 L135.929 655.523 L135.929 652.325 Z" fill="#000000" fill-rule="nonzero" fill-opacity="1"></path><path clip-path="url(#clip680)" d="M81.3985 189.368 L89.0374 189.368 L89.0374 163.002 L80.7272 164.669 L80.7272 160.41 L88.9911 158.743 L93.667 158.743 L93.667 189.368 L101.306 189.368 L101.306 193.303 L81.3985 193.303 L81.3985 189.368 Z" fill="#000000" fill-rule="nonzero" fill-opacity="1"></path><path clip-path="url(#clip680)" d="M120.75 161.822 Q117.139 161.822 115.31 165.386 Q113.505 168.928 113.505 176.058 Q113.505 183.164 115.31 186.729 Q117.139 190.271 120.75 190.271 Q124.384 190.271 126.19 186.729 Q128.019 183.164 128.019 176.058 Q128.019 168.928 126.19 165.386 Q124.384 161.822 120.75 161.822 M120.75 158.118 Q126.56 158.118 129.616 162.724 Q132.695 167.308 132.695 176.058 Q132.695 184.785 129.616 189.391 Q126.56 193.974 120.75 193.974 Q114.94 193.974 111.861 189.391 Q108.806 184.785 108.806 176.058 Q108.806 167.308 111.861 162.724 Q114.94 158.118 120.75 158.118 Z" fill="#000000" fill-rule="nonzero" fill-opacity="1"></path><path clip-path="url(#clip680)" d="M142.399 140.314 Q139.465 140.314 137.98 143.21 Q136.513 146.088 136.513 151.881 Q136.513 157.655 137.98 160.551 Q139.465 163.429 142.399 163.429 Q145.352 163.429 146.819 160.551 Q148.305 157.655 148.305 151.881 Q148.305 146.088 146.819 143.21 Q145.352 140.314 142.399 140.314 M142.399 137.305 Q147.12 137.305 149.603 141.048 Q152.104 144.771 152.104 151.881 Q152.104 158.971 149.603 162.714 Q147.12 166.438 142.399 166.438 Q137.679 166.438 135.177 162.714 Q132.695 158.971 132.695 151.881 Q132.695 144.771 135.177 141.048 Q137.679 137.305 142.399 137.305 Z" fill="#000000" fill-rule="nonzero" fill-opacity="1"></path><polyline clip-path="url(#clip682)" style="stroke:#009af9; stroke-linecap:round; stroke-linejoin:round; stroke-width:4; stroke-opacity:1; fill:none" points="249.368,165.364 613.078,235.715 825.834,307.446 976.787,379.269 1093.88,450.215 1189.54,520.46 1270.43,582.139 1340.5,645.917 1402.3,710.116 1457.59,765.489 1507.6,832.463 1553.25,914.881 1595.25,1013.26 1634.14,1081.56 1670.34,1123.58 1704.21,1119.2 1736.02,1110.89 1766.01,1035.24 1794.38,1045.27 1821.29,1039.75 1846.9,1009.07 1871.31,1020.66 1894.63,1031.08 1916.96,1043.98 1938.38,1047.64 1958.96,1016.45 1978.77,990.544 1997.85,971.638 2016.26,986.464 2034.05,973.902 2051.26,968.759 2067.92,955.201 2084.06,968.668 2099.73,966.22 2114.94,955.775 2129.72,972.208 2144.1,948.735 2158.09,928.668 2171.72,947.618 2185,996.529 2197.96,1052.19 2210.61,1094.57 2222.95,1127.65 2235.02,1179.6 2246.81,1206.1 2258.34,1206.21 2269.63,1155.34 2280.67,1170.26 2291.49,1244.06 "></polyline>
<polyline clip-path="url(#clip682)" style="stroke:#e26f46; stroke-linecap:round; stroke-linejoin:round; stroke-width:4; stroke-opacity:1; fill:none" points="249.368,165.364 613.078,309.184 825.834,450.575 976.787,582.384 1093.88,699.153 1189.54,820.009 1270.43,906.061 1340.5,967.262 1402.3,964.828 1457.59,963.974 1507.6,960.298 1553.25,1015 1595.25,1062.97 1634.14,1074.29 1670.34,1038.84 1704.21,1066.79 1736.02,1121.27 1766.01,1093.71 1794.38,999.818 1821.29,988.667 1846.9,964.88 1871.31,999.38 1894.63,1003.5 1916.96,1090.31 1938.38,1084.79 1958.96,1145.86 1978.77,1132.64 1997.85,1057.47 2016.26,1019.67 2034.05,975.947 2051.26,1025.54 2067.92,1080.54 2084.06,1067.74 2099.73,1270.59 2114.94,1436.04 2129.72,1284.86 2144.1,1173.11 2158.09,1109.98 2171.72,1085.44 2185,1069.16 2197.96,1026.04 2210.61,1036.42 2222.95,1006.1 2235.02,980.761 2246.81,956.55 2258.34,983.69 2269.63,1056.61 2280.67,1053.4 2291.49,1123.74 "></polyline>
<polyline clip-path="url(#clip682)" style="stroke:#3da44d; stroke-linecap:round; stroke-linejoin:round; stroke-width:4; stroke-opacity:1; fill:none" points="249.368,165.364 613.078,165.614 825.834,165.906 976.787,166.211 1093.88,166.517 1189.54,166.819 1270.43,167.117 1340.5,167.406 1402.3,167.694 1457.59,167.977 1507.6,168.253 1553.25,168.524 1595.25,168.788 1634.14,169.052 1670.34,169.314 1704.21,169.576 1736.02,169.837 1766.01,170.092 1794.38,170.345 1821.29,170.596 1846.9,170.844 1871.31,171.089 1894.63,171.332 1916.96,171.573 1938.38,171.807 1958.96,172.035 1978.77,172.259 1997.85,172.483 2016.26,172.704 2034.05,172.921 2051.26,173.134 2067.92,173.345 2084.06,173.555 2099.73,173.766 2114.94,173.975 2129.72,174.181 2144.1,174.385 2158.09,174.586 2171.72,174.783 2185,174.976 2197.96,175.171 2210.61,175.366 2222.95,175.561 2235.02,175.758 2246.81,175.953 2258.34,176.146 2269.63,176.335 2280.67,176.521 2291.49,176.705 "></polyline>
<path clip-path="url(#clip680)" d="M1904.74 379.501 L2280.6 379.501 L2280.6 172.141 L1904.74 172.141  Z" fill="#ffffff" fill-rule="evenodd" fill-opacity="1"></path>
<polyline clip-path="url(#clip680)" style="stroke:#000000; stroke-linecap:round; stroke-linejoin:round; stroke-width:4; stroke-opacity:1; fill:none" points="1904.74,379.501 2280.6,379.501 2280.6,172.141 1904.74,172.141 1904.74,379.501 "></polyline>
<polyline clip-path="url(#clip680)" style="stroke:#009af9; stroke-linecap:round; stroke-linejoin:round; stroke-width:4; stroke-opacity:1; fill:none" points="1928.79,223.981 2073.1,223.981 "></polyline>
<path clip-path="url(#clip680)" d="M2119.4 207.836 L2119.4 212.396 Q2116.74 211.123 2114.37 210.498 Q2112.01 209.873 2109.81 209.873 Q2105.99 209.873 2103.91 211.354 Q2101.85 212.836 2101.85 215.567 Q2101.85 217.859 2103.22 219.039 Q2104.61 220.197 2108.45 220.914 L2111.27 221.493 Q2116.5 222.488 2118.98 225.012 Q2121.48 227.512 2121.48 231.724 Q2121.48 236.748 2118.1 239.34 Q2114.74 241.933 2108.24 241.933 Q2105.79 241.933 2103.01 241.377 Q2100.25 240.822 2097.29 239.734 L2097.29 234.919 Q2100.14 236.516 2102.87 237.326 Q2105.6 238.136 2108.24 238.136 Q2112.24 238.136 2114.42 236.562 Q2116.6 234.988 2116.6 232.072 Q2116.6 229.525 2115.02 228.09 Q2113.47 226.655 2109.91 225.937 L2107.06 225.382 Q2101.83 224.34 2099.49 222.118 Q2097.15 219.896 2097.15 215.938 Q2097.15 211.354 2100.37 208.715 Q2103.61 206.076 2109.28 206.076 Q2111.71 206.076 2114.24 206.516 Q2116.76 206.956 2119.4 207.836 Z" fill="#000000" fill-rule="nonzero" fill-opacity="1"></path><path clip-path="url(#clip680)" d="M2150.76 227.234 L2150.76 229.317 L2131.18 229.317 Q2131.46 233.715 2133.82 236.03 Q2136.2 238.322 2140.44 238.322 Q2142.89 238.322 2145.18 237.72 Q2147.5 237.118 2149.77 235.914 L2149.77 239.942 Q2147.48 240.914 2145.07 241.423 Q2142.66 241.933 2140.18 241.933 Q2133.98 241.933 2130.35 238.322 Q2126.74 234.711 2126.74 228.553 Q2126.74 222.187 2130.16 218.461 Q2133.61 214.711 2139.44 214.711 Q2144.67 214.711 2147.71 218.09 Q2150.76 221.447 2150.76 227.234 M2146.5 225.984 Q2146.46 222.488 2144.54 220.405 Q2142.64 218.322 2139.49 218.322 Q2135.92 218.322 2133.77 220.336 Q2131.64 222.35 2131.32 226.007 L2146.5 225.984 Z" fill="#000000" fill-rule="nonzero" fill-opacity="1"></path><path clip-path="url(#clip680)" d="M2172.78 219.317 Q2172.06 218.9 2171.2 218.715 Q2170.37 218.507 2169.35 218.507 Q2165.74 218.507 2163.8 220.868 Q2161.87 223.206 2161.87 227.604 L2161.87 241.261 L2157.59 241.261 L2157.59 215.336 L2161.87 215.336 L2161.87 219.363 Q2163.22 217.002 2165.37 215.868 Q2167.52 214.711 2170.6 214.711 Q2171.04 214.711 2171.57 214.78 Q2172.11 214.826 2172.75 214.942 L2172.78 219.317 Z" fill="#000000" fill-rule="nonzero" fill-opacity="1"></path><path clip-path="url(#clip680)" d="M2177.24 215.336 L2181.5 215.336 L2181.5 241.261 L2177.24 241.261 L2177.24 215.336 M2177.24 205.243 L2181.5 205.243 L2181.5 210.637 L2177.24 210.637 L2177.24 205.243 Z" fill="#000000" fill-rule="nonzero" fill-opacity="1"></path><path clip-path="url(#clip680)" d="M2212.59 227.234 L2212.59 229.317 L2193.01 229.317 Q2193.29 233.715 2195.65 236.03 Q2198.03 238.322 2202.27 238.322 Q2204.72 238.322 2207.01 237.72 Q2209.33 237.118 2211.6 235.914 L2211.6 239.942 Q2209.3 240.914 2206.9 241.423 Q2204.49 241.933 2202.01 241.933 Q2195.81 241.933 2192.17 238.322 Q2188.56 234.711 2188.56 228.553 Q2188.56 222.187 2191.99 218.461 Q2195.44 214.711 2201.27 214.711 Q2206.5 214.711 2209.54 218.09 Q2212.59 221.447 2212.59 227.234 M2208.33 225.984 Q2208.29 222.488 2206.36 220.405 Q2204.47 218.322 2201.32 218.322 Q2197.75 218.322 2195.6 220.336 Q2193.47 222.35 2193.15 226.007 L2208.33 225.984 Z" fill="#000000" fill-rule="nonzero" fill-opacity="1"></path><path clip-path="url(#clip680)" d="M2236.06 237.326 L2243.7 237.326 L2243.7 210.961 L2235.39 212.627 L2235.39 208.368 L2243.66 206.701 L2248.33 206.701 L2248.33 237.326 L2255.97 237.326 L2255.97 241.261 L2236.06 241.261 L2236.06 237.326 Z" fill="#000000" fill-rule="nonzero" fill-opacity="1"></path><polyline clip-path="url(#clip680)" style="stroke:#e26f46; stroke-linecap:round; stroke-linejoin:round; stroke-width:4; stroke-opacity:1; fill:none" points="1928.79,275.821 2073.1,275.821 "></polyline>
<path clip-path="url(#clip680)" d="M2119.4 259.676 L2119.4 264.236 Q2116.74 262.963 2114.37 262.338 Q2112.01 261.713 2109.81 261.713 Q2105.99 261.713 2103.91 263.194 Q2101.85 264.676 2101.85 267.407 Q2101.85 269.699 2103.22 270.879 Q2104.61 272.037 2108.45 272.754 L2111.27 273.333 Q2116.5 274.328 2118.98 276.852 Q2121.48 279.352 2121.48 283.564 Q2121.48 288.588 2118.1 291.18 Q2114.74 293.773 2108.24 293.773 Q2105.79 293.773 2103.01 293.217 Q2100.25 292.662 2097.29 291.574 L2097.29 286.759 Q2100.14 288.356 2102.87 289.166 Q2105.6 289.976 2108.24 289.976 Q2112.24 289.976 2114.42 288.402 Q2116.6 286.828 2116.6 283.912 Q2116.6 281.365 2115.02 279.93 Q2113.47 278.495 2109.91 277.777 L2107.06 277.222 Q2101.83 276.18 2099.49 273.958 Q2097.15 271.736 2097.15 267.778 Q2097.15 263.194 2100.37 260.555 Q2103.61 257.916 2109.28 257.916 Q2111.71 257.916 2114.24 258.356 Q2116.76 258.796 2119.4 259.676 Z" fill="#000000" fill-rule="nonzero" fill-opacity="1"></path><path clip-path="url(#clip680)" d="M2150.76 279.074 L2150.76 281.157 L2131.18 281.157 Q2131.46 285.555 2133.82 287.87 Q2136.2 290.162 2140.44 290.162 Q2142.89 290.162 2145.18 289.56 Q2147.5 288.958 2149.77 287.754 L2149.77 291.782 Q2147.48 292.754 2145.07 293.263 Q2142.66 293.773 2140.18 293.773 Q2133.98 293.773 2130.35 290.162 Q2126.74 286.551 2126.74 280.393 Q2126.74 274.027 2130.16 270.301 Q2133.61 266.551 2139.44 266.551 Q2144.67 266.551 2147.71 269.93 Q2150.76 273.287 2150.76 279.074 M2146.5 277.824 Q2146.46 274.328 2144.54 272.245 Q2142.64 270.162 2139.49 270.162 Q2135.92 270.162 2133.77 272.176 Q2131.64 274.19 2131.32 277.847 L2146.5 277.824 Z" fill="#000000" fill-rule="nonzero" fill-opacity="1"></path><path clip-path="url(#clip680)" d="M2172.78 271.157 Q2172.06 270.74 2171.2 270.555 Q2170.37 270.347 2169.35 270.347 Q2165.74 270.347 2163.8 272.708 Q2161.87 275.046 2161.87 279.444 L2161.87 293.101 L2157.59 293.101 L2157.59 267.176 L2161.87 267.176 L2161.87 271.203 Q2163.22 268.842 2165.37 267.708 Q2167.52 266.551 2170.6 266.551 Q2171.04 266.551 2171.57 266.62 Q2172.11 266.666 2172.75 266.782 L2172.78 271.157 Z" fill="#000000" fill-rule="nonzero" fill-opacity="1"></path><path clip-path="url(#clip680)" d="M2177.24 267.176 L2181.5 267.176 L2181.5 293.101 L2177.24 293.101 L2177.24 267.176 M2177.24 257.083 L2181.5 257.083 L2181.5 262.477 L2177.24 262.477 L2177.24 257.083 Z" fill="#000000" fill-rule="nonzero" fill-opacity="1"></path><path clip-path="url(#clip680)" d="M2212.59 279.074 L2212.59 281.157 L2193.01 281.157 Q2193.29 285.555 2195.65 287.87 Q2198.03 290.162 2202.27 290.162 Q2204.72 290.162 2207.01 289.56 Q2209.33 288.958 2211.6 287.754 L2211.6 291.782 Q2209.3 292.754 2206.9 293.263 Q2204.49 293.773 2202.01 293.773 Q2195.81 293.773 2192.17 290.162 Q2188.56 286.551 2188.56 280.393 Q2188.56 274.027 2191.99 270.301 Q2195.44 266.551 2201.27 266.551 Q2206.5 266.551 2209.54 269.93 Q2212.59 273.287 2212.59 279.074 M2208.33 277.824 Q2208.29 274.328 2206.36 272.245 Q2204.47 270.162 2201.32 270.162 Q2197.75 270.162 2195.6 272.176 Q2193.47 274.19 2193.15 277.847 L2208.33 277.824 Z" fill="#000000" fill-rule="nonzero" fill-opacity="1"></path><path clip-path="url(#clip680)" d="M2239.28 289.166 L2255.6 289.166 L2255.6 293.101 L2233.66 293.101 L2233.66 289.166 Q2236.32 286.412 2240.9 281.782 Q2245.51 277.129 2246.69 275.787 Q2248.93 273.264 2249.81 271.527 Q2250.72 269.768 2250.72 268.078 Q2250.72 265.324 2248.77 263.588 Q2246.85 261.852 2243.75 261.852 Q2241.55 261.852 2239.1 262.615 Q2236.67 263.379 2233.89 264.93 L2233.89 260.208 Q2236.71 259.074 2239.16 258.495 Q2241.62 257.916 2243.66 257.916 Q2249.03 257.916 2252.22 260.602 Q2255.41 263.287 2255.41 267.778 Q2255.41 269.907 2254.6 271.828 Q2253.82 273.727 2251.71 276.319 Q2251.13 276.99 2248.03 280.208 Q2244.93 283.402 2239.28 289.166 Z" fill="#000000" fill-rule="nonzero" fill-opacity="1"></path><polyline clip-path="url(#clip680)" style="stroke:#3da44d; stroke-linecap:round; stroke-linejoin:round; stroke-width:4; stroke-opacity:1; fill:none" points="1928.79,327.661 2073.1,327.661 "></polyline>
<path clip-path="url(#clip680)" d="M2119.4 311.516 L2119.4 316.076 Q2116.74 314.803 2114.37 314.178 Q2112.01 313.553 2109.81 313.553 Q2105.99 313.553 2103.91 315.034 Q2101.85 316.516 2101.85 319.247 Q2101.85 321.539 2103.22 322.719 Q2104.61 323.877 2108.45 324.594 L2111.27 325.173 Q2116.5 326.168 2118.98 328.692 Q2121.48 331.192 2121.48 335.404 Q2121.48 340.428 2118.1 343.02 Q2114.74 345.613 2108.24 345.613 Q2105.79 345.613 2103.01 345.057 Q2100.25 344.502 2097.29 343.414 L2097.29 338.599 Q2100.14 340.196 2102.87 341.006 Q2105.6 341.816 2108.24 341.816 Q2112.24 341.816 2114.42 340.242 Q2116.6 338.668 2116.6 335.752 Q2116.6 333.205 2115.02 331.77 Q2113.47 330.335 2109.91 329.617 L2107.06 329.062 Q2101.83 328.02 2099.49 325.798 Q2097.15 323.576 2097.15 319.618 Q2097.15 315.034 2100.37 312.395 Q2103.61 309.756 2109.28 309.756 Q2111.71 309.756 2114.24 310.196 Q2116.76 310.636 2119.4 311.516 Z" fill="#000000" fill-rule="nonzero" fill-opacity="1"></path><path clip-path="url(#clip680)" d="M2150.76 330.914 L2150.76 332.997 L2131.18 332.997 Q2131.46 337.395 2133.82 339.71 Q2136.2 342.002 2140.44 342.002 Q2142.89 342.002 2145.18 341.4 Q2147.5 340.798 2149.77 339.594 L2149.77 343.622 Q2147.48 344.594 2145.07 345.103 Q2142.66 345.613 2140.18 345.613 Q2133.98 345.613 2130.35 342.002 Q2126.74 338.391 2126.74 332.233 Q2126.74 325.867 2130.16 322.141 Q2133.61 318.391 2139.44 318.391 Q2144.67 318.391 2147.71 321.77 Q2150.76 325.127 2150.76 330.914 M2146.5 329.664 Q2146.46 326.168 2144.54 324.085 Q2142.64 322.002 2139.49 322.002 Q2135.92 322.002 2133.77 324.016 Q2131.64 326.03 2131.32 329.687 L2146.5 329.664 Z" fill="#000000" fill-rule="nonzero" fill-opacity="1"></path><path clip-path="url(#clip680)" d="M2172.78 322.997 Q2172.06 322.58 2171.2 322.395 Q2170.37 322.187 2169.35 322.187 Q2165.74 322.187 2163.8 324.548 Q2161.87 326.886 2161.87 331.284 L2161.87 344.941 L2157.59 344.941 L2157.59 319.016 L2161.87 319.016 L2161.87 323.043 Q2163.22 320.682 2165.37 319.548 Q2167.52 318.391 2170.6 318.391 Q2171.04 318.391 2171.57 318.46 Q2172.11 318.506 2172.75 318.622 L2172.78 322.997 Z" fill="#000000" fill-rule="nonzero" fill-opacity="1"></path><path clip-path="url(#clip680)" d="M2177.24 319.016 L2181.5 319.016 L2181.5 344.941 L2177.24 344.941 L2177.24 319.016 M2177.24 308.923 L2181.5 308.923 L2181.5 314.317 L2177.24 314.317 L2177.24 308.923 Z" fill="#000000" fill-rule="nonzero" fill-opacity="1"></path><path clip-path="url(#clip680)" d="M2212.59 330.914 L2212.59 332.997 L2193.01 332.997 Q2193.29 337.395 2195.65 339.71 Q2198.03 342.002 2202.27 342.002 Q2204.72 342.002 2207.01 341.4 Q2209.33 340.798 2211.6 339.594 L2211.6 343.622 Q2209.3 344.594 2206.9 345.103 Q2204.49 345.613 2202.01 345.613 Q2195.81 345.613 2192.17 342.002 Q2188.56 338.391 2188.56 332.233 Q2188.56 325.867 2191.99 322.141 Q2195.44 318.391 2201.27 318.391 Q2206.5 318.391 2209.54 321.77 Q2212.59 325.127 2212.59 330.914 M2208.33 329.664 Q2208.29 326.168 2206.36 324.085 Q2204.47 322.002 2201.32 322.002 Q2197.75 322.002 2195.6 324.016 Q2193.47 326.03 2193.15 329.687 L2208.33 329.664 Z" fill="#000000" fill-rule="nonzero" fill-opacity="1"></path><path clip-path="url(#clip680)" d="M2249.42 326.307 Q2252.78 327.025 2254.65 329.293 Q2256.55 331.562 2256.55 334.895 Q2256.55 340.011 2253.03 342.812 Q2249.51 345.613 2243.03 345.613 Q2240.85 345.613 2238.54 345.173 Q2236.25 344.756 2233.79 343.9 L2233.79 339.386 Q2235.74 340.52 2238.05 341.099 Q2240.37 341.678 2242.89 341.678 Q2247.29 341.678 2249.58 339.941 Q2251.9 338.205 2251.9 334.895 Q2251.9 331.84 2249.74 330.127 Q2247.61 328.391 2243.79 328.391 L2239.77 328.391 L2239.77 324.548 L2243.98 324.548 Q2247.43 324.548 2249.26 323.182 Q2251.09 321.793 2251.09 319.201 Q2251.09 316.539 2249.19 315.127 Q2247.31 313.692 2243.79 313.692 Q2241.87 313.692 2239.67 314.108 Q2237.48 314.525 2234.84 315.405 L2234.84 311.238 Q2237.5 310.497 2239.81 310.127 Q2242.15 309.756 2244.21 309.756 Q2249.54 309.756 2252.64 312.187 Q2255.74 314.594 2255.74 318.715 Q2255.74 321.585 2254.1 323.576 Q2252.45 325.543 2249.42 326.307 Z" fill="#000000" fill-rule="nonzero" fill-opacity="1"></path><path clip-path="url(#clip680)" d="M188.104 80 L2352.76 80 L2352.76 0 L188.104 0  Z" fill="#ffffff" fill-rule="evenodd" fill-opacity="1"></path>
<defs>
  <clipPath id="clip683">
    <rect x="188" y="0" width="2166" height="81"></rect>
  </clipPath>
</defs>
<path clip-path="url(#clip680)" d="M934.575 23.0369 L921.89 57.4349 L947.307 57.4349 L934.575 23.0369 M929.298 13.824 L939.899 13.824 L966.242 82.944 L956.52 82.944 L950.223 65.2126 L919.066 65.2126 L912.77 82.944 L902.909 82.944 L929.298 13.824 Z" fill="#000000" fill-rule="nonzero" fill-opacity="1"></path><path clip-path="url(#clip680)" d="M975.084 62.4811 L975.084 31.0924 L983.603 31.0924 L983.603 62.1571 Q983.603 69.5181 986.473 73.2218 Q989.344 76.8792 995.084 76.8792 Q1001.98 76.8792 1005.96 72.4811 Q1009.99 68.083 1009.99 60.4904 L1009.99 31.0924 L1018.51 31.0924 L1018.51 82.944 L1009.99 82.944 L1009.99 74.9811 Q1006.89 79.7033 1002.77 82.0181 Q998.695 84.2866 993.279 84.2866 Q984.344 84.2866 979.714 78.7311 Q975.084 73.1755 975.084 62.4811 M996.519 29.8424 L996.519 29.8424 Z" fill="#000000" fill-rule="nonzero" fill-opacity="1"></path><path clip-path="url(#clip680)" d="M1044.48 16.3703 L1044.48 31.0924 L1062.03 31.0924 L1062.03 37.7128 L1044.48 37.7128 L1044.48 65.8608 Q1044.48 72.2033 1046.2 74.0089 Q1047.95 75.8144 1053.28 75.8144 L1062.03 75.8144 L1062.03 82.944 L1053.28 82.944 Q1043.42 82.944 1039.67 79.2866 Q1035.92 75.5829 1035.92 65.8608 L1035.92 37.7128 L1029.67 37.7128 L1029.67 31.0924 L1035.92 31.0924 L1035.92 16.3703 L1044.48 16.3703 Z" fill="#000000" fill-rule="nonzero" fill-opacity="1"></path><path clip-path="url(#clip680)" d="M1093.32 37.0646 Q1086.47 37.0646 1082.49 42.435 Q1078.51 47.759 1078.51 57.0645 Q1078.51 66.37 1082.44 71.7404 Q1086.43 77.0644 1093.32 77.0644 Q1100.13 77.0644 1104.11 71.6941 Q1108.09 66.3237 1108.09 57.0645 Q1108.09 47.8516 1104.11 42.4813 Q1100.13 37.0646 1093.32 37.0646 M1093.32 29.8424 Q1104.44 29.8424 1110.78 37.0646 Q1117.12 44.2868 1117.12 57.0645 Q1117.12 69.7959 1110.78 77.0644 Q1104.44 84.2866 1093.32 84.2866 Q1082.17 84.2866 1075.82 77.0644 Q1069.53 69.7959 1069.53 57.0645 Q1069.53 44.2868 1075.82 37.0646 Q1082.17 29.8424 1093.32 29.8424 Z" fill="#000000" fill-rule="nonzero" fill-opacity="1"></path><path clip-path="url(#clip680)" d="M1168.56 33.0832 L1168.56 41.0461 Q1164.94 39.0553 1161.29 38.0831 Q1157.68 37.0646 1153.97 37.0646 Q1145.69 37.0646 1141.1 42.3424 Q1136.52 47.5738 1136.52 57.0645 Q1136.52 66.5552 1141.1 71.8329 Q1145.69 77.0644 1153.97 77.0644 Q1157.68 77.0644 1161.29 76.0922 Q1164.94 75.0737 1168.56 73.0829 L1168.56 80.9533 Q1164.99 82.6199 1161.15 83.4533 Q1157.35 84.2866 1153.05 84.2866 Q1141.33 84.2866 1134.44 76.9255 Q1127.54 69.5644 1127.54 57.0645 Q1127.54 44.3794 1134.48 37.1109 Q1141.47 29.8424 1153.6 29.8424 Q1157.54 29.8424 1161.29 30.6758 Q1165.04 31.4628 1168.56 33.0832 Z" fill="#000000" fill-rule="nonzero" fill-opacity="1"></path><path clip-path="url(#clip680)" d="M1203.46 37.0646 Q1196.61 37.0646 1192.63 42.435 Q1188.65 47.759 1188.65 57.0645 Q1188.65 66.37 1192.58 71.7404 Q1196.56 77.0644 1203.46 77.0644 Q1210.27 77.0644 1214.25 71.6941 Q1218.23 66.3237 1218.23 57.0645 Q1218.23 47.8516 1214.25 42.4813 Q1210.27 37.0646 1203.46 37.0646 M1203.46 29.8424 Q1214.57 29.8424 1220.92 37.0646 Q1227.26 44.2868 1227.26 57.0645 Q1227.26 69.7959 1220.92 77.0644 Q1214.57 84.2866 1203.46 84.2866 Q1192.31 84.2866 1185.96 77.0644 Q1179.67 69.7959 1179.67 57.0645 Q1179.67 44.2868 1185.96 37.0646 Q1192.31 29.8424 1203.46 29.8424 Z" fill="#000000" fill-rule="nonzero" fill-opacity="1"></path><path clip-path="url(#clip680)" d="M1271.43 39.0553 Q1269.99 38.222 1268.28 37.8516 Q1266.61 37.435 1264.57 37.435 Q1257.35 37.435 1253.46 42.1572 Q1249.62 46.8331 1249.62 55.6293 L1249.62 82.944 L1241.06 82.944 L1241.06 31.0924 L1249.62 31.0924 L1249.62 39.1479 Q1252.31 34.4257 1256.61 32.1572 Q1260.92 29.8424 1267.07 29.8424 Q1267.95 29.8424 1269.02 29.9813 Q1270.08 30.0739 1271.38 30.3054 L1271.43 39.0553 Z" fill="#000000" fill-rule="nonzero" fill-opacity="1"></path><path clip-path="url(#clip680)" d="M1308.74 39.0553 Q1307.3 38.222 1305.59 37.8516 Q1303.93 37.435 1301.89 37.435 Q1294.67 37.435 1290.78 42.1572 Q1286.93 46.8331 1286.93 55.6293 L1286.93 82.944 L1278.37 82.944 L1278.37 31.0924 L1286.93 31.0924 L1286.93 39.1479 Q1289.62 34.4257 1293.93 32.1572 Q1298.23 29.8424 1304.39 29.8424 Q1305.27 29.8424 1306.33 29.9813 Q1307.4 30.0739 1308.69 30.3054 L1308.74 39.0553 Z" fill="#000000" fill-rule="nonzero" fill-opacity="1"></path><path clip-path="url(#clip680)" d="M1359.94 54.8886 L1359.94 59.0552 L1320.78 59.0552 Q1321.33 67.8515 1326.05 72.4811 Q1330.82 77.0644 1339.3 77.0644 Q1344.2 77.0644 1348.79 75.8607 Q1353.42 74.657 1357.95 72.2496 L1357.95 80.3051 Q1353.37 82.2496 1348.55 83.2681 Q1343.74 84.2866 1338.79 84.2866 Q1326.38 84.2866 1319.11 77.0644 Q1311.89 69.8422 1311.89 57.5275 Q1311.89 44.7961 1318.74 37.3424 Q1325.64 29.8424 1337.3 29.8424 Q1347.77 29.8424 1353.83 36.6017 Q1359.94 43.3146 1359.94 54.8886 M1351.42 52.3886 Q1351.33 45.3979 1347.49 41.2313 Q1343.69 37.0646 1337.4 37.0646 Q1330.27 37.0646 1325.96 41.0924 Q1321.7 45.1201 1321.05 52.4349 L1351.42 52.3886 Z" fill="#000000" fill-rule="nonzero" fill-opacity="1"></path><path clip-path="url(#clip680)" d="M1373.92 10.9073 L1382.44 10.9073 L1382.44 82.944 L1373.92 82.944 L1373.92 10.9073 Z" fill="#000000" fill-rule="nonzero" fill-opacity="1"></path><path clip-path="url(#clip680)" d="M1423.83 56.8793 Q1413.51 56.8793 1409.53 59.2404 Q1405.55 61.6015 1405.55 67.2959 Q1405.55 71.8329 1408.51 74.5181 Q1411.52 77.157 1416.66 77.157 Q1423.74 77.157 1428 72.157 Q1432.3 67.1108 1432.3 58.7775 L1432.3 56.8793 L1423.83 56.8793 M1440.82 53.3608 L1440.82 82.944 L1432.3 82.944 L1432.3 75.0737 Q1429.39 79.7959 1425.04 82.0644 Q1420.68 84.2866 1414.39 84.2866 Q1406.42 84.2866 1401.7 79.8422 Q1397.03 75.3514 1397.03 67.8515 Q1397.03 59.1015 1402.86 54.6571 Q1408.74 50.2127 1420.36 50.2127 L1432.3 50.2127 L1432.3 49.3794 Q1432.3 43.4998 1428.42 40.3053 Q1424.57 37.0646 1417.58 37.0646 Q1413.14 37.0646 1408.92 38.1294 Q1404.71 39.1942 1400.82 41.3239 L1400.82 33.4535 Q1405.5 31.648 1409.9 30.7684 Q1414.29 29.8424 1418.46 29.8424 Q1429.71 29.8424 1435.27 35.6757 Q1440.82 41.509 1440.82 53.3608 Z" fill="#000000" fill-rule="nonzero" fill-opacity="1"></path><path clip-path="url(#clip680)" d="M1495.68 33.0832 L1495.68 41.0461 Q1492.07 39.0553 1488.41 38.0831 Q1484.8 37.0646 1481.1 37.0646 Q1472.81 37.0646 1468.23 42.3424 Q1463.65 47.5738 1463.65 57.0645 Q1463.65 66.5552 1468.23 71.8329 Q1472.81 77.0644 1481.1 77.0644 Q1484.8 77.0644 1488.41 76.0922 Q1492.07 75.0737 1495.68 73.0829 L1495.68 80.9533 Q1492.12 82.6199 1488.28 83.4533 Q1484.48 84.2866 1480.17 84.2866 Q1468.46 84.2866 1461.56 76.9255 Q1454.67 69.5644 1454.67 57.0645 Q1454.67 44.3794 1461.61 37.1109 Q1468.6 29.8424 1480.73 29.8424 Q1484.66 29.8424 1488.41 30.6758 Q1492.16 31.4628 1495.68 33.0832 Z" fill="#000000" fill-rule="nonzero" fill-opacity="1"></path><path clip-path="url(#clip680)" d="M1510.5 31.0924 L1519.02 31.0924 L1519.02 82.944 L1510.5 82.944 L1510.5 31.0924 M1510.5 10.9073 L1519.02 10.9073 L1519.02 21.6943 L1510.5 21.6943 L1510.5 10.9073 Z" fill="#000000" fill-rule="nonzero" fill-opacity="1"></path><path clip-path="url(#clip680)" d="M1556.93 37.0646 Q1550.08 37.0646 1546.1 42.435 Q1542.12 47.759 1542.12 57.0645 Q1542.12 66.37 1546.05 71.7404 Q1550.04 77.0644 1556.93 77.0644 Q1563.74 77.0644 1567.72 71.6941 Q1571.7 66.3237 1571.7 57.0645 Q1571.7 47.8516 1567.72 42.4813 Q1563.74 37.0646 1556.93 37.0646 M1556.93 29.8424 Q1568.04 29.8424 1574.39 37.0646 Q1580.73 44.2868 1580.73 57.0645 Q1580.73 69.7959 1574.39 77.0644 Q1568.04 84.2866 1556.93 84.2866 Q1545.78 84.2866 1539.43 77.0644 Q1533.14 69.7959 1533.14 57.0645 Q1533.14 44.2868 1539.43 37.0646 Q1545.78 29.8424 1556.93 29.8424 M1563.37 7.11107 L1572.58 7.11107 L1557.49 24.5184 L1550.41 24.5184 L1563.37 7.11107 Z" fill="#000000" fill-rule="nonzero" fill-opacity="1"></path><path clip-path="url(#clip680)" d="M1637.95 51.6479 L1637.95 82.944 L1629.43 82.944 L1629.43 51.9256 Q1629.43 44.5646 1626.56 40.9072 Q1623.69 37.2498 1617.95 37.2498 Q1611.05 37.2498 1607.07 41.6479 Q1603.09 46.046 1603.09 53.6386 L1603.09 82.944 L1594.53 82.944 L1594.53 31.0924 L1603.09 31.0924 L1603.09 39.1479 Q1606.15 34.472 1610.27 32.1572 Q1614.43 29.8424 1619.85 29.8424 Q1628.78 29.8424 1633.37 35.398 Q1637.95 40.9072 1637.95 51.6479 Z" fill="#000000" fill-rule="nonzero" fill-opacity="1"></path></svg>